<?xml version="1.0" standalone="no"?>
<!DOCTYPE svg PUBLIC "-//W3C//DTD SVG 1.1//EN" "http://www.w3.org/Graphics/SVG/1.1/DTD/svg11.dtd" >
<svg xmlns="http://www.w3.org/2000/svg" xmlns:xlink="http://www.w3.org/1999/xlink" version="1.1">
<metadata>
Created by FontForge 20190801 at Fri Jul 21 17:34:26 2017
 By Unknown
Copyright (c) 2013 by Type Dynamic. All rights reserved.
</metadata>
<defs>
<font id="Larsseit-Medium" horiz-adv-x="607" >
  <font-face 
    font-family="Larsseit Medium"
    font-weight="500"
    font-stretch="normal"
    units-per-em="1000"
    panose-1="0 0 6 0 0 0 0 0 0 0"
    ascent="800"
    descent="-200"
    x-height="506"
    cap-height="700"
    bbox="-190 -287 3058 1006"
    underline-thickness="50"
    underline-position="-100"
    unicode-range="U+0020-FB01"
  />
<missing-glyph horiz-adv-x="592" 
d="M531 700v-700h-470v700h470zM144 641l151 -240l151 240h-302zM328 346l145 -228v456zM120 123l140 223l-140 223v-446zM148 59h294l-147 232z" />
    <glyph glyph-name="fi" unicode="fi" horiz-adv-x="590" 
d="M261 740q36 0 62 -11v-95q-27 12 -57 12q-59 0 -59 -77v-63h116v-97h-116v-409h-107v409h-89v97h89v66q0 81 41.5 124.5t119.5 43.5zM462 725q29 0 49 -20t20 -48t-20 -47t-49 -19t-48.5 19t-19.5 47q0 29 20 48.5t48 19.5zM515 0h-106v506h106v-506z" />
    <glyph glyph-name="f_j" unicode="fj" horiz-adv-x="590" 
d="M261 740q36 0 62 -11v-95q-27 12 -57 12q-59 0 -59 -77v-63h116v-97h-116v-409h-107v409h-89v97h89v66q0 81 41.5 124.5t119.5 43.5zM462 725q29 0 49 -20t20 -48t-20 -47t-49 -19t-48.5 19t-19.5 47q0 29 20 48.5t48 19.5zM515 -40q0 -186 -160 -186q-46 0 -73 9v96
q23 -9 55 -9q40 0 56 22.5t16 69.5v544h106v-546z" />
    <glyph glyph-name=".notdef" horiz-adv-x="592" 
d="M531 700v-700h-470v700h470zM144 641l151 -240l151 240h-302zM328 346l145 -228v456zM120 123l140 223l-140 223v-446zM148 59h294l-147 232z" />
    <glyph glyph-name=".null" horiz-adv-x="0" 
 />
    <glyph glyph-name="nonmarkingreturn" horiz-adv-x="333" 
 />
    <glyph glyph-name="space" unicode=" " horiz-adv-x="200" 
 />
    <glyph glyph-name="exclam" unicode="!" horiz-adv-x="254" 
d="M180 206h-106v494h106v-494zM127 128q30 0 50.5 -20t20.5 -50q0 -29 -20.5 -49t-50.5 -20t-50.5 20t-20.5 49q0 30 20.5 50t50.5 20z" />
    <glyph glyph-name="quotedbl" unicode="&#x22;" horiz-adv-x="330" 
d="M280 514h-69l-8 214h100zM111 514h-69l-8 214h100z" />
    <glyph glyph-name="numbersign" unicode="#" horiz-adv-x="665" 
d="M651 452h-125l-32 -185h111v-98h-128l-30 -169h-106l30 169h-143l-30 -169h-105l29 169h-108v98h125l33 185h-112v98h129l27 150h105l-26 -150h143l26 150h106l-26 -150h107v-98zM388 267l33 185h-143l-33 -185h143z" />
    <glyph glyph-name="dollar" unicode="$" horiz-adv-x="552" 
d="M508 194q0 -87 -51.5 -141t-135.5 -64v-93h-81v94q-93 12 -143 70.5t-52 149.5h113q2 -60 35 -92t92 -32q53 0 81.5 27.5t28.5 72.5q0 40 -31 65.5t-106 51.5q-99 34 -146.5 80.5t-47.5 128.5q0 80 47 134.5t129 64.5v93h81v-94q76 -12 119.5 -63t46.5 -137h-113
q-1 49 -29 76t-73 27q-44 0 -69.5 -24.5t-25.5 -67.5t28 -65.5t103 -50.5q109 -38 154.5 -85.5t45.5 -125.5z" />
    <glyph glyph-name="percent" unicode="%" horiz-adv-x="846" 
d="M199 713q73 0 122 -50t49 -126q0 -75 -49 -125t-122 -50q-75 0 -124 49.5t-49 125.5t49 126t124 50zM272 0h-99l401 700h98zM198 629q-37 0 -60.5 -26t-23.5 -66q0 -39 24 -65t60 -26t60 26t24 65q0 40 -23.5 66t-60.5 26zM648 338q73 0 122 -50.5t49 -126.5
q0 -75 -49 -124.5t-122 -49.5q-74 0 -123.5 49.5t-49.5 124.5q0 76 49.5 126.5t123.5 50.5zM647 254q-36 0 -60 -26.5t-24 -65.5t23.5 -65t60.5 -26t60.5 26t23.5 65t-24 65.5t-60 26.5z" />
    <glyph glyph-name="ampersand" unicode="&#x26;" horiz-adv-x="654" 
d="M666 0h-144l-49 54q-79 -67 -192 -67q-114 0 -179.5 53.5t-65.5 146.5q0 67 34.5 109.5t97.5 79.5l6 4l-16 18q-65 71 -65 146q0 74 50.5 121.5t137.5 47.5q83 0 136 -45t53 -121q0 -36 -10.5 -64.5t-32.5 -51t-41 -36t-52 -32.5l-1 -1l127 -138l6 27q10 58 0 113l102 5
q12 -66 2 -132q-9 -52 -31 -98zM254 448l14 -14l1 1q3 2 14.5 8.5t15 9t13 8.5t13.5 9.5t11 10.5t10 12.5t6.5 13t5 16t1.5 18.5q0 34 -21 55.5t-55 21.5t-57 -20.5t-23 -54.5q0 -19 9 -37.5t16.5 -28t25.5 -29.5zM285 82q73 0 121 45l-166 181h-1q-45 -26 -67.5 -52.5
t-22.5 -65.5q0 -53 37 -80.5t99 -27.5z" />
    <glyph glyph-name="quotesingle" unicode="'" horiz-adv-x="161" 
d="M111 514h-69l-8 214h100z" />
    <glyph glyph-name="parenleft" unicode="(" horiz-adv-x="282" 
d="M274 687q-68 -87 -98.5 -170.5t-30.5 -195.5t30.5 -195.5t98.5 -170.5l-76 -52q-76 94 -115 193t-39 225t39 225t115 193z" />
    <glyph glyph-name="parenright" unicode=")" horiz-adv-x="282" 
d="M84 739q75 -95 114.5 -193.5t39.5 -224.5t-39.5 -224.5t-114.5 -193.5l-76 52q68 87 98.5 170.5t30.5 195.5t-30.5 195.5t-98.5 170.5z" />
    <glyph glyph-name="asterisk" unicode="*" horiz-adv-x="354" 
d="M212 620l108 40l25 -73l-111 -34l72 -94l-62 -45l-67 96l-66 -96l-62 45l70 92l-111 35l24 73l109 -39l-3 118h77z" />
    <glyph glyph-name="plus" unicode="+" horiz-adv-x="470" 
d="M283 397h158v-94h-158v-159h-96v159h-158v94h158v159h96v-159z" />
    <glyph glyph-name="comma" unicode="," horiz-adv-x="206" 
d="M103 125q29 0 48.5 -20t19.5 -54q0 -46 -22 -95.5t-56 -87.5l-32 12q27 49 33 114q-26 3 -42.5 20.5t-16.5 43.5q0 28 19.5 47.5t48.5 19.5z" />
    <glyph glyph-name="hyphen" unicode="-" horiz-adv-x="363" 
d="M339 213h-315v93h315v-93z" />
    <glyph glyph-name="period" unicode="." horiz-adv-x="209" 
d="M104 128q30 0 50.5 -20t20.5 -50q0 -29 -20.5 -49t-50.5 -20t-50 20t-20 49q0 31 20 50.5t50 19.5z" />
    <glyph glyph-name="slash" unicode="/" horiz-adv-x="396" 
d="M108 0h-104l283 700h105z" />
    <glyph glyph-name="zero" unicode="0" horiz-adv-x="562" 
d="M281 713q115 0 178 -97t63 -265q0 -169 -63 -266.5t-178 -97.5t-178 97.5t-63 266.5q0 168 63 265t178 97zM281 609q-63 0 -95.5 -68t-32.5 -190q0 -123 32.5 -191.5t95.5 -68.5t95 68.5t32 191.5q0 122 -32 190t-95 68z" />
    <glyph glyph-name="one" unicode="1" horiz-adv-x="359" 
d="M288 0h-112v513h-148v95q82 0 122.5 20t52.5 72h85v-700z" />
    <glyph glyph-name="two" unicode="2" horiz-adv-x="490" 
d="M250 713q97 0 149 -53.5t52 -144.5q0 -57 -22 -104t-64 -100l-164 -207h257v-104h-412v82l221 271q39 47 55 81t16 76q0 99 -90 99q-44 0 -70 -29t-25 -87h-112q-1 101 56 160.5t153 59.5z" />
    <glyph glyph-name="three" unicode="3" horiz-adv-x="536" 
d="M262 713q96 0 151 -56.5t55 -143.5q0 -59 -27.5 -97t-66.5 -52q50 -14 84 -57t34 -112q0 -94 -62 -151t-163 -57q-105 0 -166 58t-61 162h111q1 -58 33.5 -87t85.5 -29q49 0 79 29.5t30 78.5q0 56 -38 85t-107 29h-31v97h29q64 0 93.5 24t29.5 75q0 47 -24 73.5t-68 26.5
q-43 0 -70 -28t-27 -84h-112q0 100 56.5 158t151.5 58z" />
    <glyph glyph-name="four" unicode="4" horiz-adv-x="554" 
d="M430 236h94v-101h-94v-135h-112v135h-293v91l269 474h136v-464zM300 510l-156 -275h176v317z" />
    <glyph glyph-name="five" unicode="5" horiz-adv-x="535" 
d="M464 596h-278v-175q42 23 106 23q93 0 150.5 -57t57.5 -162q0 -107 -60.5 -172.5t-164.5 -65.5q-103 0 -162 54t-59 156h111q1 -53 30.5 -79.5t80.5 -26.5q54 0 83 35.5t29 93.5t-30 90.5t-85 32.5q-57 0 -100 -29h-99v386h390v-104z" />
    <glyph glyph-name="six" unicode="6" horiz-adv-x="550" 
d="M296 436q99 0 157 -61.5t58 -157.5q0 -103 -62 -166.5t-162 -63.5q-109 0 -171 71q-71 83 -71 276q0 189 59.5 284t185.5 95q89 0 146.5 -55t61.5 -146h-114q-7 97 -98 97q-62 0 -94 -55.5t-34 -178.5q19 26 56.5 43.5t81.5 17.5zM283 90q51 0 82.5 35t31.5 90
q0 52 -31.5 87t-82.5 35q-49 0 -83.5 -35t-34.5 -86q0 -50 33 -88t85 -38z" />
    <glyph glyph-name="seven" unicode="7" horiz-adv-x="494" 
d="M461 609l-270 -609h-122l264 594h-297v106h425v-91z" />
    <glyph glyph-name="eight" unicode="8" horiz-adv-x="549" 
d="M275 713q92 0 149.5 -58.5t57.5 -143.5q0 -55 -24.5 -94.5t-56.5 -57.5q42 -19 72 -59.5t30 -103.5q0 -90 -65.5 -149.5t-162.5 -59.5q-98 0 -164 59.5t-66 149.5q0 61 29 103t73 60q-32 19 -56 58t-24 94q0 85 57.5 143.5t150.5 58.5zM275 610q-44 0 -71 -28t-27 -74
q0 -45 27 -72t71 -27q43 0 70 27t27 72q0 46 -27 74t-70 28zM275 310q-49 0 -83 -30.5t-34 -80.5t33.5 -79.5t83.5 -29.5q49 0 82 29.5t33 79.5t-33.5 80.5t-81.5 30.5z" />
    <glyph glyph-name="nine" unicode="9" horiz-adv-x="550" 
d="M436 642q71 -83 71 -276q0 -189 -59.5 -284t-185.5 -95q-89 0 -146.5 55t-61.5 146h114q7 -97 98 -97q62 0 94 55.5t34 178.5q-20 -26 -57 -43.5t-81 -17.5q-99 0 -157 61.5t-58 157.5q0 103 62 166.5t162 63.5q109 0 171 -71zM269 364q49 0 83.5 34.5t34.5 85.5
q0 50 -33 88t-85 38q-51 0 -82.5 -35t-31.5 -90q0 -52 31.5 -86.5t82.5 -34.5z" />
    <glyph glyph-name="colon" unicode=":" horiz-adv-x="209" 
d="M104 517q30 0 50.5 -20.5t20.5 -50.5q0 -29 -20.5 -49t-50.5 -20t-50 20t-20 49q0 30 20 50.5t50 20.5zM104 128q30 0 50.5 -20t20.5 -50q0 -29 -20.5 -49t-50.5 -20t-50 20t-20 49q0 31 20 50.5t50 19.5z" />
    <glyph glyph-name="semicolon" unicode=";" horiz-adv-x="209" 
d="M104 517q30 0 50.5 -20.5t20.5 -50.5q0 -29 -20.5 -49t-50.5 -20t-50 20t-20 49q0 30 20 50.5t50 20.5zM104 125q29 0 49 -20t20 -54q0 -94 -78 -183l-32 12q25 46 33 114q-26 3 -43 20.5t-17 43.5q0 28 19.5 47.5t48.5 19.5z" />
    <glyph glyph-name="less" unicode="&#x3c;" horiz-adv-x="268" 
d="M109 250l147 -195h-103l-142 187v17l142 187h103z" />
    <glyph glyph-name="equal" unicode="=" horiz-adv-x="470" 
d="M441 406h-412v93h412v-93zM441 200h-412v92h412v-92z" />
    <glyph glyph-name="greater" unicode="&#x3e;" horiz-adv-x="268" 
d="M256 259v-17l-141 -187h-104l148 195l-148 196h104z" />
    <glyph glyph-name="question" unicode="?" horiz-adv-x="426" 
d="M208 715q87 0 146 -51t59 -141q0 -49 -16 -88.5t-39.5 -63.5t-46.5 -44.5t-39 -43t-16 -47.5v-30h-107v34q0 37 16.5 67.5t40.5 52t48 42.5t40.5 51t16.5 67q0 52 -27.5 80t-73.5 28q-50 0 -78.5 -29.5t-28.5 -84.5h-101q1 94 59.5 147.5t146.5 53.5zM203 128
q30 0 50.5 -20t20.5 -50q0 -29 -21 -49t-50 -20q-30 0 -50.5 20t-20.5 49q0 30 20.5 50t50.5 20z" />
    <glyph glyph-name="at" unicode="@" horiz-adv-x="814" 
d="M409 611q168 0 269.5 -104.5t101.5 -266.5q0 -105 -45.5 -155t-108.5 -50q-77 0 -106 61q-48 -62 -137 -62q-82 0 -134.5 58.5t-52.5 146.5t52 147t132 59q90 0 129 -68l5 59h78v-278q0 -58 45 -58q70 0 70 140q0 132 -81.5 217.5t-216.5 85.5q-137 0 -219.5 -85
t-82.5 -218t82.5 -218.5t219.5 -85.5q73 0 136 30l24 -66q-70 -32 -160 -32q-169 0 -271.5 104.5t-102.5 267.5q0 165 102.5 268t271.5 103zM397 363q-49 0 -79 -34.5t-30 -89.5q0 -54 30 -88t77 -34q44 0 77 30.5t33 83.5v14q0 55 -32.5 86.5t-75.5 31.5z" />
    <glyph glyph-name="A" unicode="A" horiz-adv-x="704" 
d="M688 0h-122l-67 171h-295l-67 -171h-122l277 700h120zM338 522l-98 -250h223l-99 250l-13 39z" />
    <glyph glyph-name="B" unicode="B" horiz-adv-x="581" 
d="M281 700q103 0 163.5 -52.5t60.5 -141.5q0 -92 -69 -141q52 -20 81.5 -62t29.5 -100q0 -92 -63.5 -147.5t-170.5 -55.5h-239v700h207zM186 596v-191h98q49 0 78.5 25.5t29.5 67.5q0 47 -29.5 72.5t-81.5 25.5h-95zM186 305v-201h127q55 0 86.5 27t31.5 75q0 47 -31.5 73
t-86.5 26h-127z" />
    <glyph glyph-name="C" unicode="C" horiz-adv-x="730" 
d="M385 713q125 0 206 -61t110 -168h-123q-46 125 -193 125q-102 0 -166.5 -73t-64.5 -186q0 -112 65 -185.5t168 -73.5q77 0 126.5 35t70.5 94h119q-30 -112 -110 -172.5t-206 -60.5q-153 0 -251.5 103t-98.5 260t98 260t250 103z" />
    <glyph glyph-name="D" unicode="D" horiz-adv-x="729" 
d="M330 700q163 0 260.5 -96.5t97.5 -253.5q0 -158 -97.5 -254t-260.5 -96h-256v700h256zM186 596v-492h144q114 0 178.5 65t64.5 181t-64 181t-179 65h-144z" />
    <glyph glyph-name="E" unicode="E" horiz-adv-x="512" 
d="M467 596h-281v-184h245v-104h-245v-204h281v-104h-393v700h393v-104z" />
    <glyph glyph-name="F" unicode="F" horiz-adv-x="484" 
d="M460 596h-274v-193h232v-105h-232v-298h-112v700h386v-104z" />
    <glyph glyph-name="G" unicode="G" horiz-adv-x="749" 
d="M385 713q125 0 206 -61t110 -168h-123q-46 125 -194 125q-101 0 -165.5 -73.5t-64.5 -185.5t65 -185.5t169 -73.5q90 0 143.5 44t57.5 128h-190v105h309v-54q0 -153 -86.5 -240t-233.5 -87q-154 0 -252.5 103t-98.5 260t98 260t250 103z" />
    <glyph glyph-name="H" unicode="H" horiz-adv-x="710" 
d="M636 0h-112v310h-338v-310h-112v700h112v-285h338v285h112v-700z" />
    <glyph glyph-name="I" unicode="I" horiz-adv-x="259" 
d="M186 0h-112v700h112v-700z" />
    <glyph glyph-name="J" unicode="J" horiz-adv-x="512" 
d="M447 207q0 -106 -53 -161t-152 -55q-107 0 -160.5 61t-56.5 169h112q5 -125 105 -125q45 0 69 30.5t24 86.5v487h112v-493z" />
    <glyph glyph-name="K" unicode="K" horiz-adv-x="674" 
d="M377 387l281 -387h-138l-218 299l-112 -140v-159h-112v700h112v-378l284 378h138z" />
    <glyph glyph-name="L" unicode="L" horiz-adv-x="510" 
d="M185 104h302v-104h-414v700h112v-596z" />
    <glyph glyph-name="M" unicode="M" horiz-adv-x="880" 
d="M807 0h-112v486l-20 -56l-189 -430h-92l-189 430l-19 56v-486h-112v700h126l222 -486l17 -43l19 43l222 486h127v-700z" />
    <glyph glyph-name="N" unicode="N" horiz-adv-x="718" 
d="M645 0h-111l-321 466l-27 45v-511h-112v700h110l320 -466l29 -47v513h112v-700z" />
    <glyph glyph-name="O" unicode="O" horiz-adv-x="795" 
d="M398 713q157 0 258 -102.5t101 -259.5t-101 -260.5t-258 -103.5q-158 0 -259.5 103.5t-101.5 260.5t101.5 259.5t259.5 102.5zM398 609q-108 0 -176 -73t-68 -185q0 -113 68 -186.5t176 -73.5t175.5 73.5t67.5 186.5q0 112 -67.5 185t-175.5 73z" />
    <glyph glyph-name="P" unicode="P" horiz-adv-x="549" 
d="M289 700q108 0 172.5 -61t64.5 -159q0 -97 -64.5 -157.5t-172.5 -60.5h-103v-262h-112v700h215zM186 596v-230h103q56 0 89.5 30.5t33.5 83.5q0 54 -33.5 85t-89.5 31h-103z" />
    <glyph glyph-name="Q" unicode="Q" horiz-adv-x="790" 
d="M806 -104h-153l-111 118q-68 -27 -144 -27q-158 0 -259.5 103.5t-101.5 260.5t101.5 259.5t259.5 102.5q157 0 258 -102.5t101 -259.5q0 -172 -118 -277zM154 351q0 -113 68 -186.5t176 -73.5q32 0 64 8l-120 128h153l68 -72q78 73 78 196q0 112 -67.5 185t-175.5 73
t-176 -73t-68 -185z" />
    <glyph glyph-name="R" unicode="R" horiz-adv-x="560" 
d="M543 0h-128l-145 274h-84v-274h-112v700h202q108 0 172.5 -59.5t64.5 -156.5q0 -66 -34 -116t-94 -74zM186 596v-222h90q56 0 89.5 28.5t33.5 81.5t-33.5 82.5t-89.5 29.5h-90z" />
    <glyph glyph-name="S" unicode="S" horiz-adv-x="535" 
d="M267 713q96 0 152.5 -52t59.5 -151h-113q-1 49 -29 76t-73 27q-44 0 -69.5 -24.5t-25.5 -67.5t28.5 -65t103.5 -51q109 -38 154 -85.5t45 -125.5q0 -96 -62 -151.5t-161 -55.5q-113 0 -175 60.5t-64 162.5h113q2 -60 34.5 -92t92.5 -32q52 0 80.5 27.5t28.5 72.5
q0 40 -30.5 65.5t-105.5 51.5q-99 34 -147 80.5t-48 128.5q0 88 56.5 144.5t154.5 56.5z" />
    <glyph glyph-name="T" unicode="T" horiz-adv-x="609" 
d="M599 596h-239v-596h-112v596h-238v104h589v-104z" />
    <glyph glyph-name="U" unicode="U" horiz-adv-x="688" 
d="M623 279q0 -140 -73 -216t-206 -76t-206 76t-73 216v421h112v-421q0 -188 167 -188t167 188v421h112v-421z" />
    <glyph glyph-name="V" unicode="V" horiz-adv-x="687" 
d="M396 0h-104l-279 700h120l196 -499l14 -46l15 46l196 499h120z" />
    <glyph glyph-name="W" unicode="W" horiz-adv-x="992" 
d="M758 0h-115l-136 448l-11 48l-10 -48l-137 -448h-114l-219 700h118l149 -481l11 -50l10 50l143 481h99l143 -481l9 -50l11 50l149 481h118z" />
    <glyph glyph-name="X" unicode="X" horiz-adv-x="689" 
d="M420 356l246 -356h-133l-189 272l-188 -272h-132l245 356l-236 344h132l179 -260l180 260h132z" />
    <glyph glyph-name="Y" unicode="Y" horiz-adv-x="678" 
d="M395 263v-263h-112v263l-272 437h131l171 -272l25 -47l26 47l172 272h131z" />
    <glyph glyph-name="Z" unicode="Z" horiz-adv-x="593" 
d="M544 610l-362 -506h375v-104h-519v90l364 506h-361v104h503v-90z" />
    <glyph glyph-name="bracketleft" unicode="[" horiz-adv-x="304" 
d="M280 620h-110v-601h110v-96h-211v793h211v-96z" />
    <glyph glyph-name="backslash" unicode="\" horiz-adv-x="396" 
d="M392 0h-105l-283 700h104z" />
    <glyph glyph-name="bracketright" unicode="]" horiz-adv-x="304" 
d="M235 -77h-211v96h110v601h-110v96h211v-793z" />
    <glyph glyph-name="asciicircum" unicode="^" horiz-adv-x="537" 
d="M521 462h-110l-143 170l-141 -170h-111l252 300z" />
    <glyph glyph-name="underscore" unicode="_" horiz-adv-x="633" 
d="M609 -95h-585v95h585v-95z" />
    <glyph glyph-name="grave" unicode="`" horiz-adv-x="261" 
d="M252 574h-95l-148 158h133z" />
    <glyph glyph-name="a" unicode="a" horiz-adv-x="502" 
d="M251 517q88 0 139 -47.5t51 -136.5v-333h-94l-5 66q-46 -77 -149 -77q-68 0 -109.5 38.5t-41.5 105.5q0 121 148 149l144 26v23q0 91 -83 91q-39 0 -65 -21t-26 -59h-103q3 76 56 125.5t138 49.5zM213 202q-64 -14 -64 -64q0 -27 17.5 -42t50.5 -15q62 0 93 49
q24 34 24 80v18z" />
    <glyph glyph-name="b" unicode="b" 
d="M177 442q51 75 161 75q104 0 170 -75.5t66 -188.5t-66 -188.5t-169 -75.5q-111 0 -168 82l-7 -71h-92v730h105v-288zM319 416q-57 0 -100 -44.5t-43 -117.5v-5q0 -73 43 -117t101 -44q64 0 104.5 46t40.5 119q0 72 -41 117.5t-105 45.5z" />
    <glyph glyph-name="c" unicode="c" horiz-adv-x="545" 
d="M282 517q89 0 151 -46t77 -132h-103q-13 38 -45.5 59t-77.5 21q-61 0 -101.5 -47t-40.5 -120q0 -71 41 -118.5t103 -47.5q44 0 77 22.5t44 58.5h105q-19 -86 -81 -132t-149 -46q-108 0 -178.5 73.5t-70.5 189.5q0 115 70 190t179 75z" />
    <glyph glyph-name="d" unicode="d" 
d="M536 0h-93l-7 71q-57 -82 -168 -82q-103 0 -169 75.5t-66 188.5t66.5 188.5t169.5 75.5q56 0 97.5 -21t63.5 -54v288h106v-730zM288 416q-64 0 -105 -45.5t-41 -117.5q0 -73 40.5 -119t104.5 -46q59 0 102 44t43 117v5q-1 73 -44 117.5t-100 44.5z" />
    <glyph glyph-name="e" unicode="e" horiz-adv-x="547" 
d="M512 257v-41h-369q4 -61 42.5 -97t97.5 -36q95 0 121 72h104q-24 -79 -82 -122.5t-146 -43.5q-110 0 -178.5 72t-68.5 191q0 116 68 190.5t179 74.5q104 0 168 -67t64 -193zM143 299h262q-1 57 -35.5 91t-90.5 34q-57 0 -93.5 -35t-42.5 -90z" />
    <glyph glyph-name="f" unicode="f" horiz-adv-x="342" 
d="M266 740q41 0 67 -11v-95q-27 12 -57 12q-69 0 -69 -77v-63h121v-97h-121v-409h-107v409h-86v97h86v66q0 81 43 124.5t123 43.5z" />
    <glyph glyph-name="g" unicode="g" horiz-adv-x="510" 
d="M512 506v-92h-81q17 -36 17 -78q0 -77 -54 -127.5t-141 -50.5q-56 0 -98 21q-17 -19 -17 -44q0 -22 16 -34.5t43 -12.5h127q79 0 120.5 -37t41.5 -104q0 -82 -58 -127.5t-158 -45.5q-109 0 -167 40.5t-58 115.5q0 60 54 91q-64 37 -64 106q0 66 53 105q-34 45 -34 104
q0 79 55.5 130t143.5 51q37 0 72 -11h187zM252 243q42 0 67.5 26.5t25.5 66.5q0 42 -25.5 68.5t-67.5 26.5q-43 0 -68.5 -26.5t-25.5 -68.5q0 -40 26 -66.5t68 -26.5zM213 2q-28 -2 -46 -18.5t-18 -46.5q0 -38 32 -58t89 -20q53 0 82.5 21t29.5 61q0 61 -82 61h-87z" />
    <glyph glyph-name="h" unicode="h" horiz-adv-x="539" 
d="M177 447q41 70 134 70q79 0 121.5 -51.5t42.5 -137.5v-328h-106v307q0 51 -22.5 78.5t-64.5 27.5q-46 0 -75.5 -37.5t-29.5 -106.5v-269h-105v730h105v-283z" />
    <glyph glyph-name="i" unicode="i" horiz-adv-x="254" 
d="M127 725q29 0 48.5 -19.5t19.5 -48.5q0 -28 -19.5 -47t-48.5 -19t-48.5 19t-19.5 47q0 29 19.5 48.5t48.5 19.5zM180 0h-106v506h106v-506z" />
    <glyph glyph-name="j" unicode="j" horiz-adv-x="254" 
d="M127 725q29 0 48.5 -19.5t19.5 -48.5q0 -28 -19.5 -47t-48.5 -19t-48.5 19t-19.5 47q0 29 19.5 48.5t48.5 19.5zM180 -40q0 -186 -160 -186q-47 0 -74 9v96q24 -9 56 -9q39 0 55.5 23t16.5 69v544h106v-546z" />
    <glyph glyph-name="k" unicode="k" horiz-adv-x="512" 
d="M177 283l171 223h127l-156 -211l182 -295h-121l-135 213l-68 -83v-130h-105v730h105v-447z" />
    <glyph glyph-name="l" unicode="l" horiz-adv-x="249" 
d="M177 0h-105v730h105v-730z" />
    <glyph glyph-name="m" unicode="m" horiz-adv-x="831" 
d="M604 517q80 0 121.5 -51t41.5 -138v-328h-106v307q0 106 -85 106q-46 0 -75 -37.5t-29 -106.5v-269h-105v307q0 52 -22.5 79t-63.5 27q-46 0 -75 -37.5t-29 -106.5v-269h-105v506h92l7 -68q19 35 54.5 57t83.5 22q108 0 146 -93q50 93 149 93z" />
    <glyph glyph-name="n" unicode="n" horiz-adv-x="539" 
d="M311 517q79 0 121.5 -51.5t42.5 -137.5v-328h-106v307q0 51 -22.5 78.5t-64.5 27.5q-46 0 -75.5 -37.5t-29.5 -106.5v-269h-105v506h92l7 -68q19 35 55 57t85 22z" />
    <glyph glyph-name="o" unicode="o" horiz-adv-x="587" 
d="M293 517q114 0 187 -74t73 -190t-73 -190t-187 -74t-187 74t-73 190t73 190t187 74zM294 419q-68 0 -110 -46.5t-42 -119.5q0 -72 42.5 -119.5t109.5 -47.5t108.5 47.5t41.5 119.5q0 73 -41 119.5t-109 46.5z" />
    <glyph glyph-name="p" unicode="p" horiz-adv-x="613" 
d="M344 517q104 0 169.5 -75.5t65.5 -188.5t-66 -188.5t-170 -75.5q-55 0 -96.5 21t-63.5 53v-278h-106v721h93l7 -72q56 83 167 83zM325 417q-59 0 -101.5 -43.5t-42.5 -116.5v-6q0 -73 43 -117.5t100 -44.5q64 0 105 45.5t41 118.5t-40.5 118.5t-104.5 45.5z" />
    <glyph glyph-name="q" unicode="q" horiz-adv-x="613" 
d="M268 517q110 0 168 -83l7 72h93v-721h-106v278q-50 -74 -161 -74q-103 0 -169.5 75.5t-66.5 188.5t66 188.5t169 75.5zM287 417q-64 0 -104.5 -45.5t-40.5 -118.5t41 -118.5t105 -45.5q57 0 100 44.5t44 117.5v6q0 73 -43 116.5t-102 43.5z" />
    <glyph glyph-name="r" unicode="r" horiz-adv-x="351" 
d="M327 405q-61 0 -101 -34q-43 -38 -44 -108v-263h-106v506h93l8 -86q15 39 52.5 65t97.5 26v-106z" />
    <glyph glyph-name="s" unicode="s" horiz-adv-x="448" 
d="M223 517q77 0 125 -44t50 -116h-106q-2 69 -71 69q-32 0 -49.5 -16.5t-17.5 -42.5q0 -27 19 -41t73 -26q90 -19 127.5 -54.5t37.5 -97.5q0 -76 -52.5 -117.5t-132.5 -41.5q-89 0 -139 44t-52 120h106q1 -35 23.5 -54.5t63.5 -19.5q37 0 56.5 16t19.5 43q0 29 -20.5 45
t-78.5 28q-82 17 -120 51.5t-38 95.5q0 66 46.5 112.5t129.5 46.5z" />
    <glyph glyph-name="t" unicode="t" horiz-adv-x="361" 
d="M206 506h124v-98h-125l-2 -241q0 -41 15 -59.5t55 -18.5q30 0 57 9v-94q-29 -11 -79 -11q-77 0 -115.5 36.5t-37.5 115.5l2 263h-89v98h89l1 124h107z" />
    <glyph glyph-name="u" unicode="u" horiz-adv-x="535" 
d="M464 0h-93l-7 68q-40 -79 -137 -79q-80 0 -121 51t-41 138v328h106v-307q0 -108 85 -108q45 0 73.5 36.5t28.5 101.5v277h106v-506z" />
    <glyph glyph-name="v" unicode="v" horiz-adv-x="506" 
d="M307 0h-107l-188 506h113l118 -340l10 -40l10 40l118 340h114z" />
    <glyph glyph-name="w" unicode="w" horiz-adv-x="772" 
d="M603 0h-109l-109 332l-112 -332h-104l-157 506h114l92 -332l10 -49l11 49l101 332h92l101 -332l11 -49l10 49l92 332h113z" />
    <glyph glyph-name="x" unicode="x" horiz-adv-x="519" 
d="M331 259l169 -259h-124l-117 177l-116 -177h-124l168 259l-159 247h124l107 -164l108 164h124z" />
    <glyph glyph-name="y" unicode="y" horiz-adv-x="509" 
d="M227 -215h-111l81 222l-185 499h113l118 -340l10 -40l10 40l118 340h114z" />
    <glyph glyph-name="z" unicode="z" horiz-adv-x="465" 
d="M426 425l-251 -332h265v-93h-406v80l251 332h-249v94h390v-81z" />
    <glyph glyph-name="braceleft" unicode="{" horiz-adv-x="304" 
d="M280 620h-23q-65 0 -65 -72v-126q0 -81 -61 -103q61 -22 61 -102v-126q0 -72 65 -72h23v-96h-26q-79 0 -119.5 44t-40.5 121v113q0 72 -65 72h-15v93h15q65 0 65 72v113q0 77 40.5 121t119.5 44h26v-96z" />
    <glyph glyph-name="bar" unicode="|" horiz-adv-x="226" 
d="M163 -67h-99v793h99v-793z" />
    <glyph glyph-name="braceright" unicode="}" horiz-adv-x="304" 
d="M50 716q79 0 119.5 -44t40.5 -121v-113q0 -72 65 -72h15v-93h-15q-65 0 -65 -72v-113q0 -77 -40.5 -121t-119.5 -44h-26v96h23q65 0 65 72v126q0 80 61 102q-61 22 -61 103v126q0 72 -65 72h-23v96h26z" />
    <glyph glyph-name="asciitilde" unicode="~" horiz-adv-x="567" 
d="M184 446q35 0 64.5 -14.5t46 -32t40.5 -32t50 -14.5q64 0 87 83l73 -34q-41 -141 -162 -141q-35 0 -64.5 14.5t-46.5 32t-41 32t-49 14.5q-62 0 -87 -83l-73 34q41 141 162 141z" />
    <glyph glyph-name="exclamdown" unicode="&#xa1;" horiz-adv-x="254" 
d="M127 377q-30 0 -51 19.5t-21 49.5t21 50t51 20t50.5 -20t20.5 -50t-20.5 -49.5t-50.5 -19.5zM74 299h106v-494h-106v494z" />
    <glyph glyph-name="cent" unicode="&#xa2;" horiz-adv-x="550" 
d="M512 167q-16 -75 -65.5 -119.5t-120.5 -55.5v-96h-82v96q-94 13 -152.5 84t-58.5 176q0 104 58.5 176t152.5 86v95h82v-96q73 -10 122 -54.5t62 -119.5h-103q-13 38 -45.5 59t-77.5 21q-61 0 -101.5 -47t-40.5 -120q0 -71 41 -118.5t103 -47.5q44 0 77 22.5t44 58.5h105z
" />
    <glyph glyph-name="sterling" unicode="&#xa3;" horiz-adv-x="518" 
d="M412 189h98q-1 -93 -48.5 -141t-134.5 -48h-303v34l42 58q56 74 56 160q0 22 -3 42h-103v81h78q-35 84 -35 135q0 91 57 147t146 56q92 0 146 -51.5t56 -148.5h-102q0 47 -26 74.5t-70 27.5q-45 0 -71 -28t-26 -80q0 -18 4 -38.5t6.5 -28.5t13.5 -36t11 -29h146v-81h-123
q3 -21 3 -45q0 -63 -34 -119l-15 -24h151q42 0 61 20t19 63z" />
    <glyph glyph-name="currency" unicode="&#xa4;" horiz-adv-x="639" 
d="M613 487l-121 -120q31 -48 31 -106q0 -59 -32 -106l122 -120l-68 -68l-123 120q-50 -28 -103 -28t-103 28l-121 -120l-70 68l121 120q-29 46 -29 106q0 59 29 106l-121 120l70 69l120 -121q47 31 104 31q49 0 104 -31l122 121zM319 383q-48 0 -79.5 -35t-31.5 -87
q0 -51 31.5 -85t79.5 -34t80.5 34t32.5 85q0 52 -32.5 87t-80.5 35z" />
    <glyph glyph-name="yen" unicode="&#xa5;" horiz-adv-x="662" 
d="M659 700l-257 -415h116v-81v-60h-130v-144h-113v144h-132v81v60h118l-258 415h131l171 -272l26 -47l25 47l173 272h130z" />
    <glyph glyph-name="brokenbar" unicode="&#xa6;" horiz-adv-x="226" 
d="M163 446h-99v280h99v-280zM163 -67h-99v280h99v-280z" />
    <glyph glyph-name="section" unicode="&#xa7;" horiz-adv-x="512" 
d="M402 218q59 -37 59 -111q0 -77 -56 -117.5t-142 -40.5q-93 0 -147.5 43.5t-56.5 115.5h108q0 -37 26.5 -57t70.5 -20t66.5 18.5t22.5 50.5q0 30 -28.5 49t-105.5 32q-184 33 -184 149q0 79 80 127q-48 38 -48 105q0 77 54 117.5t136 40.5q89 0 140.5 -43.5t53.5 -115.5
h-108q-1 37 -24 57t-63 20q-39 0 -60 -19.5t-21 -49.5q0 -31 24.5 -49.5t85.5 -29.5q103 -17 148.5 -52.5t45.5 -100.5q0 -72 -77 -119zM143 346q0 -36 29 -55t108 -32q21 -3 35 -7q57 27 57 73q0 35 -27.5 53.5t-105.5 32.5q-26 5 -44 10q-52 -26 -52 -75z" />
    <glyph glyph-name="dieresis" unicode="&#xa8;" horiz-adv-x="338" 
d="M71 699q26 0 44 -17.5t18 -43.5t-18 -43.5t-44 -17.5t-44 17.5t-18 43.5t18 43.5t44 17.5zM267 699q26 0 44 -17.5t18 -43.5t-18 -43.5t-44 -17.5t-44 17.5t-18 43.5t18 43.5t44 17.5z" />
    <glyph glyph-name="copyright" unicode="&#xa9;" horiz-adv-x="594" 
d="M298 749q120 0 193.5 -77t73.5 -196t-73.5 -196t-193.5 -77t-194.5 77t-74.5 196t74.5 196t194.5 77zM298 687q-91 0 -147 -60t-56 -151t56 -151t147 -60t146.5 60t55.5 151q0 92 -55.5 151.5t-146.5 59.5zM301 621q105 0 130 -102h-78q-13 34 -52 34q-31 0 -49.5 -21.5
t-18.5 -55.5q0 -35 18.5 -56.5t49.5 -21.5q44 0 57 38h75q-23 -105 -132 -105q-64 0 -104 40.5t-40 104.5q0 63 40.5 104t103.5 41z" />
    <glyph glyph-name="ordfeminine" unicode="&#xaa;" horiz-adv-x="382" 
d="M190 711q65 0 102 -32t37 -93v-227h-71l-4 40q-38 -47 -105 -47q-49 0 -78 26t-29 71q0 85 108 103l97 18v14q0 55 -57 55q-26 0 -42.5 -13t-16.5 -36h-80q3 54 40 87.5t99 33.5zM166 494q-42 -9 -42 -39q0 -15 11.5 -24.5t31.5 -9.5q44 0 65 30q15 20 15 44v14z" />
    <glyph glyph-name="guillemotleft" unicode="&#xab;" horiz-adv-x="469" 
d="M109 250l131 -195h-103l-126 187v17l126 187h103zM326 250l131 -195h-103l-126 187v17l126 187h103z" />
    <glyph glyph-name="logicalnot" unicode="&#xac;" horiz-adv-x="594" 
d="M559 153h-76v209h-444v78h520v-287z" />
    <glyph glyph-name="registered" unicode="&#xae;" horiz-adv-x="594" 
d="M298 749q120 0 193.5 -77t73.5 -196t-73.5 -196t-193.5 -77t-194.5 77t-74.5 196t74.5 196t194.5 77zM298 265q91 0 146.5 60t55.5 151q0 92 -55.5 151.5t-146.5 59.5t-147 -60t-56 -151t56 -151t147 -60zM407 521q0 -52 -45 -75l57 -111h-83l-44 97h-25v-97h-72v280h108
q48 0 76 -26t28 -68zM267 555v-69h30q38 0 38 34q0 35 -38 35h-30z" />
    <glyph glyph-name="macron" unicode="&#xaf;" horiz-adv-x="288" 
d="M279 592h-270v82h270v-82z" />
    <glyph glyph-name="degree" unicode="&#xb0;" horiz-adv-x="347" 
d="M172 722q66 0 110 -41.5t44 -108.5t-44 -108.5t-110 -41.5q-64 0 -107.5 41.5t-43.5 108.5q0 66 43.5 108t107.5 42zM172 651q-33 0 -55 -22t-22 -57t22 -57t55 -22q35 0 57.5 22t22.5 57t-22.5 57t-57.5 22z" />
    <glyph glyph-name="plusminus" unicode="&#xb1;" horiz-adv-x="470" 
d="M283 487h158v-95h-158v-158h-96v158h-158v95h158v159h96v-159zM441 79h-412v94h412v-94z" />
    <glyph glyph-name="two.sups" unicode="&#xb2;" horiz-adv-x="321" 
d="M162 807q62 0 95 -31t33 -84q0 -56 -53 -113l-86 -93h140v-78h-255v60l128 139q43 46 43 79q0 44 -46 44q-22 0 -35.5 -13.5t-13.5 -39.5h-82q-1 58 36 94t96 36z" />
    <glyph glyph-name="three.sups" unicode="&#xb3;" horiz-adv-x="350" 
d="M172 807q60 0 94.5 -32.5t34.5 -82.5q0 -59 -53 -80q67 -20 67 -90q0 -56 -38 -88.5t-101 -32.5q-66 0 -103.5 33.5t-37.5 93.5h82q1 -25 17.5 -38t43.5 -13q24 0 39 13t15 36q0 51 -72 51h-25v67h24q59 0 59 45q0 19 -12 30.5t-33 11.5t-35 -12.5t-14 -35.5h-82
q0 58 35 91t95 33z" />
    <glyph glyph-name="acute" unicode="&#xb4;" horiz-adv-x="261" 
d="M104 574h-95l109 158h134z" />
    <glyph glyph-name="mu" unicode="&#xb5;" horiz-adv-x="542" 
d="M365 506h106v-506h-93l-7 68q-39 -79 -137 -79q-30 0 -57 8v-212h-105v654v67h105v-307q0 -108 85 -108q45 0 74 36.5t29 101.5v277z" />
    <glyph glyph-name="paragraph" unicode="&#xb6;" horiz-adv-x="604" 
d="M586 628h-86v-708h-72v708h-109v-708h-73v391h-18q-90 0 -147 54t-57 139q0 87 57 141.5t147 54.5h358v-72z" />
    <glyph glyph-name="periodcentered" unicode="&#xb7;" horiz-adv-x="209" 
d="M104 329q30 0 50.5 -20t20.5 -49q0 -30 -20.5 -50t-50.5 -20t-50 20t-20 50q0 29 20 49t50 20z" />
    <glyph glyph-name="cedilla" unicode="&#xb8;" horiz-adv-x="217" 
d="M119 -55q40 0 64.5 -22.5t24.5 -60.5q0 -44 -30 -68t-77 -24q-58 0 -92 34l35 50q21 -25 57 -25q40 0 40 32t-39 32q-15 0 -31 -4l-20 7l27 110h55z" />
    <glyph glyph-name="one.sups" unicode="&#xb9;" horiz-adv-x="254" 
d="M201 408h-83v274h-88v62q97 0 110 56h61v-392z" />
    <glyph glyph-name="ordmasculine" unicode="&#xba;" horiz-adv-x="438" 
d="M219 711q80 0 132 -50t52 -130q0 -79 -52 -129t-132 -50q-81 0 -133 50t-52 129q0 80 52 130t133 50zM220 636q-45 0 -72.5 -29.5t-27.5 -74.5q0 -46 27.5 -75.5t72.5 -29.5q43 0 70.5 30t27.5 75t-27.5 74.5t-70.5 29.5z" />
    <glyph glyph-name="guillemotright" unicode="&#xbb;" horiz-adv-x="469" 
d="M240 259v-17l-125 -187h-104l132 195l-132 196h104zM457 259v-17l-125 -187h-104l132 195l-132 196h104z" />
    <glyph glyph-name="onequarter" unicode="&#xbc;" horiz-adv-x="730" 
d="M201 308h-83v274h-88v62q97 0 110 56h61v-392zM199 0h-114l401 700h113zM647 141h53v-73h-53v-68h-83v68h-177v66l157 258h103v-251zM554 270l-80 -129h91v151z" />
    <glyph glyph-name="onehalf" unicode="&#xbd;" horiz-adv-x="730" 
d="M201 308h-83v274h-88v62q97 0 110 56h61v-392zM199 0h-114l401 700h113zM573 399q62 0 95 -31t33 -84q0 -56 -53 -113l-86 -93h140v-78h-255v60l128 139q43 46 43 79q0 44 -46 44q-22 0 -35.5 -13.5t-13.5 -39.5h-82q-1 58 36 94t96 36z" />
    <glyph glyph-name="threequarters" unicode="&#xbe;" horiz-adv-x="807" 
d="M172 707q60 0 94.5 -32.5t34.5 -82.5q0 -59 -53 -80q67 -20 67 -90q0 -56 -38 -88.5t-101 -32.5q-66 0 -103.5 33.5t-37.5 93.5h82q1 -25 17.5 -38t43.5 -13q24 0 39 13t15 36q0 51 -72 51h-25v67h24q59 0 59 45q0 19 -12 30.5t-33 11.5t-35 -12.5t-14 -35.5h-82
q0 58 35 91t95 33zM276 0h-113l400 700h114zM724 141h53v-73h-53v-68h-83v68h-177v66l157 258h103v-251zM631 270l-81 -129h92v151z" />
    <glyph glyph-name="questiondown" unicode="&#xbf;" horiz-adv-x="426" 
d="M223 377q-30 0 -50.5 19.5t-20.5 49.5t20.5 50t50.5 20t50.5 -20t20.5 -50t-20.5 -49.5t-50.5 -19.5zM217 -210q-86 0 -145 51t-59 140q0 49 16 88.5t39.5 63.5t46.5 44.5t39 43.5t16 48v30h106v-35q0 -37 -16.5 -67t-40.5 -51.5t-48 -42.5t-40.5 -51t-16.5 -67
q0 -52 28 -80t74 -28q50 0 78.5 29.5t28.5 84.5h101q-2 -95 -60 -148t-147 -53z" />
    <glyph glyph-name="Agrave" unicode="&#xc0;" horiz-adv-x="704" 
d="M412 733h-111l-137 114h153zM688 0h-122l-67 171h-295l-67 -171h-122l277 700h120zM338 522l-98 -250h223l-99 250l-13 39z" />
    <glyph glyph-name="Aacute" unicode="&#xc1;" horiz-adv-x="704" 
d="M394 733h-111l95 114h153zM688 0h-122l-67 171h-295l-67 -171h-122l277 700h120zM338 522l-98 -250h223l-99 250l-13 39z" />
    <glyph glyph-name="Acircumflex" unicode="&#xc2;" horiz-adv-x="704" 
d="M531 732h-122l-58 53l-57 -53h-122l148 119h64zM688 0h-122l-67 171h-295l-67 -171h-122l277 700h120zM338 522l-98 -250h223l-99 250l-13 39z" />
    <glyph glyph-name="Atilde" unicode="&#xc3;" horiz-adv-x="704" 
d="M289 864q28 0 49 -10t30.5 -22.5t22 -22.5t27.5 -10q37 0 37 56h66q0 -59 -27 -94.5t-80 -35.5q-36 0 -58.5 16.5t-37.5 33t-33 16.5q-37 0 -37 -57h-66q0 60 27 95t80 35zM688 0h-122l-67 171h-295l-67 -171h-122l277 700h120zM338 522l-98 -250h223l-99 250l-13 39z
" />
    <glyph glyph-name="Adieresis" unicode="&#xc4;" horiz-adv-x="704" 
d="M253 853q26 0 44 -17.5t18 -43.5t-18 -43.5t-44 -17.5t-44 17.5t-18 43.5t18 43.5t44 17.5zM449 853q26 0 44 -17.5t18 -43.5t-18 -43.5t-44 -17.5t-44 17.5t-18 43.5t18 43.5t44 17.5zM688 0h-122l-67 171h-295l-67 -171h-122l277 700h120zM338 522l-98 -250h223
l-99 250l-13 39z" />
    <glyph glyph-name="Aring" unicode="&#xc5;" horiz-adv-x="704" 
d="M351 919q44 0 72 -27.5t28 -69.5t-28 -69.5t-72 -27.5q-43 0 -71.5 28t-28.5 69q0 42 28.5 69.5t71.5 27.5zM351 861q-16 0 -26.5 -11t-10.5 -28q0 -15 11 -26.5t26 -11.5q17 0 28 11.5t11 26.5q0 17 -11 28t-28 11zM688 0h-122l-67 171h-295l-67 -171h-122l277 700h120z
M338 522l-98 -250h223l-99 250l-13 39z" />
    <glyph glyph-name="AE" unicode="&#xc6;" horiz-adv-x="941" 
d="M896 596h-282v-184h246v-104h-246v-204h282v-104h-394v174h-246l-116 -174h-132l455 700h433v-104zM481 523l-165 -252h186v292z" />
    <glyph glyph-name="Ccedilla" unicode="&#xc7;" horiz-adv-x="730" 
d="M703 220q-28 -106 -102.5 -166.5t-190.5 -65.5l-10 -43q40 0 64.5 -22t24.5 -61q0 -44 -30 -68t-77 -24q-58 0 -92 34l35 50q21 -25 57 -25q40 0 40 32t-39 32q-15 0 -31 -4l-20 7l23 92q-141 11 -229.5 112.5t-88.5 249.5q0 157 98 260t250 103q125 0 206 -61t110 -168
h-123q-46 125 -193 125q-102 0 -166.5 -73t-64.5 -186q0 -112 65 -185.5t168 -73.5q77 0 126.5 35t70.5 94h119z" />
    <glyph glyph-name="Egrave" unicode="&#xc8;" horiz-adv-x="512" 
d="M341 733h-111l-137 114h153zM467 596h-281v-184h245v-104h-245v-204h281v-104h-393v700h393v-104z" />
    <glyph glyph-name="Eacute" unicode="&#xc9;" horiz-adv-x="512" 
d="M323 733h-111l95 114h153zM467 596h-281v-184h245v-104h-245v-204h281v-104h-393v700h393v-104z" />
    <glyph glyph-name="Ecircumflex" unicode="&#xca;" horiz-adv-x="512" 
d="M460 732h-122l-58 53l-57 -53h-122l148 119h64zM467 596h-281v-184h245v-104h-245v-204h281v-104h-393v700h393v-104z" />
    <glyph glyph-name="Edieresis" unicode="&#xcb;" horiz-adv-x="512" 
d="M182 853q26 0 44 -17.5t18 -43.5t-18 -43.5t-44 -17.5t-44 17.5t-18 43.5t18 43.5t44 17.5zM378 853q26 0 44 -17.5t18 -43.5t-18 -43.5t-44 -17.5t-44 17.5t-18 43.5t18 43.5t44 17.5zM467 596h-281v-184h245v-104h-245v-204h281v-104h-393v700h393v-104z" />
    <glyph glyph-name="Igrave" unicode="&#xcc;" horiz-adv-x="259" 
d="M190 733h-111l-137 114h153zM186 0h-112v700h112v-700z" />
    <glyph glyph-name="Iacute" unicode="&#xcd;" horiz-adv-x="259" 
d="M172 733h-111l95 114h153zM186 0h-112v700h112v-700z" />
    <glyph glyph-name="Icircumflex" unicode="&#xce;" horiz-adv-x="259" 
d="M309 732h-122l-58 53l-57 -53h-122l148 119h64zM186 0h-112v700h112v-700z" />
    <glyph glyph-name="Idieresis" unicode="&#xcf;" horiz-adv-x="259" 
d="M31 853q26 0 44 -17.5t18 -43.5t-18 -43.5t-44 -17.5t-44 17.5t-18 43.5t18 43.5t44 17.5zM227 853q26 0 44 -17.5t18 -43.5t-18 -43.5t-44 -17.5t-44 17.5t-18 43.5t18 43.5t44 17.5zM186 0h-112v700h112v-700z" />
    <glyph glyph-name="Eth" unicode="&#xd0;" horiz-adv-x="738" 
d="M340 700q163 0 260.5 -96.5t97.5 -253.5q0 -158 -97.5 -254t-260.5 -96h-257v316h-81v82h81v302h257zM340 104q114 0 178 65t64 181t-64 181t-178 65h-145v-198h116v-82h-116v-212h145z" />
    <glyph glyph-name="Ntilde" unicode="&#xd1;" horiz-adv-x="718" 
d="M297 864q28 0 49 -10t30.5 -22.5t22 -22.5t27.5 -10q37 0 37 56h66q0 -59 -27 -94.5t-80 -35.5q-36 0 -58.5 16.5t-37.5 33t-33 16.5q-37 0 -37 -57h-66q0 60 27 95t80 35zM645 0h-111l-321 466l-27 45v-511h-112v700h110l320 -466l29 -47v513h112v-700z" />
    <glyph glyph-name="Ograve" unicode="&#xd2;" horiz-adv-x="795" 
d="M459 743h-111l-137 114h153zM398 713q157 0 258 -102.5t101 -259.5t-101 -260.5t-258 -103.5q-158 0 -259.5 103.5t-101.5 260.5t101.5 259.5t259.5 102.5zM398 609q-108 0 -176 -73t-68 -185q0 -113 68 -186.5t176 -73.5t175.5 73.5t67.5 186.5q0 112 -67.5 185
t-175.5 73z" />
    <glyph glyph-name="Oacute" unicode="&#xd3;" horiz-adv-x="795" 
d="M441 743h-111l95 114h153zM398 713q157 0 258 -102.5t101 -259.5t-101 -260.5t-258 -103.5q-158 0 -259.5 103.5t-101.5 260.5t101.5 259.5t259.5 102.5zM398 609q-108 0 -176 -73t-68 -185q0 -113 68 -186.5t176 -73.5t175.5 73.5t67.5 186.5q0 112 -67.5 185t-175.5 73
z" />
    <glyph glyph-name="Ocircumflex" unicode="&#xd4;" horiz-adv-x="795" 
d="M578 742h-122l-58 53l-57 -53h-122l148 119h64zM398 713q157 0 258 -102.5t101 -259.5t-101 -260.5t-258 -103.5q-158 0 -259.5 103.5t-101.5 260.5t101.5 259.5t259.5 102.5zM398 609q-108 0 -176 -73t-68 -185q0 -113 68 -186.5t176 -73.5t175.5 73.5t67.5 186.5
q0 112 -67.5 185t-175.5 73z" />
    <glyph glyph-name="Otilde" unicode="&#xd5;" horiz-adv-x="795" 
d="M336 874q28 0 49 -10t30.5 -22.5t22 -22.5t27.5 -10q37 0 37 56h66q0 -59 -27 -94.5t-80 -35.5q-36 0 -58.5 16.5t-37.5 33t-33 16.5q-37 0 -37 -57h-66q0 60 27 95t80 35zM398 713q157 0 258 -102.5t101 -259.5t-101 -260.5t-258 -103.5q-158 0 -259.5 103.5
t-101.5 260.5t101.5 259.5t259.5 102.5zM398 609q-108 0 -176 -73t-68 -185q0 -113 68 -186.5t176 -73.5t175.5 73.5t67.5 186.5q0 112 -67.5 185t-175.5 73z" />
    <glyph glyph-name="Odieresis" unicode="&#xd6;" horiz-adv-x="795" 
d="M299 863q26 0 44 -17.5t18 -43.5t-18 -43.5t-44 -17.5t-44 17.5t-18 43.5t18 43.5t44 17.5zM495 863q26 0 44 -17.5t18 -43.5t-18 -43.5t-44 -17.5t-44 17.5t-18 43.5t18 43.5t44 17.5zM398 713q157 0 258 -102.5t101 -259.5t-101 -260.5t-258 -103.5
q-158 0 -259.5 103.5t-101.5 260.5t101.5 259.5t259.5 102.5zM398 609q-108 0 -176 -73t-68 -185q0 -113 68 -186.5t176 -73.5t175.5 73.5t67.5 186.5q0 112 -67.5 185t-175.5 73z" />
    <glyph glyph-name="multiply" unicode="&#xd7;" horiz-adv-x="424" 
d="M400 470l-121 -121l121 -120l-68 -67l-119 120l-121 -120l-68 67l121 121l-121 121l67 67l121 -120l121 120z" />
    <glyph glyph-name="Oslash" unicode="&#xd8;" horiz-adv-x="795" 
d="M618 643q66 -48 102.5 -124.5t36.5 -167.5q0 -157 -101 -260.5t-258 -103.5q-75 0 -141 26l-49 -86l-83 41l51 90q-65 49 -102 125.5t-37 167.5q0 157 101.5 259.5t259.5 102.5q73 0 139 -25l48 83l83 -42zM154 351q0 -123 78 -196l252 439q-41 15 -86 15
q-108 0 -176 -73t-68 -185zM398 91q108 0 175.5 73.5t67.5 186.5q0 122 -78 195l-252 -440q43 -15 87 -15z" />
    <glyph glyph-name="Ugrave" unicode="&#xd9;" horiz-adv-x="688" 
d="M405 733h-111l-137 114h153zM623 279q0 -140 -73 -216t-206 -76t-206 76t-73 216v421h112v-421q0 -188 167 -188t167 188v421h112v-421z" />
    <glyph glyph-name="Uacute" unicode="&#xda;" horiz-adv-x="688" 
d="M387 733h-111l95 114h153zM623 279q0 -140 -73 -216t-206 -76t-206 76t-73 216v421h112v-421q0 -188 167 -188t167 188v421h112v-421z" />
    <glyph glyph-name="Ucircumflex" unicode="&#xdb;" horiz-adv-x="688" 
d="M524 732h-122l-58 53l-57 -53h-122l148 119h64zM623 279q0 -140 -73 -216t-206 -76t-206 76t-73 216v421h112v-421q0 -188 167 -188t167 188v421h112v-421z" />
    <glyph glyph-name="Udieresis" unicode="&#xdc;" horiz-adv-x="688" 
d="M245 853q26 0 44 -17.5t18 -43.5t-18 -43.5t-44 -17.5t-44 17.5t-18 43.5t18 43.5t44 17.5zM441 853q26 0 44 -17.5t18 -43.5t-18 -43.5t-44 -17.5t-44 17.5t-18 43.5t18 43.5t44 17.5zM623 279q0 -140 -73 -216t-206 -76t-206 76t-73 216v421h112v-421q0 -188 167 -188
t167 188v421h112v-421z" />
    <glyph glyph-name="Yacute" unicode="&#xdd;" horiz-adv-x="678" 
d="M381 733h-111l95 114h153zM395 263v-263h-112v263l-272 437h131l171 -272l25 -47l26 47l172 272h131z" />
    <glyph glyph-name="Thorn" unicode="&#xde;" horiz-adv-x="573" 
d="M186 593h122q106 0 168.5 -57t62.5 -151q0 -92 -62.5 -149t-168.5 -57h-122v-179h-112v700h112v-107zM186 487v-203h122q54 0 85.5 26.5t31.5 74.5q0 49 -31.5 75.5t-85.5 26.5h-122z" />
    <glyph glyph-name="germandbls" unicode="&#xdf;" horiz-adv-x="564" 
d="M282 636q-101 0 -101 -109v-21h328v-82l-131 -205q85 -13 134 -73t49 -139q0 -106 -60 -166.5t-175 -60.5q-43 0 -85 8l3 107q38 -11 72 -11q62 0 97 31t35 91q0 57 -39 89t-104 32h-47v70l132 211h-209v-408h-111v525q0 212 212 212v-101z" />
    <glyph glyph-name="agrave" unicode="&#xe0;" horiz-adv-x="502" 
d="M304 574h-95l-148 158h133zM251 517q88 0 139 -47.5t51 -136.5v-333h-94l-5 66q-46 -77 -149 -77q-68 0 -109.5 38.5t-41.5 105.5q0 121 148 149l144 26v23q0 91 -83 91q-39 0 -65 -21t-26 -59h-103q3 76 56 125.5t138 49.5zM213 202q-64 -14 -64 -64q0 -27 17.5 -42
t50.5 -15q62 0 93 49q24 34 24 80v18z" />
    <glyph glyph-name="aacute" unicode="&#xe1;" horiz-adv-x="502" 
d="M292 574h-95l109 158h134zM251 517q88 0 139 -47.5t51 -136.5v-333h-94l-5 66q-46 -77 -149 -77q-68 0 -109.5 38.5t-41.5 105.5q0 121 148 149l144 26v23q0 91 -83 91q-39 0 -65 -21t-26 -59h-103q3 76 56 125.5t138 49.5zM213 202q-64 -14 -64 -64q0 -27 17.5 -42
t50.5 -15q62 0 93 49q24 34 24 80v18z" />
    <glyph glyph-name="acircumflex" unicode="&#xe2;" horiz-adv-x="502" 
d="M428 574h-112l-62 86l-63 -86h-112l138 158h73zM251 517q88 0 139 -47.5t51 -136.5v-333h-94l-5 66q-46 -77 -149 -77q-68 0 -109.5 38.5t-41.5 105.5q0 121 148 149l144 26v23q0 91 -83 91q-39 0 -65 -21t-26 -59h-103q3 76 56 125.5t138 49.5zM213 202q-64 -14 -64 -64
q0 -27 17.5 -42t50.5 -15q62 0 93 49q24 34 24 80v18z" />
    <glyph glyph-name="atilde" unicode="&#xe3;" horiz-adv-x="502" 
d="M192 713q28 0 48.5 -11t30 -24t22.5 -24t28 -11q37 0 37 61h66q0 -61 -27 -98t-80 -37q-28 0 -48.5 11t-30 24.5t-22.5 24.5t-28 11q-37 0 -37 -62h-66q0 62 27 98.5t80 36.5zM251 517q88 0 139 -47.5t51 -136.5v-333h-94l-5 66q-46 -77 -149 -77q-68 0 -109.5 38.5
t-41.5 105.5q0 121 148 149l144 26v23q0 91 -83 91q-39 0 -65 -21t-26 -59h-103q3 76 56 125.5t138 49.5zM213 202q-64 -14 -64 -64q0 -27 17.5 -42t50.5 -15q62 0 93 49q24 34 24 80v18z" />
    <glyph glyph-name="adieresis" unicode="&#xe4;" horiz-adv-x="502" 
d="M155 699q26 0 44 -17.5t18 -43.5t-18 -43.5t-44 -17.5t-44 17.5t-18 43.5t18 43.5t44 17.5zM351 699q26 0 44 -17.5t18 -43.5t-18 -43.5t-44 -17.5t-44 17.5t-18 43.5t18 43.5t44 17.5zM251 517q88 0 139 -47.5t51 -136.5v-333h-94l-5 66q-46 -77 -149 -77
q-68 0 -109.5 38.5t-41.5 105.5q0 121 148 149l144 26v23q0 91 -83 91q-39 0 -65 -21t-26 -59h-103q3 76 56 125.5t138 49.5zM213 202q-64 -14 -64 -64q0 -27 17.5 -42t50.5 -15q62 0 93 49q24 34 24 80v18z" />
    <glyph glyph-name="aring" unicode="&#xe5;" horiz-adv-x="502" 
d="M254 766q48 0 78.5 -30t30.5 -76q0 -45 -30.5 -75t-78.5 -30q-47 0 -77.5 30t-30.5 75q0 46 30.5 76t77.5 30zM254 708q-20 0 -33.5 -13.5t-13.5 -33.5t13.5 -34t33.5 -14q21 0 34.5 14t13.5 34t-13.5 33.5t-34.5 13.5zM251 517q88 0 139 -47.5t51 -136.5v-333h-94l-5 66
q-46 -77 -149 -77q-68 0 -109.5 38.5t-41.5 105.5q0 121 148 149l144 26v23q0 91 -83 91q-39 0 -65 -21t-26 -59h-103q3 76 56 125.5t138 49.5zM213 202q-64 -14 -64 -64q0 -27 17.5 -42t50.5 -15q62 0 93 49q24 34 24 80v18z" />
    <glyph glyph-name="ae" unicode="&#xe6;" horiz-adv-x="848" 
d="M813 257v-41h-369q4 -61 42.5 -97t97.5 -36q95 0 121 72h104q-23 -79 -81.5 -122.5t-146.5 -43.5q-133 0 -202 101q-62 -101 -181 -101q-72 0 -114 39t-42 103q0 122 148 150l144 27v20q0 94 -85 94q-39 0 -64 -20.5t-25 -59.5h-103q3 77 55 126t137 49q108 0 159 -69
q67 69 173 69q104 0 168 -67t64 -193zM445 299h261q-1 57 -35.5 91t-90.5 34q-57 0 -93.5 -35t-41.5 -90zM334 201v27l-114 -25q-37 -7 -54 -21.5t-17 -43.5q0 -26 18.5 -41.5t50.5 -15.5q61 0 91 45q25 34 25 75z" />
    <glyph glyph-name="ccedilla" unicode="&#xe7;" horiz-adv-x="545" 
d="M512 167q-18 -80 -72.5 -125.5t-132.5 -51.5l-10 -45q40 0 64.5 -22t24.5 -61q0 -44 -30 -68t-77 -24q-58 0 -92 34l35 50q21 -25 57 -25q40 0 40 32t-39 32q-15 0 -31 -4l-20 7l23 95q-97 11 -158 82.5t-61 178.5q0 115 70 190t179 75q89 0 151 -46t77 -132h-103
q-13 38 -45.5 59t-77.5 21q-61 0 -101.5 -47t-40.5 -120q0 -71 41 -118.5t103 -47.5q44 0 77 22.5t44 58.5h105z" />
    <glyph glyph-name="egrave" unicode="&#xe8;" horiz-adv-x="547" 
d="M327 574h-95l-148 158h133zM512 257v-41h-369q4 -61 42.5 -97t97.5 -36q95 0 121 72h104q-24 -79 -82 -122.5t-146 -43.5q-110 0 -178.5 72t-68.5 191q0 116 68 190.5t179 74.5q104 0 168 -67t64 -193zM143 299h262q-1 57 -35.5 91t-90.5 34q-57 0 -93.5 -35t-42.5 -90z
" />
    <glyph glyph-name="eacute" unicode="&#xe9;" horiz-adv-x="547" 
d="M463 732l-148 -158h-95l109 158h134zM512 257v-41h-369q4 -61 42.5 -97t97.5 -36q95 0 121 72h104q-24 -79 -82 -122.5t-146 -43.5q-110 0 -178.5 72t-68.5 191q0 116 68 190.5t179 74.5q104 0 168 -67t64 -193zM143 299h262q-1 57 -35.5 91t-90.5 34q-57 0 -93.5 -35
t-42.5 -90z" />
    <glyph glyph-name="ecircumflex" unicode="&#xea;" horiz-adv-x="547" 
d="M277 660l-63 -86h-112l138 158h73l138 -158h-112zM512 257v-41h-369q4 -61 42.5 -97t97.5 -36q95 0 121 72h104q-24 -79 -82 -122.5t-146 -43.5q-110 0 -178.5 72t-68.5 191q0 116 68 190.5t179 74.5q104 0 168 -67t64 -193zM143 299h262q-1 57 -35.5 91t-90.5 34
q-57 0 -93.5 -35t-42.5 -90z" />
    <glyph glyph-name="edieresis" unicode="&#xeb;" horiz-adv-x="547" 
d="M178 577q-26 0 -44 17.5t-18 43.5t18 43.5t44 17.5t44 -17.5t18 -43.5t-18 -43.5t-44 -17.5zM374 577q-26 0 -44 17.5t-18 43.5t18 43.5t44 17.5t44 -17.5t18 -43.5t-18 -43.5t-44 -17.5zM512 257v-41h-369q4 -61 42.5 -97t97.5 -36q95 0 121 72h104q-24 -79 -82 -122.5
t-146 -43.5q-110 0 -178.5 72t-68.5 191q0 116 68 190.5t179 74.5q104 0 168 -67t64 -193zM143 299h262q-1 57 -35.5 91t-90.5 34q-57 0 -93.5 -35t-42.5 -90z" />
    <glyph glyph-name="igrave" unicode="&#xec;" horiz-adv-x="254" 
d="M177 574h-95l-148 158h133zM180 0h-106v506h106v-506z" />
    <glyph glyph-name="iacute" unicode="&#xed;" horiz-adv-x="254" 
d="M165 574h-95l109 158h134zM180 0h-106v506h106v-506z" />
    <glyph glyph-name="icircumflex" unicode="&#xee;" horiz-adv-x="254" 
d="M301 574h-112l-62 86l-63 -86h-112l138 158h73zM180 0h-106v506h106v-506z" />
    <glyph glyph-name="idieresis" unicode="&#xef;" horiz-adv-x="254" 
d="M28 699q26 0 44 -17.5t18 -43.5t-18 -43.5t-44 -17.5t-44 17.5t-18 43.5t18 43.5t44 17.5zM224 699q26 0 44 -17.5t18 -43.5t-18 -43.5t-44 -17.5t-44 17.5t-18 43.5t18 43.5t44 17.5zM180 0h-106v506h106v-506z" />
    <glyph glyph-name="eth" unicode="&#xf0;" horiz-adv-x="562" 
d="M464 398q61 -78 61 -166q0 -107 -69 -175t-175 -68q-107 0 -175.5 68t-68.5 175q0 106 67 173t173 69l-55 71h-154v86h88l-76 99h130l76 -99h149v-86h-84zM281 84q61 0 99.5 41.5t38.5 106.5q0 58 -38 105l-3 5q-36 36 -97 36t-99 -41t-38 -105q0 -65 38 -106.5t99 -41.5
z" />
    <glyph glyph-name="ntilde" unicode="&#xf1;" horiz-adv-x="539" 
d="M225 713q28 0 48.5 -11t30 -24t22.5 -24t28 -11q37 0 37 61h66q0 -61 -27 -98t-80 -37q-28 0 -48.5 11t-30 24.5t-22.5 24.5t-28 11q-37 0 -37 -62h-66q0 62 27 98.5t80 36.5zM311 517q79 0 121.5 -51.5t42.5 -137.5v-328h-106v307q0 51 -22.5 78.5t-64.5 27.5
q-46 0 -75.5 -37.5t-29.5 -106.5v-269h-105v506h92l7 -68q19 35 55 57t85 22z" />
    <glyph glyph-name="ograve" unicode="&#xf2;" horiz-adv-x="587" 
d="M344 574h-95l-148 158h133zM293 517q114 0 187 -74t73 -190t-73 -190t-187 -74t-187 74t-73 190t73 190t187 74zM294 419q-68 0 -110 -46.5t-42 -119.5q0 -72 42.5 -119.5t109.5 -47.5t108.5 47.5t41.5 119.5q0 73 -41 119.5t-109 46.5z" />
    <glyph glyph-name="oacute" unicode="&#xf3;" horiz-adv-x="587" 
d="M332 574h-95l109 158h134zM293 517q114 0 187 -74t73 -190t-73 -190t-187 -74t-187 74t-73 190t73 190t187 74zM294 419q-68 0 -110 -46.5t-42 -119.5q0 -72 42.5 -119.5t109.5 -47.5t108.5 47.5t41.5 119.5q0 73 -41 119.5t-109 46.5z" />
    <glyph glyph-name="ocircumflex" unicode="&#xf4;" horiz-adv-x="587" 
d="M468 574h-112l-62 86l-63 -86h-112l138 158h73zM293 517q114 0 187 -74t73 -190t-73 -190t-187 -74t-187 74t-73 190t73 190t187 74zM294 419q-68 0 -110 -46.5t-42 -119.5q0 -72 42.5 -119.5t109.5 -47.5t108.5 47.5t41.5 119.5q0 73 -41 119.5t-109 46.5z" />
    <glyph glyph-name="otilde" unicode="&#xf5;" horiz-adv-x="587" 
d="M232 713q28 0 48.5 -11t30 -24t22.5 -24t28 -11q37 0 37 61h66q0 -61 -27 -98t-80 -37q-28 0 -48.5 11t-30 24.5t-22.5 24.5t-28 11q-37 0 -37 -62h-66q0 62 27 98.5t80 36.5zM293 517q114 0 187 -74t73 -190t-73 -190t-187 -74t-187 74t-73 190t73 190t187 74zM294 419
q-68 0 -110 -46.5t-42 -119.5q0 -72 42.5 -119.5t109.5 -47.5t108.5 47.5t41.5 119.5q0 73 -41 119.5t-109 46.5z" />
    <glyph glyph-name="odieresis" unicode="&#xf6;" horiz-adv-x="587" 
d="M195 699q26 0 44 -17.5t18 -43.5t-18 -43.5t-44 -17.5t-44 17.5t-18 43.5t18 43.5t44 17.5zM391 699q26 0 44 -17.5t18 -43.5t-18 -43.5t-44 -17.5t-44 17.5t-18 43.5t18 43.5t44 17.5zM293 517q114 0 187 -74t73 -190t-73 -190t-187 -74t-187 74t-73 190t73 190t187 74z
M294 419q-68 0 -110 -46.5t-42 -119.5q0 -72 42.5 -119.5t109.5 -47.5t108.5 47.5t41.5 119.5q0 73 -41 119.5t-109 46.5z" />
    <glyph glyph-name="divide" unicode="&#xf7;" horiz-adv-x="470" 
d="M228 603q29 0 49 -19t20 -48q0 -28 -20 -47t-49 -19t-48.5 19t-19.5 47t19.5 47.5t48.5 19.5zM441 303h-412v94h412v-94zM228 230q29 0 49 -19t20 -48q0 -28 -20 -47.5t-49 -19.5t-48.5 19.5t-19.5 47.5t19.5 47.5t48.5 19.5z" />
    <glyph glyph-name="oslash" unicode="&#xf8;" horiz-adv-x="587" 
d="M447 471q50 -35 78 -91.5t28 -126.5q0 -116 -73 -190t-187 -74q-49 0 -95 16l-42 -79l-58 26l43 82q-108 73 -108 219q0 116 73 190t187 74q52 0 98 -17l42 79l58 -27zM142 253q0 -79 49 -126l152 284q-24 8 -49 8q-68 0 -110 -46.5t-42 -119.5zM294 86q67 0 108.5 47.5
t41.5 119.5q0 78 -47 125l-151 -284q24 -8 48 -8z" />
    <glyph glyph-name="ugrave" unicode="&#xf9;" horiz-adv-x="535" 
d="M319 574h-95l-148 158h133zM464 0h-93l-7 68q-40 -79 -137 -79q-80 0 -121 51t-41 138v328h106v-307q0 -108 85 -108q45 0 73.5 36.5t28.5 101.5v277h106v-506z" />
    <glyph glyph-name="uacute" unicode="&#xfa;" horiz-adv-x="535" 
d="M307 574h-95l109 158h134zM464 0h-93l-7 68q-40 -79 -137 -79q-80 0 -121 51t-41 138v328h106v-307q0 -108 85 -108q45 0 73.5 36.5t28.5 101.5v277h106v-506z" />
    <glyph glyph-name="ucircumflex" unicode="&#xfb;" horiz-adv-x="535" 
d="M443 574h-112l-62 86l-63 -86h-112l138 158h73zM464 0h-93l-7 68q-40 -79 -137 -79q-80 0 -121 51t-41 138v328h106v-307q0 -108 85 -108q45 0 73.5 36.5t28.5 101.5v277h106v-506z" />
    <glyph glyph-name="udieresis" unicode="&#xfc;" horiz-adv-x="535" 
d="M170 699q26 0 44 -17.5t18 -43.5t-18 -43.5t-44 -17.5t-44 17.5t-18 43.5t18 43.5t44 17.5zM366 699q26 0 44 -17.5t18 -43.5t-18 -43.5t-44 -17.5t-44 17.5t-18 43.5t18 43.5t44 17.5zM464 0h-93l-7 68q-40 -79 -137 -79q-80 0 -121 51t-41 138v328h106v-307
q0 -108 85 -108q45 0 73.5 36.5t28.5 101.5v277h106v-506z" />
    <glyph glyph-name="yacute" unicode="&#xfd;" horiz-adv-x="509" 
d="M292 574h-95l109 158h134zM227 -215h-111l81 222l-185 499h113l118 -340l10 -40l10 40l118 340h114z" />
    <glyph glyph-name="thorn" unicode="&#xfe;" horiz-adv-x="614" 
d="M183 443q55 74 162 74q103 0 168.5 -75.5t65.5 -188.5t-66 -188.5t-169 -75.5q-108 0 -161 74v-278h-106v945h106v-287zM326 416q-59 0 -101.5 -39.5t-43.5 -110.5v-23q0 -72 42.5 -113.5t101.5 -41.5q63 0 104 46t41 119q0 72 -40.5 117.5t-103.5 45.5z" />
    <glyph glyph-name="ydieresis" unicode="&#xff;" horiz-adv-x="509" 
d="M155 699q26 0 44 -17.5t18 -43.5t-18 -43.5t-44 -17.5t-44 17.5t-18 43.5t18 43.5t44 17.5zM351 699q26 0 44 -17.5t18 -43.5t-18 -43.5t-44 -17.5t-44 17.5t-18 43.5t18 43.5t44 17.5zM227 -215h-111l81 222l-185 499h113l118 -340l10 -40l10 40l118 340h114z" />
    <glyph glyph-name="Amacron" unicode="&#x100;" horiz-adv-x="704" 
d="M486 739h-270v83h270v-83zM688 0h-122l-67 171h-295l-67 -171h-122l277 700h120zM338 522l-98 -250h223l-99 250l-13 39z" />
    <glyph glyph-name="amacron" unicode="&#x101;" horiz-adv-x="502" 
d="M389 592h-270v82h270v-82zM251 517q88 0 139 -47.5t51 -136.5v-333h-94l-5 66q-46 -77 -149 -77q-68 0 -109.5 38.5t-41.5 105.5q0 121 148 149l144 26v23q0 91 -83 91q-39 0 -65 -21t-26 -59h-103q3 76 56 125.5t138 49.5zM213 202q-64 -14 -64 -64q0 -27 17.5 -42
t50.5 -15q62 0 93 49q24 34 24 80v18z" />
    <glyph glyph-name="Abreve" unicode="&#x102;" horiz-adv-x="704" 
d="M502 859q0 -58 -42 -94t-109 -36t-109 36t-42 94h87q0 -26 17 -42t47 -16t47 16t17 42h87zM688 0h-122l-67 171h-295l-67 -171h-122l277 700h120zM338 522l-98 -250h223l-99 250l-13 39z" />
    <glyph glyph-name="abreve" unicode="&#x103;" horiz-adv-x="502" 
d="M404 711q0 -64 -42 -104.5t-109 -40.5t-109 40.5t-42 104.5h87q0 -32 17.5 -53t46.5 -21t46.5 21t17.5 53h87zM251 517q88 0 139 -47.5t51 -136.5v-333h-94l-5 66q-46 -77 -149 -77q-68 0 -109.5 38.5t-41.5 105.5q0 121 148 149l144 26v23q0 91 -83 91q-39 0 -65 -21
t-26 -59h-103q3 76 56 125.5t138 49.5zM213 202q-64 -14 -64 -64q0 -27 17.5 -42t50.5 -15q62 0 93 49q24 34 24 80v18z" />
    <glyph glyph-name="Aogonek" unicode="&#x104;" horiz-adv-x="704" 
d="M683 -131l15 -58q-21 -12 -60 -12q-52 0 -85.5 30t-33.5 82q0 56 45 94l-65 166h-295l-67 -171h-122l277 700h120l276 -700h-31q-68 -30 -68 -86q0 -25 14 -39t39 -14t41 8zM240 272h223l-99 250l-13 39l-13 -39z" />
    <glyph glyph-name="aogonek" unicode="&#x105;" horiz-adv-x="502" 
d="M459 -131l15 -58q-21 -12 -60 -12q-52 0 -85.5 30t-33.5 82q0 60 52 99l-5 56q-46 -77 -149 -77q-68 0 -109.5 38.5t-41.5 105.5q0 121 148 149l144 26v23q0 91 -83 91q-39 0 -65 -21t-26 -59h-103q3 76 56 125.5t138 49.5q88 0 139 -47.5t51 -136.5v-333h-8
q-68 -30 -68 -86q0 -25 14 -39t39 -14t41 8zM334 210v18l-121 -26q-64 -14 -64 -64q0 -27 17.5 -42t50.5 -15q62 0 93 49q24 34 24 80z" />
    <glyph glyph-name="Cacute" unicode="&#x106;" horiz-adv-x="730" 
d="M429 743h-111l95 114h153zM385 713q125 0 206 -61t110 -168h-123q-46 125 -193 125q-102 0 -166.5 -73t-64.5 -186q0 -112 65 -185.5t168 -73.5q77 0 126.5 35t70.5 94h119q-30 -112 -110 -172.5t-206 -60.5q-153 0 -251.5 103t-98.5 260t98 260t250 103z" />
    <glyph glyph-name="cacute" unicode="&#x107;" horiz-adv-x="545" 
d="M321 574h-95l109 158h134zM282 517q89 0 151 -46t77 -132h-103q-13 38 -45.5 59t-77.5 21q-61 0 -101.5 -47t-40.5 -120q0 -71 41 -118.5t103 -47.5q44 0 77 22.5t44 58.5h105q-19 -86 -81 -132t-149 -46q-108 0 -178.5 73.5t-70.5 189.5q0 115 70 190t179 75z" />
    <glyph glyph-name="Ccircumflex" unicode="&#x108;" horiz-adv-x="730" 
d="M566 742h-122l-58 53l-57 -53h-122l148 119h64zM385 713q125 0 206 -61t110 -168h-123q-46 125 -193 125q-102 0 -166.5 -73t-64.5 -186q0 -112 65 -185.5t168 -73.5q77 0 126.5 35t70.5 94h119q-30 -112 -110 -172.5t-206 -60.5q-153 0 -251.5 103t-98.5 260t98 260
t250 103z" />
    <glyph glyph-name="ccircumflex" unicode="&#x109;" horiz-adv-x="545" 
d="M457 574h-112l-62 86l-63 -86h-112l138 158h73zM282 517q89 0 151 -46t77 -132h-103q-13 38 -45.5 59t-77.5 21q-61 0 -101.5 -47t-40.5 -120q0 -71 41 -118.5t103 -47.5q44 0 77 22.5t44 58.5h105q-19 -86 -81 -132t-149 -46q-108 0 -178.5 73.5t-70.5 189.5
q0 115 70 190t179 75z" />
    <glyph glyph-name="Cdotaccent" unicode="&#x10a;" horiz-adv-x="730" 
d="M385 867q27 0 45.5 -18t18.5 -44q0 -27 -18.5 -45.5t-45.5 -18.5t-45.5 18.5t-18.5 45.5q0 26 18.5 44t45.5 18zM385 713q125 0 206 -61t110 -168h-123q-46 125 -193 125q-102 0 -166.5 -73t-64.5 -186q0 -112 65 -185.5t168 -73.5q77 0 126.5 35t70.5 94h119
q-30 -112 -110 -172.5t-206 -60.5q-153 0 -251.5 103t-98.5 260t98 260t250 103z" />
    <glyph glyph-name="cdotaccent" unicode="&#x10b;" horiz-adv-x="545" 
d="M282 713q28 0 48 -19.5t20 -47.5t-19.5 -47.5t-48.5 -19.5t-48.5 19.5t-19.5 47.5t20 47.5t48 19.5zM282 517q89 0 151 -46t77 -132h-103q-13 38 -45.5 59t-77.5 21q-61 0 -101.5 -47t-40.5 -120q0 -71 41 -118.5t103 -47.5q44 0 77 22.5t44 58.5h105q-19 -86 -81 -132
t-149 -46q-108 0 -178.5 73.5t-70.5 189.5q0 115 70 190t179 75z" />
    <glyph glyph-name="Ccaron" unicode="&#x10c;" horiz-adv-x="730" 
d="M419 739h-64l-148 119h122l57 -53l58 53h122zM385 713q125 0 206 -61t110 -168h-123q-46 125 -193 125q-102 0 -166.5 -73t-64.5 -186q0 -112 65 -185.5t168 -73.5q77 0 126.5 35t70.5 94h119q-30 -112 -110 -172.5t-206 -60.5q-153 0 -251.5 103t-98.5 260t98 260
t250 103z" />
    <glyph glyph-name="ccaron" unicode="&#x10d;" horiz-adv-x="545" 
d="M319 563h-73l-138 158h112l63 -86l62 86h112zM282 517q89 0 151 -46t77 -132h-103q-13 38 -45.5 59t-77.5 21q-61 0 -101.5 -47t-40.5 -120q0 -71 41 -118.5t103 -47.5q44 0 77 22.5t44 58.5h105q-19 -86 -81 -132t-149 -46q-108 0 -178.5 73.5t-70.5 189.5q0 115 70 190
t179 75z" />
    <glyph glyph-name="Dcaron" unicode="&#x10e;" horiz-adv-x="729" 
d="M365 729h-64l-148 119h122l57 -53l58 53h122zM330 700q163 0 260.5 -96.5t97.5 -253.5q0 -158 -97.5 -254t-260.5 -96h-256v700h256zM186 596v-492h144q114 0 178.5 65t64.5 181t-64 181t-179 65h-144z" />
    <glyph glyph-name="dcaron" unicode="&#x10f;" 
d="M536 0h-93l-7 71q-57 -82 -168 -82q-103 0 -169 75.5t-66 188.5t66.5 188.5t169.5 75.5q56 0 97.5 -21t63.5 -54v288h106v-730zM672 730q29 0 49 -20.5t20 -53.5q0 -95 -78 -184l-32 12q25 51 33 114q-26 2 -43 20t-17 44q0 28 20 48t48 20zM288 416q-64 0 -105 -45.5
t-41 -117.5q0 -73 40.5 -119t104.5 -46q59 0 102 44t43 117v5q-1 73 -44 117.5t-100 44.5z" />
    <glyph glyph-name="Dcroat" unicode="&#x110;" horiz-adv-x="738" 
d="M340 700q163 0 260.5 -96.5t97.5 -253.5q0 -158 -97.5 -254t-260.5 -96h-257v316h-81v82h81v302h257zM340 104q114 0 178 65t64 181t-64 181t-178 65h-145v-198h116v-82h-116v-212h145z" />
    <glyph glyph-name="dcroat" unicode="&#x111;" horiz-adv-x="612" 
d="M608 676v-80h-72v-596h-93l-7 71q-57 -82 -168 -82q-103 0 -169 75.5t-66 188.5t66.5 188.5t169.5 75.5q56 0 97.5 -21t63.5 -54v154h-97v80h97v54h106v-54h72zM432 249v5q-1 73 -44 117.5t-100 44.5q-64 0 -105 -45.5t-41 -117.5q0 -73 40.5 -119t104.5 -46q59 0 102 44
t43 117z" />
    <glyph glyph-name="Emacron" unicode="&#x112;" horiz-adv-x="512" 
d="M415 739h-270v83h270v-83zM467 596h-281v-184h245v-104h-245v-204h281v-104h-393v700h393v-104z" />
    <glyph glyph-name="emacron" unicode="&#x113;" horiz-adv-x="547" 
d="M411 674v-82h-270v82h270zM512 257v-41h-369q4 -61 42.5 -97t97.5 -36q95 0 121 72h104q-24 -79 -82 -122.5t-146 -43.5q-110 0 -178.5 72t-68.5 191q0 116 68 190.5t179 74.5q104 0 168 -67t64 -193zM143 299h262q-1 57 -35.5 91t-90.5 34q-57 0 -93.5 -35t-42.5 -90z
" />
    <glyph glyph-name="Ebreve" unicode="&#x114;" horiz-adv-x="512" 
d="M431 859q0 -58 -42 -94t-109 -36t-109 36t-42 94h87q0 -26 17 -42t47 -16t47 16t17 42h87zM467 596h-281v-184h245v-104h-245v-204h281v-104h-393v700h393v-104z" />
    <glyph glyph-name="ebreve" unicode="&#x115;" horiz-adv-x="547" 
d="M276 566q-67 0 -109 40.5t-42 104.5h87q0 -32 17.5 -53t46.5 -21t46.5 21t17.5 53h87q0 -64 -42 -104.5t-109 -40.5zM512 257v-41h-369q4 -61 42.5 -97t97.5 -36q95 0 121 72h104q-24 -79 -82 -122.5t-146 -43.5q-110 0 -178.5 72t-68.5 191q0 116 68 190.5t179 74.5
q104 0 168 -67t64 -193zM143 299h262q-1 57 -35.5 91t-90.5 34q-57 0 -93.5 -35t-42.5 -90z" />
    <glyph glyph-name="Edotaccent" unicode="&#x116;" horiz-adv-x="512" 
d="M280 857q27 0 45.5 -18t18.5 -44q0 -27 -18.5 -45.5t-45.5 -18.5t-45.5 18.5t-18.5 45.5q0 26 18.5 44t45.5 18zM467 596h-281v-184h245v-104h-245v-204h281v-104h-393v700h393v-104z" />
    <glyph glyph-name="edotaccent" unicode="&#x117;" horiz-adv-x="547" 
d="M277 579q-29 0 -48.5 19.5t-19.5 47.5t20 47.5t48 19.5t48 -19.5t20 -47.5t-19.5 -47.5t-48.5 -19.5zM512 257v-41h-369q4 -61 42.5 -97t97.5 -36q95 0 121 72h104q-24 -79 -82 -122.5t-146 -43.5q-110 0 -178.5 72t-68.5 191q0 116 68 190.5t179 74.5q104 0 168 -67
t64 -193zM143 299h262q-1 57 -35.5 91t-90.5 34q-57 0 -93.5 -35t-42.5 -90z" />
    <glyph glyph-name="Eogonek" unicode="&#x118;" horiz-adv-x="512" 
d="M470 -131l15 -58q-21 -12 -60 -12q-52 0 -85.5 30t-33.5 82q0 54 40 89h-272v700h393v-104h-281v-184h245v-104h-245v-204h281v-104h-23q-68 -30 -68 -86q0 -25 14 -39t39 -14t41 8z" />
    <glyph glyph-name="eogonek" unicode="&#x119;" horiz-adv-x="547" 
d="M512 257v-41h-369q4 -61 42.5 -97t97.5 -36q95 0 121 72h104q-24 -82 -86 -126h-1q-19 -13 -33 -19q-34 -24 -34 -67q0 -25 14 -39t39 -14t41 8l15 -58q-21 -12 -60 -12q-52 0 -85.5 30t-33.5 82q0 26 10 49h-14q-110 0 -178.5 72t-68.5 191q0 116 68 190.5t179 74.5
q104 0 168 -67t64 -193zM143 299h262q-1 57 -35.5 91t-90.5 34q-57 0 -93.5 -35t-42.5 -90z" />
    <glyph glyph-name="Ecaron" unicode="&#x11a;" horiz-adv-x="512" 
d="M313 729h-64l-148 119h122l57 -53l58 53h122zM467 596h-281v-184h245v-104h-245v-204h281v-104h-393v700h393v-104z" />
    <glyph glyph-name="ecaron" unicode="&#x11b;" horiz-adv-x="547" 
d="M313 563h-73l-138 158h112l63 -86l62 86h112zM512 257v-41h-369q4 -61 42.5 -97t97.5 -36q95 0 121 72h104q-24 -79 -82 -122.5t-146 -43.5q-110 0 -178.5 72t-68.5 191q0 116 68 190.5t179 74.5q104 0 168 -67t64 -193zM143 299h262q-1 57 -35.5 91t-90.5 34
q-57 0 -93.5 -35t-42.5 -90z" />
    <glyph glyph-name="Gcircumflex" unicode="&#x11c;" horiz-adv-x="749" 
d="M566 742h-122l-58 53l-57 -53h-122l148 119h64zM385 713q125 0 206 -61t110 -168h-123q-46 125 -194 125q-101 0 -165.5 -73.5t-64.5 -185.5t65 -185.5t169 -73.5q90 0 143.5 44t57.5 128h-190v105h309v-54q0 -153 -86.5 -240t-233.5 -87q-154 0 -252.5 103t-98.5 260
t98 260t250 103z" />
    <glyph glyph-name="gcircumflex" unicode="&#x11d;" horiz-adv-x="510" 
d="M259 660l-63 -86h-112l138 158h73l138 -158h-112zM512 506v-92h-81q17 -36 17 -78q0 -77 -54 -127.5t-141 -50.5q-56 0 -98 21q-17 -19 -17 -44q0 -22 16 -34.5t43 -12.5h127q79 0 120.5 -37t41.5 -104q0 -82 -58 -127.5t-158 -45.5q-109 0 -167 40.5t-58 115.5
q0 60 54 91q-64 37 -64 106q0 66 53 105q-34 45 -34 104q0 79 55.5 130t143.5 51q37 0 72 -11h187zM252 243q42 0 67.5 26.5t25.5 66.5q0 42 -25.5 68.5t-67.5 26.5q-43 0 -68.5 -26.5t-25.5 -68.5q0 -40 26 -66.5t68 -26.5zM213 2q-28 -2 -46 -18.5t-18 -46.5q0 -38 32 -58
t89 -20q53 0 82.5 21t29.5 61q0 61 -82 61h-87z" />
    <glyph glyph-name="Gbreve" unicode="&#x11e;" horiz-adv-x="749" 
d="M536 869q0 -58 -42 -94t-109 -36t-109 36t-42 94h87q0 -26 17 -42t47 -16t47 16t17 42h87zM385 713q125 0 206 -61t110 -168h-123q-46 125 -194 125q-101 0 -165.5 -73.5t-64.5 -185.5t65 -185.5t169 -73.5q90 0 143.5 44t57.5 128h-190v105h309v-54q0 -153 -86.5 -240
t-233.5 -87q-154 0 -252.5 103t-98.5 260t98 260t250 103z" />
    <glyph glyph-name="gbreve" unicode="&#x11f;" horiz-adv-x="510" 
d="M258 566q-67 0 -109 40.5t-42 104.5h87q0 -32 17.5 -53t46.5 -21t46.5 21t17.5 53h87q0 -64 -42 -104.5t-109 -40.5zM512 506v-92h-81q17 -36 17 -78q0 -77 -54 -127.5t-141 -50.5q-56 0 -98 21q-17 -19 -17 -44q0 -22 16 -34.5t43 -12.5h127q79 0 120.5 -37t41.5 -104
q0 -82 -58 -127.5t-158 -45.5q-109 0 -167 40.5t-58 115.5q0 60 54 91q-64 37 -64 106q0 66 53 105q-34 45 -34 104q0 79 55.5 130t143.5 51q37 0 72 -11h187zM252 243q42 0 67.5 26.5t25.5 66.5q0 42 -25.5 68.5t-67.5 26.5q-43 0 -68.5 -26.5t-25.5 -68.5q0 -40 26 -66.5
t68 -26.5zM213 2q-28 -2 -46 -18.5t-18 -46.5q0 -38 32 -58t89 -20q53 0 82.5 21t29.5 61q0 61 -82 61h-87z" />
    <glyph glyph-name="Gdotaccent" unicode="&#x120;" horiz-adv-x="749" 
d="M385 867q27 0 45.5 -18t18.5 -44q0 -27 -18.5 -45.5t-45.5 -18.5t-45.5 18.5t-18.5 45.5q0 26 18.5 44t45.5 18zM385 713q125 0 206 -61t110 -168h-123q-46 125 -194 125q-101 0 -165.5 -73.5t-64.5 -185.5t65 -185.5t169 -73.5q90 0 143.5 44t57.5 128h-190v105h309v-54
q0 -153 -86.5 -240t-233.5 -87q-154 0 -252.5 103t-98.5 260t98 260t250 103z" />
    <glyph glyph-name="gdotaccent" unicode="&#x121;" horiz-adv-x="510" 
d="M259 579q-29 0 -48.5 19.5t-19.5 47.5t20 47.5t48 19.5t48 -19.5t20 -47.5t-19.5 -47.5t-48.5 -19.5zM512 506v-92h-81q17 -36 17 -78q0 -77 -54 -127.5t-141 -50.5q-56 0 -98 21q-17 -19 -17 -44q0 -22 16 -34.5t43 -12.5h127q79 0 120.5 -37t41.5 -104
q0 -82 -58 -127.5t-158 -45.5q-109 0 -167 40.5t-58 115.5q0 60 54 91q-64 37 -64 106q0 66 53 105q-34 45 -34 104q0 79 55.5 130t143.5 51q37 0 72 -11h187zM252 243q42 0 67.5 26.5t25.5 66.5q0 42 -25.5 68.5t-67.5 26.5q-43 0 -68.5 -26.5t-25.5 -68.5q0 -40 26 -66.5
t68 -26.5zM213 2q-28 -2 -46 -18.5t-18 -46.5q0 -38 32 -58t89 -20q53 0 82.5 21t29.5 61q0 61 -82 61h-87z" />
    <glyph glyph-name="Gcommaaccent" unicode="&#x122;" horiz-adv-x="749" 
d="M385 713q125 0 206 -61t110 -168h-123q-46 125 -194 125q-101 0 -165.5 -73.5t-64.5 -185.5t65 -185.5t169 -73.5q90 0 143.5 44t57.5 128h-190v105h309v-54q0 -153 -86.5 -240t-233.5 -87q-154 0 -252.5 103t-98.5 260t98 260t250 103zM389 -45q29 0 48.5 -20.5
t19.5 -53.5q0 -43 -22 -89t-56 -79l-29 15q26 44 30 95q-26 2 -42.5 20t-16.5 44q0 29 19.5 48.5t48.5 19.5z" />
    <glyph glyph-name="gcommaaccent" unicode="&#x123;" horiz-adv-x="510" 
d="M259 567q-30 0 -49.5 20.5t-19.5 53.5q0 93 77 183l32 -12q-26 -51 -32 -113q26 -3 43 -21t17 -44q0 -28 -20 -47.5t-48 -19.5zM512 506v-92h-81q17 -36 17 -78q0 -77 -54 -127.5t-141 -50.5q-56 0 -98 21q-17 -19 -17 -44q0 -22 16 -34.5t43 -12.5h127q79 0 120.5 -37
t41.5 -104q0 -82 -58 -127.5t-158 -45.5q-109 0 -167 40.5t-58 115.5q0 60 54 91q-64 37 -64 106q0 66 53 105q-34 45 -34 104q0 79 55.5 130t143.5 51q37 0 72 -11h187zM252 243q42 0 67.5 26.5t25.5 66.5q0 42 -25.5 68.5t-67.5 26.5q-43 0 -68.5 -26.5t-25.5 -68.5
q0 -40 26 -66.5t68 -26.5zM213 2q-28 -2 -46 -18.5t-18 -46.5q0 -38 32 -58t89 -20q53 0 82.5 21t29.5 61q0 61 -82 61h-87z" />
    <glyph glyph-name="Hcircumflex" unicode="&#x124;" horiz-adv-x="710" 
d="M535 732h-122l-58 53l-57 -53h-122l148 119h64zM636 0h-112v310h-338v-310h-112v700h112v-285h338v285h112v-700z" />
    <glyph glyph-name="hcircumflex" unicode="&#x125;" horiz-adv-x="539" 
d="M304 755h-123l-58 53l-56 -53h-123l148 120h64zM177 447q41 70 134 70q79 0 121.5 -51.5t42.5 -137.5v-328h-106v307q0 51 -22.5 78.5t-64.5 27.5q-46 0 -75.5 -37.5t-29.5 -106.5v-269h-105v730h105v-283z" />
    <glyph glyph-name="Hbar" unicode="&#x126;" horiz-adv-x="726" 
d="M719 606v-81h-75v-525h-112v310h-339v-310h-112v525h-74v81h74v94h112v-94h339v94h112v-94h75zM532 415v110h-339v-110h339z" />
    <glyph glyph-name="hbar" unicode="&#x127;" horiz-adv-x="544" 
d="M316 517q79 0 121.5 -51.5t42.5 -137.5v-328h-106v307q0 51 -22.5 78.5t-64.5 27.5q-46 0 -75.5 -37.5t-29.5 -106.5v-269h-105v596h-73v80h73v54h105v-54h97v-80h-97v-149q41 70 134 70z" />
    <glyph glyph-name="Itilde" unicode="&#x128;" horiz-adv-x="259" 
d="M67 864q28 0 49 -10t30.5 -22.5t22 -22.5t27.5 -10q37 0 37 56h66q0 -59 -27 -94.5t-80 -35.5q-36 0 -58.5 16.5t-37.5 33t-33 16.5q-37 0 -37 -57h-66q0 60 27 95t80 35zM186 0h-112v700h112v-700z" />
    <glyph glyph-name="itilde" unicode="&#x129;" horiz-adv-x="254" 
d="M65 713q28 0 48.5 -11t30 -24t22.5 -24t28 -11q37 0 37 61h66q0 -61 -27 -98t-80 -37q-28 0 -48.5 11t-30 24.5t-22.5 24.5t-28 11q-37 0 -37 -62h-66q0 62 27 98.5t80 36.5zM180 0h-106v506h106v-506z" />
    <glyph glyph-name="Imacron" unicode="&#x12a;" horiz-adv-x="259" 
d="M264 739h-270v83h270v-83zM186 0h-112v700h112v-700z" />
    <glyph glyph-name="imacron" unicode="&#x12b;" horiz-adv-x="254" 
d="M262 592h-270v82h270v-82zM180 0h-106v506h106v-506z" />
    <glyph glyph-name="Ibreve" unicode="&#x12c;" horiz-adv-x="259" 
d="M280 859q0 -58 -42 -94t-109 -36t-109 36t-42 94h87q0 -26 17 -42t47 -16t47 16t17 42h87zM186 0h-112v700h112v-700z" />
    <glyph glyph-name="ibreve" unicode="&#x12d;" horiz-adv-x="254" 
d="M277 711q0 -64 -42 -104.5t-109 -40.5t-109 40.5t-42 104.5h87q0 -32 17.5 -53t46.5 -21t46.5 21t17.5 53h87zM180 0h-106v506h106v-506z" />
    <glyph glyph-name="Iogonek" unicode="&#x12e;" horiz-adv-x="259" 
d="M179 -131l15 -58q-21 -12 -60 -12q-52 0 -85.5 30t-33.5 82q0 65 59 104v685h112v-700h-33q-68 -30 -68 -86q0 -25 14 -39t39 -14t41 8z" />
    <glyph glyph-name="iogonek" unicode="&#x12f;" horiz-adv-x="254" 
d="M127 591q-29 0 -48.5 19t-19.5 47q0 29 19.5 48.5t48.5 19.5t48.5 -19.5t19.5 -48.5q0 -28 -19.5 -47t-48.5 -19zM189 -131l15 -58q-21 -12 -60 -12q-52 0 -85.5 30t-33.5 82q0 59 49 97v498h106v-506h-17q-68 -30 -68 -86q0 -25 14 -39t39 -14t41 8z" />
    <glyph glyph-name="Idotaccent" unicode="&#x130;" horiz-adv-x="259" 
d="M129 857q27 0 45.5 -18t18.5 -44q0 -27 -18.5 -45.5t-45.5 -18.5t-45.5 18.5t-18.5 45.5q0 26 18.5 44t45.5 18zM186 0h-112v700h112v-700z" />
    <glyph glyph-name="dotlessi" unicode="&#x131;" horiz-adv-x="254" 
d="M180 0h-106v506h106v-506z" />
    <glyph glyph-name="Jcircumflex" unicode="&#x134;" horiz-adv-x="512" 
d="M570 732h-122l-58 53l-57 -53h-122l148 119h64zM447 207q0 -106 -53 -161t-152 -55q-107 0 -160.5 61t-56.5 169h112q5 -125 105 -125q45 0 69 30.5t24 86.5v487h112v-493z" />
    <glyph glyph-name="jcircumflex" unicode="&#x135;" horiz-adv-x="254" 
d="M302 574h-112l-62 86l-63 -86h-112l138 158h74zM180 -40q0 -186 -160 -186q-47 0 -74 9v96q24 -9 56 -9q39 0 55.5 23t16.5 69v544h106v-546z" />
    <glyph glyph-name="Kcommaaccent" unicode="&#x136;" horiz-adv-x="674" 
d="M377 387l281 -387h-138l-218 299l-112 -140v-159h-112v700h112v-378l284 378h138zM343 -35q29 0 48.5 -20.5t19.5 -53.5q0 -43 -22 -89t-56 -79l-29 15q26 44 30 95q-26 2 -42.5 20t-16.5 44q0 29 19.5 48.5t48.5 19.5z" />
    <glyph glyph-name="kcommaaccent" unicode="&#x137;" horiz-adv-x="512" 
d="M177 283l171 223h127l-156 -211l182 -295h-121l-135 213l-68 -83v-130h-105v730h105v-447zM276 -35q29 0 48.5 -20.5t19.5 -53.5q0 -43 -22 -89t-56 -79l-29 15q26 44 30 95q-26 2 -42.5 20t-16.5 44q0 29 20 48.5t48 19.5z" />
    <glyph glyph-name="Lacute" unicode="&#x139;" horiz-adv-x="510" 
d="M172 733h-111l95 114h153zM185 104h302v-104h-414v700h112v-596z" />
    <glyph glyph-name="lacute" unicode="&#x13a;" horiz-adv-x="249" 
d="M184 765h-112l95 114h153zM177 0h-105v730h105v-730z" />
    <glyph glyph-name="Lcommaaccent" unicode="&#x13b;" horiz-adv-x="510" 
d="M185 104h302v-104h-414v700h112v-596zM285 -35q29 0 48.5 -20.5t19.5 -53.5q0 -43 -22 -89t-56 -79l-29 15q26 44 30 95q-26 2 -42.5 20t-16.5 44q0 29 19.5 48.5t48.5 19.5z" />
    <glyph glyph-name="lcommaaccent" unicode="&#x13c;" horiz-adv-x="249" 
d="M177 0h-105v730h105v-730zM126 -35q29 0 48.5 -20.5t19.5 -53.5q0 -43 -22 -89t-56 -79l-29 15q26 44 30 95q-26 2 -42.5 20t-16.5 44q0 29 20 48.5t48 19.5z" />
    <glyph glyph-name="Lcaron" unicode="&#x13d;" horiz-adv-x="510" 
d="M441 705q29 0 49 -20.5t20 -53.5q0 -95 -78 -184l-32 12q26 51 33 114q-26 2 -43 20t-17 44q0 29 19.5 48.5t48.5 19.5zM185 104h302v-104h-414v700h112v-596z" />
    <glyph glyph-name="lcaron" unicode="&#x13e;" horiz-adv-x="249" 
d="M177 0h-105v730h105v-730zM316 730q29 0 49 -20.5t20 -53.5q0 -95 -78 -184l-32 12q25 51 33 114q-26 2 -43 20t-17 44q0 28 20 48t48 20z" />
    <glyph glyph-name="Ldot" unicode="&#x13f;" horiz-adv-x="510" 
d="M185 104h302v-104h-414v700h112v-596zM397 400q30 0 50.5 -20t20.5 -49q0 -30 -20.5 -50t-50.5 -20t-50 20t-20 50q0 29 20 49t50 20z" />
    <glyph glyph-name="ldot" unicode="&#x140;" horiz-adv-x="395" 
d="M177 0h-105v730h105v-730zM320 329q30 0 50.5 -20t20.5 -49q0 -30 -20.5 -50t-50.5 -20t-50 20t-20 50q0 29 20 49t50 20z" />
    <glyph glyph-name="Lslash" unicode="&#x141;" horiz-adv-x="525" 
d="M199 104h303v-104h-415v262l-73 -29l-27 75l100 40v352h112v-308l84 34l28 -76l-112 -44v-202z" />
    <glyph glyph-name="lslash" unicode="&#x142;" horiz-adv-x="287" 
d="M299 346l-106 -42v-304h-105v262l-73 -30l-27 75l100 40v383h105v-340l78 31z" />
    <glyph glyph-name="Nacute" unicode="&#x143;" horiz-adv-x="718" 
d="M402 733h-111l95 114h153zM645 0h-111l-321 466l-27 45v-511h-112v700h110l320 -466l29 -47v513h112v-700z" />
    <glyph glyph-name="nacute" unicode="&#x144;" horiz-adv-x="539" 
d="M325 574h-95l109 158h134zM311 517q79 0 121.5 -51.5t42.5 -137.5v-328h-106v307q0 51 -22.5 78.5t-64.5 27.5q-46 0 -75.5 -37.5t-29.5 -106.5v-269h-105v506h92l7 -68q19 35 55 57t85 22z" />
    <glyph glyph-name="Ncommaaccent" unicode="&#x145;" horiz-adv-x="718" 
d="M645 0h-111l-321 466l-27 45v-511h-112v700h110l320 -466l29 -47v513h112v-700zM358 -35q29 0 48.5 -20.5t19.5 -53.5q0 -43 -22 -89t-56 -79l-29 15q26 44 30 95q-26 2 -42.5 20t-16.5 44q0 29 20 48.5t48 19.5z" />
    <glyph glyph-name="ncommaaccent" unicode="&#x146;" horiz-adv-x="539" 
d="M311 517q79 0 121.5 -51.5t42.5 -137.5v-328h-106v307q0 51 -22.5 78.5t-64.5 27.5q-46 0 -75.5 -37.5t-29.5 -106.5v-269h-105v506h92l7 -68q19 35 55 57t85 22zM273 -35q29 0 48.5 -20.5t19.5 -53.5q0 -43 -22 -89t-56 -79l-29 15q26 44 30 95q-26 2 -42.5 20t-16.5 44
q0 29 19.5 48.5t48.5 19.5z" />
    <glyph glyph-name="Ncaron" unicode="&#x147;" horiz-adv-x="718" 
d="M392 729h-64l-148 119h122l57 -53l58 53h122zM645 0h-111l-321 466l-27 45v-511h-112v700h110l320 -466l29 -47v513h112v-700z" />
    <glyph glyph-name="ncaron" unicode="&#x148;" horiz-adv-x="539" 
d="M323 563h-73l-138 158h112l63 -86l62 86h112zM311 517q79 0 121.5 -51.5t42.5 -137.5v-328h-106v307q0 51 -22.5 78.5t-64.5 27.5q-46 0 -75.5 -37.5t-29.5 -106.5v-269h-105v506h92l7 -68q19 35 55 57t85 22z" />
    <glyph glyph-name="Eng" unicode="&#x14a;" horiz-adv-x="718" 
d="M533 700h112v-699v-1q0 -106 -54.5 -160.5t-155.5 -54.5v100q47 0 72.5 28.5t25.5 81.5v6l-320 465l-27 45v-511h-112v700h110l320 -466l29 -47v513z" />
    <glyph glyph-name="eng" unicode="&#x14b;" horiz-adv-x="539" 
d="M311 517q79 0 121.5 -51.5t42.5 -137.5v-368q0 -186 -188 -186v96q44 0 63 23t19 69v345q0 51 -22.5 78.5t-64.5 27.5q-46 0 -75.5 -37.5t-29.5 -106.5v-269h-105v506h92l7 -68q19 35 55 57t85 22z" />
    <glyph glyph-name="Omacron" unicode="&#x14c;" horiz-adv-x="795" 
d="M533 749h-270v83h270v-83zM398 713q157 0 258 -102.5t101 -259.5t-101 -260.5t-258 -103.5q-158 0 -259.5 103.5t-101.5 260.5t101.5 259.5t259.5 102.5zM398 609q-108 0 -176 -73t-68 -185q0 -113 68 -186.5t176 -73.5t175.5 73.5t67.5 186.5q0 112 -67.5 185t-175.5 73
z" />
    <glyph glyph-name="omacron" unicode="&#x14d;" horiz-adv-x="587" 
d="M429 592h-270v82h270v-82zM293 517q114 0 187 -74t73 -190t-73 -190t-187 -74t-187 74t-73 190t73 190t187 74zM294 419q-68 0 -110 -46.5t-42 -119.5q0 -72 42.5 -119.5t109.5 -47.5t108.5 47.5t41.5 119.5q0 73 -41 119.5t-109 46.5z" />
    <glyph glyph-name="Obreve" unicode="&#x14e;" horiz-adv-x="795" 
d="M549 869q0 -58 -42 -94t-109 -36t-109 36t-42 94h87q0 -26 17 -42t47 -16t47 16t17 42h87zM398 713q157 0 258 -102.5t101 -259.5t-101 -260.5t-258 -103.5q-158 0 -259.5 103.5t-101.5 260.5t101.5 259.5t259.5 102.5zM398 609q-108 0 -176 -73t-68 -185
q0 -113 68 -186.5t176 -73.5t175.5 73.5t67.5 186.5q0 112 -67.5 185t-175.5 73z" />
    <glyph glyph-name="obreve" unicode="&#x14f;" horiz-adv-x="587" 
d="M444 711q0 -64 -42 -104.5t-109 -40.5t-109 40.5t-42 104.5h87q0 -32 17.5 -53t46.5 -21t46.5 21t17.5 53h87zM293 517q114 0 187 -74t73 -190t-73 -190t-187 -74t-187 74t-73 190t73 190t187 74zM294 419q-68 0 -110 -46.5t-42 -119.5q0 -72 42.5 -119.5t109.5 -47.5
t108.5 47.5t41.5 119.5q0 73 -41 119.5t-109 46.5z" />
    <glyph glyph-name="Ohungarumlaut" unicode="&#x150;" horiz-adv-x="795" 
d="M349 739h-91l76 120h113zM522 739h-92l77 120h113zM398 713q157 0 258 -102.5t101 -259.5t-101 -260.5t-258 -103.5q-158 0 -259.5 103.5t-101.5 260.5t101.5 259.5t259.5 102.5zM398 609q-108 0 -176 -73t-68 -185q0 -113 68 -186.5t176 -73.5t175.5 73.5t67.5 186.5
q0 112 -67.5 185t-175.5 73z" />
    <glyph glyph-name="ohungarumlaut" unicode="&#x151;" horiz-adv-x="587" 
d="M242 574h-91l82 158h113zM422 574h-90l82 158h113zM293 517q114 0 187 -74t73 -190t-73 -190t-187 -74t-187 74t-73 190t73 190t187 74zM294 419q-68 0 -110 -46.5t-42 -119.5q0 -72 42.5 -119.5t109.5 -47.5t108.5 47.5t41.5 119.5q0 73 -41 119.5t-109 46.5z" />
    <glyph glyph-name="OE" unicode="&#x152;" horiz-adv-x="1089" 
d="M1039 596h-281v-184h245v-104h-245v-204h281v-104h-393v84q-97 -97 -244 -97q-157 0 -258.5 103t-101.5 261q0 157 101 259.5t259 102.5q146 0 244 -96v83h393v-104zM402 91q108 0 175.5 73.5t67.5 186.5q0 112 -67.5 185t-175.5 73t-175.5 -73t-67.5 -185
q0 -113 67.5 -186.5t175.5 -73.5z" />
    <glyph glyph-name="oe" unicode="&#x153;" horiz-adv-x="958" 
d="M923 257v-41h-369q4 -61 42.5 -97t97.5 -36q95 0 121 72h104q-24 -79 -82 -122.5t-146 -43.5q-126 0 -195 92q-73 -92 -203 -92q-114 0 -187 74t-73 190t73 190t187 74q129 0 204 -93q69 93 194 93q104 0 168 -67t64 -193zM554 299h262q-1 57 -35.5 91t-90.5 34
q-57 0 -93.5 -35t-42.5 -90zM294 86q67 0 108.5 47.5t41.5 119.5q0 73 -41 119.5t-109 46.5t-110 -46.5t-42 -119.5q0 -72 42.5 -119.5t109.5 -47.5z" />
    <glyph glyph-name="Racute" unicode="&#x154;" horiz-adv-x="560" 
d="M474 847l-137 -114h-111l95 114h153zM543 0h-128l-145 274h-84v-274h-112v700h202q108 0 172.5 -59.5t64.5 -156.5q0 -66 -34 -116t-94 -74zM186 596v-222h90q56 0 89.5 28.5t33.5 81.5t-33.5 82.5t-89.5 29.5h-90z" />
    <glyph glyph-name="racute" unicode="&#x155;" horiz-adv-x="351" 
d="M239 574h-95l109 158h134zM327 405q-61 0 -101 -34q-43 -38 -44 -108v-263h-106v506h93l8 -86q15 39 52.5 65t97.5 26v-106z" />
    <glyph glyph-name="Rcommaaccent" unicode="&#x156;" horiz-adv-x="560" 
d="M385 294l158 -294h-128l-145 274h-84v-274h-112v700h202q108 0 172.5 -59.5t64.5 -156.5q0 -66 -34 -116t-94 -74zM186 596v-222h90q56 0 89.5 28.5t33.5 81.5t-33.5 82.5t-89.5 29.5h-90zM292 -35q29 0 48.5 -20.5t19.5 -53.5q0 -43 -22 -89t-56 -79l-29 15q26 44 30 95
q-26 2 -42.5 20t-16.5 44q0 29 20 48.5t48 19.5z" />
    <glyph glyph-name="rcommaaccent" unicode="&#x157;" horiz-adv-x="351" 
d="M327 405q-61 0 -101 -34q-43 -38 -44 -108v-263h-106v506h93l8 -86q15 39 52.5 65t97.5 26v-106zM127 -35q29 0 48.5 -20.5t19.5 -53.5q0 -43 -22 -89t-56 -79l-29 15q26 44 30 95q-26 2 -42.5 20t-16.5 44q0 29 19.5 48.5t48.5 19.5z" />
    <glyph glyph-name="Rcaron" unicode="&#x158;" horiz-adv-x="560" 
d="M327 729h-64l-148 119h122l57 -53l58 53h122zM543 0h-128l-145 274h-84v-274h-112v700h202q108 0 172.5 -59.5t64.5 -156.5q0 -66 -34 -116t-94 -74zM186 596v-222h90q56 0 89.5 28.5t33.5 81.5t-33.5 82.5t-89.5 29.5h-90z" />
    <glyph glyph-name="rcaron" unicode="&#x159;" horiz-adv-x="351" 
d="M237 563h-73l-138 158h112l63 -86l62 86h112zM327 405q-61 0 -101 -34q-43 -38 -44 -108v-263h-106v506h93l8 -86q15 39 52.5 65t97.5 26v-106z" />
    <glyph glyph-name="Sacute" unicode="&#x15a;" horiz-adv-x="535" 
d="M311 743h-111l95 114h153zM267 713q96 0 152.5 -52t59.5 -151h-113q-1 49 -29 76t-73 27q-44 0 -69.5 -24.5t-25.5 -67.5t28.5 -65t103.5 -51q109 -38 154 -85.5t45 -125.5q0 -96 -62 -151.5t-161 -55.5q-113 0 -175 60.5t-64 162.5h113q2 -60 34.5 -92t92.5 -32
q52 0 80.5 27.5t28.5 72.5q0 40 -30.5 65.5t-105.5 51.5q-99 34 -147 80.5t-48 128.5q0 88 56.5 144.5t154.5 56.5z" />
    <glyph glyph-name="sacute" unicode="&#x15b;" horiz-adv-x="448" 
d="M265 574h-95l109 158h134zM223 517q77 0 125 -44t50 -116h-106q-2 69 -71 69q-32 0 -49.5 -16.5t-17.5 -42.5q0 -27 19 -41t73 -26q90 -19 127.5 -54.5t37.5 -97.5q0 -76 -52.5 -117.5t-132.5 -41.5q-89 0 -139 44t-52 120h106q1 -35 23.5 -54.5t63.5 -19.5q37 0 56.5 16
t19.5 43q0 29 -20.5 45t-78.5 28q-82 17 -120 51.5t-38 95.5q0 66 46.5 112.5t129.5 46.5z" />
    <glyph glyph-name="Scircumflex" unicode="&#x15c;" horiz-adv-x="535" 
d="M448 742h-122l-58 53l-57 -53h-122l148 119h64zM267 713q96 0 152.5 -52t59.5 -151h-113q-1 49 -29 76t-73 27q-44 0 -69.5 -24.5t-25.5 -67.5t28.5 -65t103.5 -51q109 -38 154 -85.5t45 -125.5q0 -96 -62 -151.5t-161 -55.5q-113 0 -175 60.5t-64 162.5h113
q2 -60 34.5 -92t92.5 -32q52 0 80.5 27.5t28.5 72.5q0 40 -30.5 65.5t-105.5 51.5q-99 34 -147 80.5t-48 128.5q0 88 56.5 144.5t154.5 56.5z" />
    <glyph glyph-name="scircumflex" unicode="&#x15d;" horiz-adv-x="448" 
d="M401 574h-112l-62 86l-63 -86h-112l138 158h73zM223 517q77 0 125 -44t50 -116h-106q-2 69 -71 69q-32 0 -49.5 -16.5t-17.5 -42.5q0 -27 19 -41t73 -26q90 -19 127.5 -54.5t37.5 -97.5q0 -76 -52.5 -117.5t-132.5 -41.5q-89 0 -139 44t-52 120h106q1 -35 23.5 -54.5
t63.5 -19.5q37 0 56.5 16t19.5 43q0 29 -20.5 45t-78.5 28q-82 17 -120 51.5t-38 95.5q0 66 46.5 112.5t129.5 46.5z" />
    <glyph glyph-name="Scedilla" unicode="&#x15e;" horiz-adv-x="535" 
d="M500 194q0 -90 -55 -145t-145 -61l-10 -43q40 0 64.5 -22t24.5 -61q0 -44 -30 -68t-77 -24q-58 0 -92 34l35 50q21 -25 57 -25q40 0 40 32t-39 32q-15 0 -31 -4l-20 7l23 92q-98 9 -151.5 68.5t-55.5 153.5h113q2 -60 34.5 -92t92.5 -32q52 0 80.5 27.5t28.5 72.5
q0 40 -30.5 65.5t-105.5 51.5q-99 34 -147 80.5t-48 128.5q0 88 56.5 144.5t154.5 56.5q96 0 152.5 -52t59.5 -151h-113q-1 49 -29 76t-73 27q-44 0 -69.5 -24.5t-25.5 -67.5t28.5 -65t103.5 -51q109 -38 154 -85.5t45 -125.5z" />
    <glyph glyph-name="scedilla" unicode="&#x15f;" horiz-adv-x="448" 
d="M411 148q0 -69 -44 -110t-115 -48l-10 -45q40 0 64.5 -22t24.5 -61q0 -44 -30 -68t-77 -24q-58 0 -92 34l35 50q21 -25 57 -25q40 0 40 32t-39 32q-15 0 -31 -4l-20 7l23 94q-76 7 -118 50.5t-44 112.5h106q1 -35 23.5 -54.5t63.5 -19.5q37 0 56.5 16t19.5 43
q0 29 -20.5 45t-78.5 28q-82 17 -120 51.5t-38 95.5q0 66 46.5 112.5t129.5 46.5q77 0 125 -44t50 -116h-106q-2 69 -71 69q-32 0 -49.5 -16.5t-17.5 -42.5q0 -27 19 -41t73 -26q90 -19 127.5 -54.5t37.5 -97.5z" />
    <glyph glyph-name="Scaron" unicode="&#x160;" horiz-adv-x="535" 
d="M301 739h-64l-148 119h122l57 -53l58 53h122zM267 713q96 0 152.5 -52t59.5 -151h-113q-1 49 -29 76t-73 27q-44 0 -69.5 -24.5t-25.5 -67.5t28.5 -65t103.5 -51q109 -38 154 -85.5t45 -125.5q0 -96 -62 -151.5t-161 -55.5q-113 0 -175 60.5t-64 162.5h113
q2 -60 34.5 -92t92.5 -32q52 0 80.5 27.5t28.5 72.5q0 40 -30.5 65.5t-105.5 51.5q-99 34 -147 80.5t-48 128.5q0 88 56.5 144.5t154.5 56.5z" />
    <glyph glyph-name="scaron" unicode="&#x161;" horiz-adv-x="448" 
d="M263 563h-73l-138 158h112l63 -86l62 86h112zM223 517q77 0 125 -44t50 -116h-106q-2 69 -71 69q-32 0 -49.5 -16.5t-17.5 -42.5q0 -27 19 -41t73 -26q90 -19 127.5 -54.5t37.5 -97.5q0 -76 -52.5 -117.5t-132.5 -41.5q-89 0 -139 44t-52 120h106q1 -35 23.5 -54.5
t63.5 -19.5q37 0 56.5 16t19.5 43q0 29 -20.5 45t-78.5 28q-82 17 -120 51.5t-38 95.5q0 66 46.5 112.5t129.5 46.5z" />
    <glyph glyph-name="Tcommaaccent" unicode="&#x162;" horiz-adv-x="609" 
d="M599 596h-239v-596h-112v596h-238v104h589v-104zM304 -35q29 0 48.5 -20.5t19.5 -53.5q0 -43 -22 -89t-56 -79l-29 15q26 44 30 95q-26 2 -42.5 20t-16.5 44q0 29 20 48.5t48 19.5z" />
    <glyph glyph-name="tcommaaccent" unicode="&#x163;" horiz-adv-x="361" 
d="M206 506h124v-98h-125l-2 -241q0 -41 15 -59.5t55 -18.5q30 0 57 9v-94q-29 -11 -79 -11q-77 0 -115.5 36.5t-37.5 115.5l2 263h-89v98h89l1 124h107zM204 -42q29 0 48.5 -20.5t19.5 -53.5q0 -43 -22 -89t-56 -79l-29 15q26 44 30 95q-26 2 -42.5 20t-16.5 44q0 28 20 48
t48 20z" />
    <glyph glyph-name="Tcaron" unicode="&#x164;" horiz-adv-x="609" 
d="M337 729h-64l-148 119h122l57 -53l58 53h122zM599 596h-239v-596h-112v596h-238v104h589v-104z" />
    <glyph glyph-name="tcaron" unicode="&#x165;" horiz-adv-x="361" 
d="M425 730q29 0 49 -20.5t20 -53.5q0 -95 -78 -184l-32 12q26 51 33 114q-26 2 -43 20t-17 44q0 28 19.5 48t48.5 20zM206 506h124v-98h-125l-2 -241q0 -41 15 -59.5t55 -18.5q30 0 57 9v-94q-29 -11 -79 -11q-77 0 -115.5 36.5t-37.5 115.5l2 263h-89v98h89l1 124h107z
" />
    <glyph glyph-name="Tbar" unicode="&#x166;" horiz-adv-x="609" 
d="M599 596h-239v-213h149v-80h-149v-303h-112v303h-149v80h149v213h-238v104h589v-104z" />
    <glyph glyph-name="tbar" unicode="&#x167;" horiz-adv-x="361" 
d="M330 420h-125v-102h125v-85h-126l-1 -66q0 -41 15 -59.5t55 -18.5q30 0 57 9v-94q-29 -11 -79 -11q-77 0 -115.5 36.5t-37.5 115.5v88h-87v85h88l1 102h-89v86h89l1 124h107l-2 -124h124v-86z" />
    <glyph glyph-name="Utilde" unicode="&#x168;" horiz-adv-x="688" 
d="M282 864q28 0 49 -10t30.5 -22.5t22 -22.5t27.5 -10q37 0 37 56h66q0 -59 -27 -94.5t-80 -35.5q-36 0 -58.5 16.5t-37.5 33t-33 16.5q-37 0 -37 -57h-66q0 60 27 95t80 35zM623 279q0 -140 -73 -216t-206 -76t-206 76t-73 216v421h112v-421q0 -188 167 -188t167 188v421
h112v-421z" />
    <glyph glyph-name="utilde" unicode="&#x169;" horiz-adv-x="535" 
d="M206 713q28 0 48.5 -11t30 -24t22.5 -24t28 -11q37 0 37 61h66q0 -61 -27 -98t-80 -37q-28 0 -48.5 11t-30 24.5t-22.5 24.5t-28 11q-37 0 -37 -62h-66q0 62 27 98.5t80 36.5zM464 0h-93l-7 68q-40 -79 -137 -79q-80 0 -121 51t-41 138v328h106v-307q0 -108 85 -108
q45 0 73.5 36.5t28.5 101.5v277h106v-506z" />
    <glyph glyph-name="Umacron" unicode="&#x16a;" horiz-adv-x="688" 
d="M479 739h-270v83h270v-83zM623 279q0 -140 -73 -216t-206 -76t-206 76t-73 216v421h112v-421q0 -188 167 -188t167 188v421h112v-421z" />
    <glyph glyph-name="umacron" unicode="&#x16b;" horiz-adv-x="535" 
d="M403 592h-270v82h270v-82zM464 0h-93l-7 68q-40 -79 -137 -79q-80 0 -121 51t-41 138v328h106v-307q0 -108 85 -108q45 0 73.5 36.5t28.5 101.5v277h106v-506z" />
    <glyph glyph-name="Ubreve" unicode="&#x16c;" horiz-adv-x="688" 
d="M495 859q0 -58 -42 -94t-109 -36t-109 36t-42 94h87q0 -26 17 -42t47 -16t47 16t17 42h87zM623 279q0 -140 -73 -216t-206 -76t-206 76t-73 216v421h112v-421q0 -188 167 -188t167 188v421h112v-421z" />
    <glyph glyph-name="ubreve" unicode="&#x16d;" horiz-adv-x="535" 
d="M419 711q0 -64 -42 -104.5t-109 -40.5t-109 40.5t-42 104.5h87q0 -32 17.5 -53t46.5 -21t46.5 21t17.5 53h87zM464 0h-93l-7 68q-40 -79 -137 -79q-80 0 -121 51t-41 138v328h106v-307q0 -108 85 -108q45 0 73.5 36.5t28.5 101.5v277h106v-506z" />
    <glyph glyph-name="Uring" unicode="&#x16e;" horiz-adv-x="688" 
d="M344 919q44 0 72 -27.5t28 -69.5t-28 -69.5t-72 -27.5q-43 0 -71.5 28t-28.5 69q0 42 28.5 69.5t71.5 27.5zM344 861q-16 0 -26.5 -11t-10.5 -28q0 -15 11 -26.5t26 -11.5q17 0 28 11.5t11 26.5q0 17 -11 28t-28 11zM623 279q0 -140 -73 -216t-206 -76t-206 76t-73 216
v421h112v-421q0 -188 167 -188t167 188v421h112v-421z" />
    <glyph glyph-name="uring" unicode="&#x16f;" horiz-adv-x="535" 
d="M268 766q48 0 78.5 -30t30.5 -76q0 -45 -30.5 -75t-78.5 -30q-47 0 -77.5 30t-30.5 75q0 46 30.5 76t77.5 30zM268 708q-20 0 -33.5 -13.5t-13.5 -33.5t13.5 -34t33.5 -14q21 0 34.5 14t13.5 34t-13.5 33.5t-34.5 13.5zM464 0h-93l-7 68q-40 -79 -137 -79q-80 0 -121 51
t-41 138v328h106v-307q0 -108 85 -108q45 0 73.5 36.5t28.5 101.5v277h106v-506z" />
    <glyph glyph-name="Uhungarumlaut" unicode="&#x170;" horiz-adv-x="688" 
d="M295 729h-91l76 120h113zM468 729h-92l77 120h113zM623 279q0 -140 -73 -216t-206 -76t-206 76t-73 216v421h112v-421q0 -188 167 -188t167 188v421h112v-421z" />
    <glyph glyph-name="uhungarumlaut" unicode="&#x171;" horiz-adv-x="535" 
d="M217 574h-91l82 158h113zM397 574h-90l82 158h113zM464 0h-93l-7 68q-40 -79 -137 -79q-80 0 -121 51t-41 138v328h106v-307q0 -108 85 -108q45 0 73.5 36.5t28.5 101.5v277h106v-506z" />
    <glyph glyph-name="Uogonek" unicode="&#x172;" horiz-adv-x="688" 
d="M511 700h112v-421q0 -113 -47.5 -184.5t-136.5 -95.5q-44 -27 -44 -74q0 -25 14 -39t39 -14t41 8l15 -58q-21 -12 -60 -12q-52 0 -85.5 30t-33.5 82q0 36 19 65q-133 0 -206 76t-73 216v421h112v-421q0 -188 167 -188t167 188v421z" />
    <glyph glyph-name="uogonek" unicode="&#x173;" horiz-adv-x="535" 
d="M488 -131l15 -58q-21 -12 -60 -12q-52 0 -85.5 30t-33.5 82q0 58 47 95l-7 62q-40 -79 -137 -79q-80 0 -121 51t-41 138v328h106v-307q0 -108 85 -108q45 0 73.5 36.5t28.5 101.5v277h106v-506h-2q-68 -30 -68 -86q0 -25 14 -39t39 -14t41 8z" />
    <glyph glyph-name="Wcircumflex" unicode="&#x174;" horiz-adv-x="992" 
d="M676 732h-122l-58 53l-57 -53h-122l148 119h64zM758 0h-115l-136 448l-11 48l-10 -48l-137 -448h-114l-219 700h118l149 -481l11 -50l10 50l143 481h99l143 -481l9 -50l11 50l149 481h118z" />
    <glyph glyph-name="wcircumflex" unicode="&#x175;" horiz-adv-x="772" 
d="M560 574h-112l-62 86l-63 -86h-112l138 158h73zM603 0h-109l-109 332l-112 -332h-104l-157 506h114l92 -332l10 -49l11 49l101 332h92l101 -332l11 -49l10 49l92 332h113z" />
    <glyph glyph-name="Ycircumflex" unicode="&#x176;" horiz-adv-x="678" 
d="M518 732h-122l-58 53l-57 -53h-122l148 119h64zM395 263v-263h-112v263l-272 437h131l171 -272l25 -47l26 47l172 272h131z" />
    <glyph glyph-name="ycircumflex" unicode="&#x177;" horiz-adv-x="509" 
d="M428 574h-112l-62 86l-63 -86h-112l138 158h73zM227 -215h-111l81 222l-185 499h113l118 -340l10 -40l10 40l118 340h114z" />
    <glyph glyph-name="Ydieresis" unicode="&#x178;" horiz-adv-x="678" 
d="M240 853q26 0 44 -17.5t18 -43.5t-18 -43.5t-44 -17.5t-44 17.5t-18 43.5t18 43.5t44 17.5zM436 853q26 0 44 -17.5t18 -43.5t-18 -43.5t-44 -17.5t-44 17.5t-18 43.5t18 43.5t44 17.5zM395 263v-263h-112v263l-272 437h131l171 -272l25 -47l26 47l172 272h131z" />
    <glyph glyph-name="Zacute" unicode="&#x179;" horiz-adv-x="593" 
d="M340 733h-111l95 114h153zM544 610l-362 -506h375v-104h-519v90l364 506h-361v104h503v-90z" />
    <glyph glyph-name="zacute" unicode="&#x17a;" horiz-adv-x="465" 
d="M276 574h-95l109 158h134zM426 425l-251 -332h265v-93h-406v80l251 332h-249v94h390v-81z" />
    <glyph glyph-name="Zdotaccent" unicode="&#x17b;" horiz-adv-x="593" 
d="M296 857q27 0 45.5 -18t18.5 -44q0 -27 -18.5 -45.5t-45.5 -18.5t-45.5 18.5t-18.5 45.5q0 26 18.5 44t45.5 18zM544 610l-362 -506h375v-104h-519v90l364 506h-361v104h503v-90z" />
    <glyph glyph-name="zdotaccent" unicode="&#x17c;" horiz-adv-x="465" 
d="M238 713q28 0 48 -19.5t20 -47.5t-19.5 -47.5t-48.5 -19.5t-48.5 19.5t-19.5 47.5t20 47.5t48 19.5zM426 425l-251 -332h265v-93h-406v80l251 332h-249v94h390v-81z" />
    <glyph glyph-name="Zcaron" unicode="&#x17d;" horiz-adv-x="593" 
d="M330 729h-64l-148 119h122l57 -53l58 53h122zM544 610l-362 -506h375v-104h-519v90l364 506h-361v104h503v-90z" />
    <glyph glyph-name="zcaron" unicode="&#x17e;" horiz-adv-x="465" 
d="M274 563h-73l-138 158h112l63 -86l62 86h112zM426 425l-251 -332h265v-93h-406v80l251 332h-249v94h390v-81z" />
    <glyph glyph-name="florin" unicode="&#x192;" horiz-adv-x="350" 
d="M317 740q41 0 68 -11l-10 -95q-26 12 -55 12q-69 0 -78 -77l-7 -63h126l-9 -97h-126l-52 -473q-7 -78 -54 -120t-125 -42q-39 0 -68 11l10 95q26 -12 55 -12q71 0 78 76l49 465h-89l9 97h90l9 72q7 77 54.5 119.5t124.5 42.5z" />
    <glyph glyph-name="Aringacute" unicode="&#x1fa;" horiz-adv-x="704" 
d="M351 725q-43 0 -71.5 28t-28.5 69q0 46 34 74l91 110h153l-122 -102q44 -28 44 -82q0 -42 -28 -69.5t-72 -27.5zM351 784q17 0 28 11.5t11 26.5q0 17 -11 28t-28 11q-16 0 -26.5 -11t-10.5 -28q0 -15 11 -26.5t26 -11.5zM412 700l276 -700h-122l-67 171h-295l-67 -171
h-122l277 700h120zM240 272h223l-99 250l-13 39l-13 -39z" />
    <glyph glyph-name="aringacute" unicode="&#x1fb;" horiz-adv-x="502" 
d="M254 555q-47 0 -77.5 30t-30.5 75q0 50 35 80l89 107h152l-112 -94q53 -29 53 -93q0 -45 -30.5 -75t-78.5 -30zM254 613q21 0 34.5 14t13.5 34t-13.5 33.5t-34.5 13.5q-20 0 -33.5 -13.5t-13.5 -33.5t13.5 -34t33.5 -14zM251 517q88 0 139 -47.5t51 -136.5v-333h-94
l-5 66q-46 -77 -149 -77q-68 0 -109.5 38.5t-41.5 105.5q0 121 148 149l144 26v23q0 91 -83 91q-39 0 -65 -21t-26 -59h-103q3 76 56 125.5t138 49.5zM334 210v18l-121 -26q-64 -14 -64 -64q0 -27 17.5 -42t50.5 -15q62 0 93 49q24 34 24 80z" />
    <glyph glyph-name="AEacute" unicode="&#x1fc;" horiz-adv-x="941" 
d="M632 733h-111l95 114h153zM896 596h-282v-184h246v-104h-246v-204h282v-104h-394v174h-246l-116 -174h-132l455 700h433v-104zM481 523l-165 -252h186v292z" />
    <glyph glyph-name="aeacute" unicode="&#x1fd;" horiz-adv-x="849" 
d="M606 732l-148 -158h-95l109 158h134zM808 257v-41h-369q4 -61 42.5 -97t97.5 -36q93 0 121 72h104q-24 -79 -82 -122.5t-146 -43.5q-133 0 -202 101q-62 -101 -179 -101q-72 0 -112.5 38.5t-40.5 103.5q0 123 145 150l142 27v20q0 94 -83 94q-38 0 -62 -20.5t-24 -59.5
h-103q3 77 54 126t135 49q108 0 157 -69q67 69 173 69q104 0 168 -67t64 -193zM439 299h262q-1 57 -35.5 91t-90.5 34q-57 0 -93.5 -35t-42.5 -90zM329 201v27l-112 -25q-36 -7 -52 -21t-16 -44q0 -27 17 -42t49 -15q57 0 89 45q25 34 25 75z" />
    <glyph glyph-name="Oslashacute" unicode="&#x1fe;" horiz-adv-x="795" 
d="M568 851l-136 -114h-111l95 114h152zM618 643q66 -48 102.5 -124.5t36.5 -167.5q0 -157 -101 -260.5t-258 -103.5q-75 0 -141 26l-49 -86l-83 41l51 90q-65 49 -102 125.5t-37 167.5q0 157 101.5 259.5t259.5 102.5q73 0 139 -25l48 83l83 -42zM154 351q0 -123 78 -196
l252 439q-41 15 -86 15q-108 0 -176 -73t-68 -185zM398 91q108 0 175.5 73.5t67.5 186.5q0 122 -78 195l-252 -440q43 -15 87 -15z" />
    <glyph glyph-name="oslashacute" unicode="&#x1ff;" horiz-adv-x="587" 
d="M479 732l-148 -158h-95l108 158h135zM447 471q50 -35 78 -91.5t28 -126.5q0 -116 -73 -190t-187 -74q-49 0 -95 16l-42 -79l-58 26l43 82q-108 73 -108 219q0 116 73 190t187 74q52 0 98 -17l42 79l58 -27zM142 253q0 -79 49 -126l152 284q-24 8 -49 8q-68 0 -110 -46.5
t-42 -119.5zM294 86q67 0 108.5 47.5t41.5 119.5q0 78 -47 125l-151 -284q24 -8 48 -8z" />
    <glyph glyph-name="Scommaaccent" unicode="&#x218;" horiz-adv-x="535" 
d="M267 713q96 0 152.5 -52t59.5 -151h-113q-1 49 -29 76t-73 27q-44 0 -69.5 -24.5t-25.5 -67.5t28.5 -65t103.5 -51q109 -38 154 -85.5t45 -125.5q0 -96 -62 -151.5t-161 -55.5q-113 0 -175 60.5t-64 162.5h113q2 -60 34.5 -92t92.5 -32q52 0 80.5 27.5t28.5 72.5
q0 40 -30.5 65.5t-105.5 51.5q-99 34 -147 80.5t-48 128.5q0 88 56.5 144.5t154.5 56.5zM271 -45q29 0 48.5 -20.5t19.5 -53.5q0 -43 -22 -89t-56 -79l-29 15q26 44 30 95q-26 2 -42.5 20t-16.5 44q0 29 19.5 48.5t48.5 19.5z" />
    <glyph glyph-name="scommaaccent" unicode="&#x219;" horiz-adv-x="448" 
d="M223 517q77 0 125 -44t50 -116h-106q-2 69 -71 69q-32 0 -49.5 -16.5t-17.5 -42.5q0 -27 19 -41t73 -26q90 -19 127.5 -54.5t37.5 -97.5q0 -76 -52.5 -117.5t-132.5 -41.5q-89 0 -139 44t-52 120h106q1 -35 23.5 -54.5t63.5 -19.5q37 0 56.5 16t19.5 43q0 29 -20.5 45
t-78.5 28q-82 17 -120 51.5t-38 95.5q0 66 46.5 112.5t129.5 46.5zM225 -40q29 0 48.5 -20.5t19.5 -53.5q0 -43 -22 -89t-56 -79l-29 15q26 44 30 95q-26 2 -42.5 20t-16.5 44q0 28 19.5 48t48.5 20z" />
    <glyph glyph-name="uni021A" unicode="&#x21a;" horiz-adv-x="609" 
d="M599 596h-239v-596h-112v596h-238v104h589v-104zM295 -35q29 0 48.5 -20.5t19.5 -53.5q0 -43 -22 -89t-56 -79l-29 15q26 44 30 95q-26 2 -42.5 20t-16.5 44q0 29 19.5 48.5t48.5 19.5z" />
    <glyph glyph-name="uni021B" unicode="&#x21b;" horiz-adv-x="361" 
d="M206 506h124v-98h-125l-2 -241q0 -41 15 -59.5t55 -18.5q30 0 57 9v-94q-29 -11 -79 -11q-77 0 -115.5 36.5t-37.5 115.5l2 263h-89v98h89l1 124h107zM202 -42q29 0 48.5 -20.5t19.5 -53.5q0 -43 -22 -89t-56 -79l-29 15q26 44 30 95q-26 2 -42.5 20t-16.5 44q0 28 20 48
t48 20z" />
    <glyph glyph-name="circumflex" unicode="&#x2c6;" horiz-adv-x="367" 
d="M358 574h-112l-62 86l-63 -86h-112l138 158h73z" />
    <glyph glyph-name="caron" unicode="&#x2c7;" horiz-adv-x="367" 
d="M220 563h-73l-138 158h112l63 -86l62 86h112z" />
    <glyph glyph-name="breve" unicode="&#x2d8;" horiz-adv-x="320" 
d="M311 711q0 -64 -42 -104.5t-109 -40.5t-109 40.5t-42 104.5h87q0 -32 17.5 -53t46.5 -21t46.5 21t17.5 53h87z" />
    <glyph glyph-name="dotaccent" unicode="&#x2d9;" horiz-adv-x="154" 
d="M77 713q28 0 48 -19.5t20 -47.5t-19.5 -47.5t-48.5 -19.5t-48.5 19.5t-19.5 47.5t20 47.5t48 19.5z" />
    <glyph glyph-name="ring" unicode="&#x2da;" horiz-adv-x="235" 
d="M117 766q48 0 78.5 -30t30.5 -76q0 -45 -30.5 -75t-78.5 -30q-47 0 -77.5 30t-30.5 75q0 46 30.5 76t77.5 30zM117 708q-20 0 -33.5 -13.5t-13.5 -33.5t13.5 -34t33.5 -14q21 0 34.5 14t13.5 34t-13.5 33.5t-34.5 13.5z" />
    <glyph glyph-name="ogonek" unicode="&#x2db;" horiz-adv-x="191" 
d="M141 0q-68 -30 -68 -86q0 -25 14 -39t39 -14t41 8l15 -58q-21 -12 -60 -12q-52 0 -85.5 30t-33.5 82q0 82 95 123z" />
    <glyph glyph-name="tilde" unicode="&#x2dc;" horiz-adv-x="357" 
d="M116 713q28 0 48.5 -11t30 -24t22.5 -24t28 -11q37 0 37 61h66q0 -61 -27 -98t-80 -37q-28 0 -48.5 11t-30 24.5t-22.5 24.5t-28 11q-37 0 -37 -62h-66q0 62 27 98.5t80 36.5z" />
    <glyph glyph-name="hungarumlaut" unicode="&#x2dd;" horiz-adv-x="394" 
d="M100 574h-91l82 158h113zM280 574h-90l82 158h113z" />
    <glyph glyph-name="uni03A9" unicode="&#x3a9;" horiz-adv-x="858" 
d="M432 734q150 0 240 -96.5t90 -246.5q0 -148 -123 -271h182v-120h-335v105q154 120 154 281q0 103 -56 166t-152 63t-152.5 -63t-56.5 -166q0 -159 154 -281v-105h-334v120h182q-123 121 -123 271t90 246.5t240 96.5z" />
    <glyph glyph-name="pi" unicode="&#x3c0;" horiz-adv-x="727" 
d="M721 524q-22 -61 -61.5 -93t-114.5 -32h-10l-31 -230q-9 -69 38 -69q29 0 57 23l40 -79q-65 -50 -142 -50q-63 0 -85 37.5t-13 109.5l34 258h-111l-33 -241q-13 -94 -43 -158h-113q44 77 57 176l30 223h-19q-79 0 -128 -58l-52 76q45 45 87 64t119 19h260q67 0 96.5 17
t49.5 58z" />
    <glyph glyph-name="Wgrave" unicode="&#x1e80;" horiz-adv-x="992" 
d="M557 733h-111l-137 114h153zM758 0h-115l-136 448l-11 48l-10 -48l-137 -448h-114l-219 700h118l149 -481l11 -50l10 50l143 481h99l143 -481l9 -50l11 50l149 481h118z" />
    <glyph glyph-name="wgrave" unicode="&#x1e81;" horiz-adv-x="772" 
d="M436 574h-95l-148 158h133zM603 0h-109l-109 332l-112 -332h-104l-157 506h114l92 -332l10 -49l11 49l101 332h92l101 -332l11 -49l10 49l92 332h113z" />
    <glyph glyph-name="Wacute" unicode="&#x1e82;" horiz-adv-x="992" 
d="M539 733h-111l95 114h153zM758 0h-115l-136 448l-11 48l-10 -48l-137 -448h-114l-219 700h118l149 -481l11 -50l10 50l143 481h99l143 -481l9 -50l11 50l149 481h118z" />
    <glyph glyph-name="wacute" unicode="&#x1e83;" horiz-adv-x="772" 
d="M424 574h-95l109 158h134zM603 0h-109l-109 332l-112 -332h-104l-157 506h114l92 -332l10 -49l11 49l101 332h92l101 -332l11 -49l10 49l92 332h113z" />
    <glyph glyph-name="Wdieresis" unicode="&#x1e84;" horiz-adv-x="992" 
d="M398 853q26 0 44 -17.5t18 -43.5t-18 -43.5t-44 -17.5t-44 17.5t-18 43.5t18 43.5t44 17.5zM594 853q26 0 44 -17.5t18 -43.5t-18 -43.5t-44 -17.5t-44 17.5t-18 43.5t18 43.5t44 17.5zM758 0h-115l-136 448l-11 48l-10 -48l-137 -448h-114l-219 700h118l149 -481l11 -50
l10 50l143 481h99l143 -481l9 -50l11 50l149 481h118z" />
    <glyph glyph-name="wdieresis" unicode="&#x1e85;" horiz-adv-x="772" 
d="M287 699q26 0 44 -17.5t18 -43.5t-18 -43.5t-44 -17.5t-44 17.5t-18 43.5t18 43.5t44 17.5zM483 699q26 0 44 -17.5t18 -43.5t-18 -43.5t-44 -17.5t-44 17.5t-18 43.5t18 43.5t44 17.5zM603 0h-109l-109 332l-112 -332h-104l-157 506h114l92 -332l10 -49l11 49l101 332
h92l101 -332l11 -49l10 49l92 332h113z" />
    <glyph glyph-name="Ygrave" unicode="&#x1ef2;" horiz-adv-x="678" 
d="M399 733h-111l-137 114h153zM395 263v-263h-112v263l-272 437h131l171 -272l25 -47l26 47l172 272h131z" />
    <glyph glyph-name="ygrave" unicode="&#x1ef3;" horiz-adv-x="509" 
d="M304 574h-95l-148 158h133zM227 -215h-111l81 222l-185 499h113l118 -340l10 -40l10 40l118 340h114z" />
    <glyph glyph-name="endash" unicode="&#x2013;" horiz-adv-x="513" 
d="M489 213h-465v93h465v-93z" />
    <glyph glyph-name="emdash" unicode="&#x2014;" horiz-adv-x="703" 
d="M679 213h-655v93h655v-93z" />
    <glyph glyph-name="quoteleft" unicode="&#x2018;" horiz-adv-x="196" 
d="M139 725q-26 -51 -32 -113q26 -3 43 -21t17 -44q0 -28 -20 -47.5t-48 -19.5q-30 0 -49.5 20.5t-19.5 53.5q0 93 77 183z" />
    <glyph glyph-name="quoteright" unicode="&#x2019;" horiz-adv-x="196" 
d="M98 730q29 0 49 -20.5t20 -53.5q0 -95 -78 -184l-32 12q25 51 33 114q-26 2 -43 20t-17 44q0 28 20 48t48 20z" />
    <glyph glyph-name="quotesinglbase" unicode="&#x201a;" horiz-adv-x="196" 
d="M98 125q29 0 49 -20t20 -54q0 -94 -78 -183l-32 12q25 49 33 114q-26 3 -43 20.5t-17 43.5q0 28 19.5 47.5t48.5 19.5z" />
    <glyph glyph-name="quotedblleft" unicode="&#x201c;" horiz-adv-x="390" 
d="M139 725q-26 -51 -32 -113q26 -3 43 -21t17 -44q0 -28 -20 -47.5t-48 -19.5q-30 0 -49.5 20.5t-19.5 53.5q0 93 77 183zM333 725q-27 -53 -33 -113q26 -3 43 -21t17 -44q0 -28 -20 -47.5t-48 -19.5q-30 0 -49.5 20.5t-19.5 53.5q1 47 22.5 95.5t54.5 87.5z" />
    <glyph glyph-name="quotedblright" unicode="&#x201d;" horiz-adv-x="390" 
d="M291 730q29 0 49 -20.5t20 -53.5q0 -95 -78 -184l-32 12q26 51 33 114q-26 2 -43 20t-17 44q0 28 19.5 48t48.5 20zM98 730q29 0 49 -20.5t20 -53.5q0 -95 -78 -184l-32 12q25 51 33 114q-26 2 -43 20t-17 44q0 28 20 48t48 20z" />
    <glyph glyph-name="quotedblbase" unicode="&#x201e;" horiz-adv-x="395" 
d="M98 125q29 0 49 -20t20 -54q0 -94 -78 -183l-32 12q25 49 33 114q-26 3 -43 20.5t-17 43.5q0 28 19.5 47.5t48.5 19.5zM296 125q29 0 49 -20t20 -54q0 -94 -78 -183l-32 12q25 49 33 114q-26 3 -43 20.5t-17 43.5q0 28 19.5 47.5t48.5 19.5z" />
    <glyph glyph-name="dagger" unicode="&#x2020;" horiz-adv-x="457" 
d="M282 536h158v-103h-158v-500h-107v500h-158v103h158v190h107v-190z" />
    <glyph glyph-name="daggerdbl" unicode="&#x2021;" horiz-adv-x="457" 
d="M282 536h158v-103h-158v-207h158v-103h-158v-190h-107v190h-158v103h158v207h-158v103h158v190h107v-190z" />
    <glyph glyph-name="bullet" unicode="&#x2022;" horiz-adv-x="353" 
d="M176 401q60 0 101 -41t41 -101t-41 -100.5t-101 -40.5t-100.5 40.5t-40.5 100.5t40.5 101t100.5 41z" />
    <glyph glyph-name="ellipsis" unicode="&#x2026;" horiz-adv-x="656" 
d="M104 128q30 0 50.5 -20t20.5 -50q0 -29 -20.5 -49t-50.5 -20t-50 20t-20 49q0 31 20 50.5t50 19.5zM328 128q30 0 50.5 -20t20.5 -50q0 -29 -21 -49t-50 -20t-50 20t-21 49q0 30 20.5 50t50.5 20zM551 128q30 0 50.5 -20t20.5 -50q0 -29 -20.5 -49t-50.5 -20
q-29 0 -49.5 20t-20.5 49q0 30 20 50t50 20z" />
    <glyph glyph-name="perthousand" unicode="&#x2030;" horiz-adv-x="1238" 
d="M199 713q73 0 122 -50t49 -126q0 -75 -49 -125t-122 -50q-75 0 -124 49.5t-49 125.5t49 126t124 50zM272 0h-99l401 700h98zM198 629q-37 0 -60.5 -26t-23.5 -66q0 -39 24 -65t60 -26t60 26t24 65q0 40 -23.5 66t-60.5 26zM648 338q73 0 122 -50.5t49 -126.5
q0 -75 -49 -124.5t-122 -49.5q-74 0 -123.5 49.5t-49.5 124.5q0 76 49.5 126.5t123.5 50.5zM1040 338q73 0 122.5 -50.5t49.5 -126.5q0 -75 -49.5 -124.5t-122.5 -49.5q-74 0 -123.5 49.5t-49.5 124.5q0 76 49.5 126.5t123.5 50.5zM647 254q-36 0 -60 -26.5t-24 -65.5
t23.5 -65t60.5 -26t60.5 26t23.5 65t-24 65.5t-60 26.5zM1040 254q-37 0 -61 -26.5t-24 -65.5t24 -65t61 -26q36 0 59.5 26t23.5 65t-23.5 65.5t-59.5 26.5z" />
    <glyph glyph-name="guilsinglleft" unicode="&#x2039;" horiz-adv-x="268" 
d="M109 250l147 -195h-103l-142 187v17l142 187h103z" />
    <glyph glyph-name="guilsinglright" unicode="&#x203a;" horiz-adv-x="268" 
d="M256 259v-17l-141 -187h-104l148 195l-148 196h104z" />
    <glyph glyph-name="fraction" unicode="&#x2044;" horiz-adv-x="133" 
d="M-76 0h-114l400 700h114z" />
    <glyph glyph-name="zero.sups" unicode="&#x2070;" horiz-adv-x="368" 
d="M183 807q72 0 111 -53.5t39 -148.5q0 -96 -39 -150t-111 -54q-71 0 -109.5 54t-38.5 150q0 95 38.5 148.5t109.5 53.5zM183 730q-64 0 -64 -125q0 -127 64 -127q66 0 66 127q0 125 -66 125z" />
    <glyph glyph-name="four.sups" unicode="&#x2074;" horiz-adv-x="368" 
d="M285 549h53v-73h-53v-68h-83v68h-177v66l157 258h103v-251zM192 678l-81 -129h92v151z" />
    <glyph glyph-name="five.sups" unicode="&#x2075;" horiz-adv-x="348" 
d="M295 722h-162v-76q26 12 58 12q55 0 90 -31t35 -89q0 -61 -37.5 -99t-101.5 -38q-65 0 -101.5 32t-36.5 91h82q0 -46 56 -46q27 0 42 15t15 42q0 26 -15 41t-42 15q-29 0 -53 -14h-73v223h244v-78z" />
    <glyph glyph-name="six.sups" unicode="&#x2076;" horiz-adv-x="357" 
d="M196 653q58 0 92.5 -33.5t34.5 -86.5q0 -61 -38.5 -96.5t-100.5 -35.5q-67 0 -106 42q-45 49 -45 154q0 210 154 210q56 0 92 -32.5t37 -86.5h-83q-6 42 -50 42q-65 0 -66 -105q28 28 79 28zM181 477q26 0 42 14.5t16 39.5q0 23 -16.5 38t-41.5 15t-42.5 -14.5
t-17.5 -37.5q0 -22 17 -38.5t43 -16.5z" />
    <glyph glyph-name="seven.sups" unicode="&#x2077;" horiz-adv-x="310" 
d="M287 734l-154 -326h-90l149 313h-166v79h261v-66z" />
    <glyph glyph-name="eight.sups" unicode="&#x2078;" horiz-adv-x="353" 
d="M177 807q58 0 94 -34t36 -83q0 -52 -45 -81q56 -31 56 -88q0 -52 -40.5 -86t-100.5 -34q-61 0 -101.5 34t-40.5 86q0 61 56 88q-45 29 -45 81q0 49 36 83t95 34zM177 734q-22 0 -35.5 -13t-13.5 -33t13.5 -33t35.5 -13q21 0 34.5 13t13.5 33t-13.5 33t-34.5 13zM177 576
q-25 0 -41.5 -14.5t-16.5 -37.5t16.5 -36.5t41.5 -13.5t41.5 13.5t16.5 36.5t-17 37.5t-41 14.5z" />
    <glyph glyph-name="nine.sups" unicode="&#x2079;" horiz-adv-x="357" 
d="M279 767q45 -49 45 -156q0 -210 -153 -210q-57 0 -92.5 32.5t-36.5 86.5h83q4 -42 49 -42q66 0 66 107q-29 -27 -79 -27q-57 0 -92 32.5t-35 84.5q0 61 38.5 96.5t101.5 35.5q69 0 105 -40zM176 621q25 0 42.5 16t17.5 39q0 22 -17 38.5t-43 16.5q-25 0 -41.5 -15.5
t-16.5 -39.5q0 -23 16.5 -39t41.5 -16z" />
    <glyph glyph-name="n.sups" unicode="&#x207f;" horiz-adv-x="413" 
d="M240 711q56 0 87 -34.5t31 -93.5v-224h-83v203q0 69 -60 69q-31 0 -52 -22.5t-21 -63.5v-186h-82v345h71l6 -46q33 53 103 53z" />
    <glyph glyph-name="Euro" unicode="&#x20ac;" horiz-adv-x="599" 
d="M345 91q50 0 80.5 28t38.5 79h121q-23 -104 -80.5 -157.5t-159.5 -53.5q-97 0 -162 61.5t-89 172.5h-80v82h69q-2 30 -2 48t2 50h-69v82h81q24 109 89 169.5t161 60.5q201 0 240 -209h-121q-14 105 -119 105q-99 0 -135 -126h137v-82h-151q-2 -32 -2 -50t2 -48h151v-82
h-137q35 -130 135 -130z" />
    <glyph glyph-name="afii61289" unicode="&#x2113;" horiz-adv-x="572" 
d="M462 185l65 -49q-90 -148 -217 -148q-143 0 -144 174q-64 -52 -84 -69l-55 79q47 37 135 117v279q0 91 43.5 136.5t122.5 45.5q72 0 117 -43.5t45 -119.5q0 -48 -18.5 -95t-54 -92t-69.5 -79.5t-82 -76.5v-81q0 -40 15.5 -59.5t52.5 -19.5q41 0 68 24.5t60 76.5zM258 575
v-223q59 54 100 115t41 116q0 39 -19 60t-53 21q-32 0 -50.5 -23t-18.5 -66z" />
    <glyph glyph-name="trademark" unicode="&#x2122;" horiz-adv-x="618" 
d="M236 633h-71v-213h-72v213h-72v67h215v-67zM582 420h-72v154l-9 -28l-49 -126h-51l-49 126l-9 28v-154h-72v280h86l64 -166l6 -16l4 16l66 166h85v-280z" />
    <glyph glyph-name="Omega" unicode="&#x2126;" horiz-adv-x="858" 
d="M432 734q150 0 240 -96.5t90 -246.5q0 -148 -123 -271h182v-120h-335v105q154 120 154 281q0 103 -56 166t-152 63t-152.5 -63t-56.5 -166q0 -159 154 -281v-105h-334v120h182q-123 121 -123 271t90 246.5t240 96.5z" />
    <glyph glyph-name="estimated" unicode="&#x212e;" horiz-adv-x="586" 
d="M305 533q108 0 177 -68t69 -190h-400v-157q0 -44 36 -63q46 -35 118 -35q133 0 214 122l27 -18q-87 -137 -241 -137q-116 0 -193.5 76t-77.5 197t77.5 197t193.5 76zM305 501q-71 0 -118 -34q-36 -22 -36 -63v-96h293v97q0 28 -6.5 43.5t-27.5 24.5q-43 28 -105 28z" />
    <glyph glyph-name="partialdiff" unicode="&#x2202;" horiz-adv-x="539" 
d="M253 745q60 0 105.5 -24t73.5 -63.5t46 -95.5t24.5 -113t6.5 -123q0 -135 -34 -204q-30 -64 -83.5 -97.5t-119.5 -33.5q-103 0 -170.5 66.5t-67.5 170.5q0 102 65 167.5t165 65.5q46 0 81 -19t54 -43q-2 114 -41.5 178.5t-113.5 64.5q-79 0 -127 -69l-74 69
q78 103 210 103zM273 363q-55 0 -91.5 -38t-36.5 -97q0 -62 36 -100t92 -38q55 0 90.5 38t35.5 100q0 60 -35.5 97.5t-90.5 37.5z" />
    <glyph glyph-name="uni2206" unicode="&#x2206;" horiz-adv-x="719" 
d="M682 0h-644l322 639zM183 89h353l-176 351z" />
    <glyph glyph-name="product" unicode="&#x220f;" horiz-adv-x="687" 
d="M653 596h-117v-708h-102v708h-181v-708h-102v708h-117v104h619v-104z" />
    <glyph glyph-name="summation" unicode="&#x2211;" horiz-adv-x="608" 
d="M554 590h-356l170 -226l-177 -254h375v-110h-524v73l199 288l-196 265v74h509v-110z" />
    <glyph glyph-name="minus" unicode="&#x2212;" horiz-adv-x="470" 
d="M441 303h-412v94h412v-94z" />
    <glyph glyph-name="radical" unicode="&#x221a;" horiz-adv-x="695" 
d="M669 657l-298 -725l-170 326l-122 -69l-48 84l223 131l113 -237l209 527z" />
    <glyph glyph-name="infinity" unicode="&#x221e;" horiz-adv-x="755" 
d="M548 477q79 0 127.5 -54t48.5 -133t-48.5 -133t-127.5 -54q-35 0 -69 15.5t-51.5 30t-43.5 40.5l-19 19l-19 -19q-71 -71 -145 -71q-73 0 -117 49t-44 122q0 74 44 123.5t117 49.5q41 0 73 -18.5t71 -55.5l19 -20l15 17q39 44 78 67.5t91 24.5zM548 381q-55 0 -111 -73
l-15 -20l18 -20q20 -22 32 -33.5t34 -23.5t43 -12q37 0 60 26t23 65t-23 65t-61 26zM199 370q-33 0 -52.5 -23t-19.5 -58q0 -34 19.5 -56.5t52.5 -22.5q47 0 94 59l16 19l-16 21q-52 61 -94 61z" />
    <glyph glyph-name="integral" unicode="&#x222b;" horiz-adv-x="432" 
d="M296 750q62 0 114 -21l-23 -88q-39 15 -68 15q-57 0 -57 -75v-602q0 -92 -32 -132t-101 -40q-71 0 -119 23l25 88q30 -16 69 -16q60 0 60 77v602q0 91 32 130t100 39z" />
    <glyph glyph-name="approxequal" unicode="&#x2248;" horiz-adv-x="570" 
d="M201 564q35 0 64.5 -14.5t46 -32t40.5 -32t50 -14.5q32 0 54.5 22.5t31.5 59.5l73 -34q-41 -141 -161 -141q-36 0 -65.5 14.5t-46 32t-40.5 32t-49 14.5q-63 0 -87 -82l-73 33q41 142 162 142zM201 337q35 0 64.5 -14.5t46 -32t40.5 -32t50 -14.5q64 0 87 82l73 -34
q-43 -141 -161 -141q-36 0 -65.5 14.5t-46.5 32.5t-41 32.5t-49 14.5q-62 0 -87 -83l-72 33q41 142 161 142z" />
    <glyph glyph-name="notequal" unicode="&#x2260;" horiz-adv-x="457" 
d="M441 406h-145l-37 -114h182v-92h-212l-28 -86h-100l28 86h-100v92h131l37 114h-168v93h199l31 97h100l-32 -97h114v-93z" />
    <glyph glyph-name="lessequal" unicode="&#x2264;" horiz-adv-x="354" 
d="M147 415l186 -171h-128l-185 169v4l185 169h128zM333 111h-313v81h313v-81z" />
    <glyph glyph-name="greaterequal" unicode="&#x2265;" horiz-adv-x="354" 
d="M333 417v-4l-185 -169h-128l186 171l-186 171h128zM333 111h-313v81h313v-81z" />
    <glyph glyph-name="lozenge" unicode="&#x25ca;" horiz-adv-x="557" 
d="M530 336l-218 -401h-67l-218 401l218 402h67zM139 336l140 -244l138 244l-138 243z" />
    <glyph glyph-name="commaaccent" unicode="&#xf6c3;" horiz-adv-x="0" 
d="M-103 -35q29 0 48.5 -20.5t19.5 -53.5q0 -43 -22 -89t-56 -79l-29 15q26 44 30 95q-26 2 -42.5 20t-16.5 44q0 29 19.5 48.5t48.5 19.5z" />
    <glyph glyph-name="g.alt" horiz-adv-x="608" 
d="M263 517q110 0 168 -83l6 72h94v-495q0 -106 -68 -171.5t-178 -65.5q-96 0 -161 45.5t-79 139.5h105q21 -89 135 -89q66 0 102.5 37t36.5 101v65q-20 -32 -62 -53t-99 -21q-101 0 -165.5 73t-64.5 186q0 114 64 186.5t166 72.5zM282 416q-62 0 -101 -43.5t-39 -114.5
t40 -114.5t101 -43.5q58 0 100.5 43t43.5 113v6q0 69 -43.5 111.5t-101.5 42.5z" />
    <glyph glyph-name="a.alt" 
d="M268 517q110 0 168 -83l7 72h93v-506h-93l-7 71q-57 -82 -168 -82q-103 0 -169 75.5t-66 188.5t66 188.5t169 75.5zM287 417q-64 0 -104.5 -45.5t-40.5 -118.5t40.5 -119t104.5 -46q59 0 102 44t43 117v8q0 73 -43 116.5t-102 43.5z" />
    <glyph glyph-name="parenleft.cap" horiz-adv-x="282" 
d="M274 707q-68 -87 -98.5 -170.5t-30.5 -195.5t30.5 -195.5t98.5 -170.5l-76 -52q-76 94 -115 193t-39 225t39 225t115 193z" />
    <glyph glyph-name="parenright.cap" horiz-adv-x="282" 
d="M84 759q75 -95 114.5 -193.5t39.5 -224.5t-39.5 -224.5t-114.5 -193.5l-76 52q68 87 98.5 170.5t30.5 195.5t-30.5 195.5t-98.5 170.5z" />
    <glyph glyph-name="bracketleft.cap" horiz-adv-x="304" 
d="M280 640h-110v-601h110v-96h-211v793h211v-96z" />
    <glyph glyph-name="bracketright.cap" horiz-adv-x="304" 
d="M235 -57h-211v96h110v601h-110v96h211v-793z" />
    <glyph glyph-name="braceleft.cap" horiz-adv-x="304" 
d="M280 640h-23q-65 0 -65 -72v-126q0 -81 -61 -103q61 -22 61 -102v-126q0 -72 65 -72h23v-96h-26q-79 0 -119.5 44t-40.5 121v113q0 72 -65 72h-15v93h15q65 0 65 72v113q0 77 40.5 121t119.5 44h26v-96z" />
    <glyph glyph-name="braceright.cap" horiz-adv-x="304" 
d="M50 736q79 0 119.5 -44t40.5 -121v-113q0 -72 65 -72h15v-93h-15q-65 0 -65 -72v-113q0 -77 -40.5 -121t-119.5 -44h-26v96h23q65 0 65 72v126q0 80 61 102q-61 22 -61 103v126q0 72 -65 72h-23v96h26z" />
    <glyph glyph-name="hyphen.cap" horiz-adv-x="363" 
d="M339 287h-315v94h315v-94z" />
    <glyph glyph-name="endash.cap" horiz-adv-x="513" 
d="M489 283h-465v93h465v-93z" />
    <glyph glyph-name="emdash.cap" horiz-adv-x="703" 
d="M679 287h-655v94h655v-94z" />
    <glyph glyph-name="at.cap" horiz-adv-x="814" 
d="M409 722q168 0 269.5 -104.5t101.5 -266.5q0 -105 -45.5 -155.5t-108.5 -50.5q-77 0 -106 62q-47 -63 -137 -63q-82 0 -134.5 59t-52.5 147t52 147t132 59q90 0 129 -69l5 60h78v-279q0 -29 10 -43t35 -14q70 0 70 140q0 132 -81.5 217.5t-216.5 85.5q-137 0 -219.5 -85
t-82.5 -218t82.5 -219t219.5 -86q73 0 136 30l24 -65q-69 -33 -160 -33q-169 0 -271.5 105t-102.5 268q0 165 103 268t271 103zM397 473q-49 0 -79 -34t-30 -89t30 -88.5t77 -33.5q45 0 77.5 30t32.5 83v14q0 55 -32.5 86.5t-75.5 31.5z" />
    <glyph glyph-name="periodcentered.cap" horiz-adv-x="209" 
d="M104 418q30 0 50.5 -20t20.5 -49q0 -30 -20.5 -50t-50.5 -20t-50 20t-20 50q0 29 20 49t50 20z" />
    <glyph glyph-name="exclamdown.cap" horiz-adv-x="254" 
d="M127 572q-30 0 -51 20t-21 50q0 29 21 49t51 20q29 0 50 -20t21 -49q0 -30 -20.5 -50t-50.5 -20zM74 494h106v-494h-106v494z" />
    <glyph glyph-name="questiondown.cap" horiz-adv-x="426" 
d="M223 574q-30 0 -50.5 19.5t-20.5 49.5q0 29 21 49t50 20q30 0 50.5 -20t20.5 -49q0 -30 -20.5 -49.5t-50.5 -19.5zM217 -14q-86 0 -145 51.5t-59 140.5q0 49 16 88.5t39.5 63.5t46.5 44.5t39 43t16 47.5v31h106v-35q0 -37 -16.5 -67t-40.5 -51.5t-48 -42.5t-40.5 -51
t-16.5 -67q0 -53 28 -81t74 -28q49 0 78 30t29 85h101q-2 -95 -60 -148.5t-147 -53.5z" />
    <glyph glyph-name="endash_guilsinglright" horiz-adv-x="656" 
d="M621 279l-292 -265l-52 63l175 156h-418v90h420l-177 157l52 63z" />
    <glyph glyph-name="emdash_guilsinglright" horiz-adv-x="984" 
d="M950 279l-295 -265l-51 63l176 156h-746v90h747l-177 157l51 63z" />
    <glyph glyph-name="guilsinglleft_endash" horiz-adv-x="656" 
d="M380 480l-177 -157h418v-90h-417l176 -156l-51 -63l-295 265l295 264z" />
    <glyph glyph-name="guilsinglleft_emdash" horiz-adv-x="984" 
d="M380 480l-177 -157h747v-90h-746l176 -156l-51 -63l-295 265l295 264z" />
    <glyph glyph-name="guilsinglleft.cap" horiz-adv-x="268" 
d="M109 340l147 -195h-103l-142 187v17l142 187h103z" />
    <glyph glyph-name="guilsinglright.cap" horiz-adv-x="268" 
d="M256 349v-17l-141 -187h-104l148 195l-148 196h104z" />
    <glyph glyph-name="guillemotleft.cap" horiz-adv-x="469" 
d="M109 340l131 -195h-103l-126 187v17l126 187h103zM326 340l131 -195h-103l-126 187v17l126 187h103z" />
    <glyph glyph-name="guillemotright.cap" horiz-adv-x="469" 
d="M240 349v-17l-125 -187h-104l132 195l-132 196h104zM457 349v-17l-125 -187h-104l132 195l-132 196h104z" />
    <glyph glyph-name="germandbls.cap" horiz-adv-x="629" 
d="M418 415q78 -8 127.5 -62.5t49.5 -136.5q0 -102 -64.5 -162.5t-183.5 -60.5q-42 0 -91 9l4 106q42 -11 82 -11q65 0 101 29.5t36 87.5q0 59 -48 91t-132 32l-17 49l138 191q-34 32 -99 32q-61 0 -99 -39t-38 -106v-464h-113v461q0 111 67.5 181.5t186.5 70.5
q79 0 134.5 -25.5t104.5 -75.5z" />
    <glyph glyph-name="grave.cap" horiz-adv-x="266" 
d="M257 733h-111l-137 114h153z" />
    <glyph glyph-name="acute.cap" horiz-adv-x="266" 
d="M120 733h-111l95 114h153z" />
    <glyph glyph-name="circumflex.cap" horiz-adv-x="377" 
d="M368 732h-122l-58 53l-57 -53h-122l148 119h64z" />
    <glyph glyph-name="caron.cap" horiz-adv-x="377" 
d="M221 729h-64l-148 119h122l57 -53l58 53h122z" />
    <glyph glyph-name="tilde.cap" horiz-adv-x="357" 
d="M116 864q28 0 49 -10t30.5 -22.5t22 -22.5t27.5 -10q37 0 37 56h66q0 -59 -27 -94.5t-80 -35.5q-36 0 -58.5 16.5t-37.5 33t-33 16.5q-37 0 -37 -57h-66q0 60 27 95t80 35z" />
    <glyph glyph-name="dieresis.cap" horiz-adv-x="338" 
d="M71 853q26 0 44 -17.5t18 -43.5t-18 -43.5t-44 -17.5t-44 17.5t-18 43.5t18 43.5t44 17.5zM267 853q26 0 44 -17.5t18 -43.5t-18 -43.5t-44 -17.5t-44 17.5t-18 43.5t18 43.5t44 17.5z" />
    <glyph glyph-name="macron.cap" horiz-adv-x="288" 
d="M279 739h-270v83h270v-83z" />
    <glyph glyph-name="breve.cap" horiz-adv-x="320" 
d="M311 859q0 -58 -42 -94t-109 -36t-109 36t-42 94h87q0 -26 17 -42t47 -16t47 16t17 42h87z" />
    <glyph glyph-name="ring.cap" horiz-adv-x="207" 
d="M103 919q44 0 72 -27.5t28 -69.5t-28 -69.5t-72 -27.5q-43 0 -71.5 28t-28.5 69q0 42 28.5 69.5t71.5 27.5zM103 861q-16 0 -26.5 -11t-10.5 -28q0 -15 11 -26.5t26 -11.5q17 0 28 11.5t11 26.5q0 17 -11 28t-28 11z" />
    <glyph glyph-name="hungarumlaut.cap" horiz-adv-x="380" 
d="M100 729h-91l76 120h113zM273 729h-92l77 120h113z" />
    <glyph glyph-name="dotaccent.cap" horiz-adv-x="146" 
d="M73 857q27 0 45.5 -18t18.5 -44q0 -27 -18.5 -45.5t-45.5 -18.5t-45.5 18.5t-18.5 45.5q0 26 18.5 44t45.5 18z" />
    <glyph glyph-name="aogonek.alt" 
d="M557 -131l15 -58q-21 -12 -60 -12q-52 0 -85.5 30t-33.5 82q0 59 49 97l-6 63q-57 -82 -168 -82q-103 0 -169 75.5t-66 188.5t66 188.5t169 75.5q110 0 168 -83l7 72h93v-506h-5q-68 -30 -68 -86q0 -25 14 -39t39 -14t41 8zM432 249v8q0 73 -43 116.5t-102 43.5
q-64 0 -104.5 -45.5t-40.5 -118.5t40.5 -119t104.5 -46q59 0 102 44t43 117z" />
    <glyph glyph-name="aringacute.alt" 
d="M288 555q-47 0 -77.5 30t-30.5 75q0 55 41 85l85 102h152l-113 -95q52 -29 52 -92q0 -45 -30.5 -75t-78.5 -30zM288 613q21 0 34.5 14t13.5 34t-13.5 33.5t-34.5 13.5q-20 0 -33.5 -13.5t-13.5 -33.5t13.5 -34t33.5 -14zM443 506h93v-506h-93l-7 71q-57 -82 -168 -82
q-103 0 -169 75.5t-66 188.5t66 188.5t169 75.5q110 0 168 -83zM432 249v8q0 73 -43 116.5t-102 43.5q-64 0 -104.5 -45.5t-40.5 -118.5t40.5 -119t104.5 -46q59 0 102 44t43 117z" />
    <glyph glyph-name="aacute.alt" 
d="M327 574h-95l109 158h134zM268 517q110 0 168 -83l7 72h93v-506h-93l-7 71q-57 -82 -168 -82q-103 0 -169 75.5t-66 188.5t66 188.5t169 75.5zM287 417q-64 0 -104.5 -45.5t-40.5 -118.5t40.5 -119t104.5 -46q59 0 102 44t43 117v8q0 73 -43 116.5t-102 43.5z" />
    <glyph glyph-name="abreve.alt" 
d="M439 711q0 -64 -42 -104.5t-109 -40.5t-109 40.5t-42 104.5h87q0 -32 17.5 -53t46.5 -21t46.5 21t17.5 53h87zM268 517q110 0 168 -83l7 72h93v-506h-93l-7 71q-57 -82 -168 -82q-103 0 -169 75.5t-66 188.5t66 188.5t169 75.5zM287 417q-64 0 -104.5 -45.5t-40.5 -118.5
t40.5 -119t104.5 -46q59 0 102 44t43 117v8q0 73 -43 116.5t-102 43.5z" />
    <glyph glyph-name="adieresis.alt" 
d="M190 699q26 0 44 -17.5t18 -43.5t-18 -43.5t-44 -17.5t-44 17.5t-18 43.5t18 43.5t44 17.5zM386 699q26 0 44 -17.5t18 -43.5t-18 -43.5t-44 -17.5t-44 17.5t-18 43.5t18 43.5t44 17.5zM268 517q110 0 168 -83l7 72h93v-506h-93l-7 71q-57 -82 -168 -82q-103 0 -169 75.5
t-66 188.5t66 188.5t169 75.5zM287 417q-64 0 -104.5 -45.5t-40.5 -118.5t40.5 -119t104.5 -46q59 0 102 44t43 117v8q0 73 -43 116.5t-102 43.5z" />
    <glyph glyph-name="agrave.alt" 
d="M339 574h-95l-148 158h133zM268 517q110 0 168 -83l7 72h93v-506h-93l-7 71q-57 -82 -168 -82q-103 0 -169 75.5t-66 188.5t66 188.5t169 75.5zM287 417q-64 0 -104.5 -45.5t-40.5 -118.5t40.5 -119t104.5 -46q59 0 102 44t43 117v8q0 73 -43 116.5t-102 43.5z" />
    <glyph glyph-name="amacron.alt" 
d="M424 592h-270v82h270v-82zM268 517q110 0 168 -83l7 72h93v-506h-93l-7 71q-57 -82 -168 -82q-103 0 -169 75.5t-66 188.5t66 188.5t169 75.5zM287 417q-64 0 -104.5 -45.5t-40.5 -118.5t40.5 -119t104.5 -46q59 0 102 44t43 117v8q0 73 -43 116.5t-102 43.5z" />
    <glyph glyph-name="aring.alt" 
d="M288 766q48 0 78.5 -30t30.5 -76q0 -45 -30.5 -75t-78.5 -30q-47 0 -77.5 30t-30.5 75q0 46 30.5 76t77.5 30zM288 708q-20 0 -33.5 -13.5t-13.5 -33.5t13.5 -34t33.5 -14q21 0 34.5 14t13.5 34t-13.5 33.5t-34.5 13.5zM268 517q110 0 168 -83l7 72h93v-506h-93l-7 71
q-57 -82 -168 -82q-103 0 -169 75.5t-66 188.5t66 188.5t169 75.5zM287 417q-64 0 -104.5 -45.5t-40.5 -118.5t40.5 -119t104.5 -46q59 0 102 44t43 117v8q0 73 -43 116.5t-102 43.5z" />
    <glyph glyph-name="atilde.alt" 
d="M227 713q28 0 48.5 -11t30 -24t22.5 -24t28 -11q37 0 37 61h66q0 -61 -27 -98t-80 -37q-28 0 -48.5 11t-30 24.5t-22.5 24.5t-28 11q-37 0 -37 -62h-66q0 62 27 98.5t80 36.5zM268 517q110 0 168 -83l7 72h93v-506h-93l-7 71q-57 -82 -168 -82q-103 0 -169 75.5
t-66 188.5t66 188.5t169 75.5zM287 417q-64 0 -104.5 -45.5t-40.5 -118.5t40.5 -119t104.5 -46q59 0 102 44t43 117v8q0 73 -43 116.5t-102 43.5z" />
    <glyph glyph-name="gbreve.alt" horiz-adv-x="608" 
d="M432 711q0 -64 -42 -104.5t-109 -40.5t-109 40.5t-42 104.5h87q0 -32 17.5 -53t46.5 -21t46.5 21t17.5 53h87zM263 517q110 0 168 -83l6 72h94v-495q0 -106 -68 -171.5t-178 -65.5q-96 0 -161 45.5t-79 139.5h105q21 -89 135 -89q66 0 102.5 37t36.5 101v65
q-20 -32 -62 -53t-99 -21q-101 0 -165.5 73t-64.5 186q0 114 64 186.5t166 72.5zM282 416q-62 0 -101 -43.5t-39 -114.5t40 -114.5t101 -43.5q58 0 100.5 43t43.5 113v6q0 69 -43.5 111.5t-101.5 42.5z" />
    <glyph glyph-name="gcircumflex.alt" horiz-adv-x="608" 
d="M456 574h-112l-62 86l-63 -86h-112l138 158h73zM263 517q110 0 168 -83l6 72h94v-495q0 -106 -68 -171.5t-178 -65.5q-96 0 -161 45.5t-79 139.5h105q21 -89 135 -89q66 0 102.5 37t36.5 101v65q-20 -32 -62 -53t-99 -21q-101 0 -165.5 73t-64.5 186q0 114 64 186.5
t166 72.5zM282 416q-62 0 -101 -43.5t-39 -114.5t40 -114.5t101 -43.5q58 0 100.5 43t43.5 113v6q0 69 -43.5 111.5t-101.5 42.5z" />
    <glyph glyph-name="gcommaaccent.alt" horiz-adv-x="608" 
d="M325 810q-26 -51 -32 -113q26 -3 43 -21t17 -44q0 -28 -20 -47.5t-48 -19.5q-30 0 -49.5 20.5t-19.5 53.5q0 93 77 183zM263 517q110 0 168 -83l6 72h94v-495q0 -106 -68 -171.5t-178 -65.5q-96 0 -161 45.5t-79 139.5h105q21 -89 135 -89q66 0 102.5 37t36.5 101v65
q-20 -32 -62 -53t-99 -21q-101 0 -165.5 73t-64.5 186q0 114 64 186.5t166 72.5zM282 416q-62 0 -101 -43.5t-39 -114.5t40 -114.5t101 -43.5q58 0 100.5 43t43.5 113v6q0 69 -43.5 111.5t-101.5 42.5z" />
    <glyph glyph-name="gdotaccent.alt" horiz-adv-x="608" 
d="M282 713q28 0 48 -19.5t20 -47.5t-19.5 -47.5t-48.5 -19.5t-48.5 19.5t-19.5 47.5t20 47.5t48 19.5zM263 517q110 0 168 -83l6 72h94v-495q0 -106 -68 -171.5t-178 -65.5q-96 0 -161 45.5t-79 139.5h105q21 -89 135 -89q66 0 102.5 37t36.5 101v65q-20 -32 -62 -53
t-99 -21q-101 0 -165.5 73t-64.5 186q0 114 64 186.5t166 72.5zM282 416q-62 0 -101 -43.5t-39 -114.5t40 -114.5t101 -43.5q58 0 100.5 43t43.5 113v6q0 69 -43.5 111.5t-101.5 42.5z" />
    <glyph glyph-name="acircumflex.alt" 
d="M463 574h-112l-62 86l-63 -86h-112l138 158h73zM268 517q110 0 168 -83l7 72h93v-506h-93l-7 71q-57 -82 -168 -82q-103 0 -169 75.5t-66 188.5t66 188.5t169 75.5zM287 417q-64 0 -104.5 -45.5t-40.5 -118.5t40.5 -119t104.5 -46q59 0 102 44t43 117v8q0 73 -43 116.5
t-102 43.5z" />
    <glyph glyph-name="zero.tnum" horiz-adv-x="562" 
d="M280 553q113 0 177.5 -77t64.5 -205q0 -129 -64.5 -206.5t-177.5 -77.5q-112 0 -176.5 77.5t-64.5 206.5q0 128 64.5 205t176.5 77zM280 450q-59 0 -93.5 -49t-34.5 -130t34.5 -131t93.5 -50q60 0 94.5 49.5t34.5 131.5q0 81 -34 130t-95 49z" />
    <glyph glyph-name="one.tnum" horiz-adv-x="359" 
d="M288 0h-112v364h-148v84q81 0 122 20t53 72h85v-540z" />
    <glyph glyph-name="two.tnum" horiz-adv-x="490" 
d="M248 553q96 0 149 -51.5t53 -135.5q0 -99 -94 -177l-103 -85h205v-104h-412v63l225 184q35 28 50.5 52.5t15.5 61.5q0 41 -23 64.5t-68 23.5q-42 0 -66.5 -27t-23.5 -79h-112q-1 95 55 152.5t149 57.5z" />
    <glyph glyph-name="three.tnum" horiz-adv-x="536" 
d="M262 553q95 0 150.5 -55.5t55.5 -139.5q0 -57 -27.5 -93.5t-66.5 -50.5q50 -14 84 -56t34 -108q0 -91 -61.5 -147t-160.5 -56q-107 0 -168.5 58t-61.5 162h111q1 -58 34 -87t88 -29q47 0 76.5 28t29.5 75q0 54 -38 81.5t-107 27.5h-31v97h29q64 0 93.5 22.5t29.5 71.5
q0 44 -24 69.5t-68 25.5q-43 0 -70 -28t-27 -84h-112q0 100 56.5 158t151.5 58z" />
    <glyph glyph-name="four.tnum" horiz-adv-x="554" 
d="M430 86h94v-101h-94v-125h-112v125h-295v90l273 465h134v-454zM300 348l-156 -263h176v304z" />
    <glyph glyph-name="five.tnum" horiz-adv-x="535" 
d="M464 436h-278v-165q39 23 102 23q95 0 153.5 -56.5t58.5 -157.5q0 -104 -60.5 -168.5t-164.5 -64.5q-103 0 -162 54t-59 156h111q1 -53 30.5 -79.5t80.5 -26.5q54 0 83 33.5t29 90.5q0 55 -30 87t-85 32q-57 0 -100 -29h-99v375h390v-104z" />
    <glyph glyph-name="six.tnum" horiz-adv-x="550" 
d="M298 436q96 0 154.5 -62t58.5 -157q0 -103 -62 -166.5t-162 -63.5q-108 0 -171 71q-71 80 -71 266q0 184 59.5 276.5t185.5 92.5q89 0 146.5 -53.5t61.5 -142.5h-114q-7 92 -98 92q-62 0 -94 -53t-34 -169q19 30 57 49.5t83 19.5zM283 90q51 0 82.5 35.5t31.5 90.5
q0 51 -31.5 86t-82.5 35q-49 0 -83.5 -35t-34.5 -86q0 -50 33 -88t85 -38z" />
    <glyph glyph-name="seven.tnum" horiz-adv-x="494" 
d="M461 449l-270 -589h-122l264 574h-297v106h425v-91z" />
    <glyph glyph-name="eight.tnum" horiz-adv-x="549" 
d="M275 694q92 0 149.5 -57t57.5 -140q0 -54 -24.5 -92t-56.5 -55q102 -50 102 -161q0 -87 -65 -144t-163 -57q-99 0 -164 57t-65 144q0 60 28.5 100.5t72.5 60.5q-32 19 -56 56.5t-24 90.5q0 83 57.5 140t150.5 57zM275 590q-44 0 -71 -26.5t-27 -69.5t27 -68.5t71 -25.5
q43 0 70 25.5t27 68.5q0 42 -27.5 69t-69.5 27zM275 300q-49 0 -82.5 -28.5t-33.5 -77.5q0 -47 33 -75t83 -28t82.5 28t32.5 75q0 48 -33.5 77t-81.5 29z" />
    <glyph glyph-name="nine.tnum" horiz-adv-x="550" 
d="M433 482q72 -81 72 -266q0 -184 -59.5 -276.5t-185.5 -92.5q-89 0 -147 53.5t-61 142.5h113q9 -92 99 -92q62 0 94 53t34 169q-19 -30 -57 -49.5t-84 -19.5q-95 0 -154 62t-59 157q0 103 62 166.5t163 63.5q107 0 170 -71zM266 204q50 0 84.5 34.5t34.5 85.5q0 50 -33 88
t-86 38q-50 0 -82 -35.5t-32 -90.5q0 -51 32 -85.5t82 -34.5z" />
    <glyph glyph-name="zero.dnom" horiz-adv-x="368" 
d="M183 399q72 0 111 -53.5t39 -148.5q0 -96 -39 -150t-111 -54q-71 0 -109.5 54t-38.5 150q0 95 38.5 148.5t109.5 53.5zM183 322q-64 0 -64 -125q0 -127 64 -127q66 0 66 127q0 125 -66 125z" />
    <glyph glyph-name="one.dnom" horiz-adv-x="254" 
d="M201 0h-83v274h-88v62q97 0 110 56h61v-392z" />
    <glyph glyph-name="two.dnom" horiz-adv-x="321" 
d="M162 399q62 0 95 -31t33 -84q0 -56 -53 -113l-86 -93h140v-78h-255v60l128 139q43 46 43 79q0 44 -46 44q-22 0 -35.5 -13.5t-13.5 -39.5h-82q-1 58 36 94t96 36z" />
    <glyph glyph-name="three.dnom" horiz-adv-x="350" 
d="M172 399q60 0 94.5 -32.5t34.5 -82.5q0 -59 -53 -80q67 -20 67 -90q0 -56 -38 -88.5t-101 -32.5q-66 0 -103.5 33.5t-37.5 93.5h82q1 -25 17.5 -38t43.5 -13q24 0 39 13t15 36q0 51 -72 51h-25v67h24q59 0 59 45q0 19 -12 30.5t-33 11.5t-35 -12.5t-14 -35.5h-82
q0 58 35 91t95 33z" />
    <glyph glyph-name="four.dnom" horiz-adv-x="368" 
d="M285 141h53v-73h-53v-68h-83v68h-177v66l157 258h103v-251zM192 270l-81 -129h92v151z" />
    <glyph glyph-name="five.dnom" horiz-adv-x="348" 
d="M295 314h-162v-76q26 12 58 12q55 0 90 -31t35 -89q0 -61 -37.5 -99t-101.5 -38q-65 0 -101.5 32t-36.5 91h82q0 -46 56 -46q27 0 42 15t15 42q0 26 -15 41t-42 15q-29 0 -53 -14h-73v223h244v-78z" />
    <glyph glyph-name="six.dnom" horiz-adv-x="357" 
d="M196 245q58 0 92.5 -33.5t34.5 -86.5q0 -61 -38.5 -96.5t-100.5 -35.5q-67 0 -106 42q-45 49 -45 154q0 210 154 210q56 0 92 -32.5t37 -86.5h-83q-6 42 -50 42q-65 0 -66 -105q26 28 79 28zM181 69q26 0 42 14.5t16 39.5q0 23 -16.5 38t-41.5 15t-42.5 -14.5
t-17.5 -37.5q0 -22 17 -38.5t43 -16.5z" />
    <glyph glyph-name="seven.dnom" horiz-adv-x="310" 
d="M287 326l-154 -326h-90l149 313h-166v79h261v-66z" />
    <glyph glyph-name="eight.dnom" horiz-adv-x="353" 
d="M177 399q58 0 94 -34t36 -83q0 -52 -45 -81q56 -31 56 -88q0 -52 -40.5 -86t-100.5 -34q-61 0 -101.5 34t-40.5 86q0 61 56 88q-45 29 -45 81q0 49 36 83t95 34zM177 326q-22 0 -35.5 -13t-13.5 -33t13.5 -33t35.5 -13q21 0 34.5 13t13.5 33t-13.5 33t-34.5 13zM177 168
q-25 0 -41.5 -14.5t-16.5 -37.5t16.5 -36.5t41.5 -13.5t41.5 13.5t16.5 36.5t-17 37.5t-41 14.5z" />
    <glyph glyph-name="nine.dnom" horiz-adv-x="357" 
d="M279 359q45 -49 45 -156q0 -210 -153 -210q-57 0 -92.5 32.5t-36.5 86.5h83q4 -42 49 -42q66 0 66 107q-29 -27 -79 -27q-57 0 -92 32.5t-35 84.5q0 61 38.5 96.5t101.5 35.5q69 0 105 -40zM176 213q25 0 42.5 16t17.5 39q0 22 -17 38.5t-43 16.5q-25 0 -41.5 -15.5
t-16.5 -39.5q0 -23 16.5 -39t41.5 -16z" />
    <glyph glyph-name="zero.subs" horiz-adv-x="368" 
d="M183 299q72 0 111 -53.5t39 -148.5q0 -96 -39 -150t-111 -54q-71 0 -109.5 54t-38.5 150q0 95 38.5 148.5t109.5 53.5zM183 222q-64 0 -64 -125q0 -127 64 -127q66 0 66 127q0 125 -66 125z" />
    <glyph glyph-name="one.subs" horiz-adv-x="254" 
d="M201 -100h-83v274h-88v62q97 0 110 56h61v-392z" />
    <glyph glyph-name="two.subs" horiz-adv-x="321" 
d="M162 299q62 0 95 -31t33 -84q0 -56 -53 -113l-86 -93h140v-78h-255v60l128 139q43 46 43 79q0 44 -46 44q-22 0 -35.5 -13.5t-13.5 -39.5h-82q-1 58 36 94t96 36z" />
    <glyph glyph-name="three.subs" horiz-adv-x="350" 
d="M172 299q60 0 94.5 -32.5t34.5 -82.5q0 -59 -53 -80q67 -20 67 -90q0 -56 -38 -88.5t-101 -32.5q-66 0 -103.5 33.5t-37.5 93.5h82q1 -25 17.5 -38t43.5 -13q24 0 39 13t15 36q0 51 -72 51h-25v67h24q59 0 59 45q0 19 -12 30.5t-33 11.5t-35 -12.5t-14 -35.5h-82
q0 58 35 91t95 33z" />
    <glyph glyph-name="four.subs" horiz-adv-x="368" 
d="M285 41h53v-73h-53v-68h-83v68h-177v66l157 258h103v-251zM192 170l-81 -129h92v151z" />
    <glyph glyph-name="five.subs" horiz-adv-x="348" 
d="M295 214h-162v-76q26 12 58 12q55 0 90 -31t35 -89q0 -61 -37.5 -99t-101.5 -38q-65 0 -101.5 32t-36.5 91h82q0 -46 56 -46q27 0 42 15t15 42q0 26 -15 41t-42 15q-29 0 -53 -14h-73v223h244v-78z" />
    <glyph glyph-name="six.subs" horiz-adv-x="357" 
d="M196 145q58 0 92.5 -33.5t34.5 -86.5q0 -61 -38.5 -96.5t-100.5 -35.5q-67 0 -106 42q-45 49 -45 154q0 210 154 210q56 0 92 -32.5t37 -86.5h-83q-6 42 -50 42q-65 0 -66 -105q28 28 79 28zM181 -31q26 0 42 14.5t16 39.5q0 23 -16.5 38t-41.5 15t-42.5 -14.5
t-17.5 -37.5q0 -22 17 -38.5t43 -16.5z" />
    <glyph glyph-name="seven.subs" horiz-adv-x="310" 
d="M287 226l-154 -326h-90l149 313h-166v79h261v-66z" />
    <glyph glyph-name="eight.subs" horiz-adv-x="353" 
d="M177 299q58 0 94 -34t36 -83q0 -52 -45 -81q56 -31 56 -88q0 -52 -40.5 -86t-100.5 -34q-61 0 -101.5 34t-40.5 86q0 61 56 88q-45 29 -45 81q0 49 36 83t95 34zM177 226q-22 0 -35.5 -13t-13.5 -33t13.5 -33t35.5 -13q21 0 34.5 13t13.5 33t-13.5 33t-34.5 13zM177 68
q-25 0 -41.5 -14.5t-16.5 -37.5t16.5 -36.5t41.5 -13.5t41.5 13.5t16.5 36.5t-17 37.5t-41 14.5z" />
    <glyph glyph-name="nine.subs" horiz-adv-x="357" 
d="M279 259q45 -49 45 -156q0 -210 -153 -210q-57 0 -92.5 32.5t-36.5 86.5h83q4 -42 49 -42q66 0 66 107q-29 -27 -79 -27q-57 0 -92 32.5t-35 84.5q0 61 38.5 96.5t101.5 35.5q69 0 105 -40zM176 113q25 0 42.5 16t17.5 39q0 22 -17 38.5t-43 16.5q-25 0 -41.5 -15.5
t-16.5 -39.5q0 -23 16.5 -39t41.5 -16z" />
    <glyph glyph-name="zero.numr" horiz-adv-x="368" 
d="M183 707q72 0 111 -53.5t39 -148.5q0 -96 -39 -150t-111 -54q-71 0 -109.5 54t-38.5 150q0 95 38.5 148.5t109.5 53.5zM183 630q-64 0 -64 -125q0 -127 64 -127q66 0 66 127q0 125 -66 125z" />
    <glyph glyph-name="one.numr" horiz-adv-x="254" 
d="M201 308h-83v274h-88v62q97 0 110 56h61v-392z" />
    <glyph glyph-name="two.numr" horiz-adv-x="321" 
d="M162 707q62 0 95 -31t33 -84q0 -56 -53 -113l-86 -93h140v-78h-255v60l128 139q43 46 43 79q0 44 -46 44q-22 0 -35.5 -13.5t-13.5 -39.5h-82q-1 58 36 94t96 36z" />
    <glyph glyph-name="three.numr" horiz-adv-x="350" 
d="M172 707q60 0 94.5 -32.5t34.5 -82.5q0 -59 -53 -80q67 -20 67 -90q0 -56 -38 -88.5t-101 -32.5q-66 0 -103.5 33.5t-37.5 93.5h82q1 -25 17.5 -38t43.5 -13q24 0 39 13t15 36q0 51 -72 51h-25v67h24q59 0 59 45q0 19 -12 30.5t-33 11.5t-35 -12.5t-14 -35.5h-82
q0 58 35 91t95 33z" />
    <glyph glyph-name="four.numr" horiz-adv-x="368" 
d="M285 449h53v-73h-53v-68h-83v68h-177v66l157 258h103v-251zM192 578l-81 -129h92v151z" />
    <glyph glyph-name="five.numr" horiz-adv-x="348" 
d="M295 622h-162v-76q26 12 58 12q55 0 90 -31t35 -89q0 -61 -37.5 -99t-101.5 -38q-65 0 -101.5 32t-36.5 91h82q0 -46 56 -46q27 0 42 15t15 42q0 26 -15 41t-42 15q-29 0 -53 -14h-73v223h244v-78z" />
    <glyph glyph-name="six.numr" horiz-adv-x="357" 
d="M196 553q58 0 92.5 -33.5t34.5 -86.5q0 -61 -38.5 -96.5t-100.5 -35.5q-67 0 -106 42q-45 49 -45 154q0 210 154 210q56 0 92 -32.5t37 -86.5h-83q-6 42 -50 42q-65 0 -66 -105q28 28 79 28zM181 377q26 0 42 14.5t16 39.5q0 23 -16.5 38t-41.5 15t-42.5 -14.5
t-17.5 -37.5q0 -22 17 -38.5t43 -16.5z" />
    <glyph glyph-name="seven.numr" horiz-adv-x="310" 
d="M287 634l-154 -326h-90l149 313h-166v79h261v-66z" />
    <glyph glyph-name="eight.numr" horiz-adv-x="353" 
d="M177 707q58 0 94 -34t36 -83q0 -52 -45 -81q56 -31 56 -88q0 -52 -40.5 -86t-100.5 -34q-61 0 -101.5 34t-40.5 86q0 61 56 88q-45 29 -45 81q0 49 36 83t95 34zM177 634q-22 0 -35.5 -13t-13.5 -33t13.5 -33t35.5 -13q21 0 34.5 13t13.5 33t-13.5 33t-34.5 13zM177 476
q-25 0 -41.5 -14.5t-16.5 -37.5t16.5 -36.5t41.5 -13.5t41.5 13.5t16.5 36.5t-17 37.5t-41 14.5z" />
    <glyph glyph-name="nine.numr" horiz-adv-x="357" 
d="M279 667q45 -49 45 -156q0 -210 -153 -210q-57 0 -92.5 32.5t-36.5 86.5h83q4 -42 49 -42q66 0 66 107q-29 -27 -79 -27q-57 0 -92 32.5t-35 84.5q0 61 38.5 96.5t101.5 35.5q69 0 105 -40zM176 521q25 0 42.5 16t17.5 39q0 22 -17 38.5t-43 16.5q-25 0 -41.5 -15.5
t-16.5 -39.5q0 -23 16.5 -39t41.5 -16z" />
    <glyph glyph-name="zero.lnum" horiz-adv-x="573" 
d="M287 713q116 0 178.5 -96.5t62.5 -265.5q0 -170 -63 -267t-178 -97q-116 0 -179 97.5t-63 266.5t63 265.5t179 96.5zM287 609q-63 0 -96 -68t-33 -190q0 -123 33 -191.5t96 -68.5t95.5 68.5t32.5 191.5q0 122 -32.5 190t-95.5 68z" />
    <glyph glyph-name="one.lnum" horiz-adv-x="573" 
d="M379 100h132v-100h-377v100h133v413h-147v95q82 0 122.5 20t52.5 72h84v-600z" />
    <glyph glyph-name="two.lnum" horiz-adv-x="573" 
d="M293 713q97 0 149 -53.5t52 -144.5q0 -57 -22 -104.5t-64 -99.5l-164 -207h262v-104h-416v82l220 271q39 47 55 81t16 76q0 99 -89 99q-44 0 -70.5 -29t-25.5 -87h-112q-2 100 56 160t153 60z" />
    <glyph glyph-name="three.lnum" horiz-adv-x="573" 
d="M286 713q96 0 151 -56.5t55 -143.5q0 -59 -27 -97t-65 -52q48 -14 82 -57t34 -112q0 -94 -61.5 -151t-162.5 -57q-105 0 -166 58t-61 162h112q0 -58 32.5 -87t86.5 -29q48 0 77.5 29.5t29.5 78.5q0 114 -145 114h-31v97h30q63 0 93 24t30 75q0 46 -24 73t-68 27
q-43 0 -70 -28t-27 -84h-111q0 100 55.5 158t150.5 58z" />
    <glyph glyph-name="four.lnum" horiz-adv-x="573" 
d="M440 236h94v-101h-94v-135h-112v135h-290v91l266 474h136v-464zM309 510l-152 -275h173v317z" />
    <glyph glyph-name="five.lnum" horiz-adv-x="573" 
d="M484 596h-277v-175q42 23 106 23q93 0 150.5 -57t57.5 -162q0 -107 -61 -172.5t-165 -65.5q-102 0 -161.5 54.5t-59.5 155.5h112q1 -53 30.5 -79.5t79.5 -26.5q54 0 83 35.5t29 93.5t-30 90.5t-84 32.5q-57 0 -100 -29h-100v386h390v-104z" />
    <glyph glyph-name="six.lnum" horiz-adv-x="573" 
d="M309 436q99 0 157 -61.5t58 -157.5q0 -103 -62 -166.5t-162 -63.5q-109 0 -171 71q-71 83 -71 276q0 189 59.5 284t185.5 95q89 0 146.5 -55t61.5 -146h-114q-7 97 -98 97q-63 0 -94.5 -55.5t-33.5 -178.5q19 26 56.5 43.5t81.5 17.5zM296 90q51 0 82.5 35t31.5 90
q0 52 -31.5 87t-82.5 35q-49 0 -83.5 -35t-34.5 -86q0 -50 33 -88t85 -38z" />
    <glyph glyph-name="seven.lnum" horiz-adv-x="573" 
d="M509 609l-269 -609h-122l264 594h-308v106h435v-91z" />
    <glyph glyph-name="eight.lnum" horiz-adv-x="573" 
d="M286 713q92 0 150 -58.5t58 -143.5q0 -55 -24.5 -94.5t-56.5 -57.5q42 -19 72 -59.5t30 -103.5q0 -90 -66 -149.5t-163 -59.5q-98 0 -163.5 59.5t-65.5 149.5q0 60 29 102.5t72 60.5q-32 19 -56 58.5t-24 93.5q0 85 57.5 143.5t150.5 58.5zM286 610q-43 0 -70 -28
t-27 -74q0 -45 26.5 -72t70.5 -27t71 27t27 72q0 46 -27.5 74t-70.5 28zM286 310q-49 0 -82.5 -30.5t-33.5 -80.5t33.5 -79.5t82.5 -29.5t82.5 29.5t33.5 79.5t-34 80.5t-82 30.5z" />
    <glyph glyph-name="nine.lnum" horiz-adv-x="573" 
d="M444 642q71 -83 71 -276q0 -189 -59.5 -284t-185.5 -95q-89 0 -146.5 55t-61.5 146h114q7 -97 98 -97q62 0 94 55.5t34 178.5q-20 -26 -57 -43.5t-81 -17.5q-99 0 -157 61.5t-58 157.5q0 103 62 166.5t162 63.5q109 0 171 -71zM277 364q49 0 83.5 34.5t34.5 85.5
q0 50 -33 88t-85 38q-51 0 -82.5 -35t-31.5 -90q0 -52 31.5 -86.5t82.5 -34.5z" />
    <glyph glyph-name="b.sups" horiz-adv-x="452" 
d="M142 664q39 47 110 47q72 0 118.5 -51.5t46.5 -128.5q0 -76 -46.5 -127.5t-118.5 -51.5t-115 54l-6 -47h-71v496h82v-191zM236 634q-38 0 -65 -26t-30 -71l-1 -12q0 -45 28.5 -70.5t68.5 -25.5q42 0 68.5 28.5t26.5 73.5q0 46 -27.5 74.5t-68.5 28.5z" />
    <glyph glyph-name="c.sups" horiz-adv-x="410" 
d="M211 711q64 0 107.5 -32.5t53.5 -93.5h-79q-19 51 -80 51q-40 0 -66.5 -29.5t-26.5 -75.5q0 -45 26.5 -74.5t67.5 -29.5q28 0 49.5 14t29.5 37h80q-12 -61 -56 -93.5t-106 -32.5q-78 0 -127.5 49.5t-49.5 129.5q0 78 50 129t127 51z" />
    <glyph glyph-name="d.sups" horiz-adv-x="452" 
d="M392 359h-72l-5 47q-43 -54 -116 -54q-71 0 -118 51.5t-47 127.5q0 77 46.5 128.5t118.5 51.5t111 -47v191h82v-496zM216 634q-42 0 -69 -28.5t-27 -74.5q0 -45 26.5 -73.5t68.5 -28.5q40 0 68 25.5t28 70.5v12q-1 45 -29 71t-66 26z" />
    <glyph glyph-name="e.sups" horiz-adv-x="412" 
d="M374 532v-27h-254q2 -37 27 -59t65 -22q60 0 77 44h81q-16 -55 -57 -85.5t-103 -30.5q-79 0 -127.5 49t-48.5 130q0 79 48.5 129.5t125.5 50.5q74 0 120 -45.5t46 -133.5zM120 565h169q0 34 -22.5 54.5t-60.5 20.5q-36 0 -59.5 -21t-26.5 -54z" />
    <glyph glyph-name="f.sups" horiz-adv-x="267" 
d="M201 862q33 0 48 -6v-74q-16 8 -39 8q-47 0 -47 -49v-37h83v-75h-84v-270h-82v270h-58v75h58v40q0 58 31 88t90 30z" />
    <glyph glyph-name="g.sups" horiz-adv-x="394" 
d="M375 704v-71h-48q9 -21 9 -44q0 -52 -40 -85.5t-101 -33.5q-36 0 -66 11q-11 -9 -11 -28q0 -32 38 -32h90q54 0 85 -26t31 -72q0 -57 -42.5 -87.5t-114.5 -30.5q-78 0 -120 27t-42 78q0 42 37 63q-42 29 -42 73t37 73q-26 29 -26 70q0 53 41.5 87.5t104.5 34.5
q28 0 50 -7h130zM193 528q28 0 46 17t18 44q0 28 -17.5 45t-46.5 17q-28 0 -45.5 -17t-17.5 -45q0 -27 17.5 -44t45.5 -17zM164 361q-17 -2 -28.5 -14t-11.5 -31q0 -51 82 -51q76 0 76 53q0 20 -15.5 31.5t-41.5 11.5h-61z" />
    <glyph glyph-name="h.sups" horiz-adv-x="413" 
d="M142 665q31 46 98 46q56 0 87 -34.5t31 -93.5v-224h-83v203q0 69 -60 69q-31 0 -52 -22.5t-21 -63.5v-186h-82v496h82v-190z" />
    <glyph glyph-name="i.sups" horiz-adv-x="206" 
d="M103 855q21 0 36 -14.5t15 -35.5q0 -20 -15 -35t-36 -15t-36 15t-15 35q0 21 15 35.5t36 14.5zM144 359h-83v345h83v-345z" />
    <glyph glyph-name="j.sups" horiz-adv-x="206" 
d="M103 855q21 0 36 -14.5t15 -35.5q0 -20 -15.5 -35t-35.5 -15q-21 0 -36 14.5t-15 35.5q0 22 14.5 36t36.5 14zM143 339q0 -134 -115 -134q-33 0 -54 7v74q18 -6 39 -6q26 0 37 14.5t11 46.5v363h82v-365z" />
    <glyph glyph-name="k.sups" horiz-adv-x="392" 
d="M145 559l112 145h98l-107 -144l126 -201h-94l-89 137l-46 -56v-81h-81v496h81v-296z" />
    <glyph glyph-name="l.sups" horiz-adv-x="206" 
d="M144 359h-82v496h82v-496z" />
    <glyph glyph-name="m.sups" horiz-adv-x="622" 
d="M452 711q55 0 85 -34.5t30 -93.5v-224h-82v202q0 70 -58 70q-31 0 -51.5 -22t-20.5 -64v-186h-82v202q0 70 -59 70q-30 0 -51 -22.5t-21 -63.5v-186h-82v345h71l6 -46q13 23 40 38t62 15q75 0 104 -62q14 27 42.5 44.5t66.5 17.5z" />
    <glyph glyph-name="o.sups" horiz-adv-x="438" 
d="M219 711q80 0 132 -50t52 -130q0 -79 -52 -129t-132 -50q-81 0 -133 50t-52 129q0 80 52 130t133 50zM220 636q-45 0 -72.5 -29.5t-27.5 -74.5q0 -46 27.5 -75.5t72.5 -29.5q43 0 70.5 30t27.5 75t-27.5 74.5t-70.5 29.5z" />
    <glyph glyph-name="p.sups" horiz-adv-x="455" 
d="M256 711q72 0 118.5 -51.5t46.5 -127.5q0 -77 -46.5 -128.5t-118.5 -51.5q-71 0 -110 47v-186h-83v491h72l5 -47q43 54 116 54zM240 634q-39 0 -67.5 -25.5t-28.5 -70.5v-12q1 -46 29.5 -71.5t66.5 -25.5q41 0 68 28.5t27 74.5q0 45 -26.5 73.5t-68.5 28.5z" />
    <glyph glyph-name="q.sups" horiz-adv-x="455" 
d="M199 711q73 0 116 -54l5 47h72v-491h-82v186q-39 -47 -111 -47t-118.5 51.5t-46.5 128.5q0 76 47 127.5t118 51.5zM215 634q-42 0 -68.5 -28.5t-26.5 -73.5q0 -46 27 -74.5t69 -28.5q38 0 66 25.5t29 71.5v12q0 45 -28 70.5t-68 25.5z" />
    <glyph glyph-name="r.sups" horiz-adv-x="279" 
d="M250 625q-48 0 -75 -22q-30 -23 -30 -67v-177h-81v345h70l7 -53q27 56 109 56v-82z" />
    <glyph glyph-name="s.sups" horiz-adv-x="349" 
d="M174 711q56 0 92.5 -29.5t37.5 -78.5h-83q-2 39 -48 39q-47 0 -47 -34q0 -18 14 -26.5t55 -16.5q62 -11 90 -36t28 -67q0 -55 -39.5 -82.5t-98.5 -27.5q-64 0 -101 30t-39 81h83q1 -42 60 -42q24 0 37.5 10t13.5 25q0 18 -15 27.5t-57 17.5q-114 20 -114 101
q0 47 34.5 78t96.5 31z" />
    <glyph glyph-name="t.sups" horiz-adv-x="282" 
d="M163 704h84v-76h-84l-1 -148q0 -28 10 -39.5t36 -11.5t39 4v-71q-22 -8 -56 -8q-57 0 -85 25.5t-27 80.5l1 168h-60v76h61l1 83h82z" />
    <glyph glyph-name="u.sups" horiz-adv-x="408" 
d="M348 359h-71l-5 45q-12 -21 -38.5 -36.5t-63.5 -15.5q-55 0 -85 34t-30 93v225h82v-205q0 -33 15.5 -50.5t43.5 -17.5q29 0 49.5 21.5t20.5 60.5v191h82v-345z" />
    <glyph glyph-name="v.sups" horiz-adv-x="381" 
d="M232 359h-84l-129 345h88l77 -219l6 -30l8 30l76 219h88z" />
    <glyph glyph-name="w.sups" horiz-adv-x="566" 
d="M439 359h-86l-70 212l-74 -212h-81l-109 345h88l59 -215l8 -35l7 35l66 215h72l65 -215l8 -35l7 35l60 215h88z" />
    <glyph glyph-name="x.sups" horiz-adv-x="391" 
d="M252 535l115 -176h-96l-75 113l-76 -113h-96l116 176l-110 169h96l70 -106l70 106h95z" />
    <glyph glyph-name="y.sups" horiz-adv-x="383" 
d="M177 213h-86l55 151l-127 340h88l77 -219l6 -30l8 30l76 219h88z" />
    <glyph glyph-name="z.sups" horiz-adv-x="353" 
d="M314 642l-168 -211h178v-72h-288v61l168 211h-167v73h277v-62z" />
    <glyph glyph-name="a.sups" horiz-adv-x="382" 
d="M190 711q65 0 102 -32t37 -93v-227h-71l-4 40q-38 -47 -105 -47q-49 0 -78 26t-29 71q0 85 108 103l97 18v14q0 55 -57 55q-26 0 -42.5 -13t-16.5 -36h-80q3 54 40 87.5t99 33.5zM166 494q-42 -9 -42 -39q0 -15 11.5 -24.5t31.5 -9.5q44 0 65 30q15 20 15 44v14z" />
    <glyph glyph-name="g.alt.sups" horiz-adv-x="451" 
d="M195 711q73 0 116 -55l5 48h72v-337q0 -73 -48.5 -117.5t-127.5 -44.5q-69 0 -115.5 32t-54.5 98h80q13 -55 90 -55q44 0 69 23t25 62v42q-41 -47 -111 -47t-115.5 49.5t-45.5 126.5t45 126t116 49zM212 634q-41 0 -66.5 -27t-25.5 -71t26 -71t66 -27q38 0 66.5 24.5
t28.5 67.5v11q0 44 -28.5 68.5t-66.5 24.5z" />
    <glyph glyph-name="a.alt.sups" horiz-adv-x="452" 
d="M199 711q74 0 116 -54l5 47h72v-345h-72l-5 47q-42 -54 -116 -54q-71 0 -118 51.5t-47 127.5q0 77 46.5 128.5t118.5 51.5zM215 634q-42 0 -68.5 -28.5t-26.5 -74.5q0 -45 26.5 -73.5t68.5 -28.5q40 0 68 25.5t28 70.5v13q0 45 -28 70.5t-68 25.5z" />
    <glyph glyph-name="g_i.alt" horiz-adv-x="594" 
d="M298 749q120 0 193.5 -77t73.5 -196t-73.5 -196t-193.5 -77t-194.5 77t-74.5 196t74.5 196t194.5 77zM298 687q-91 0 -147 -60t-56 -151t56 -151t147 -60t146.5 60t55.5 151q0 92 -55.5 151.5t-146.5 59.5z" />
    <glyph glyph-name="zero.slash" horiz-adv-x="562" 
d="M281 713q115 0 178 -97t63 -265q0 -169 -63 -266.5t-178 -97.5t-178 97.5t-63 266.5q0 168 63 265t178 97zM281 609q-63 0 -95.5 -68t-32.5 -190q0 -82 15 -140l191 358q-31 40 -78 40zM281 91q63 0 95 68.5t32 191.5q0 87 -14 140l-192 -358q31 -42 79 -42z" />
    <glyph glyph-name="L_a_r_s_s_e_i_t" horiz-adv-x="3089" 
d="M1743 219q85 -13 134 -73t49 -139q0 -106 -60 -166.5t-175 -60.5q-43 0 -85 8l3 107q38 -11 72 -11q62 0 97 31t35 91q0 57 -39 89t-104 32h-47v70l132 211h-209v-408h-111v525q0 212 212 212v-101q-101 0 -101 -109v-21h328v-82zM2602 725q28 0 48 -19.5t20 -48.5
q0 -28 -19.5 -47t-48.5 -19t-48.5 19t-19.5 47q0 29 20 48.5t48 19.5zM185 700v-596h302v-104h-414v700h112zM3058 408h-125l-2 -241q0 -41 15 -59.5t55 -18.5q30 0 57 9v-94q-29 -11 -79 -11q-77 0 -115.5 36.5t-37.5 115.5l2 263h-89v98h89l1 124h107l-2 -124h124v-98z
M763 517q88 0 139 -47.5t51 -136.5v-333h-94l-5 66q-46 -77 -149 -77q-68 0 -109.5 38.5t-41.5 105.5q0 121 148 149l144 26v23q0 91 -83 91q-39 0 -65 -21t-26 -59h-103q3 76 56 125.5t138 49.5zM2208 517q104 0 168 -67t64 -193v-41h-369q4 -61 42.5 -97t97.5 -36
q95 0 121 72h104q-24 -79 -82 -122.5t-146 -43.5q-110 0 -178.5 72t-68.5 191q0 116 68 190.5t179 74.5zM1190 420q15 39 52.5 65t97.5 26v-106q-61 0 -101 -34q-43 -38 -44 -108v-263h-106v506h93zM2549 0v506h106v-506h-106zM2071 299h262q-1 57 -35.5 91t-90.5 34
q-57 0 -93.5 -35t-42.5 -90zM846 210v18l-121 -26q-64 -14 -64 -64q0 -27 17.5 -42t50.5 -15q62 0 93 49q24 34 24 80z" />
    <glyph glyph-name="A.smcp" horiz-adv-x="584" 
d="M570 0h-118l-48 118h-223l-47 -118h-119l218 539h119zM282 379l-70 -173h161l-70 173l-10 31z" />
    <glyph glyph-name="B.smcp" horiz-adv-x="496" 
d="M245 539q85 0 134.5 -41.5t49.5 -112.5q0 -66 -49 -106q38 -15 59.5 -45.5t21.5 -73.5q0 -72 -51.5 -116t-138.5 -44h-203v539h177zM177 442v-126h69q33 0 52.5 17t19.5 45q0 30 -20 47t-54 17h-67zM177 230v-134h92q36 0 57.5 18t21.5 49t-21 49t-58 18h-92z" />
    <glyph glyph-name="C.smcp" horiz-adv-x="596" 
d="M314 549q102 0 164.5 -49.5t86.5 -135.5h-120q-29 84 -131 84q-72 0 -116.5 -50t-44.5 -128t44.5 -128.5t117.5 -50.5q104 0 137 89h115q-48 -190 -252 -190q-122 0 -198.5 79t-76.5 201q0 121 76.5 200t197.5 79z" />
    <glyph glyph-name="D.smcp" 
d="M277 539q132 0 210.5 -74.5t78.5 -194.5q0 -121 -78.5 -195.5t-210.5 -74.5h-209v539h209zM177 437v-335h100q85 0 131 44t46 124t-46 123.5t-131 43.5h-100z" />
    <glyph glyph-name="E.smcp" horiz-adv-x="437" 
d="M390 439h-213v-116h184v-95h-184v-128h213v-100h-322v539h322v-100z" />
    <glyph glyph-name="F.smcp" horiz-adv-x="415" 
d="M385 439h-208v-124h176v-96h-176v-219h-109v539h317v-100z" />
    <glyph glyph-name="G.smcp" horiz-adv-x="623" 
d="M319 549q102 0 167 -49.5t89 -134.5h-120q-32 84 -138 84q-72 0 -117.5 -50t-45.5 -128q0 -80 46.5 -131t121.5 -51q62 0 99.5 27.5t43.5 80.5h-136v93h250v-45q0 -120 -70.5 -187.5t-186.5 -67.5q-124 0 -202.5 79t-78.5 201q0 121 78 200t200 79z" />
    <glyph glyph-name="H.smcp" horiz-adv-x="596" 
d="M528 0h-109v228h-242v-228h-109v539h109v-210h242v210h109v-539z" />
    <glyph glyph-name="I.smcp" horiz-adv-x="245" 
d="M177 0h-109v539h109v-539z" />
    <glyph glyph-name="J.smcp" horiz-adv-x="440" 
d="M379 170q0 -84 -47 -129.5t-125 -45.5q-89 0 -134.5 49t-47.5 135h108q4 -82 72 -82q65 0 65 77v365h109v-369z" />
    <glyph glyph-name="K.smcp" horiz-adv-x="568" 
d="M333 296l213 -296h-134l-153 212l-80 -96v-116h-109v539h109v-271l203 271h134z" />
    <glyph glyph-name="L.smcp" horiz-adv-x="433" 
d="M177 102h233v-102h-342v539h109v-437z" />
    <glyph glyph-name="M.smcp" horiz-adv-x="734" 
d="M666 0h-109v342l-16 -51l-130 -291h-88l-129 291l-17 51v-342h-109v539h126l161 -346l12 -31l12 31l162 346h125v-539z" />
    <glyph glyph-name="N.smcp" 
d="M539 0h-108l-232 323l-22 37v-360h-109v539h109l231 -325l22 -37v362h109v-539z" />
    <glyph glyph-name="O.smcp" horiz-adv-x="646" 
d="M323 549q125 0 204 -78.5t79 -200.5t-79 -201t-204 -79t-204 79t-79 201t79 200.5t204 78.5zM323 448q-78 0 -124 -49.5t-46 -128.5t46.5 -129t123.5 -50t123.5 50t46.5 129t-46 128.5t-124 49.5z" />
    <glyph glyph-name="P.smcp" horiz-adv-x="472" 
d="M248 539q90 0 143.5 -48.5t53.5 -126.5q0 -76 -54 -125t-143 -49h-71v-190h-109v539h180zM177 440v-151h71q39 0 62.5 20t23.5 55q0 36 -23.5 56t-62.5 20h-71z" />
    <glyph glyph-name="Q.smcp" horiz-adv-x="647" 
d="M647 -73h-145l-77 79q-50 -16 -102 -16q-125 0 -204 79t-79 201t79 200.5t204 78.5t204 -78.5t79 -200.5q0 -129 -87 -208zM153 270q0 -79 46.5 -129t123.5 -50q16 0 23 1l-81 87h145l36 -39q47 50 47 130q0 79 -46 128.5t-124 49.5t-124 -49.5t-46 -128.5z" />
    <glyph glyph-name="R.smcp" horiz-adv-x="476" 
d="M460 0h-122l-102 203h-59v-203h-109v539h171q90 0 143.5 -47.5t53.5 -125.5q0 -99 -91 -142zM177 440v-146h62q40 0 63 18.5t23 53.5t-23 54.5t-63 19.5h-62z" />
    <glyph glyph-name="S.smcp" horiz-adv-x="455" 
d="M228 549q78 0 125.5 -41.5t51.5 -117.5h-108q-1 33 -20 51t-51 18q-30 0 -47.5 -16t-17.5 -44q0 -30 21 -45t77 -34q89 -30 125 -67.5t36 -98.5q0 -77 -52 -120.5t-133 -43.5q-94 0 -144.5 48t-51.5 125h107q3 -83 89 -83q35 0 55.5 18t20.5 46q0 27 -23 44.5t-76 35.5
q-82 26 -121 62.5t-39 101.5q0 71 47 116t129 45z" />
    <glyph glyph-name="T.smcp" horiz-adv-x="493" 
d="M483 437h-182v-437h-108v437h-183v102h473v-102z" />
    <glyph glyph-name="U.smcp" horiz-adv-x="577" 
d="M516 217q0 -108 -59.5 -167.5t-167.5 -59.5q-109 0 -168.5 59.5t-59.5 167.5v322h109v-322q0 -126 119 -126q117 0 117 126v322h110v-322z" />
    <glyph glyph-name="V.smcp" horiz-adv-x="567" 
d="M335 0h-104l-218 539h115l143 -354l11 -36l13 36l143 354h116z" />
    <glyph glyph-name="W.smcp" horiz-adv-x="809" 
d="M623 0h-115l-96 314l-7 37l-8 -37l-96 -314h-113l-172 539h115l108 -345l7 -39l8 39l102 345h98l103 -345l6 -39l9 39l106 345h115z" />
    <glyph glyph-name="X.smcp" horiz-adv-x="574" 
d="M362 273l188 -273h-128l-136 193l-134 -193h-128l189 273l-183 266h128l128 -186l131 186h128z" />
    <glyph glyph-name="Y.smcp" horiz-adv-x="556" 
d="M332 200v-200h-109v200l-212 339h126l121 -196l20 -37l20 37l121 196h125z" />
    <glyph glyph-name="Z.smcp" horiz-adv-x="491" 
d="M445 450l-267 -348h278v-102h-418v89l269 348h-267v102h405v-89z" />
    <glyph glyph-name="Aringacute.smcp" horiz-adv-x="584" 
d="M294 585q-47 0 -77.5 30t-30.5 75q0 53 38 83l87 104h153l-114 -95q53 -27 53 -92q0 -45 -30.5 -75t-78.5 -30zM294 643q21 0 34.5 14t13.5 34t-13.5 33.5t-34.5 13.5q-20 0 -33.5 -13.5t-13.5 -33.5t13.5 -34t33.5 -14zM352 539l218 -539h-118l-48 118h-223l-47 -118
h-119l218 539h119zM212 206h161l-70 173l-10 31l-11 -31z" />
    <glyph glyph-name="Aogonek.smcp" horiz-adv-x="584" 
d="M564 -131l15 -58q-21 -12 -60 -12q-52 0 -85.5 30t-33.5 82q0 59 49 97l-45 110h-223l-47 -118h-119l218 539h119l218 -539h-32q-68 -30 -68 -86q0 -25 14 -39t39 -14t41 8zM212 206h161l-70 173l-10 31l-11 -31z" />
    <glyph glyph-name="AE.smcp" horiz-adv-x="776" 
d="M734 439h-213v-115h185v-97h-185v-127h213v-100h-323v118h-191l-81 -118h-128l357 539h366v-100zM394 385l-119 -179h136v212z" />
    <glyph glyph-name="AEacute.smcp" horiz-adv-x="776" 
d="M562 604h-95l109 158h134zM734 439h-213v-115h185v-97h-185v-127h213v-100h-323v118h-191l-81 -118h-128l357 539h366v-100zM394 385l-119 -179h136v212z" />
    <glyph glyph-name="Ccedilla.smcp" horiz-adv-x="596" 
d="M567 180q-45 -180 -231 -189l-9 -40q40 0 64.5 -22t24.5 -61q0 -44 -30 -68t-77 -24q-58 0 -92 34l35 50q21 -25 57 -25q40 0 40 32t-39 32q-15 0 -31 -4l-20 7l22 90q-108 11 -174.5 88t-66.5 190q0 121 76.5 200t197.5 79q102 0 164.5 -49.5t86.5 -135.5h-120
q-29 84 -131 84q-72 0 -116.5 -50t-44.5 -128t44.5 -128.5t117.5 -50.5q104 0 137 89h115z" />
    <glyph glyph-name="Dcaron.smcp" 
d="M318 594h-73l-138 158h112l63 -86l62 86h112zM277 539q132 0 210.5 -74.5t78.5 -194.5q0 -121 -78.5 -195.5t-210.5 -74.5h-209v539h209zM177 437v-335h100q85 0 131 44t46 124t-46 123.5t-131 43.5h-100z" />
    <glyph glyph-name="Dcroat.smcp" horiz-adv-x="616" 
d="M287 539q132 0 210.5 -74.5t78.5 -194.5q0 -121 -78.5 -195.5t-210.5 -74.5h-210v236h-59v75h59v228h210zM287 102q84 0 130 44t46 124t-46 123.5t-130 43.5h-100v-126h79v-75h-79v-134h100z" />
    <glyph glyph-name="Eogonek.smcp" horiz-adv-x="437" 
d="M395 -131l15 -58q-21 -12 -60 -12q-52 0 -85.5 30t-33.5 82q0 54 40 89h-203v539h322v-100h-213v-116h184v-95h-184v-128h213v-100h-21q-68 -30 -68 -86q0 -25 14 -39t39 -14t41 8z" />
    <glyph glyph-name="Gcommaaccent.smcp" horiz-adv-x="623" 
d="M319 549q102 0 167 -49.5t89 -134.5h-120q-32 84 -138 84q-72 0 -117.5 -50t-45.5 -128q0 -80 46.5 -131t121.5 -51q62 0 99.5 27.5t43.5 80.5h-136v93h250v-45q0 -120 -70.5 -187.5t-186.5 -67.5q-124 0 -202.5 79t-78.5 201q0 121 78 200t200 79zM312 -44
q29 0 48.5 -20.5t19.5 -53.5q0 -43 -22 -89t-56 -79l-29 15q26 44 30 95q-26 2 -42.5 20t-16.5 44q0 28 20 48t48 20z" />
    <glyph glyph-name="Hbar.smcp" horiz-adv-x="606" 
d="M589 471v-68h-57v-403h-109v228h-241v-228h-110v403h-55v68h55v68h110v-68h241v68h109v-68h57zM423 329v74h-241v-74h241z" />
    <glyph glyph-name="Kcommaaccent.smcp" horiz-adv-x="568" 
d="M333 296l213 -296h-134l-153 212l-80 -96v-116h-109v539h109v-271l203 271h134zM286 -36q29 0 48.5 -20.5t19.5 -53.5q0 -43 -22 -89t-56 -79l-29 15q26 44 30 95q-26 2 -42.5 20t-16.5 44q0 28 20 48t48 20z" />
    <glyph glyph-name="Lcaron.smcp" horiz-adv-x="433" 
d="M368 576q29 0 49 -20.5t20 -53.5q0 -95 -78 -184l-32 12q25 51 33 114q-26 2 -43 20t-17 44q0 28 20 48t48 20zM177 102h233v-102h-342v539h109v-437z" />
    <glyph glyph-name="Lcommaaccent.smcp" horiz-adv-x="433" 
d="M177 102h233v-102h-342v539h109v-437zM239 -37q29 0 48.5 -20.5t19.5 -53.5q0 -43 -22 -89t-56 -79l-29 15q26 44 30 95q-26 2 -42.5 20t-16.5 44q0 29 19.5 48.5t48.5 19.5z" />
    <glyph glyph-name="Lslash.smcp" horiz-adv-x="451" 
d="M191 102h234v-102h-343v201l-57 -20l-25 70l82 29v259h109v-221l64 22l25 -71l-89 -30v-137z" />
    <glyph glyph-name="Ldot.smcp" horiz-adv-x="433" 
d="M177 102h233v-102h-342v539h109v-437zM336 343q30 0 50.5 -20t20.5 -49q0 -30 -20.5 -50t-50.5 -20t-50 20t-20 50q0 29 20 49t50 20z" />
    <glyph glyph-name="Oslash.smcp" horiz-adv-x="651" 
d="M507 490q101 -80 101 -220q0 -122 -79 -201t-203 -79q-61 0 -112 20l-43 -70l-68 39l42 69q-102 80 -102 222q0 122 78.5 200.5t204.5 78.5q61 0 113 -20l42 69l68 -39zM155 270q0 -79 47 -129l182 298q-27 9 -58 9q-78 0 -124.5 -49.5t-46.5 -128.5zM326 91q77 0 123 50
t46 129q0 77 -45 127l-182 -298q29 -8 58 -8z" />
    <glyph glyph-name="OE.smcp" horiz-adv-x="865" 
d="M818 439h-213v-116h184v-95h-184v-128h213v-100h-322v59q-72 -69 -177 -69q-122 0 -200.5 79.5t-78.5 200.5t78.5 200t200.5 79q106 0 177 -69v59h322v-100zM325 91q78 0 124.5 50t46.5 129t-46.5 128.5t-124.5 49.5q-77 0 -124.5 -50t-47.5 -128t47.5 -128.5
t124.5 -50.5z" />
    <glyph glyph-name="Scedilla.smcp" horiz-adv-x="455" 
d="M420 154q0 -72 -45.5 -115t-119.5 -48l-9 -40q40 0 64.5 -22t24.5 -61q0 -44 -30 -68t-77 -24q-58 0 -92 34l35 50q21 -25 57 -25q40 0 40 32t-39 32q-15 0 -31 -4l-20 7l22 90q-77 9 -118.5 55.5t-42.5 115.5h107q3 -83 89 -83q35 0 55.5 18t20.5 46q0 27 -23 44.5
t-76 35.5q-82 26 -121 62.5t-39 101.5q0 71 47 116t129 45q78 0 125.5 -41.5t51.5 -117.5h-108q-1 33 -20 51t-51 18q-30 0 -47.5 -16t-17.5 -44q0 -30 21 -45t77 -34q89 -30 125 -67.5t36 -98.5z" />
    <glyph glyph-name="Scommaaccent.smcp" horiz-adv-x="455" 
d="M228 549q78 0 125.5 -41.5t51.5 -117.5h-108q-1 33 -20 51t-51 18q-30 0 -47.5 -16t-17.5 -44q0 -30 21 -45t77 -34q89 -30 125 -67.5t36 -98.5q0 -77 -52 -120.5t-133 -43.5q-94 0 -144.5 48t-51.5 125h107q3 -83 89 -83q35 0 55.5 18t20.5 46q0 27 -23 44.5t-76 35.5
q-82 26 -121 62.5t-39 101.5q0 71 47 116t129 45zM230 -41q29 0 48.5 -20.5t19.5 -53.5q0 -43 -22 -89t-56 -79l-29 15q26 44 30 95q-26 2 -42.5 20t-16.5 44q0 29 20 48.5t48 19.5z" />
    <glyph glyph-name="germandbls.smcp" horiz-adv-x="532" 
d="M366 321q59 -8 95.5 -48t36.5 -100q0 -82 -52 -130t-149 -48q-30 0 -72 6l4 100q34 -8 62 -8q44 0 69.5 20t25.5 56q0 41 -36 62t-99 21l-11 43l99 131q-25 23 -70 23q-43 0 -69.5 -26t-26.5 -71v-352h-109v350q0 88 54.5 143.5t154.5 55.5q121 0 203 -84z" />
    <glyph glyph-name="Tcommaaccent.smcp" horiz-adv-x="493" 
d="M483 437h-182v-437h-108v437h-183v102h473v-102zM246 -36q29 0 48.5 -20.5t19.5 -53.5q0 -43 -22 -89t-56 -79l-29 15q26 44 30 95q-26 2 -42.5 20t-16.5 44q0 28 20 48t48 20z" />
    <glyph glyph-name="Tbar.smcp" horiz-adv-x="493" 
d="M483 437h-182v-144h115v-75h-115v-218h-108v218h-116v75h116v144h-183v102h473v-102z" />
    <glyph glyph-name="Uogonek.smcp" horiz-adv-x="577" 
d="M406 539h110v-322q0 -86 -38 -141.5t-109 -75.5q-43 -26 -43 -73q0 -25 14 -39t39 -14t41 8l15 -58q-21 -12 -60 -12q-52 0 -85.5 30t-33.5 82q0 38 20 66q-103 4 -159 63.5t-56 163.5v322h109v-322q0 -126 119 -126q117 0 117 126v322z" />
    <glyph glyph-name="Eng.smcp" 
d="M430 539h109v-534v-5q-1 -82 -48.5 -124t-132.5 -42v94q72 0 72 72v2l-231 321l-22 37v-360h-109v539h109l231 -325l22 -37v362z" />
    <glyph glyph-name="Eth.smcp" horiz-adv-x="616" 
d="M287 539q132 0 210.5 -74.5t78.5 -194.5q0 -121 -78.5 -195.5t-210.5 -74.5h-210v236h-59v75h59v228h210zM287 102q84 0 130 44t46 124t-46 123.5t-130 43.5h-100v-126h79v-75h-79v-134h100z" />
    <glyph glyph-name="Thorn.smcp" horiz-adv-x="492" 
d="M177 460h89q87 0 139.5 -45.5t52.5 -120.5q0 -73 -52.5 -119.5t-139.5 -46.5h-89v-128h-109v539h109v-79zM177 362v-136h88q37 0 59.5 18.5t22.5 49.5q0 32 -22.5 50t-59.5 18h-88z" />
    <glyph glyph-name="exclam.smcp" horiz-adv-x="238" 
d="M170 170h-103v369h103v-369zM119 114q27 0 45.5 -17.5t18.5 -43.5t-18.5 -43.5t-45.5 -17.5t-45.5 17.5t-18.5 43.5t18.5 43.5t45.5 17.5z" />
    <glyph glyph-name="question.smcp" horiz-adv-x="376" 
d="M185 550q72 0 120.5 -40t48.5 -109q0 -38 -12.5 -68t-31 -47.5t-36.5 -32t-30.5 -30.5t-12.5 -34v-19h-103v23q0 36 20 64t44.5 43.5t44.5 40.5t20 57q0 34 -19 52t-51 18q-35 0 -55.5 -20t-20.5 -55h-96q1 73 49.5 115t120.5 42zM179 114q27 0 45.5 -17.5t18.5 -43.5
t-18.5 -43.5t-45.5 -17.5t-45.5 17.5t-18.5 43.5t18.5 43.5t45.5 17.5z" />
    <glyph glyph-name="parenleft.smcp" horiz-adv-x="248" 
d="M240 543q-52 -67 -75.5 -129.5t-23.5 -146.5t23.5 -146.5t75.5 -129.5l-72 -48q-62 71 -94 147.5t-32 176.5t32.5 177t93.5 148z" />
    <glyph glyph-name="parenright.smcp" horiz-adv-x="248" 
d="M81 592q61 -72 93 -148.5t32 -176.5t-32 -176t-93 -148l-73 48q53 67 76.5 129.5t23.5 146.5t-23.5 146.5t-76.5 129.5z" />
    <glyph glyph-name="bracketleft.smcp" horiz-adv-x="276" 
d="M252 478h-88v-424h88v-93h-185v610h185v-93z" />
    <glyph glyph-name="bracketright.smcp" horiz-adv-x="276" 
d="M210 -39h-186v93h88v424h-88v93h186v-610z" />
    <glyph glyph-name="braceleft.smcp" horiz-adv-x="262" 
d="M238 478h-14q-52 0 -52 -55v-74q0 -67 -58 -83q58 -17 58 -83v-74q0 -55 52 -55h14v-93h-19q-71 0 -106.5 38.5t-35.5 106.5v60q0 55 -52 55h-11v90h11q52 0 52 55v60q0 69 35.5 107t106.5 38h19v-93z" />
    <glyph glyph-name="braceright.smcp" horiz-adv-x="262" 
d="M43 571q71 0 107.5 -38.5t36.5 -106.5v-60q0 -55 52 -55h9v-90h-9q-52 0 -52 -55v-60q0 -68 -36.5 -106.5t-107.5 -38.5h-19v93h15q52 0 52 55v74q0 66 58 83q-58 16 -58 83v74q0 55 -52 55h-15v93h19z" />
    <glyph glyph-name="Euro.smcp" horiz-adv-x="518" 
d="M291 86q76 0 87 81h116q-36 -177 -202 -177q-79 0 -133 47.5t-74 132.5h-63v67h54q-1 11 -1 33q0 24 1 35h-54v67h64q20 84 74 130.5t132 46.5q172 0 202 -177h-116q-12 81 -87 81q-66 0 -92 -81h97v-67h-110q-1 -11 -1 -35q0 -22 1 -33h110v-67h-98q25 -84 93 -84z" />
    <glyph glyph-name="dollar.smcp" horiz-adv-x="475" 
d="M422 154q0 -68 -41 -110.5t-109 -51.5v-80h-76v81q-74 10 -113.5 56t-41.5 114h107q5 -83 89 -83q36 0 56 17.5t20 46.5q0 27 -22.5 44.5t-76.5 35.5q-82 26 -121 62.5t-39 101.5q0 63 37.5 106t104.5 53v76h76v-77q61 -11 96.5 -50.5t38.5 -105.5h-108q-1 33 -20 51
t-51 18q-30 0 -47 -16t-17 -44q0 -30 21 -45t77 -34q88 -30 124 -67.5t36 -98.5z" />
    <glyph glyph-name="cent.smcp" horiz-adv-x="470" 
d="M430 139q-12 -61 -51.5 -98t-97.5 -46v-78h-75v78q-75 11 -121 65t-46 135q0 79 46 134.5t121 67.5v77h75v-77q59 -9 98.5 -46.5t48.5 -99.5h-99q-19 55 -85 55q-42 0 -70.5 -31.5t-28.5 -79.5q0 -47 29 -78.5t72 -31.5q65 0 84 54h100z" />
    <glyph glyph-name="sterling.smcp" horiz-adv-x="449" 
d="M338 160h95q-1 -79 -41.5 -119.5t-114.5 -40.5h-249v27l36 44q46 58 46 123q0 16 -3 30h-82v74h57q-23 54 -23 92q0 71 47 115t121 44q77 0 122.5 -41.5t47.5 -119.5h-99q0 30 -18 48.5t-47 18.5q-31 0 -49 -17t-18 -51q0 -31 24 -89h110v-74h-87q2 -10 2 -33
q0 -41 -22 -72l-10 -16h99q30 0 43 13.5t13 43.5z" />
    <glyph glyph-name="florin.smcp" horiz-adv-x="309" 
d="M274 571q31 0 53 -8l-9 -90q-19 7 -41 7q-52 0 -60 -52l-4 -37h95l-9 -94h-96l-38 -336q-7 -65 -48.5 -100t-109.5 -35q-26 0 -54 7l10 91q22 -8 40 -8q56 0 61 53l37 328h-67l10 94h66l5 45q8 65 49.5 100t109.5 35z" />
    <glyph glyph-name="yen.smcp" horiz-adv-x="555" 
d="M551 539l-194 -312h89v-71v-48h-106v-108h-110v108h-103v70v49h86l-195 312h126l121 -196l20 -37l20 37l121 196h125z" />
    <glyph glyph-name="zero.smcp" horiz-adv-x="480" 
d="M241 549q94 0 145.5 -74t51.5 -205t-51.5 -205.5t-145.5 -74.5q-96 0 -147.5 74.5t-51.5 205.5t51.5 205t147.5 74zM241 448q-89 0 -89 -178q0 -179 89 -179q43 0 65.5 47t22.5 132t-22.5 131.5t-65.5 46.5z" />
    <glyph glyph-name="one.smcp" horiz-adv-x="330" 
d="M263 0h-109v371h-118v92q69 0 102.5 16.5t43.5 59.5h81v-539z" />
    <glyph glyph-name="two.smcp" horiz-adv-x="420" 
d="M215 549q81 0 124 -42.5t43 -114.5q0 -78 -70 -155l-117 -135h189v-102h-340v79l172 195q30 33 43 57.5t13 55.5q0 61 -58 61q-66 0 -65 -73h-109q-1 79 47.5 126.5t127.5 47.5z" />
    <glyph glyph-name="three.smcp" horiz-adv-x="459" 
d="M224 549q80 0 126 -44.5t46 -112.5q0 -43 -20.5 -71.5t-49.5 -39.5q38 -11 63.5 -42t25.5 -83q0 -77 -50.5 -121.5t-135.5 -44.5q-87 0 -137 46.5t-50 129.5h108q1 -37 23 -56t58 -19q34 0 54 19t20 50q0 73 -97 73h-32v89h30q81 0 81 62q0 30 -16 47t-45 17t-47 -18
t-18 -53h-109q0 80 46.5 126t125.5 46z" />
    <glyph glyph-name="four.smcp" horiz-adv-x="481" 
d="M373 189h71v-94h-71v-95h-109v95h-234v87l210 357h133v-350zM251 375l-112 -187h127v217z" />
    <glyph glyph-name="five.smcp" horiz-adv-x="457" 
d="M388 439h-215v-112q36 15 77 15q74 0 120.5 -41.5t46.5 -124.5q0 -85 -49.5 -135.5t-135.5 -50.5t-135 44t-49 125h109q0 -34 20.5 -51t54.5 -17q36 0 56 22.5t20 59.5q0 39 -20.5 60.5t-57.5 21.5q-40 0 -69 -19h-97v303h324v-100z" />
    <glyph glyph-name="six.smcp" horiz-adv-x="470" 
d="M260 333q77 0 123 -45t46 -117q0 -83 -51.5 -132t-133.5 -49q-93 0 -141 56q-59 64 -59 213q0 146 49.5 218t152.5 72q75 0 123 -45t50 -119h-110q-4 63 -67 63q-43 0 -65.5 -36.5t-23.5 -119.5q37 41 107 41zM240 86q35 0 57.5 24t22.5 59q0 34 -22.5 58t-57.5 24
q-34 0 -58.5 -24t-24.5 -58t23.5 -58.5t59.5 -24.5z" />
    <glyph glyph-name="seven.smcp" horiz-adv-x="429" 
d="M387 451l-205 -451h-118l200 437h-224v102h347v-88z" />
    <glyph glyph-name="eight.smcp" horiz-adv-x="468" 
d="M235 549q76 0 123.5 -46.5t47.5 -113.5q0 -39 -18 -68.5t-42 -44.5q77 -38 77 -121q0 -71 -54.5 -118t-133.5 -47q-81 0 -135.5 47t-54.5 118q0 86 76 121q-59 39 -59 113q0 67 48 113.5t125 46.5zM235 455q-31 0 -50 -19.5t-19 -50.5q0 -30 19 -48.5t50 -18.5
q30 0 49 18.5t19 48.5q0 31 -19.5 50.5t-48.5 19.5zM235 234q-35 0 -58.5 -21t-23.5 -55t23 -54t59 -20q34 0 57.5 20t23.5 54t-24 55t-57 21z" />
    <glyph glyph-name="nine.smcp" horiz-adv-x="471" 
d="M370 493q59 -64 59 -213q0 -146 -49.5 -218t-152.5 -72q-75 0 -123 45t-50 119h110q4 -63 67 -63q44 0 66 36.5t23 119.5q-36 -41 -107 -41q-77 0 -123 45t-46 117q0 83 52 132t134 49q92 0 140 -56zM233 288q34 0 58.5 24t24.5 58t-23.5 58.5t-59.5 24.5
q-35 0 -57.5 -24t-22.5 -59q0 -34 22.5 -58t57.5 -24z" />
    <glyph glyph-name="ampersand.smcp" horiz-adv-x="566" 
d="M560 0h-126l-36 37q-64 -47 -152 -47q-97 0 -150.5 42t-53.5 110q0 49 26 81t76 61l11 7l-13 13q-18 18 -28 31t-19.5 36t-9.5 49q0 55 43 92t116 37q71 0 117.5 -36t46.5 -97q0 -53 -27 -83t-79 -59l-4 -2l87 -90l3 13q10 39 6 74l98 3q6 -54 -5 -93q-9 -39 -28 -73z
M248 469q-24 0 -39.5 -15t-16.5 -39q0 -6 1 -11.5t2 -9.5t4.5 -10t4.5 -8.5t6 -9t6 -8t7 -8t7 -7.5l6 -6q1 1 9.5 6t10 6t8.5 5.5t9 6.5t7.5 6.5t7.5 7.5l5 7.5t4.5 9t2.5 10t1 11.5q0 25 -14.5 40.5t-38.5 15.5zM249 71q52 0 88 30l-121 126l-4 -2q-30 -20 -44.5 -37.5
t-14.5 -42.5q0 -74 96 -74z" />
    <glyph glyph-name="exclamdown.smcp" horiz-adv-x="238" 
d="M119 420q-27 0 -46 17.5t-19 44.5q0 26 19 43.5t46 17.5t45.5 -17.5t18.5 -43.5q0 -27 -18.5 -44.5t-45.5 -17.5zM67 365h103v-369h-103v369z" />
    <glyph glyph-name="questiondown.smcp" horiz-adv-x="376" 
d="M193 427q-27 0 -46 17.5t-19 43.5t19 43.5t46 17.5q26 0 44.5 -17.5t18.5 -43.5t-18.5 -43.5t-44.5 -17.5zM186 -9q-71 0 -119.5 40t-48.5 109q0 47 19 81.5t42 51t42 37.5t19 43v18h103v-22q0 -30 -13 -53.5t-32 -39t-38 -30t-32 -35.5t-13 -47q0 -34 19 -52t51 -18
q34 0 54.5 20t20.5 55h97q-1 -73 -50 -115.5t-121 -42.5z" />
    <glyph glyph-name="F.smcp_I.smcp" horiz-adv-x="660" 
d="M385 439h-208v-124h176v-96h-176v-219h-109v539h317v-100zM592 0h-109v539h109v-539z" />
    <glyph glyph-name="F.smcp_J.smcp" horiz-adv-x="803" 
d="M385 439h-208v-124h176v-96h-176v-219h-109v539h317v-100zM742 170q0 -84 -47 -129.5t-125 -45.5q-89 0 -134.5 49t-47.5 135h108q4 -82 72 -82q65 0 65 77v365h109v-369z" />
    <glyph glyph-name="Iogonek.smcp" horiz-adv-x="245" 
d="M175 -128l15 -58q-21 -12 -60 -12q-52 0 -85.5 30t-33.5 82q0 65 57 102v523h109v-539h-35q-61 -30 -61 -83q0 -25 14 -39t39 -14t41 8z" />
    <glyph glyph-name="Oslashacute.smcp" horiz-adv-x="651" 
d="M514 758l-147 -158h-95l108 158h134zM509 488q99 -80 99 -218q0 -122 -79 -201t-203 -79q-57 0 -109 19l-43 -70l-76 40l44 72q-99 80 -99 219q0 122 78.5 200.5t204.5 78.5q57 0 109 -19l41 68l77 -39zM155 270q0 -76 44 -126l181 297q-30 7 -54 7q-78 0 -124.5 -49.5
t-46.5 -128.5zM326 91q77 0 123 50t46 129q0 76 -43 125l-180 -297q28 -7 54 -7z" />
    <glyph glyph-name="Rcommaaccent.smcp" horiz-adv-x="476" 
d="M345 224l115 -224h-122l-102 203h-59v-203h-109v539h171q90 0 143.5 -47.5t53.5 -125.5q0 -99 -91 -142zM177 440v-146h62q40 0 63 18.5t23 53.5t-23 54.5t-63 19.5h-62zM257 -35q29 0 48.5 -20.5t19.5 -53.5q0 -43 -22 -89t-56 -79l-29 15q26 44 30 95q-26 2 -42.5 20
t-16.5 44q0 29 19.5 48.5t48.5 19.5z" />
    <glyph glyph-name="Aacute.smcp" horiz-adv-x="584" 
d="M332 604h-95l109 158h134zM570 0h-118l-48 118h-223l-47 -118h-119l218 539h119zM282 379l-70 -173h161l-70 173l-10 31z" />
    <glyph glyph-name="Abreve.smcp" horiz-adv-x="584" 
d="M444 741q0 -64 -42 -104.5t-109 -40.5t-109 40.5t-42 104.5h87q0 -32 17.5 -53t46.5 -21t46.5 21t17.5 53h87zM570 0h-118l-48 118h-223l-47 -118h-119l218 539h119zM282 379l-70 -173h161l-70 173l-10 31z" />
    <glyph glyph-name="Acircumflex.smcp" horiz-adv-x="584" 
d="M468 604h-112l-62 86l-63 -86h-112l138 158h73zM570 0h-118l-48 118h-223l-47 -118h-119l218 539h119zM282 379l-70 -173h161l-70 173l-10 31z" />
    <glyph glyph-name="Adieresis.smcp" horiz-adv-x="584" 
d="M195 729q26 0 44 -17.5t18 -43.5t-18 -43.5t-44 -17.5t-44 17.5t-18 43.5t18 43.5t44 17.5zM391 729q26 0 44 -17.5t18 -43.5t-18 -43.5t-44 -17.5t-44 17.5t-18 43.5t18 43.5t44 17.5zM570 0h-118l-48 118h-223l-47 -118h-119l218 539h119zM282 379l-70 -173h161
l-70 173l-10 31z" />
    <glyph glyph-name="Agrave.smcp" horiz-adv-x="584" 
d="M344 604h-95l-148 158h133zM570 0h-118l-48 118h-223l-47 -118h-119l218 539h119zM282 379l-70 -173h161l-70 173l-10 31z" />
    <glyph glyph-name="Amacron.smcp" horiz-adv-x="584" 
d="M429 622h-270v82h270v-82zM570 0h-118l-48 118h-223l-47 -118h-119l218 539h119zM282 379l-70 -173h161l-70 173l-10 31z" />
    <glyph glyph-name="Aring.smcp" horiz-adv-x="584" 
d="M294 796q48 0 78.5 -30t30.5 -76q0 -45 -30.5 -75t-78.5 -30q-47 0 -77.5 30t-30.5 75q0 46 30.5 76t77.5 30zM294 738q-20 0 -33.5 -13.5t-13.5 -33.5t13.5 -34t33.5 -14q21 0 34.5 14t13.5 34t-13.5 33.5t-34.5 13.5zM570 0h-118l-48 118h-223l-47 -118h-119l218 539
h119zM282 379l-70 -173h161l-70 173l-10 31z" />
    <glyph glyph-name="Atilde.smcp" horiz-adv-x="584" 
d="M232 743q28 0 48.5 -11t30 -24t22.5 -24t28 -11q37 0 37 61h66q0 -61 -27 -98t-80 -37q-28 0 -48.5 11t-30 24.5t-22.5 24.5t-28 11q-37 0 -37 -62h-66q0 62 27 98.5t80 36.5zM570 0h-118l-48 118h-223l-47 -118h-119l218 539h119zM282 379l-70 -173h161l-70 173l-10 31z
" />
    <glyph glyph-name="Cacute.smcp" horiz-adv-x="596" 
d="M351 605h-95l109 158h134zM314 549q102 0 164.5 -49.5t86.5 -135.5h-120q-29 84 -131 84q-72 0 -116.5 -50t-44.5 -128t44.5 -128.5t117.5 -50.5q104 0 137 89h115q-48 -190 -252 -190q-122 0 -198.5 79t-76.5 201q0 121 76.5 200t197.5 79z" />
    <glyph glyph-name="Ccaron.smcp" horiz-adv-x="596" 
d="M349 594h-73l-138 158h112l63 -86l62 86h112zM314 549q102 0 164.5 -49.5t86.5 -135.5h-120q-29 84 -131 84q-72 0 -116.5 -50t-44.5 -128t44.5 -128.5t117.5 -50.5q104 0 137 89h115q-48 -190 -252 -190q-122 0 -198.5 79t-76.5 201q0 121 76.5 200t197.5 79z" />
    <glyph glyph-name="Ccircumflex.smcp" horiz-adv-x="596" 
d="M487 605h-112l-62 86l-63 -86h-112l138 158h73zM314 549q102 0 164.5 -49.5t86.5 -135.5h-120q-29 84 -131 84q-72 0 -116.5 -50t-44.5 -128t44.5 -128.5t117.5 -50.5q104 0 137 89h115q-48 -190 -252 -190q-122 0 -198.5 79t-76.5 201q0 121 76.5 200t197.5 79z" />
    <glyph glyph-name="Cdotaccent.smcp" horiz-adv-x="596" 
d="M313 744q28 0 48 -19.5t20 -47.5t-19.5 -47.5t-48.5 -19.5t-48.5 19.5t-19.5 47.5t20 47.5t48 19.5zM314 549q102 0 164.5 -49.5t86.5 -135.5h-120q-29 84 -131 84q-72 0 -116.5 -50t-44.5 -128t44.5 -128.5t117.5 -50.5q104 0 137 89h115q-48 -190 -252 -190
q-122 0 -198.5 79t-76.5 201q0 121 76.5 200t197.5 79z" />
    <glyph glyph-name="Eacute.smcp" horiz-adv-x="437" 
d="M278 605h-95l109 158h134zM390 439h-213v-116h184v-95h-184v-128h213v-100h-322v539h322v-100z" />
    <glyph glyph-name="Ebreve.smcp" horiz-adv-x="437" 
d="M391 742q0 -64 -42 -104.5t-109 -40.5t-109 40.5t-42 104.5h87q0 -32 17.5 -53t46.5 -21t46.5 21t17.5 53h87zM390 439h-213v-116h184v-95h-184v-128h213v-100h-322v539h322v-100z" />
    <glyph glyph-name="Ecaron.smcp" horiz-adv-x="437" 
d="M276 594h-73l-138 158h112l63 -86l62 86h112zM390 439h-213v-116h184v-95h-184v-128h213v-100h-322v539h322v-100z" />
    <glyph glyph-name="Ecircumflex.smcp" horiz-adv-x="437" 
d="M414 605h-112l-62 86l-63 -86h-112l138 158h73zM390 439h-213v-116h184v-95h-184v-128h213v-100h-322v539h322v-100z" />
    <glyph glyph-name="Edieresis.smcp" horiz-adv-x="437" 
d="M141 730q26 0 44 -17.5t18 -43.5t-18 -43.5t-44 -17.5t-44 17.5t-18 43.5t18 43.5t44 17.5zM337 730q26 0 44 -17.5t18 -43.5t-18 -43.5t-44 -17.5t-44 17.5t-18 43.5t18 43.5t44 17.5zM390 439h-213v-116h184v-95h-184v-128h213v-100h-322v539h322v-100z" />
    <glyph glyph-name="Edotaccent.smcp" horiz-adv-x="437" 
d="M240 744q28 0 48 -19.5t20 -47.5t-19.5 -47.5t-48.5 -19.5t-48.5 19.5t-19.5 47.5t20 47.5t48 19.5zM390 439h-213v-116h184v-95h-184v-128h213v-100h-322v539h322v-100z" />
    <glyph glyph-name="Egrave.smcp" horiz-adv-x="437" 
d="M290 605h-95l-148 158h133zM390 439h-213v-116h184v-95h-184v-128h213v-100h-322v539h322v-100z" />
    <glyph glyph-name="Emacron.smcp" horiz-adv-x="437" 
d="M375 623h-270v82h270v-82zM390 439h-213v-116h184v-95h-184v-128h213v-100h-322v539h322v-100z" />
    <glyph glyph-name="Gbreve.smcp" horiz-adv-x="623" 
d="M466 742q0 -64 -42 -104.5t-109 -40.5t-109 40.5t-42 104.5h87q0 -32 17.5 -53t46.5 -21t46.5 21t17.5 53h87zM319 549q102 0 167 -49.5t89 -134.5h-120q-32 84 -138 84q-72 0 -117.5 -50t-45.5 -128q0 -80 46.5 -131t121.5 -51q62 0 99.5 27.5t43.5 80.5h-136v93h250
v-45q0 -120 -70.5 -187.5t-186.5 -67.5q-124 0 -202.5 79t-78.5 201q0 121 78 200t200 79z" />
    <glyph glyph-name="Gcircumflex.smcp" horiz-adv-x="623" 
d="M489 605h-112l-62 86l-63 -86h-112l138 158h73zM319 549q102 0 167 -49.5t89 -134.5h-120q-32 84 -138 84q-72 0 -117.5 -50t-45.5 -128q0 -80 46.5 -131t121.5 -51q62 0 99.5 27.5t43.5 80.5h-136v93h250v-45q0 -120 -70.5 -187.5t-186.5 -67.5q-124 0 -202.5 79
t-78.5 201q0 121 78 200t200 79z" />
    <glyph glyph-name="Gdotaccent.smcp" horiz-adv-x="623" 
d="M315 744q28 0 48 -19.5t20 -47.5t-19.5 -47.5t-48.5 -19.5t-48.5 19.5t-19.5 47.5t20 47.5t48 19.5zM319 549q102 0 167 -49.5t89 -134.5h-120q-32 84 -138 84q-72 0 -117.5 -50t-45.5 -128q0 -80 46.5 -131t121.5 -51q62 0 99.5 27.5t43.5 80.5h-136v93h250v-45
q0 -120 -70.5 -187.5t-186.5 -67.5q-124 0 -202.5 79t-78.5 201q0 121 78 200t200 79z" />
    <glyph glyph-name="Hcircumflex.smcp" horiz-adv-x="596" 
d="M474 605h-112l-62 86l-63 -86h-112l138 158h73zM528 0h-109v228h-242v-228h-109v539h109v-210h242v210h109v-539z" />
    <glyph glyph-name="Iacute.smcp" horiz-adv-x="245" 
d="M164 603h-95l109 158h134zM177 0h-109v539h109v-539z" />
    <glyph glyph-name="Ibreve.smcp" horiz-adv-x="245" 
d="M276 740q0 -64 -42 -104.5t-109 -40.5t-109 40.5t-42 104.5h87q0 -32 17.5 -53t46.5 -21t46.5 21t17.5 53h87zM177 0h-109v539h109v-539z" />
    <glyph glyph-name="Idotaccent.smcp" horiz-adv-x="245" 
d="M126 742q28 0 48 -19.5t20 -47.5t-19.5 -47.5t-48.5 -19.5t-48.5 19.5t-19.5 47.5t20 47.5t48 19.5zM177 0h-109v539h109v-539z" />
    <glyph glyph-name="Icircumflex.smcp" horiz-adv-x="245" 
d="M300 603h-112l-62 86l-63 -86h-112l138 158h73zM177 0h-109v539h109v-539z" />
    <glyph glyph-name="Idieresis.smcp" horiz-adv-x="245" 
d="M27 728q26 0 44 -17.5t18 -43.5t-18 -43.5t-44 -17.5t-44 17.5t-18 43.5t18 43.5t44 17.5zM223 728q26 0 44 -17.5t18 -43.5t-18 -43.5t-44 -17.5t-44 17.5t-18 43.5t18 43.5t44 17.5zM177 0h-109v539h109v-539z" />
    <glyph glyph-name="Igrave.smcp" horiz-adv-x="245" 
d="M176 603h-95l-148 158h133zM177 0h-109v539h109v-539z" />
    <glyph glyph-name="Imacron.smcp" horiz-adv-x="245" 
d="M261 621h-270v82h270v-82zM177 0h-109v539h109v-539z" />
    <glyph glyph-name="Itilde.smcp" horiz-adv-x="245" 
d="M64 742q28 0 48.5 -11t30 -24t22.5 -24t28 -11q37 0 37 61h66q0 -61 -27 -98t-80 -37q-28 0 -48.5 11t-30 24.5t-22.5 24.5t-28 11q-37 0 -37 -62h-66q0 62 27 98.5t80 36.5zM177 0h-109v539h109v-539z" />
    <glyph glyph-name="Jcircumflex.smcp" horiz-adv-x="440" 
d="M502 603h-112l-62 86l-63 -86h-112l138 158h73zM379 170q0 -84 -47 -129.5t-125 -45.5q-89 0 -134.5 49t-47.5 135h108q4 -82 72 -82q65 0 65 77v365h109v-369z" />
    <glyph glyph-name="Lacute.smcp" horiz-adv-x="433" 
d="M165 605h-95l109 158h134zM177 102h233v-102h-342v539h109v-437z" />
    <glyph glyph-name="Nacute.smcp" 
d="M352 603h-95l109 158h134zM539 0h-108l-232 323l-22 37v-360h-109v539h109l231 -325l22 -37v362h109v-539z" />
    <glyph glyph-name="Ncaron.smcp" 
d="M350 592h-73l-138 158h112l63 -86l62 86h112zM539 0h-108l-232 323l-22 37v-360h-109v539h109l231 -325l22 -37v362h109v-539z" />
    <glyph glyph-name="Ncommaaccent.smcp" 
d="M539 0h-108l-232 323l-22 37v-360h-109v539h109l231 -325l22 -37v362h109v-539zM303 -35q29 0 48.5 -20.5t19.5 -53.5q0 -43 -22 -89t-56 -79l-29 15q26 44 30 95q-26 2 -42.5 20t-16.5 44q0 29 19.5 48.5t48.5 19.5z" />
    <glyph glyph-name="Ntilde.smcp" 
d="M251 742q28 0 48.5 -11t30 -24t22.5 -24t28 -11q37 0 37 61h66q0 -61 -27 -98t-80 -37q-28 0 -48.5 11t-30 24.5t-22.5 24.5t-28 11q-37 0 -37 -62h-66q0 62 27 98.5t80 36.5zM539 0h-108l-232 323l-22 37v-360h-109v539h109l231 -325l22 -37v362h109v-539z" />
    <glyph glyph-name="Oacute.smcp" horiz-adv-x="646" 
d="M363 605h-95l109 158h134zM323 549q125 0 204 -78.5t79 -200.5t-79 -201t-204 -79t-204 79t-79 201t79 200.5t204 78.5zM323 448q-78 0 -124 -49.5t-46 -128.5t46.5 -129t123.5 -50t123.5 50t46.5 129t-46 128.5t-124 49.5z" />
    <glyph glyph-name="Obreve.smcp" horiz-adv-x="646" 
d="M475 742q0 -64 -42 -104.5t-109 -40.5t-109 40.5t-42 104.5h87q0 -32 17.5 -53t46.5 -21t46.5 21t17.5 53h87zM323 549q125 0 204 -78.5t79 -200.5t-79 -201t-204 -79t-204 79t-79 201t79 200.5t204 78.5zM323 448q-78 0 -124 -49.5t-46 -128.5t46.5 -129t123.5 -50
t123.5 50t46.5 129t-46 128.5t-124 49.5z" />
    <glyph glyph-name="Ocircumflex.smcp" horiz-adv-x="646" 
d="M499 605h-112l-62 86l-63 -86h-112l138 158h73zM323 549q125 0 204 -78.5t79 -200.5t-79 -201t-204 -79t-204 79t-79 201t79 200.5t204 78.5zM323 448q-78 0 -124 -49.5t-46 -128.5t46.5 -129t123.5 -50t123.5 50t46.5 129t-46 128.5t-124 49.5z" />
    <glyph glyph-name="Odieresis.smcp" horiz-adv-x="646" 
d="M226 730q26 0 44 -17.5t18 -43.5t-18 -43.5t-44 -17.5t-44 17.5t-18 43.5t18 43.5t44 17.5zM422 730q26 0 44 -17.5t18 -43.5t-18 -43.5t-44 -17.5t-44 17.5t-18 43.5t18 43.5t44 17.5zM323 549q125 0 204 -78.5t79 -200.5t-79 -201t-204 -79t-204 79t-79 201t79 200.5
t204 78.5zM323 448q-78 0 -124 -49.5t-46 -128.5t46.5 -129t123.5 -50t123.5 50t46.5 129t-46 128.5t-124 49.5z" />
    <glyph glyph-name="Ograve.smcp" horiz-adv-x="646" 
d="M375 605h-95l-148 158h133zM323 549q125 0 204 -78.5t79 -200.5t-79 -201t-204 -79t-204 79t-79 201t79 200.5t204 78.5zM323 448q-78 0 -124 -49.5t-46 -128.5t46.5 -129t123.5 -50t123.5 50t46.5 129t-46 128.5t-124 49.5z" />
    <glyph glyph-name="Ohungarumlaut.smcp" horiz-adv-x="646" 
d="M273 605h-91l82 158h113zM453 605h-90l82 158h113zM323 549q125 0 204 -78.5t79 -200.5t-79 -201t-204 -79t-204 79t-79 201t79 200.5t204 78.5zM323 448q-78 0 -124 -49.5t-46 -128.5t46.5 -129t123.5 -50t123.5 50t46.5 129t-46 128.5t-124 49.5z" />
    <glyph glyph-name="Omacron.smcp" horiz-adv-x="646" 
d="M459 623h-270v82h270v-82zM323 549q125 0 204 -78.5t79 -200.5t-79 -201t-204 -79t-204 79t-79 201t79 200.5t204 78.5zM323 448q-78 0 -124 -49.5t-46 -128.5t46.5 -129t123.5 -50t123.5 50t46.5 129t-46 128.5t-124 49.5z" />
    <glyph glyph-name="Otilde.smcp" horiz-adv-x="646" 
d="M262 744q28 0 48.5 -11t30 -24t22.5 -24t28 -11q37 0 37 61h66q0 -61 -27 -98t-80 -37q-28 0 -48.5 11t-30 24.5t-22.5 24.5t-28 11q-37 0 -37 -62h-66q0 62 27 98.5t80 36.5zM323 549q125 0 204 -78.5t79 -200.5t-79 -201t-204 -79t-204 79t-79 201t79 200.5t204 78.5z
M323 448q-78 0 -124 -49.5t-46 -128.5t46.5 -129t123.5 -50t123.5 50t46.5 129t-46 128.5t-124 49.5z" />
    <glyph glyph-name="Racute.smcp" horiz-adv-x="476" 
d="M426 761l-148 -158h-95l109 158h134zM460 0h-122l-102 203h-59v-203h-109v539h171q90 0 143.5 -47.5t53.5 -125.5q0 -99 -91 -142zM177 440v-146h62q40 0 63 18.5t23 53.5t-23 54.5t-63 19.5h-62z" />
    <glyph glyph-name="Rcaron.smcp" horiz-adv-x="476" 
d="M276 592h-73l-138 158h112l63 -86l62 86h112zM460 0h-122l-102 203h-59v-203h-109v539h171q90 0 143.5 -47.5t53.5 -125.5q0 -99 -91 -142zM177 440v-146h62q40 0 63 18.5t23 53.5t-23 54.5t-63 19.5h-62z" />
    <glyph glyph-name="Sacute.smcp" horiz-adv-x="455" 
d="M270 603h-95l109 158h134zM228 549q78 0 125.5 -41.5t51.5 -117.5h-108q-1 33 -20 51t-51 18q-30 0 -47.5 -16t-17.5 -44q0 -30 21 -45t77 -34q89 -30 125 -67.5t36 -98.5q0 -77 -52 -120.5t-133 -43.5q-94 0 -144.5 48t-51.5 125h107q3 -83 89 -83q35 0 55.5 18t20.5 46
q0 27 -23 44.5t-76 35.5q-82 26 -121 62.5t-39 101.5q0 71 47 116t129 45z" />
    <glyph glyph-name="Scaron.smcp" horiz-adv-x="455" 
d="M268 592h-73l-138 158h112l63 -86l62 86h112zM228 549q78 0 125.5 -41.5t51.5 -117.5h-108q-1 33 -20 51t-51 18q-30 0 -47.5 -16t-17.5 -44q0 -30 21 -45t77 -34q89 -30 125 -67.5t36 -98.5q0 -77 -52 -120.5t-133 -43.5q-94 0 -144.5 48t-51.5 125h107q3 -83 89 -83
q35 0 55.5 18t20.5 46q0 27 -23 44.5t-76 35.5q-82 26 -121 62.5t-39 101.5q0 71 47 116t129 45z" />
    <glyph glyph-name="Scircumflex.smcp" horiz-adv-x="455" 
d="M406 603h-112l-62 86l-63 -86h-112l138 158h73zM228 549q78 0 125.5 -41.5t51.5 -117.5h-108q-1 33 -20 51t-51 18q-30 0 -47.5 -16t-17.5 -44q0 -30 21 -45t77 -34q89 -30 125 -67.5t36 -98.5q0 -77 -52 -120.5t-133 -43.5q-94 0 -144.5 48t-51.5 125h107q3 -83 89 -83
q35 0 55.5 18t20.5 46q0 27 -23 44.5t-76 35.5q-82 26 -121 62.5t-39 101.5q0 71 47 116t129 45z" />
    <glyph glyph-name="Tcaron.smcp" horiz-adv-x="493" 
d="M285 592h-73l-138 158h112l63 -86l62 86h112zM483 437h-182v-437h-108v437h-183v102h473v-102z" />
    <glyph glyph-name="Uacute.smcp" horiz-adv-x="577" 
d="M328 603h-95l109 158h134zM516 217q0 -108 -59.5 -167.5t-167.5 -59.5q-109 0 -168.5 59.5t-59.5 167.5v322h109v-322q0 -126 119 -126q117 0 117 126v322h110v-322z" />
    <glyph glyph-name="Ubreve.smcp" horiz-adv-x="577" 
d="M440 740q0 -64 -42 -104.5t-109 -40.5t-109 40.5t-42 104.5h87q0 -32 17.5 -53t46.5 -21t46.5 21t17.5 53h87zM516 217q0 -108 -59.5 -167.5t-167.5 -59.5q-109 0 -168.5 59.5t-59.5 167.5v322h109v-322q0 -126 119 -126q117 0 117 126v322h110v-322z" />
    <glyph glyph-name="Ucircumflex.smcp" horiz-adv-x="577" 
d="M464 603h-112l-62 86l-63 -86h-112l138 158h73zM516 217q0 -108 -59.5 -167.5t-167.5 -59.5q-109 0 -168.5 59.5t-59.5 167.5v322h109v-322q0 -126 119 -126q117 0 117 126v322h110v-322z" />
    <glyph glyph-name="Udieresis.smcp" horiz-adv-x="577" 
d="M191 728q26 0 44 -17.5t18 -43.5t-18 -43.5t-44 -17.5t-44 17.5t-18 43.5t18 43.5t44 17.5zM387 728q26 0 44 -17.5t18 -43.5t-18 -43.5t-44 -17.5t-44 17.5t-18 43.5t18 43.5t44 17.5zM516 217q0 -108 -59.5 -167.5t-167.5 -59.5q-109 0 -168.5 59.5t-59.5 167.5v322
h109v-322q0 -126 119 -126q117 0 117 126v322h110v-322z" />
    <glyph glyph-name="Ugrave.smcp" horiz-adv-x="577" 
d="M340 603h-95l-148 158h133zM516 217q0 -108 -59.5 -167.5t-167.5 -59.5q-109 0 -168.5 59.5t-59.5 167.5v322h109v-322q0 -126 119 -126q117 0 117 126v322h110v-322z" />
    <glyph glyph-name="Uhungarumlaut.smcp" horiz-adv-x="577" 
d="M238 603h-91l82 158h113zM418 603h-90l82 158h113zM516 217q0 -108 -59.5 -167.5t-167.5 -59.5q-109 0 -168.5 59.5t-59.5 167.5v322h109v-322q0 -126 119 -126q117 0 117 126v322h110v-322z" />
    <glyph glyph-name="Umacron.smcp" horiz-adv-x="577" 
d="M424 621h-270v82h270v-82zM516 217q0 -108 -59.5 -167.5t-167.5 -59.5q-109 0 -168.5 59.5t-59.5 167.5v322h109v-322q0 -126 119 -126q117 0 117 126v322h110v-322z" />
    <glyph glyph-name="Uring.smcp" horiz-adv-x="577" 
d="M289 795q48 0 78.5 -30t30.5 -76q0 -45 -30.5 -75t-78.5 -30q-47 0 -77.5 30t-30.5 75q0 46 30.5 76t77.5 30zM289 737q-20 0 -33.5 -13.5t-13.5 -33.5t13.5 -34t33.5 -14q21 0 34.5 14t13.5 34t-13.5 33.5t-34.5 13.5zM516 217q0 -108 -59.5 -167.5t-167.5 -59.5
q-109 0 -168.5 59.5t-59.5 167.5v322h109v-322q0 -126 119 -126q117 0 117 126v322h110v-322z" />
    <glyph glyph-name="Utilde.smcp" horiz-adv-x="577" 
d="M227 742q28 0 48.5 -11t30 -24t22.5 -24t28 -11q37 0 37 61h66q0 -61 -27 -98t-80 -37q-28 0 -48.5 11t-30 24.5t-22.5 24.5t-28 11q-37 0 -37 -62h-66q0 62 27 98.5t80 36.5zM516 217q0 -108 -59.5 -167.5t-167.5 -59.5q-109 0 -168.5 59.5t-59.5 167.5v322h109v-322
q0 -126 119 -126q117 0 117 126v322h110v-322z" />
    <glyph glyph-name="Wacute.smcp" horiz-adv-x="809" 
d="M444 605h-95l109 158h134zM623 0h-115l-96 314l-7 37l-8 -37l-96 -314h-113l-172 539h115l108 -345l7 -39l8 39l102 345h98l103 -345l6 -39l9 39l106 345h115z" />
    <glyph glyph-name="Wcircumflex.smcp" horiz-adv-x="809" 
d="M580 605h-112l-62 86l-63 -86h-112l138 158h73zM623 0h-115l-96 314l-7 37l-8 -37l-96 -314h-113l-172 539h115l108 -345l7 -39l8 39l102 345h98l103 -345l6 -39l9 39l106 345h115z" />
    <glyph glyph-name="Wdieresis.smcp" horiz-adv-x="809" 
d="M307 730q26 0 44 -17.5t18 -43.5t-18 -43.5t-44 -17.5t-44 17.5t-18 43.5t18 43.5t44 17.5zM503 730q26 0 44 -17.5t18 -43.5t-18 -43.5t-44 -17.5t-44 17.5t-18 43.5t18 43.5t44 17.5zM623 0h-115l-96 314l-7 37l-8 -37l-96 -314h-113l-172 539h115l108 -345l7 -39l8 39
l102 345h98l103 -345l6 -39l9 39l106 345h115z" />
    <glyph glyph-name="Wgrave.smcp" horiz-adv-x="809" 
d="M456 605h-95l-148 158h133zM623 0h-115l-96 314l-7 37l-8 -37l-96 -314h-113l-172 539h115l108 -345l7 -39l8 39l102 345h98l103 -345l6 -39l9 39l106 345h115z" />
    <glyph glyph-name="Yacute.smcp" horiz-adv-x="556" 
d="M315 605h-95l109 158h134zM332 200v-200h-109v200l-212 339h126l121 -196l20 -37l20 37l121 196h125z" />
    <glyph glyph-name="Ycircumflex.smcp" horiz-adv-x="556" 
d="M451 605h-112l-62 86l-63 -86h-112l138 158h73zM332 200v-200h-109v200l-212 339h126l121 -196l20 -37l20 37l121 196h125z" />
    <glyph glyph-name="Ydieresis.smcp" horiz-adv-x="556" 
d="M178 730q26 0 44 -17.5t18 -43.5t-18 -43.5t-44 -17.5t-44 17.5t-18 43.5t18 43.5t44 17.5zM374 730q26 0 44 -17.5t18 -43.5t-18 -43.5t-44 -17.5t-44 17.5t-18 43.5t18 43.5t44 17.5zM332 200v-200h-109v200l-212 339h126l121 -196l20 -37l20 37l121 196h125z" />
    <glyph glyph-name="Ygrave.smcp" horiz-adv-x="556" 
d="M328 605h-95l-148 158h133zM332 200v-200h-109v200l-212 339h126l121 -196l20 -37l20 37l121 196h125z" />
    <glyph glyph-name="Zacute.smcp" horiz-adv-x="491" 
d="M293 605h-95l109 158h134zM445 450l-267 -348h278v-102h-418v89l269 348h-267v102h405v-89z" />
    <glyph glyph-name="Zcaron.smcp" horiz-adv-x="491" 
d="M291 594h-73l-138 158h112l63 -86l62 86h112zM445 450l-267 -348h278v-102h-418v89l269 348h-267v102h405v-89z" />
    <glyph glyph-name="Zdotaccent.smcp" horiz-adv-x="491" 
d="M254 744q28 0 48 -19.5t20 -47.5t-19.5 -47.5t-48.5 -19.5t-48.5 19.5t-19.5 47.5t20 47.5t48 19.5zM445 450l-267 -348h278v-102h-418v89l269 348h-267v102h405v-89z" />
    <glyph glyph-name="Dotlessi.sc" horiz-adv-x="445" 
 />
    <glyph glyph-name="I.sc" horiz-adv-x="445" 
 />
    </font>
</defs>
</svg>
