<?xml version="1.0" standalone="no"?>
<!DOCTYPE svg PUBLIC "-//W3C//DTD SVG 1.1//EN" "http://www.w3.org/Graphics/SVG/1.1/DTD/svg11.dtd" >
<svg xmlns="http://www.w3.org/2000/svg" xmlns:xlink="http://www.w3.org/1999/xlink" version="1.1">
<metadata>
Created by FontForge 20190801 at Fri Jul 21 17:34:26 2017
 By Unknown
Copyright (c) 2013 by Type Dynamic. All rights reserved.
</metadata>
<defs>
<font id="Larsseit-Regular" horiz-adv-x="526" >
  <font-face 
    font-family="Larsseit"
    font-weight="400"
    font-stretch="normal"
    units-per-em="1000"
    panose-1="0 0 5 0 0 0 0 0 0 0"
    ascent="800"
    descent="-200"
    x-height="504"
    cap-height="700"
    bbox="-195 -274 2987 999"
    underline-thickness="50"
    underline-position="-100"
    unicode-range="U+0020-FB01"
  />
<missing-glyph horiz-adv-x="595" 
d="M531 700v-700h-467v700h467zM138 647l158 -252l158 252h-316zM326 346l153 -241v482zM117 110l148 236l-148 236v-472zM142 53h308l-154 244z" />
    <glyph glyph-name="fi" unicode="fi" horiz-adv-x="566" 
d="M249 739q36 0 64 -12v-78q-29 12 -61 12q-61 0 -61 -82v-75h122v-79h-122v-425h-87v425h-95v79h95v77q0 75 37.5 116.5t107.5 41.5zM444 718q25 0 42.5 -17t17.5 -42q0 -24 -17.5 -41t-42.5 -17t-42 17t-17 41q0 25 17 42t42 17zM487 0h-86v504h86v-504z" />
    <glyph glyph-name="f_j" unicode="fj" horiz-adv-x="566" 
d="M249 739q36 0 64 -12v-78q-29 12 -61 12q-61 0 -61 -82v-75h122v-79h-122v-425h-87v425h-95v79h95v77q0 75 37.5 116.5t107.5 41.5zM444 718q25 0 42.5 -17t17.5 -42q0 -24 -17.5 -41t-42.5 -17t-42 17t-17 41q0 25 17 42t42 17zM487 -55q0 -171 -150 -171q-41 0 -66 8
v79q24 -8 53 -8q43 0 60 23.5t17 70.5v557h86v-559z" />
    <glyph glyph-name=".notdef" horiz-adv-x="595" 
d="M531 700v-700h-467v700h467zM138 647l158 -252l158 252h-316zM326 346l153 -241v482zM117 110l148 236l-148 236v-472zM142 53h308l-154 244z" />
    <glyph glyph-name=".null" horiz-adv-x="0" 
 />
    <glyph glyph-name="nonmarkingreturn" horiz-adv-x="333" 
 />
    <glyph glyph-name="space" unicode=" " horiz-adv-x="204" 
 />
    <glyph glyph-name="exclam" unicode="!" horiz-adv-x="242" 
d="M164 200h-86v500h86v-500zM121 113q27 0 45.5 -17.5t18.5 -44.5q0 -26 -18.5 -44t-45.5 -18q-26 0 -44.5 18t-18.5 44q0 27 18 44.5t45 17.5z" />
    <glyph glyph-name="quotedbl" unicode="&#x22;" horiz-adv-x="310" 
d="M102 516h-57l-7 207h84zM258 516h-57l-7 207h84z" />
    <glyph glyph-name="numbersign" unicode="#" horiz-adv-x="655" 
d="M641 459h-132l-35 -196h121v-80h-135l-32 -183h-86l32 183h-155l-32 -183h-86l32 183h-119v80h133l35 196h-122v80h136l28 161h86l-28 -161h155l28 161h86l-28 -161h118v-80zM388 263l35 196h-155l-35 -196h155z" />
    <glyph glyph-name="dollar" unicode="$" horiz-adv-x="542" 
d="M497 190q0 -86 -51 -139.5t-135 -61.5v-90h-69v90q-91 10 -141.5 68.5t-52.5 148.5h92q3 -114 102 -134v247q-89 35 -131.5 79t-42.5 120q0 78 46 131.5t128 62.5v89h69v-91q76 -11 119 -60.5t45 -134.5h-92q-1 86 -72 109v-233q101 -38 143.5 -82.5t42.5 -118.5z
M160 525q0 -38 19 -61.5t63 -43.5v209q-39 -7 -60.5 -34t-21.5 -70zM311 70q45 8 69.5 39t24.5 75q0 36 -22 61t-72 47v-222z" />
    <glyph glyph-name="percent" unicode="%" horiz-adv-x="832" 
d="M197 713q72 0 120 -49.5t48 -124.5t-48 -124t-120 -49q-73 0 -120.5 49t-47.5 124t47.5 124.5t120.5 49.5zM248 0h-85l420 700h85zM197 643q-42 0 -69 -29.5t-27 -74.5q0 -44 27 -73.5t69 -29.5q41 0 67.5 29.5t26.5 73.5q0 45 -26.5 74.5t-67.5 29.5zM635 334
q71 0 119.5 -50t48.5 -125t-48 -123.5t-120 -48.5q-73 0 -121 48.5t-48 123.5t48 125t121 50zM635 264q-42 0 -69 -29.5t-27 -74.5q0 -44 27 -73.5t69 -29.5q41 0 67.5 29.5t26.5 73.5q0 45 -26.5 74.5t-67.5 29.5z" />
    <glyph glyph-name="ampersand" unicode="&#x26;" horiz-adv-x="634" 
d="M642 0h-117l-57 63q-78 -76 -196 -76q-109 0 -173 52.5t-64 144.5q0 67 35.5 110.5t99.5 81.5l9 5l-17 19q-67 73 -67 150q0 71 48 117t130 46q77 0 126 -43.5t49 -117.5q0 -36 -10.5 -64t-34 -51t-41.5 -35.5t-52 -33.5l-2 -1l147 -161q5 24 8 44q7 60 -6 114l84 7
q15 -64 8 -131q-6 -58 -30 -105zM239 443l16 -17l3 2q58 35 75 53q25 29 25 67q0 39 -23 63t-61 24t-63.5 -23.5t-25.5 -61.5q0 -47 54 -107zM275 65q89 0 138 58l-180 199l-4 -2q-51 -30 -76.5 -60t-25.5 -74q0 -59 39.5 -90t108.5 -31z" />
    <glyph glyph-name="quotesingle" unicode="'" horiz-adv-x="154" 
d="M102 516h-57l-7 207h84z" />
    <glyph glyph-name="parenleft" unicode="(" horiz-adv-x="272" 
d="M262 693q-70 -89 -101 -174t-31 -198t31 -198t101 -174l-62 -43q-76 94 -114.5 192.5t-38.5 222.5t38.5 222.5t114.5 192.5z" />
    <glyph glyph-name="parenright" unicode=")" horiz-adv-x="272" 
d="M72 736q75 -95 114 -193t39 -222t-39 -222t-114 -193l-62 43q70 89 101 174t31 198t-31 198t-101 174z" />
    <glyph glyph-name="asterisk" unicode="*" horiz-adv-x="351" 
d="M206 613l114 41l22 -62l-117 -37l76 -100l-53 -39l-72 101l-71 -101l-53 38l74 99l-117 37l20 63l115 -40l-2 125h66z" />
    <glyph glyph-name="plus" unicode="+" horiz-adv-x="470" 
d="M275 389h166v-78h-166v-167h-80v167h-166v78h166v167h80v-167z" />
    <glyph glyph-name="comma" unicode="," horiz-adv-x="196" 
d="M98 110q26 0 43 -18t17 -47q0 -45 -20.5 -92.5t-52.5 -83.5l-28 11q27 47 35 113q-24 2 -39 18t-15 40q0 25 17.5 42t42.5 17z" />
    <glyph glyph-name="hyphen" unicode="-" horiz-adv-x="363" 
d="M339 221h-315v77h315v-77z" />
    <glyph glyph-name="period" unicode="." horiz-adv-x="200" 
d="M100 113q27 0 45 -17.5t18 -44.5q0 -26 -18.5 -44t-44.5 -18q-27 0 -45 18t-18 44q0 27 18 44.5t45 17.5z" />
    <glyph glyph-name="slash" unicode="/" horiz-adv-x="388" 
d="M89 0h-85l295 700h85z" />
    <glyph glyph-name="zero" unicode="0" horiz-adv-x="555" 
d="M278 713q112 0 173.5 -97.5t61.5 -264.5q0 -168 -61.5 -266t-173.5 -98t-173.5 98t-61.5 266t61.5 265t173.5 97zM278 628q-70 0 -106.5 -73.5t-36.5 -203.5q0 -131 36.5 -205t106.5 -74q69 0 105.5 74t36.5 205q0 130 -36.5 203.5t-105.5 73.5z" />
    <glyph glyph-name="one" unicode="1" horiz-adv-x="340" 
d="M265 0h-91v536h-147v78q80 0 118 18t50 68h70v-700z" />
    <glyph glyph-name="two" unicode="2" horiz-adv-x="485" 
d="M246 713q94 0 144.5 -52t50.5 -142q0 -96 -85 -205l-179 -229h275v-85h-400v67l225 284q39 50 55.5 85.5t16.5 79.5q0 112 -104 112q-50 0 -79.5 -32.5t-29.5 -97.5h-91q0 99 54.5 157t146.5 58z" />
    <glyph glyph-name="three" unicode="3" horiz-adv-x="530" 
d="M259 713q92 0 145 -55.5t53 -141.5q0 -62 -29 -100.5t-69 -52.5q51 -13 86.5 -58t35.5 -115q0 -90 -60 -146.5t-157 -56.5q-102 0 -161.5 56.5t-59.5 157.5h90q1 -65 37 -97t96 -32q55 0 89 33t34 88q0 63 -43 96t-122 33h-23v80h22q74 0 108 27t34 85q0 53 -27 83.5
t-78 30.5q-49 0 -80 -31.5t-31 -94.5h-91q0 97 54.5 154t146.5 57z" />
    <glyph glyph-name="four" unicode="4" horiz-adv-x="539" 
d="M412 226h98v-83h-98v-143h-91v143h-293v75l276 482h108v-474zM300 527l-172 -302h194v345z" />
    <glyph glyph-name="five" unicode="5" horiz-adv-x="531" 
d="M458 615h-285v-203q43 26 114 26q94 0 151 -58.5t57 -159.5q0 -103 -59.5 -168t-160.5 -65q-99 0 -156.5 52.5t-57.5 151.5h91q1 -60 34 -89.5t90 -29.5q60 0 93.5 40t33.5 105q0 63 -34 99.5t-95 36.5q-64 0 -112 -32h-81v379h377v-85z" />
    <glyph glyph-name="six" unicode="6" horiz-adv-x="544" 
d="M287 432q100 0 158 -62t58 -157q0 -99 -60 -162.5t-159 -63.5q-104 0 -165 70q-70 80 -70 275q0 189 57.5 285t181.5 96q85 0 140.5 -52.5t59.5 -140.5h-92q-10 108 -111 108q-70 0 -106 -63.5t-38 -202.5q20 30 59.5 50t86.5 20zM282 71q57 0 92.5 39.5t35.5 100.5
q0 58 -35.5 97t-92.5 39q-55 0 -94 -38.5t-39 -95.5q0 -56 37 -99t96 -43z" />
    <glyph glyph-name="seven" unicode="7" horiz-adv-x="485" 
d="M454 626l-281 -626h-99l276 613h-313v87h417v-74z" />
    <glyph glyph-name="eight" unicode="8" horiz-adv-x="544" 
d="M272 713q90 0 145.5 -56.5t55.5 -140.5q0 -59 -26.5 -99t-59.5 -57q43 -19 75.5 -60.5t32.5 -107.5q0 -89 -64 -147t-159 -58q-96 0 -160 58t-64 147q0 63 31 107t77 61q-33 17 -59 57t-26 99q0 84 55.5 140.5t145.5 56.5zM272 629q-49 0 -80 -31.5t-31 -83.5
q0 -51 31 -81.5t80 -30.5t80 30.5t31 81.5q0 52 -31 83.5t-80 31.5zM272 319q-55 0 -93.5 -34t-38.5 -91q0 -56 38.5 -89.5t93.5 -33.5t93 33.5t38 89.5t-38.5 90.5t-92.5 34.5z" />
    <glyph glyph-name="nine" unicode="9" horiz-adv-x="544" 
d="M426 643q70 -80 70 -275q0 -189 -57.5 -285t-181.5 -96q-85 0 -140.5 52.5t-59.5 140.5h92q10 -108 111 -108q70 0 106 63.5t38 202.5q-20 -30 -59.5 -50t-86.5 -20q-100 0 -158 62t-58 157q0 99 60 162.5t159 63.5q104 0 165 -70zM263 353q55 0 94 38.5t39 95.5
q0 56 -37 99t-96 43q-57 0 -92.5 -39.5t-35.5 -100.5q0 -58 35.5 -97t92.5 -39z" />
    <glyph glyph-name="colon" unicode=":" horiz-adv-x="200" 
d="M100 515q26 0 44.5 -18t18.5 -45q0 -26 -18.5 -44t-44.5 -18q-27 0 -45 18t-18 44q0 27 18 45t45 18zM100 113q27 0 45 -17.5t18 -44.5q0 -26 -18.5 -44t-44.5 -18q-27 0 -45 18t-18 44q0 27 18 44.5t45 17.5z" />
    <glyph glyph-name="semicolon" unicode=";" horiz-adv-x="200" 
d="M100 515q26 0 44.5 -18t18.5 -45q0 -26 -18.5 -44t-44.5 -18q-27 0 -45 18t-18 44q0 27 18 45t45 18zM100 110q25 0 42.5 -18t17.5 -47q0 -45 -20.5 -92.5t-52.5 -83.5l-28 11q27 47 35 113q-24 2 -39.5 18t-15.5 40q0 25 17.5 42t43.5 17z" />
    <glyph glyph-name="less" unicode="&#x3c;" horiz-adv-x="256" 
d="M93 250l151 -195h-87l-145 187v17l145 187h87z" />
    <glyph glyph-name="equal" unicode="=" horiz-adv-x="470" 
d="M441 413h-412v77h412v-77zM441 208h-412v77h412v-77z" />
    <glyph glyph-name="greater" unicode="&#x3e;" horiz-adv-x="256" 
d="M244 259v-17l-145 -187h-87l151 195l-151 196h87z" />
    <glyph glyph-name="question" unicode="?" horiz-adv-x="413" 
d="M202 716q84 0 141.5 -51t57.5 -140q0 -49 -16.5 -88t-40.5 -63.5t-47.5 -45t-40 -44t-16.5 -49.5v-35h-87v38q0 36 17 66t41 51.5l48 43t41 53t17 70.5q0 59 -31.5 90t-82.5 31q-56 0 -87.5 -33t-31.5 -94h-83q1 95 57.5 147.5t143.5 52.5zM197 113q27 0 45 -17.5
t18 -44.5q0 -26 -18.5 -44t-44.5 -18q-27 0 -45 18t-18 44q0 27 18 44.5t45 17.5z" />
    <glyph glyph-name="at" unicode="@" horiz-adv-x="806" 
d="M405 604q164 0 264.5 -104t100.5 -264q0 -105 -43 -155t-104 -50q-77 0 -101 63q-45 -64 -140 -64q-83 0 -134.5 58.5t-51.5 146.5q0 89 51.5 147.5t133.5 58.5q50 0 84 -21t49 -51l4 63h66v-285q0 -56 47 -56q71 0 71 145q0 132 -81.5 218t-215.5 86
q-136 0 -218.5 -85.5t-82.5 -218.5t82.5 -219t218.5 -86q73 0 136 30l21 -62q-70 -32 -157 -32q-166 0 -267.5 104t-101.5 265q0 163 101.5 265.5t267.5 102.5zM393 372q-54 0 -87.5 -38t-33.5 -99q0 -60 32.5 -97.5t86.5 -37.5q50 0 85.5 33t35.5 91v18q0 60 -35.5 95
t-83.5 35z" />
    <glyph glyph-name="A" unicode="A" horiz-adv-x="690" 
d="M673 0h-100l-74 185h-309l-73 -185h-100l281 700h94zM331 545l-110 -275h247l-111 275l-13 38z" />
    <glyph glyph-name="B" unicode="B" horiz-adv-x="569" 
d="M272 700q101 0 160 -51.5t59 -138.5q0 -93 -75 -143q56 -20 87 -64t31 -103q0 -91 -62.5 -145.5t-168.5 -54.5h-226v700h195zM168 615v-216h108q56 0 89.5 29t33.5 77q0 53 -34 81.5t-93 28.5h-104zM168 315v-230h135q64 0 101 31t37 86q0 53 -36.5 83t-101.5 30h-135z
" />
    <glyph glyph-name="C" unicode="C" horiz-adv-x="726" 
d="M385 713q121 0 201 -58.5t110 -162.5h-101q-49 136 -210 136q-110 0 -180.5 -78.5t-70.5 -199.5q0 -120 70.5 -199t181.5 -79q83 0 137 38t76 101h98q-30 -107 -109.5 -165.5t-201.5 -58.5q-152 0 -249.5 103t-97.5 260t97.5 260t248.5 103z" />
    <glyph glyph-name="D" unicode="D" horiz-adv-x="727" 
d="M329 700q162 0 258.5 -96t96.5 -254t-96.5 -254t-258.5 -96h-252v700h252zM168 615v-530h161q121 0 191.5 70.5t70.5 194.5t-70 194.5t-192 70.5h-161z" />
    <glyph glyph-name="E" unicode="E" horiz-adv-x="508" 
d="M462 615h-294v-212h259v-85h-259v-233h294v-85h-385v700h385v-85z" />
    <glyph glyph-name="F" unicode="F" horiz-adv-x="479" 
d="M454 615h-286v-221h243v-86h-243v-308h-91v700h377v-85z" />
    <glyph glyph-name="G" unicode="G" horiz-adv-x="747" 
d="M385 713q121 0 201 -58.5t110 -162.5h-101q-49 136 -211 136q-110 0 -180 -78.5t-70 -199.5q0 -120 70.5 -199t182.5 -79q100 0 159.5 51t62.5 151h-210v85h306v-47q0 -152 -85 -238.5t-233 -86.5q-152 0 -250 103t-98 260t97.5 260t248.5 103z" />
    <glyph glyph-name="H" unicode="H" horiz-adv-x="706" 
d="M629 0h-91v319h-370v-319h-91v700h91v-295h370v295h91v-700z" />
    <glyph glyph-name="I" unicode="I" horiz-adv-x="245" 
d="M168 0h-91v700h91v-700z" />
    <glyph glyph-name="J" unicode="J" horiz-adv-x="498" 
d="M430 201q0 -103 -50.5 -157t-145.5 -54q-102 0 -153 58.5t-55 163.5h91q6 -137 117 -137q51 0 78 33.5t27 96.5v495h91v-499z" />
    <glyph glyph-name="K" unicode="K" horiz-adv-x="668" 
d="M354 389l296 -389h-115l-240 317l-121 -147v-170h-91v700h91v-396l311 396h114z" />
    <glyph glyph-name="L" unicode="L" horiz-adv-x="501" 
d="M167 85h312v-85h-403v700h91v-615z" />
    <glyph glyph-name="M" unicode="M" horiz-adv-x="873" 
d="M797 0h-91v521l-19 -52l-214 -469h-73l-213 469l-19 52v-521h-91v700h100l240 -514l19 -45l20 45l241 514h100v-700z" />
    <glyph glyph-name="N" unicode="N" horiz-adv-x="709" 
d="M633 0h-90l-348 502l-27 43v-545h-91v700h89l346 -500l30 -46v546h91v-700z" />
    <glyph glyph-name="O" unicode="O" horiz-adv-x="793" 
d="M397 713q155 0 256 -103t101 -259q0 -157 -101 -260.5t-256 -103.5q-156 0 -257 103.5t-101 260.5q0 156 101 259t257 103zM397 628q-116 0 -189.5 -78.5t-73.5 -198.5q0 -121 73.5 -200t189.5 -79q115 0 188.5 79t73.5 200q0 120 -73.5 198.5t-188.5 78.5z" />
    <glyph glyph-name="P" unicode="P" horiz-adv-x="536" 
d="M284 700q105 0 167 -59.5t62 -155.5q0 -95 -62 -153.5t-167 -58.5h-116v-273h-91v700h207zM168 615v-257h116q62 0 99.5 34t37.5 93q0 60 -37.5 95t-99.5 35h-116z" />
    <glyph glyph-name="Q" unicode="Q" horiz-adv-x="790" 
d="M802 -104h-127l-123 123q-74 -32 -155 -32q-156 0 -257 103.5t-101 260.5q0 156 101 259t257 103q155 0 256 -103t101 -259q0 -86 -32.5 -159t-91.5 -123zM134 351q0 -121 73.5 -200t189.5 -79q45 0 87 14l-132 129h128l86 -83q93 80 93 219q0 120 -73.5 198.5
t-188.5 78.5q-116 0 -189.5 -78.5t-73.5 -198.5z" />
    <glyph glyph-name="R" unicode="R" horiz-adv-x="546" 
d="M527 0h-104l-153 284h-2h-100v-284h-91v700h191q105 0 167 -57.5t62 -153.5q0 -69 -34.5 -118.5t-97.5 -71.5zM168 615v-249h100q62 0 99.5 32.5t37.5 90.5q0 59 -37.5 92.5t-99.5 33.5h-100z" />
    <glyph glyph-name="S" unicode="S" 
d="M262 713q93 0 148 -51t57 -147h-92q-1 55 -32.5 85.5t-82.5 30.5q-50 0 -79 -28t-29 -78q0 -48 29.5 -72.5t109.5 -56.5q108 -40 153 -85t45 -121q0 -94 -60 -148.5t-157 -54.5q-109 0 -169.5 59.5t-62.5 159.5h92q1 -67 38 -102.5t103 -35.5q59 0 91.5 32t32.5 84
q0 44 -33 72.5t-114 56.5q-98 36 -144 80.5t-46 124.5q0 85 53.5 140t148.5 55z" />
    <glyph glyph-name="T" unicode="T" horiz-adv-x="605" 
d="M596 615h-248v-615h-91v615h-248v85h587v-85z" />
    <glyph glyph-name="U" unicode="U" horiz-adv-x="685" 
d="M617 277q0 -141 -71.5 -215.5t-202.5 -74.5t-203 74.5t-72 215.5v423h91v-423q0 -205 184 -205q90 0 136.5 52t46.5 153v423h91v-423z" />
    <glyph glyph-name="V" unicode="V" horiz-adv-x="678" 
d="M381 0h-83l-283 700h98l212 -529l14 -45l14 45l212 529h98z" />
    <glyph glyph-name="W" unicode="W" horiz-adv-x="986" 
d="M745 0h-90l-151 486l-11 47l-11 -47l-151 -486h-90l-223 700h96l162 -509l12 -50l10 50l156 509h78l156 -509l10 -50l12 50l162 509h96z" />
    <glyph glyph-name="X" unicode="X" horiz-adv-x="680" 
d="M401 357l253 -357h-108l-206 288l-205 -288h-108l252 357l-242 343h109l194 -273l195 273h108z" />
    <glyph glyph-name="Y" unicode="Y" horiz-adv-x="672" 
d="M382 265v-265h-92v265l-277 435h107l189 -294l26 -47l27 47l190 294h107z" />
    <glyph glyph-name="Z" unicode="Z" horiz-adv-x="588" 
d="M541 627l-387 -542h399v-85h-517v73l389 542h-385v85h501v-73z" />
    <glyph glyph-name="bracketleft" unicode="[" horiz-adv-x="285" 
d="M261 637h-109v-635h109v-79h-192v793h192v-79z" />
    <glyph glyph-name="backslash" unicode="\" horiz-adv-x="388" 
d="M384 0h-85l-295 700h85z" />
    <glyph glyph-name="bracketright" unicode="]" horiz-adv-x="285" 
d="M216 -77h-192v79h109v635h-109v79h192v-793z" />
    <glyph glyph-name="asciicircum" unicode="^" horiz-adv-x="537" 
d="M519 462h-92l-159 190l-157 -190h-93l250 299z" />
    <glyph glyph-name="underscore" unicode="_" horiz-adv-x="633" 
d="M609 -78h-585v78h585v-78z" />
    <glyph glyph-name="grave" unicode="`" horiz-adv-x="243" 
d="M234 574h-82l-143 158h113z" />
    <glyph glyph-name="a" unicode="a" horiz-adv-x="492" 
d="M247 515q85 0 132.5 -47t47.5 -134v-334h-78l-4 69q-20 -36 -60 -58t-93 -22q-67 0 -107 38.5t-40 103.5q0 119 141 146l154 29v25q0 104 -93 104q-44 0 -73.5 -24t-29.5 -68h-85q2 74 54 123t134 49zM202 201q-33 -8 -51.5 -23t-18.5 -46q0 -30 20 -46.5t57 -16.5
q66 0 102 50q29 39 29 93v19z" />
    <glyph glyph-name="b" unicode="b" horiz-adv-x="599" 
d="M161 435q52 80 168 80q105 0 170.5 -75t65.5 -188q0 -114 -65 -188.5t-170 -74.5q-114 0 -173 85l-5 -74h-77v730h86v-295zM316 433q-63 0 -109.5 -50t-46.5 -131v-5q0 -79 46.5 -128t110.5 -49q72 0 115.5 50.5t43.5 131.5q0 80 -45 130.5t-115 50.5z" />
    <glyph glyph-name="c" unicode="c" horiz-adv-x="538" 
d="M279 515q85 0 145.5 -43.5t78.5 -124.5h-86q-15 42 -51.5 65t-85.5 23q-68 0 -112.5 -52t-44.5 -132q0 -78 45 -130t114 -52q48 0 85 24t50 64h87q-20 -81 -80.5 -124.5t-144.5 -43.5q-107 0 -176 74t-69 188t69.5 189t175.5 75z" />
    <glyph glyph-name="d" unicode="d" horiz-adv-x="599" 
d="M524 0h-77l-5 74q-59 -85 -173 -85q-105 0 -170 74.5t-65 188.5q0 113 65.5 188t170.5 75q116 0 168 -80v295h86v-730zM283 433q-70 0 -115 -50.5t-45 -130.5q0 -81 43.5 -131.5t115.5 -50.5q64 0 110.5 49t46.5 128v5q0 81 -46.5 131t-109.5 50z" />
    <glyph glyph-name="e" unicode="e" horiz-adv-x="542" 
d="M506 259v-41h-382q4 -69 47 -109t108 -40q105 0 136 82h86q-23 -76 -80.5 -119t-143.5 -43q-107 0 -175 72t-68 190q0 115 67 189.5t176 74.5q103 0 166 -66t63 -190zM124 295h295q-1 64 -40 102t-102 38t-104 -39t-49 -101z" />
    <glyph glyph-name="f" unicode="f" horiz-adv-x="330" 
d="M255 739q40 0 68 -12v-78q-29 12 -61 12q-71 0 -71 -82v-75h125v-79h-125v-425h-87v425h-91v79h91v77q0 75 39.5 116.5t111.5 41.5z" />
    <glyph glyph-name="g" unicode="g" horiz-adv-x="499" 
d="M505 504v-76h-87q24 -43 24 -94q0 -77 -53 -128t-139 -51q-62 0 -108 27q-21 -19 -21 -50q0 -24 17.5 -37.5t46.5 -13.5h134q79 0 119 -36t40 -101q0 -80 -56.5 -125t-153.5 -45q-106 0 -163 41t-57 116q0 61 55 91q-28 14 -47.5 41.5t-19.5 63.5q0 64 52 103
q-32 44 -32 104q0 79 53.5 130t140.5 51q37 0 72 -11h183zM249 231q49 0 78.5 29t29.5 74q0 46 -29.5 75.5t-78.5 29.5t-78.5 -29.5t-29.5 -75.5q0 -44 29.5 -73.5t78.5 -29.5zM206 5q-32 -2 -52.5 -19.5t-20.5 -51.5q0 -41 35.5 -62.5t99.5 -21.5q60 0 92.5 23t32.5 67
q0 65 -91 65h-96z" />
    <glyph glyph-name="h" unicode="h" horiz-adv-x="530" 
d="M161 441q16 32 51.5 53t86.5 21q79 0 121.5 -51.5t42.5 -137.5v-326h-87v312q0 58 -26 88.5t-72 30.5q-51 0 -84 -43t-33 -118v-270h-86v730h86v-289z" />
    <glyph glyph-name="i" unicode="i" horiz-adv-x="242" 
d="M121 718q25 0 42.5 -17t17.5 -42q0 -24 -17.5 -41t-42.5 -17t-42 17t-17 41q0 25 17 42t42 17zM164 0h-86v504h86v-504z" />
    <glyph glyph-name="j" unicode="j" horiz-adv-x="242" 
d="M121 718q25 0 42.5 -17t17.5 -42q0 -24 -17.5 -41t-42.5 -17t-42 17t-17 41q0 25 17 42t42 17zM164 -55q0 -171 -150 -171q-41 0 -66 8v79q24 -8 53 -8q43 0 60 23.5t17 70.5v557h86v-559z" />
    <glyph glyph-name="k" unicode="k" horiz-adv-x="492" 
d="M161 268l189 236h105l-163 -209l189 -295h-99l-150 229l-71 -86v-143h-86v730h86v-462z" />
    <glyph glyph-name="l" unicode="l" horiz-adv-x="236" 
d="M161 0h-86v730h86v-730z" />
    <glyph glyph-name="m" unicode="m" horiz-adv-x="826" 
d="M596 515q79 0 121 -51.5t42 -137.5v-326h-86v312q0 58 -25.5 88.5t-71.5 30.5q-51 0 -83.5 -43t-32.5 -118v-270h-86v312q0 58 -25.5 88.5t-71.5 30.5q-51 0 -83.5 -43t-32.5 -118v-270h-86v504h77l5 -69q18 35 54.5 57.5t85.5 22.5q110 0 147 -96q50 96 152 96z" />
    <glyph glyph-name="n" unicode="n" horiz-adv-x="530" 
d="M299 515q79 0 121.5 -51.5t42.5 -137.5v-326h-87v312q0 58 -26 88.5t-72 30.5q-51 0 -84 -43t-33 -118v-270h-86v504h77l5 -69q42 80 142 80z" />
    <glyph glyph-name="o" unicode="o" horiz-adv-x="580" 
d="M290 515q112 0 183.5 -74t71.5 -189t-71.5 -189t-183.5 -74q-113 0 -184.5 74t-71.5 189t71.5 189t184.5 74zM291 435q-75 0 -121.5 -51.5t-46.5 -131.5q0 -79 46.5 -131t121.5 -52q74 0 119.5 52t45.5 131q0 80 -45.5 131.5t-119.5 51.5z" />
    <glyph glyph-name="p" unicode="p" horiz-adv-x="607" 
d="M337 515q105 0 170 -74.5t65 -188.5q0 -113 -65.5 -188t-170.5 -75q-59 0 -102 22.5t-65 57.5v-284h-87v719h78l4 -74q59 85 173 85zM324 434q-64 0 -110.5 -49t-46.5 -128v-5q0 -81 46.5 -131t109.5 -50q70 0 115 50.5t45 130.5q0 81 -43.5 131.5t-115.5 50.5z" />
    <glyph glyph-name="q" unicode="q" horiz-adv-x="607" 
d="M269 515q114 0 173 -85l5 74h77v-719h-86v284q-52 -80 -168 -80q-105 0 -170.5 75t-65.5 188q0 114 65 188.5t170 74.5zM282 434q-72 0 -115.5 -50.5t-43.5 -131.5q0 -80 45 -130.5t115 -50.5q63 0 109.5 50t46.5 131v5q0 79 -46.5 128t-110.5 49z" />
    <glyph glyph-name="r" unicode="r" horiz-adv-x="338" 
d="M315 423q-62 0 -102 -37q-45 -41 -46 -119v-267h-86v504h77l6 -88q14 39 52.5 66t98.5 27v-86z" />
    <glyph glyph-name="s" unicode="s" horiz-adv-x="439" 
d="M218 515q73 0 118.5 -44t47.5 -115h-88q-1 79 -80 79q-38 0 -57.5 -19t-19.5 -49q0 -29 19.5 -44.5t75.5 -28.5q90 -21 127.5 -55.5t37.5 -95.5q0 -72 -49.5 -113t-127.5 -41q-86 0 -134 44.5t-50 119.5h88q2 -84 98 -84q42 0 64.5 19t22.5 49q0 32 -22 49.5t-83 31.5
q-81 19 -118 51.5t-37 92.5q0 64 44.5 108.5t122.5 44.5z" />
    <glyph glyph-name="t" unicode="t" horiz-adv-x="348" 
d="M189 504h129v-80h-130l-2 -270q0 -44 15 -63t57 -19q33 0 60 9v-77q-28 -11 -75 -11q-73 0 -108.5 34.5t-34.5 110.5l2 286h-94v80h94l1 126h87z" />
    <glyph glyph-name="u" unicode="u" 
d="M451 0h-77l-5 69q-38 -80 -139 -80q-79 0 -120.5 51t-41.5 138v326h86v-312q0 -59 25 -89.5t71 -30.5q50 0 82.5 40.5t32.5 111.5v280h86v-504z" />
    <glyph glyph-name="v" unicode="v" horiz-adv-x="500" 
d="M293 0h-86l-192 504h92l133 -362l10 -38l10 38l133 362h93z" />
    <glyph glyph-name="w" unicode="w" horiz-adv-x="766" 
d="M591 0h-87l-122 360l-123 -360h-84l-160 504h92l105 -352l10 -46l11 46l113 352h74l113 -352l11 -46l10 46l105 352h92z" />
    <glyph glyph-name="x" unicode="x" horiz-adv-x="509" 
d="M312 260l175 -260h-102l-131 192l-130 -192h-102l174 260l-163 244h102l119 -176l120 176h102z" />
    <glyph glyph-name="y" unicode="y" horiz-adv-x="502" 
d="M211 -215h-91l84 222l-189 497h92l133 -362l10 -38l10 38l133 362h93z" />
    <glyph glyph-name="z" unicode="z" horiz-adv-x="457" 
d="M417 438l-268 -361h284v-77h-399v66l268 361h-266v77h381v-66z" />
    <glyph glyph-name="braceleft" unicode="{" horiz-adv-x="288" 
d="M264 637h-26q-65 0 -65 -72v-146q0 -78 -58 -100q58 -22 58 -99v-146q0 -72 65 -72h26v-79h-28q-71 0 -107.5 39.5t-36.5 109.5v137q0 72 -65 72h-16v77h16q65 0 65 72v137q0 70 36.5 109.5t107.5 39.5h28v-79z" />
    <glyph glyph-name="bar" unicode="|" horiz-adv-x="215" 
d="M149 -67h-82v793h82v-793z" />
    <glyph glyph-name="braceright" unicode="}" horiz-adv-x="288" 
d="M52 716q71 0 107.5 -39.5t36.5 -109.5v-137q0 -72 65 -72h16v-77h-16q-65 0 -65 -72v-137q0 -70 -36.5 -109.5t-107.5 -39.5h-28v79h26q65 0 65 72v146q0 77 58 99q-58 22 -58 100v146q0 72 -65 72h-26v79h28z" />
    <glyph glyph-name="asciitilde" unicode="~" horiz-adv-x="568" 
d="M182 439q35 0 64.5 -14.5t47 -32t42 -32t51.5 -14.5q71 0 95 84l61 -30q-41 -132 -157 -132q-36 0 -65.5 14.5t-46.5 32t-41.5 32t-51.5 14.5q-69 0 -95 -84l-61 30q41 132 157 132z" />
    <glyph glyph-name="exclamdown" unicode="&#xa1;" horiz-adv-x="242" 
d="M121 390q-27 0 -45.5 17.5t-18.5 44.5q0 26 18.5 44t45.5 18q26 0 44.5 -18t18.5 -44q0 -27 -18 -44.5t-45 -17.5zM78 303h86v-500h-86v500z" />
    <glyph glyph-name="cent" unicode="&#xa2;" horiz-adv-x="542" 
d="M504 157q-18 -71 -67.5 -114t-120.5 -52v-92h-70v92q-94 12 -153 83.5t-59 176.5t59 177.5t153 84.5v91h70v-91q72 -9 122 -52t65 -114h-86q-25 70 -101 84v-359q36 8 63 30t38 55h87zM123 251q0 -67 34 -115.5t89 -62.5v358q-55 -13 -89 -62t-34 -118z" />
    <glyph glyph-name="sterling" unicode="&#xa3;" horiz-adv-x="506" 
d="M415 176h82q-1 -86 -46.5 -131t-126.5 -45h-297v34l41 57q54 75 54 161q0 18 -4 48h-102v69h80q-2 4 -8.5 21t-9 23.5t-7.5 21.5t-6.5 25t-3.5 24t-2 28q0 91 55 146t141 55q89 0 140.5 -49.5t53.5 -143.5h-84q0 52 -29 82t-78 30q-51 0 -80 -32t-29 -90q0 -19 4 -39.5
t8 -32.5t13.5 -36t12.5 -33h154v-69h-135q4 -20 4 -50q0 -74 -41 -138l-16 -26h174q46 0 67 22t21 68z" />
    <glyph glyph-name="currency" unicode="&#xa4;" horiz-adv-x="627" 
d="M599 494l-122 -121q34 -49 34 -111q0 -63 -35 -112l123 -121l-55 -55l-124 121q-51 -32 -107 -32q-55 0 -106 32l-123 -121l-56 55l122 121q-33 49 -33 112q0 61 33 111l-122 121l56 56l122 -122q49 34 107 34q54 0 108 -34l123 122zM313 394q-52 0 -86.5 -38t-34.5 -94
t34.5 -93t86.5 -37q53 0 88 37.5t35 92.5q0 56 -35.5 94t-87.5 38z" />
    <glyph glyph-name="yen" unicode="&#xa5;" horiz-adv-x="661" 
d="M654 700l-244 -383h98v-69h-131v-74h131v-69h-131v-105h-92v105h-133v69h133v74h-133v69h100l-244 383h107l189 -294l26 -47l27 47l190 294h107z" />
    <glyph glyph-name="brokenbar" unicode="&#xa6;" horiz-adv-x="215" 
d="M149 446h-82v280h82v-280zM149 -67h-82v280h82v-280z" />
    <glyph glyph-name="section" unicode="&#xa7;" horiz-adv-x="506" 
d="M391 212q60 -37 60 -110t-53.5 -113t-136.5 -40q-90 0 -143.5 43t-55.5 114h89q0 -42 29.5 -65t81.5 -23q50 0 75.5 22t25.5 57q0 34 -30 55t-107 35q-94 17 -141 52.5t-47 97.5q0 80 83 127q-48 36 -48 103q0 73 51.5 113t130.5 40q86 0 136 -43t52 -114h-88
q-1 42 -27.5 65t-73.5 23q-45 0 -69 -22.5t-24 -56.5t26.5 -55t91.5 -33q101 -18 146 -52.5t45 -99.5q0 -74 -79 -120zM126 348q0 -40 30.5 -60.5t114.5 -35.5q29 -5 46 -10q66 30 66 82q0 38 -29.5 58.5t-109.5 35.5q-33 6 -56 13q-62 -27 -62 -83z" />
    <glyph glyph-name="dieresis" unicode="&#xa8;" horiz-adv-x="315" 
d="M64 689q22 0 38 -15.5t16 -38.5t-15.5 -38.5t-38.5 -15.5t-39 15.5t-16 38.5t16 38.5t39 15.5zM251 689q23 0 39 -15.5t16 -38.5t-16 -38.5t-39 -15.5t-38.5 15.5t-15.5 38.5t15.5 38.5t38.5 15.5z" />
    <glyph glyph-name="copyright" unicode="&#xa9;" horiz-adv-x="586" 
d="M294 745q118 0 190.5 -76t72.5 -193q0 -116 -72.5 -192.5t-190.5 -76.5t-191.5 76.5t-73.5 192.5q0 117 73 193t192 76zM294 690q-92 0 -149 -60.5t-57 -153.5q0 -92 57 -153t149 -61q91 0 147.5 61t56.5 153q0 93 -56 153.5t-148 60.5zM297 621q102 0 128 -98h-68
q-16 39 -60 39q-35 0 -56 -24t-21 -62q0 -39 21 -63t56 -24q49 0 64 43h65q-22 -101 -129 -101q-63 0 -103 41t-40 104t40 104t103 41z" />
    <glyph glyph-name="ordfeminine" unicode="&#xaa;" horiz-adv-x="379" 
d="M188 710q63 0 98.5 -31.5t35.5 -92.5v-227h-61l-3 42q-38 -49 -108 -49q-48 0 -76.5 25.5t-28.5 69.5q0 83 104 102l104 20v15q0 63 -65 63q-30 0 -48 -14.5t-18 -41.5h-68q2 52 38 85.5t96 33.5zM161 494q-47 -9 -47 -43q0 -17 13 -27.5t35 -10.5q49 0 73 31
q18 23 18 50v18z" />
    <glyph glyph-name="guillemotleft" unicode="&#xab;" horiz-adv-x="455" 
d="M93 250l140 -195h-87l-134 187v17l134 187h87zM303 250l140 -195h-87l-134 187v17l134 187h87z" />
    <glyph glyph-name="logicalnot" unicode="&#xac;" horiz-adv-x="579" 
d="M543 157h-64v209h-441v66h505v-275z" />
    <glyph glyph-name="registered" unicode="&#xae;" horiz-adv-x="586" 
d="M294 745q118 0 190.5 -76t72.5 -193q0 -116 -72.5 -192.5t-190.5 -76.5t-191.5 76.5t-73.5 192.5q0 117 73 193t192 76zM294 262q91 0 147.5 61t56.5 153q0 93 -56 153.5t-148 60.5t-149 -60.5t-57 -153.5q0 -92 57 -153t149 -61zM399 524q0 -54 -48 -76l60 -113h-72
l-50 102h-30v-102h-63v280h102q46 0 73.5 -25t27.5 -66zM259 562v-77h35q42 0 42 38q0 39 -42 39h-35z" />
    <glyph glyph-name="macron" unicode="&#xaf;" horiz-adv-x="280" 
d="M271 595h-262v71h262v-71z" />
    <glyph glyph-name="degree" unicode="&#xb0;" horiz-adv-x="341" 
d="M169 722q65 0 107.5 -41t42.5 -106q0 -66 -42.5 -106.5t-107.5 -40.5q-63 0 -105.5 41t-42.5 106t42.5 106t105.5 41zM169 660q-35 0 -59 -23.5t-24 -61.5t24 -61.5t59 -23.5q37 0 61.5 23.5t24.5 61.5t-24.5 61.5t-61.5 23.5z" />
    <glyph glyph-name="plusminus" unicode="&#xb1;" horiz-adv-x="470" 
d="M275 477h166v-78h-166v-167h-80v167h-166v78h166v167h80v-167zM441 87h-412v78h412v-78z" />
    <glyph glyph-name="two.sups" unicode="&#xb2;" horiz-adv-x="320" 
d="M161 807q60 0 92 -30.5t32 -81.5q0 -57 -52 -114l-96 -107h151v-66h-248v51l131 147q43 47 43 84q0 52 -54 52q-25 0 -40.5 -15.5t-15.5 -45.5h-70q0 57 35 91.5t92 34.5z" />
    <glyph glyph-name="three.sups" unicode="&#xb3;" horiz-adv-x="348" 
d="M171 807q58 0 91 -32t33 -81q0 -32 -16 -53t-39 -29q29 -9 49 -32t20 -61q0 -54 -37 -86t-97 -32q-65 0 -101.5 32.5t-36.5 91.5h70q0 -30 19 -45t50 -15q28 0 45.5 15.5t17.5 41.5q0 60 -84 60h-20v57h19q71 0 71 53q0 23 -14 37t-39 14t-41 -14.5t-16 -42.5h-70
q0 57 34 89t92 32z" />
    <glyph glyph-name="acute" unicode="&#xb4;" horiz-adv-x="243" 
d="M91 574h-82l111 158h114z" />
    <glyph glyph-name="mu" unicode="&#xb5;" horiz-adv-x="533" 
d="M372 504h86v-504h-77l-5 69q-38 -80 -139 -80q-42 0 -76 16v-220h-86v654v65h86v-312q0 -59 25 -89.5t71 -30.5q50 0 82.5 40.5t32.5 111.5v280z" />
    <glyph glyph-name="paragraph" unicode="&#xb6;" horiz-adv-x="595" 
d="M575 639h-88v-719h-62v719h-118v-719h-62v393h-18q-90 0 -146.5 53.5t-56.5 138.5q0 86 56.5 140.5t146.5 54.5h348v-61z" />
    <glyph glyph-name="periodcentered" unicode="&#xb7;" horiz-adv-x="200" 
d="M100 322q26 0 44.5 -18t18.5 -44q0 -27 -18.5 -45t-44.5 -18q-27 0 -45 18t-18 45q0 26 18 44t45 18z" />
    <glyph glyph-name="cedilla" unicode="&#xb8;" horiz-adv-x="214" 
d="M117 -58q39 0 63.5 -22.5t24.5 -60.5q0 -42 -29 -65.5t-76 -23.5q-58 0 -91 36l32 44q22 -26 61 -26q45 0 45 34q0 35 -42 35q-13 0 -33 -5l-22 9l27 109h52l-15 -64h3z" />
    <glyph glyph-name="one.sups" unicode="&#xb9;" horiz-adv-x="244" 
d="M188 408h-70v288h-88v51q47 0 73 12t33 41h52v-392z" />
    <glyph glyph-name="ordmasculine" unicode="&#xba;" horiz-adv-x="435" 
d="M217 710q80 0 130.5 -50.5t50.5 -129.5q0 -78 -51 -128t-130 -50t-130 50t-51 128q0 79 50.5 129.5t130.5 50.5zM218 647q-49 0 -79.5 -33t-30.5 -83t30.5 -83t79.5 -33q48 0 78.5 33t30.5 83t-30.5 83t-78.5 33z" />
    <glyph glyph-name="guillemotright" unicode="&#xbb;" horiz-adv-x="455" 
d="M233 259v-17l-134 -187h-87l140 195l-140 196h87zM443 259v-17l-134 -187h-87l140 195l-140 196h87z" />
    <glyph glyph-name="onequarter" unicode="&#xbc;" horiz-adv-x="697" 
d="M188 308h-70v288h-88v51q47 0 73 12t33 41h52v-392zM167 0h-95l420 700h95zM611 135h56v-62h-56v-73h-70v73h-177v56l162 263h85v-257zM530 280l-91 -145h103v168z" />
    <glyph glyph-name="onehalf" unicode="&#xbd;" horiz-adv-x="710" 
d="M188 308h-70v288h-88v51q47 0 73 12t33 41h52v-392zM167 0h-95l420 700h95zM553 399q60 0 92 -30.5t32 -81.5q0 -57 -52 -114l-96 -107h151v-66h-248v51l131 147q43 47 43 84q0 52 -54 52q-25 0 -40.5 -15.5t-15.5 -45.5h-70q0 57 35 91.5t92 34.5z" />
    <glyph glyph-name="threequarters" unicode="&#xbe;" horiz-adv-x="778" 
d="M171 707q58 0 91 -32t33 -81q0 -32 -16 -53t-39 -29q29 -9 49 -32t20 -61q0 -54 -37 -86t-97 -32q-65 0 -101.5 32.5t-36.5 91.5h70q0 -30 19 -45t50 -15q28 0 45.5 15.5t17.5 41.5q0 60 -84 60h-20v57h19q71 0 71 53q0 23 -14 37t-39 14t-41 -14.5t-16 -42.5h-70
q0 57 34 89t92 32zM249 0h-95l420 700h95zM692 135h56v-62h-56v-73h-70v73h-177v56l162 263h85v-257zM611 280l-91 -145h103v168z" />
    <glyph glyph-name="questiondown" unicode="&#xbf;" horiz-adv-x="413" 
d="M216 390q-27 0 -45 17.5t-18 44.5q0 26 18.5 44t44.5 18q27 0 45 -18t18 -44q0 -27 -18 -44.5t-45 -17.5zM211 -213q-84 0 -141.5 51t-57.5 140q0 49 16.5 88t40 63.5t47.5 45t40.5 44t16.5 49.5v35h87v-38q0 -36 -17 -66t-41 -51.5l-48 -43t-41 -53t-17 -70.5
q0 -59 31.5 -90t82.5 -31q56 0 87.5 33t31.5 94h83q-1 -95 -57.5 -147.5t-143.5 -52.5z" />
    <glyph glyph-name="Agrave" unicode="&#xc0;" horiz-adv-x="690" 
d="M397 732h-96l-132 109h132zM673 0h-100l-74 185h-309l-73 -185h-100l281 700h94zM331 545l-110 -275h247l-111 275l-13 38z" />
    <glyph glyph-name="Aacute" unicode="&#xc1;" horiz-adv-x="690" 
d="M382 732h-97l97 109h131zM673 0h-100l-74 185h-309l-73 -185h-100l281 700h94zM331 545l-110 -275h247l-111 275l-13 38z" />
    <glyph glyph-name="Acircumflex" unicode="&#xc2;" horiz-adv-x="690" 
d="M516 731h-109l-63 55l-62 -55h-108l143 113h56zM673 0h-100l-74 185h-309l-73 -185h-100l281 700h94zM331 545l-110 -275h247l-111 275l-13 38z" />
    <glyph glyph-name="Atilde" unicode="&#xc3;" horiz-adv-x="690" 
d="M284 857q28 0 48.5 -10.5t30 -23t22.5 -23t27 -10.5q39 0 39 58h58q0 -55 -26.5 -88.5t-77.5 -33.5q-28 0 -48.5 10.5t-30 23.5t-22.5 23.5t-27 10.5q-39 0 -39 -59h-58q0 56 26.5 89t77.5 33zM673 0h-100l-74 185h-309l-73 -185h-100l281 700h94zM331 545l-110 -275h247
l-111 275l-13 38z" />
    <glyph glyph-name="Adieresis" unicode="&#xc4;" horiz-adv-x="690" 
d="M250 840q23 0 38.5 -15.5t15.5 -38.5q0 -22 -16 -38t-38 -16q-23 0 -39 15.5t-16 38.5t16 38.5t39 15.5zM437 840q23 0 39 -15.5t16 -38.5t-16 -38.5t-39 -15.5t-38.5 16t-15.5 38q0 23 15.5 38.5t38.5 15.5zM673 0h-100l-74 185h-309l-73 -185h-100l281 700h94zM331 545
l-110 -275h247l-111 275l-13 38z" />
    <glyph glyph-name="Aring" unicode="&#xc5;" horiz-adv-x="690" 
d="M344 912q42 0 69 -26.5t27 -66.5t-27 -67t-69 -27t-69 27t-27 67t27 66.5t69 26.5zM344 859q-16 0 -27.5 -11.5t-11.5 -28.5t11.5 -28.5t27.5 -11.5q17 0 28.5 11.5t11.5 28.5t-11.5 28.5t-28.5 11.5zM673 0h-100l-74 185h-309l-73 -185h-100l281 700h94zM331 545
l-110 -275h247l-111 275l-13 38z" />
    <glyph glyph-name="AE" unicode="&#xc6;" horiz-adv-x="929" 
d="M883 615h-295v-212h259v-85h-259v-233h295v-85h-386v188h-253l-127 -188h-107l460 700h413v-85zM476 545l-182 -277h203v315z" />
    <glyph glyph-name="Ccedilla" unicode="&#xc7;" horiz-adv-x="726" 
d="M697 211q-28 -102 -102 -160.5t-188 -63.5l-11 -45h3q39 0 63.5 -22.5t24.5 -60.5q0 -42 -29 -65.5t-76 -23.5q-58 0 -91 36l32 44q22 -26 61 -26q45 0 45 34q0 35 -42 35q-13 0 -33 -5l-22 9l23 91q-140 11 -228 112.5t-88 249.5q0 157 97.5 260t248.5 103
q121 0 201 -58.5t110 -162.5h-101q-49 136 -210 136q-110 0 -180.5 -78.5t-70.5 -199.5q0 -120 70.5 -199t181.5 -79q83 0 137 38t76 101h98z" />
    <glyph glyph-name="Egrave" unicode="&#xc8;" horiz-adv-x="508" 
d="M331 732h-96l-132 109h132zM462 615h-294v-212h259v-85h-259v-233h294v-85h-385v700h385v-85z" />
    <glyph glyph-name="Eacute" unicode="&#xc9;" horiz-adv-x="508" 
d="M316 732h-97l97 109h131zM462 615h-294v-212h259v-85h-259v-233h294v-85h-385v700h385v-85z" />
    <glyph glyph-name="Ecircumflex" unicode="&#xca;" horiz-adv-x="508" 
d="M450 731h-109l-63 55l-62 -55h-108l143 113h56zM462 615h-294v-212h259v-85h-259v-233h294v-85h-385v700h385v-85z" />
    <glyph glyph-name="Edieresis" unicode="&#xcb;" horiz-adv-x="508" 
d="M184 840q23 0 38.5 -15.5t15.5 -38.5q0 -22 -16 -38t-38 -16q-23 0 -39 15.5t-16 38.5t16 38.5t39 15.5zM371 840q23 0 39 -15.5t16 -38.5t-16 -38.5t-39 -15.5t-38.5 16t-15.5 38q0 23 15.5 38.5t38.5 15.5zM462 615h-294v-212h259v-85h-259v-233h294v-85h-385v700h385
v-85z" />
    <glyph glyph-name="Igrave" unicode="&#xcc;" horiz-adv-x="245" 
d="M175 732h-96l-132 109h132zM168 0h-91v700h91v-700z" />
    <glyph glyph-name="Iacute" unicode="&#xcd;" horiz-adv-x="245" 
d="M160 732h-97l97 109h131zM168 0h-91v700h91v-700z" />
    <glyph glyph-name="Icircumflex" unicode="&#xce;" horiz-adv-x="245" 
d="M294 731h-109l-63 55l-62 -55h-108l143 113h56zM168 0h-91v700h91v-700z" />
    <glyph glyph-name="Idieresis" unicode="&#xcf;" horiz-adv-x="245" 
d="M28 840q23 0 38.5 -15.5t15.5 -38.5q0 -22 -16 -38t-38 -16q-23 0 -39 15.5t-16 38.5t16 38.5t39 15.5zM215 840q23 0 39 -15.5t16 -38.5t-16 -38.5t-39 -15.5t-38.5 16t-15.5 38q0 23 15.5 38.5t38.5 15.5zM168 0h-91v700h91v-700z" />
    <glyph glyph-name="Eth" unicode="&#xd0;" horiz-adv-x="736" 
d="M338 700q162 0 258.5 -96t96.5 -254t-96.5 -254t-258.5 -96h-252v318h-86v70h86v312h252zM338 85q121 0 191.5 70.5t70.5 194.5t-70 194.5t-192 70.5h-161v-227h131v-70h-131v-233h161z" />
    <glyph glyph-name="Ntilde" unicode="&#xd1;" horiz-adv-x="709" 
d="M295 857q28 0 48.5 -10.5t30 -23t22.5 -23t27 -10.5q39 0 39 58h58q0 -55 -26.5 -88.5t-77.5 -33.5q-28 0 -48.5 10.5t-30 23.5t-22.5 23.5t-27 10.5q-39 0 -39 -59h-58q0 56 26.5 89t77.5 33zM633 0h-90l-348 502l-27 43v-545h-91v700h89l346 -500l30 -46v546h91v-700z
" />
    <glyph glyph-name="Ograve" unicode="&#xd2;" horiz-adv-x="793" 
d="M450 742h-96l-132 109h132zM397 713q155 0 256 -103t101 -259q0 -157 -101 -260.5t-256 -103.5q-156 0 -257 103.5t-101 260.5q0 156 101 259t257 103zM397 628q-116 0 -189.5 -78.5t-73.5 -198.5q0 -121 73.5 -200t189.5 -79q115 0 188.5 79t73.5 200q0 120 -73.5 198.5
t-188.5 78.5z" />
    <glyph glyph-name="Oacute" unicode="&#xd3;" horiz-adv-x="793" 
d="M435 742h-97l97 109h131zM397 713q155 0 256 -103t101 -259q0 -157 -101 -260.5t-256 -103.5q-156 0 -257 103.5t-101 260.5q0 156 101 259t257 103zM397 628q-116 0 -189.5 -78.5t-73.5 -198.5q0 -121 73.5 -200t189.5 -79q115 0 188.5 79t73.5 200q0 120 -73.5 198.5
t-188.5 78.5z" />
    <glyph glyph-name="Ocircumflex" unicode="&#xd4;" horiz-adv-x="793" 
d="M569 741h-109l-63 55l-62 -55h-108l143 113h56zM397 713q155 0 256 -103t101 -259q0 -157 -101 -260.5t-256 -103.5q-156 0 -257 103.5t-101 260.5q0 156 101 259t257 103zM397 628q-116 0 -189.5 -78.5t-73.5 -198.5q0 -121 73.5 -200t189.5 -79q115 0 188.5 79
t73.5 200q0 120 -73.5 198.5t-188.5 78.5z" />
    <glyph glyph-name="Otilde" unicode="&#xd5;" horiz-adv-x="793" 
d="M337 867q28 0 48.5 -10.5t30 -23t22.5 -23t27 -10.5q39 0 39 58h58q0 -55 -26.5 -88.5t-77.5 -33.5q-28 0 -48.5 10.5t-30 23.5t-22.5 23.5t-27 10.5q-39 0 -39 -59h-58q0 56 26.5 89t77.5 33zM397 713q155 0 256 -103t101 -259q0 -157 -101 -260.5t-256 -103.5
q-156 0 -257 103.5t-101 260.5q0 156 101 259t257 103zM397 628q-116 0 -189.5 -78.5t-73.5 -198.5q0 -121 73.5 -200t189.5 -79q115 0 188.5 79t73.5 200q0 120 -73.5 198.5t-188.5 78.5z" />
    <glyph glyph-name="Odieresis" unicode="&#xd6;" horiz-adv-x="793" 
d="M303 850q23 0 38.5 -15.5t15.5 -38.5q0 -22 -15.5 -38t-38.5 -16t-39 15.5t-16 38.5t16 38.5t39 15.5zM490 850q23 0 39 -15.5t16 -38.5t-16 -38.5t-39 -15.5q-22 0 -38 16t-16 38q0 23 15.5 38.5t38.5 15.5zM397 713q155 0 256 -103t101 -259q0 -157 -101 -260.5
t-256 -103.5q-156 0 -257 103.5t-101 260.5q0 156 101 259t257 103zM397 628q-116 0 -189.5 -78.5t-73.5 -198.5q0 -121 73.5 -200t189.5 -79q115 0 188.5 79t73.5 200q0 120 -73.5 198.5t-188.5 78.5z" />
    <glyph glyph-name="multiply" unicode="&#xd7;" horiz-adv-x="417" 
d="M391 476l-127 -127l127 -127l-56 -55l-126 127l-127 -127l-56 56l127 127l-127 127l55 55l127 -126l127 126z" />
    <glyph glyph-name="Oslash" unicode="&#xd8;" horiz-adv-x="793" 
d="M608 648q69 -48 107.5 -125.5t38.5 -171.5q0 -157 -101 -260.5t-256 -103.5q-77 0 -144 28l-47 -84l-71 34l49 88q-68 48 -106.5 126t-38.5 172q0 156 101 259t257 103q77 0 142 -27l45 80l71 -34zM134 351q0 -140 94 -220l268 479q-45 18 -99 18q-116 0 -189.5 -78.5
t-73.5 -198.5zM397 72q115 0 188.5 79t73.5 200q0 140 -95 219l-268 -479q48 -19 101 -19z" />
    <glyph glyph-name="Ugrave" unicode="&#xd9;" horiz-adv-x="685" 
d="M396 732h-96l-132 109h132zM617 277q0 -141 -71.5 -215.5t-202.5 -74.5t-203 74.5t-72 215.5v423h91v-423q0 -205 184 -205q90 0 136.5 52t46.5 153v423h91v-423z" />
    <glyph glyph-name="Uacute" unicode="&#xda;" horiz-adv-x="685" 
d="M381 732h-97l97 109h131zM617 277q0 -141 -71.5 -215.5t-202.5 -74.5t-203 74.5t-72 215.5v423h91v-423q0 -205 184 -205q90 0 136.5 52t46.5 153v423h91v-423z" />
    <glyph glyph-name="Ucircumflex" unicode="&#xdb;" horiz-adv-x="685" 
d="M515 731h-109l-63 55l-62 -55h-108l143 113h56zM617 277q0 -141 -71.5 -215.5t-202.5 -74.5t-203 74.5t-72 215.5v423h91v-423q0 -205 184 -205q90 0 136.5 52t46.5 153v423h91v-423z" />
    <glyph glyph-name="Udieresis" unicode="&#xdc;" horiz-adv-x="685" 
d="M249 840q23 0 38.5 -15.5t15.5 -38.5q0 -22 -15.5 -38t-38.5 -16t-39 15.5t-16 38.5t16 38.5t39 15.5zM436 840q23 0 39 -15.5t16 -38.5t-16 -38.5t-39 -15.5q-22 0 -38 16t-16 38q0 23 15.5 38.5t38.5 15.5zM617 277q0 -141 -71.5 -215.5t-202.5 -74.5t-203 74.5
t-72 215.5v423h91v-423q0 -205 184 -205q90 0 136.5 52t46.5 153v423h91v-423z" />
    <glyph glyph-name="Yacute" unicode="&#xdd;" horiz-adv-x="672" 
d="M373 732h-97l97 109h131zM382 265v-265h-92v265l-277 435h107l189 -294l26 -47l27 47l190 294h107z" />
    <glyph glyph-name="Thorn" unicode="&#xde;" horiz-adv-x="561" 
d="M168 589h132q103 0 163.5 -55t60.5 -146q0 -90 -60.5 -145t-163.5 -55h-132v-188h-91v700h91v-111zM168 503v-229h132q61 0 96.5 30t35.5 84t-35.5 84.5t-96.5 30.5h-132z" />
    <glyph glyph-name="germandbls" unicode="&#xdf;" horiz-adv-x="552" 
d="M275 652q-109 0 -109 -119v-29h330v-69l-147 -221q91 -10 144 -70t53 -141q0 -104 -60 -163.5t-175 -59.5q-41 0 -83 8l4 87q44 -11 72 -11q71 0 111 35t40 103q0 64 -44 100t-117 36h-47v59l149 227h-230v-424h-90v531q0 204 199 204v-83z" />
    <glyph glyph-name="agrave" unicode="&#xe0;" horiz-adv-x="492" 
d="M292 574h-82l-143 158h113zM247 515q85 0 132.5 -47t47.5 -134v-334h-78l-4 69q-20 -36 -60 -58t-93 -22q-67 0 -107 38.5t-40 103.5q0 119 141 146l154 29v25q0 104 -93 104q-44 0 -73.5 -24t-29.5 -68h-85q2 74 54 123t134 49zM202 201q-33 -8 -51.5 -23t-18.5 -46
q0 -30 20 -46.5t57 -16.5q66 0 102 50q29 39 29 93v19z" />
    <glyph glyph-name="aacute" unicode="&#xe1;" horiz-adv-x="492" 
d="M281 574h-82l111 158h114zM247 515q85 0 132.5 -47t47.5 -134v-334h-78l-4 69q-20 -36 -60 -58t-93 -22q-67 0 -107 38.5t-40 103.5q0 119 141 146l154 29v25q0 104 -93 104q-44 0 -73.5 -24t-29.5 -68h-85q2 74 54 123t134 49zM202 201q-33 -8 -51.5 -23t-18.5 -46
q0 -30 20 -46.5t57 -16.5q66 0 102 50q29 39 29 93v19z" />
    <glyph glyph-name="acircumflex" unicode="&#xe2;" horiz-adv-x="492" 
d="M412 574h-96l-68 92l-68 -92h-96l136 158h56zM247 515q85 0 132.5 -47t47.5 -134v-334h-78l-4 69q-20 -36 -60 -58t-93 -22q-67 0 -107 38.5t-40 103.5q0 119 141 146l154 29v25q0 104 -93 104q-44 0 -73.5 -24t-29.5 -68h-85q2 74 54 123t134 49zM202 201
q-33 -8 -51.5 -23t-18.5 -46q0 -30 20 -46.5t57 -16.5q66 0 102 50q29 39 29 93v19z" />
    <glyph glyph-name="atilde" unicode="&#xe3;" horiz-adv-x="492" 
d="M188 706q28 0 48.5 -11.5t29.5 -25t22 -25t28 -11.5q39 0 39 64h58q0 -58 -26.5 -93t-77.5 -35q-28 0 -48.5 11.5t-29.5 25.5t-22 25.5t-28 11.5q-39 0 -39 -65h-58q0 59 26.5 93.5t77.5 34.5zM247 515q85 0 132.5 -47t47.5 -134v-334h-78l-4 69q-20 -36 -60 -58t-93 -22
q-67 0 -107 38.5t-40 103.5q0 119 141 146l154 29v25q0 104 -93 104q-44 0 -73.5 -24t-29.5 -68h-85q2 74 54 123t134 49zM202 201q-33 -8 -51.5 -23t-18.5 -46q0 -30 20 -46.5t57 -16.5q66 0 102 50q29 39 29 93v19z" />
    <glyph glyph-name="adieresis" unicode="&#xe4;" horiz-adv-x="492" 
d="M154 689q22 0 38 -15.5t16 -38.5t-15.5 -38.5t-38.5 -15.5t-39 15.5t-16 38.5t16 38.5t39 15.5zM341 689q23 0 39 -15.5t16 -38.5t-16 -38.5t-39 -15.5t-38.5 15.5t-15.5 38.5t15.5 38.5t38.5 15.5zM247 515q85 0 132.5 -47t47.5 -134v-334h-78l-4 69q-20 -36 -60 -58
t-93 -22q-67 0 -107 38.5t-40 103.5q0 119 141 146l154 29v25q0 104 -93 104q-44 0 -73.5 -24t-29.5 -68h-85q2 74 54 123t134 49zM202 201q-33 -8 -51.5 -23t-18.5 -46q0 -30 20 -46.5t57 -16.5q66 0 102 50q29 39 29 93v19z" />
    <glyph glyph-name="aring" unicode="&#xe5;" horiz-adv-x="492" 
d="M248 762q47 0 76.5 -29.5t29.5 -74.5q0 -43 -29.5 -72.5t-76.5 -29.5q-45 0 -75 29.5t-30 72.5q0 45 29.5 74.5t75.5 29.5zM248 708q-21 0 -34.5 -14t-13.5 -35q0 -20 13.5 -34.5t34.5 -14.5q22 0 35.5 14.5t13.5 34.5q0 21 -13.5 35t-35.5 14zM247 515q85 0 132.5 -47
t47.5 -134v-334h-78l-4 69q-20 -36 -60 -58t-93 -22q-67 0 -107 38.5t-40 103.5q0 119 141 146l154 29v25q0 104 -93 104q-44 0 -73.5 -24t-29.5 -68h-85q2 74 54 123t134 49zM202 201q-33 -8 -51.5 -23t-18.5 -46q0 -30 20 -46.5t57 -16.5q66 0 102 50q29 39 29 93v19z" />
    <glyph glyph-name="ae" unicode="&#xe6;" horiz-adv-x="848" 
d="M812 259v-41h-382q4 -69 47 -109t108 -40q105 0 136 82h86q-23 -76 -80.5 -119t-143.5 -43q-137 0 -203 109q-61 -109 -184 -109q-71 0 -111 38.5t-40 101.5q0 61 38 97.5t103 49.5l154 30v22q0 107 -96 107q-44 0 -72 -23.5t-28 -68.5h-85q2 75 52.5 123.5t132.5 48.5
q113 0 159 -79q68 79 180 79q103 0 166 -66t63 -190zM430 295h295q-1 64 -40 102t-102 38t-104 -39t-49 -101zM340 200v31l-128 -28q-42 -9 -61 -24.5t-19 -47.5q0 -29 21 -45.5t57 -16.5q66 0 100 46q30 39 30 85z" />
    <glyph glyph-name="ccedilla" unicode="&#xe7;" horiz-adv-x="538" 
d="M504 157q-18 -75 -72 -118.5t-131 -48.5l-11 -48h3q39 0 63.5 -22.5t24.5 -60.5q0 -42 -29 -65.5t-76 -23.5q-58 0 -91 36l32 44q22 -26 61 -26q45 0 45 34q0 35 -42 35q-13 0 -33 -5l-22 9l23 94q-95 11 -155 83t-60 177q0 114 69.5 189t175.5 75q85 0 145.5 -43.5
t78.5 -124.5h-86q-15 42 -51.5 65t-85.5 23q-68 0 -112.5 -52t-44.5 -132q0 -78 45 -130t114 -52q48 0 85 24t50 64h87z" />
    <glyph glyph-name="egrave" unicode="&#xe8;" horiz-adv-x="542" 
d="M317 574h-82l-143 158h113zM506 259v-41h-382q4 -69 47 -109t108 -40q105 0 136 82h86q-23 -76 -80.5 -119t-143.5 -43q-107 0 -175 72t-68 190q0 115 67 189.5t176 74.5q103 0 166 -66t63 -190zM124 295h295q-1 64 -40 102t-102 38t-104 -39t-49 -101z" />
    <glyph glyph-name="eacute" unicode="&#xe9;" horiz-adv-x="542" 
d="M449 732l-143 -158h-82l111 158h114zM506 259v-41h-382q4 -69 47 -109t108 -40q105 0 136 82h86q-23 -76 -80.5 -119t-143.5 -43q-107 0 -175 72t-68 190q0 115 67 189.5t176 74.5q103 0 166 -66t63 -190zM124 295h295q-1 64 -40 102t-102 38t-104 -39t-49 -101z" />
    <glyph glyph-name="ecircumflex" unicode="&#xea;" horiz-adv-x="542" 
d="M273 666l-68 -92h-96l136 158h56l136 -158h-96zM506 259v-41h-382q4 -69 47 -109t108 -40q105 0 136 82h86q-23 -76 -80.5 -119t-143.5 -43q-107 0 -175 72t-68 190q0 115 67 189.5t176 74.5q103 0 166 -66t63 -190zM124 295h295q-1 64 -40 102t-102 38t-104 -39
t-49 -101z" />
    <glyph glyph-name="edieresis" unicode="&#xeb;" horiz-adv-x="542" 
d="M179 581q-23 0 -39 15.5t-16 38.5t16 38.5t39 15.5t38.5 -15.5t15.5 -38.5t-15.5 -38.5t-38.5 -15.5zM366 581q-23 0 -38.5 15.5t-15.5 38.5t16 38.5t38 15.5q23 0 39 -15.5t16 -38.5t-16 -38.5t-39 -15.5zM506 259v-41h-382q4 -69 47 -109t108 -40q105 0 136 82h86
q-23 -76 -80.5 -119t-143.5 -43q-107 0 -175 72t-68 190q0 115 67 189.5t176 74.5q103 0 166 -66t63 -190zM124 295h295q-1 64 -40 102t-102 38t-104 -39t-49 -101z" />
    <glyph glyph-name="igrave" unicode="&#xec;" horiz-adv-x="242" 
d="M165 574h-82l-143 158h113zM164 0h-86v504h86v-504z" />
    <glyph glyph-name="iacute" unicode="&#xed;" horiz-adv-x="242" 
d="M154 574h-82l111 158h114zM164 0h-86v504h86v-504z" />
    <glyph glyph-name="icircumflex" unicode="&#xee;" horiz-adv-x="242" 
d="M285 574h-96l-68 92l-68 -92h-96l136 158h56zM164 0h-86v504h86v-504z" />
    <glyph glyph-name="idieresis" unicode="&#xef;" horiz-adv-x="242" 
d="M27 689q23 0 38.5 -15.5t15.5 -38.5t-15.5 -38.5t-38.5 -15.5t-39 15.5t-16 38.5t16 38.5t39 15.5zM214 689q23 0 39 -15.5t16 -38.5t-16 -38.5t-39 -15.5t-38.5 15.5t-15.5 38.5t16 38.5t38 15.5zM164 0h-86v504h86v-504z" />
    <glyph glyph-name="eth" unicode="&#xf0;" horiz-adv-x="555" 
d="M454 401q64 -80 64 -170q0 -106 -67.5 -174t-172.5 -68q-106 0 -173 68t-67 174q0 105 67 173t173 68h13l-64 80h-156v78h94l-79 100h107l79 -100h153v-78h-91zM278 68q68 0 110.5 46t42.5 117q0 65 -44 119l-3 3q-40 40 -106 40q-68 0 -110.5 -45.5t-42.5 -116.5
t42.5 -117t110.5 -46z" />
    <glyph glyph-name="ntilde" unicode="&#xf1;" horiz-adv-x="530" 
d="M222 706q28 0 48.5 -11.5t29.5 -25t22 -25t28 -11.5q39 0 39 64h58q0 -58 -26.5 -93t-77.5 -35q-28 0 -48.5 11.5t-29.5 25.5t-22 25.5t-28 11.5q-39 0 -39 -65h-58q0 59 26.5 93.5t77.5 34.5zM299 515q79 0 121.5 -51.5t42.5 -137.5v-326h-87v312q0 58 -26 88.5
t-72 30.5q-51 0 -84 -43t-33 -118v-270h-86v504h77l5 -69q42 80 142 80z" />
    <glyph glyph-name="ograve" unicode="&#xf2;" horiz-adv-x="580" 
d="M334 574h-82l-143 158h113zM290 515q112 0 183.5 -74t71.5 -189t-71.5 -189t-183.5 -74q-113 0 -184.5 74t-71.5 189t71.5 189t184.5 74zM291 435q-75 0 -121.5 -51.5t-46.5 -131.5q0 -79 46.5 -131t121.5 -52q74 0 119.5 52t45.5 131q0 80 -45.5 131.5t-119.5 51.5z" />
    <glyph glyph-name="oacute" unicode="&#xf3;" horiz-adv-x="580" 
d="M323 574h-82l111 158h114zM290 515q112 0 183.5 -74t71.5 -189t-71.5 -189t-183.5 -74q-113 0 -184.5 74t-71.5 189t71.5 189t184.5 74zM291 435q-75 0 -121.5 -51.5t-46.5 -131.5q0 -79 46.5 -131t121.5 -52q74 0 119.5 52t45.5 131q0 80 -45.5 131.5t-119.5 51.5z" />
    <glyph glyph-name="ocircumflex" unicode="&#xf4;" horiz-adv-x="580" 
d="M454 574h-96l-68 92l-68 -92h-96l136 158h56zM290 515q112 0 183.5 -74t71.5 -189t-71.5 -189t-183.5 -74q-113 0 -184.5 74t-71.5 189t71.5 189t184.5 74zM291 435q-75 0 -121.5 -51.5t-46.5 -131.5q0 -79 46.5 -131t121.5 -52q74 0 119.5 52t45.5 131q0 80 -45.5 131.5
t-119.5 51.5z" />
    <glyph glyph-name="otilde" unicode="&#xf5;" horiz-adv-x="580" 
d="M230 706q28 0 48.5 -11.5t29.5 -25t22 -25t28 -11.5q39 0 39 64h58q0 -58 -26.5 -93t-77.5 -35q-28 0 -48.5 11.5t-29.5 25.5t-22 25.5t-28 11.5q-39 0 -39 -65h-58q0 59 26.5 93.5t77.5 34.5zM290 515q112 0 183.5 -74t71.5 -189t-71.5 -189t-183.5 -74
q-113 0 -184.5 74t-71.5 189t71.5 189t184.5 74zM291 435q-75 0 -121.5 -51.5t-46.5 -131.5q0 -79 46.5 -131t121.5 -52q74 0 119.5 52t45.5 131q0 80 -45.5 131.5t-119.5 51.5z" />
    <glyph glyph-name="odieresis" unicode="&#xf6;" horiz-adv-x="580" 
d="M196 689q22 0 38 -15.5t16 -38.5t-15.5 -38.5t-38.5 -15.5t-39 15.5t-16 38.5t16 38.5t39 15.5zM383 689q23 0 39 -15.5t16 -38.5t-16 -38.5t-39 -15.5t-38.5 15.5t-15.5 38.5t15.5 38.5t38.5 15.5zM290 515q112 0 183.5 -74t71.5 -189t-71.5 -189t-183.5 -74
q-113 0 -184.5 74t-71.5 189t71.5 189t184.5 74zM291 435q-75 0 -121.5 -51.5t-46.5 -131.5q0 -79 46.5 -131t121.5 -52q74 0 119.5 52t45.5 131q0 80 -45.5 131.5t-119.5 51.5z" />
    <glyph glyph-name="divide" unicode="&#xf7;" horiz-adv-x="470" 
d="M228 591q25 0 42.5 -17t17.5 -42t-17.5 -41.5t-42.5 -16.5t-42 16.5t-17 41.5t17 42t42 17zM441 311h-412v78h412v-78zM228 226q25 0 42.5 -17t17.5 -42t-17.5 -41.5t-42.5 -16.5t-42 16.5t-17 41.5t17 42t42 17z" />
    <glyph glyph-name="oslash" unicode="&#xf8;" horiz-adv-x="580" 
d="M440 469q105 -73 105 -217q0 -115 -71.5 -189t-183.5 -74q-52 0 -97 17l-41 -76l-54 24l42 79q-106 74 -106 219q0 115 71.5 189t184.5 74q54 0 99 -18l40 76l54 -24zM123 252q0 -90 58 -143l169 316q-30 10 -59 10q-75 0 -121.5 -51.5t-46.5 -131.5zM291 69
q74 0 119.5 52t45.5 131q0 91 -56 142l-168 -315q30 -10 59 -10z" />
    <glyph glyph-name="ugrave" unicode="&#xf9;" 
d="M307 574h-82l-143 158h113zM451 0h-77l-5 69q-38 -80 -139 -80q-79 0 -120.5 51t-41.5 138v326h86v-312q0 -59 25 -89.5t71 -30.5q50 0 82.5 40.5t32.5 111.5v280h86v-504z" />
    <glyph glyph-name="uacute" unicode="&#xfa;" 
d="M296 574h-82l111 158h114zM451 0h-77l-5 69q-38 -80 -139 -80q-79 0 -120.5 51t-41.5 138v326h86v-312q0 -59 25 -89.5t71 -30.5q50 0 82.5 40.5t32.5 111.5v280h86v-504z" />
    <glyph glyph-name="ucircumflex" unicode="&#xfb;" 
d="M427 574h-96l-68 92l-68 -92h-96l136 158h56zM451 0h-77l-5 69q-38 -80 -139 -80q-79 0 -120.5 51t-41.5 138v326h86v-312q0 -59 25 -89.5t71 -30.5q50 0 82.5 40.5t32.5 111.5v280h86v-504z" />
    <glyph glyph-name="udieresis" unicode="&#xfc;" 
d="M169 689q23 0 38.5 -15.5t15.5 -38.5t-15.5 -38.5t-38.5 -15.5t-39 15.5t-16 38.5t16 38.5t39 15.5zM356 689q23 0 39 -15.5t16 -38.5t-16 -38.5t-39 -15.5t-38.5 15.5t-15.5 38.5t16 38.5t38 15.5zM451 0h-77l-5 69q-38 -80 -139 -80q-79 0 -120.5 51t-41.5 138v326h86
v-312q0 -59 25 -89.5t71 -30.5q50 0 82.5 40.5t32.5 111.5v280h86v-504z" />
    <glyph glyph-name="yacute" unicode="&#xfd;" horiz-adv-x="502" 
d="M283 574h-82l111 158h114zM211 -215h-91l84 222l-189 497h92l133 -362l10 -38l10 38l133 362h93z" />
    <glyph glyph-name="thorn" unicode="&#xfe;" horiz-adv-x="607" 
d="M169 436q57 79 169 79q105 0 169.5 -74.5t64.5 -188.5q0 -113 -65.5 -188t-169.5 -75q-114 0 -168 80v-284h-87v945h87v-294zM325 433q-65 0 -111 -44t-47 -121v-27q0 -79 46 -125t111 -46q70 0 114.5 51t44.5 131t-43.5 130.5t-114.5 50.5z" />
    <glyph glyph-name="ydieresis" unicode="&#xff;" horiz-adv-x="502" 
d="M156 689q22 0 38 -15.5t16 -38.5t-15.5 -38.5t-38.5 -15.5t-39 15.5t-16 38.5t16 38.5t39 15.5zM343 689q23 0 39 -15.5t16 -38.5t-16 -38.5t-39 -15.5t-38.5 15.5t-15.5 38.5t15.5 38.5t38.5 15.5zM211 -215h-91l84 222l-189 497h92l133 -362l10 -38l10 38l133 362h93z
" />
    <glyph glyph-name="Amacron" unicode="&#x100;" horiz-adv-x="690" 
d="M475 740h-262v71h262v-71zM673 0h-100l-74 185h-309l-73 -185h-100l281 700h94zM331 545l-110 -275h247l-111 275l-13 38z" />
    <glyph glyph-name="amacron" unicode="&#x101;" horiz-adv-x="492" 
d="M379 595h-262v71h262v-71zM247 515q85 0 132.5 -47t47.5 -134v-334h-78l-4 69q-20 -36 -60 -58t-93 -22q-67 0 -107 38.5t-40 103.5q0 119 141 146l154 29v25q0 104 -93 104q-44 0 -73.5 -24t-29.5 -68h-85q2 74 54 123t134 49zM202 201q-33 -8 -51.5 -23t-18.5 -46
q0 -30 20 -46.5t57 -16.5q66 0 102 50q29 39 29 93v19z" />
    <glyph glyph-name="Abreve" unicode="&#x102;" horiz-adv-x="690" 
d="M488 852q0 -55 -40 -89t-104 -34q-65 0 -104.5 34t-39.5 89h74q0 -28 18.5 -44.5t51.5 -16.5q32 0 50.5 16.5t18.5 44.5h75zM673 0h-100l-74 185h-309l-73 -185h-100l281 700h94zM331 545l-110 -275h247l-111 275l-13 38z" />
    <glyph glyph-name="abreve" unicode="&#x103;" horiz-adv-x="492" 
d="M392 708q0 -61 -40 -100t-104 -39t-104 39t-40 100h74q0 -33 19 -55.5t51 -22.5q31 0 50.5 22.5t19.5 55.5h74zM247 515q85 0 132.5 -47t47.5 -134v-334h-78l-4 69q-20 -36 -60 -58t-93 -22q-67 0 -107 38.5t-40 103.5q0 119 141 146l154 29v25q0 104 -93 104
q-44 0 -73.5 -24t-29.5 -68h-85q2 74 54 123t134 49zM202 201q-33 -8 -51.5 -23t-18.5 -46q0 -30 20 -46.5t57 -16.5q66 0 102 50q29 39 29 93v19z" />
    <glyph glyph-name="Aogonek" unicode="&#x104;" horiz-adv-x="690" 
d="M683 -132l14 -54q-21 -12 -59 -12q-49 0 -81 30t-32 81q0 57 46 93l-72 179h-309l-73 -185h-100l281 700h94l281 -700h-23q-64 -29 -64 -85q0 -26 14.5 -41t39.5 -15q28 0 43 9zM221 270h247l-111 275l-13 38l-13 -38z" />
    <glyph glyph-name="aogonek" unicode="&#x105;" horiz-adv-x="492" 
d="M454 -132l14 -54q-21 -12 -59 -12q-49 0 -81 30t-32 81q0 59 52 98l-3 58q-20 -36 -60 -58t-93 -22q-67 0 -107 38.5t-40 103.5q0 119 141 146l154 29v25q0 104 -93 104q-44 0 -73.5 -24t-29.5 -68h-85q2 74 54 123t134 49q85 0 132.5 -47t47.5 -134v-334h-6
q-64 -29 -64 -85q0 -26 14.5 -41t39.5 -15q28 0 43 9zM340 212v19l-138 -30q-33 -8 -51.5 -23t-18.5 -46q0 -30 20 -46.5t57 -16.5q66 0 102 50q29 39 29 93z" />
    <glyph glyph-name="Cacute" unicode="&#x106;" horiz-adv-x="726" 
d="M423 742h-97l97 109h131zM385 713q121 0 201 -58.5t110 -162.5h-101q-49 136 -210 136q-110 0 -180.5 -78.5t-70.5 -199.5q0 -120 70.5 -199t181.5 -79q83 0 137 38t76 101h98q-30 -107 -109.5 -165.5t-201.5 -58.5q-152 0 -249.5 103t-97.5 260t97.5 260t248.5 103z" />
    <glyph glyph-name="cacute" unicode="&#x107;" horiz-adv-x="538" 
d="M312 574h-82l111 158h114zM279 515q85 0 145.5 -43.5t78.5 -124.5h-86q-15 42 -51.5 65t-85.5 23q-68 0 -112.5 -52t-44.5 -132q0 -78 45 -130t114 -52q48 0 85 24t50 64h87q-20 -81 -80.5 -124.5t-144.5 -43.5q-107 0 -176 74t-69 188t69.5 189t175.5 75z" />
    <glyph glyph-name="Ccircumflex" unicode="&#x108;" horiz-adv-x="726" 
d="M557 741h-109l-63 55l-62 -55h-108l143 113h56zM385 713q121 0 201 -58.5t110 -162.5h-101q-49 136 -210 136q-110 0 -180.5 -78.5t-70.5 -199.5q0 -120 70.5 -199t181.5 -79q83 0 137 38t76 101h98q-30 -107 -109.5 -165.5t-201.5 -58.5q-152 0 -249.5 103t-97.5 260
t97.5 260t248.5 103z" />
    <glyph glyph-name="ccircumflex" unicode="&#x109;" horiz-adv-x="538" 
d="M443 574h-96l-68 92l-68 -92h-96l136 158h56zM279 515q85 0 145.5 -43.5t78.5 -124.5h-86q-15 42 -51.5 65t-85.5 23q-68 0 -112.5 -52t-44.5 -132q0 -78 45 -130t114 -52q48 0 85 24t50 64h87q-20 -81 -80.5 -124.5t-144.5 -43.5q-107 0 -176 74t-69 188t69.5 189
t175.5 75z" />
    <glyph glyph-name="Cdotaccent" unicode="&#x10a;" horiz-adv-x="726" 
d="M385 854q23 0 39.5 -16t16.5 -39q0 -24 -16.5 -40t-39.5 -16q-24 0 -40.5 16t-16.5 40q0 23 16.5 39t40.5 16zM385 713q121 0 201 -58.5t110 -162.5h-101q-49 136 -210 136q-110 0 -180.5 -78.5t-70.5 -199.5q0 -120 70.5 -199t181.5 -79q83 0 137 38t76 101h98
q-30 -107 -109.5 -165.5t-201.5 -58.5q-152 0 -249.5 103t-97.5 260t97.5 260t248.5 103z" />
    <glyph glyph-name="cdotaccent" unicode="&#x10b;" horiz-adv-x="538" 
d="M279 702q25 0 42.5 -17t17.5 -42q0 -24 -17.5 -41t-42.5 -17t-42 17t-17 41q0 25 17 42t42 17zM279 515q85 0 145.5 -43.5t78.5 -124.5h-86q-15 42 -51.5 65t-85.5 23q-68 0 -112.5 -52t-44.5 -132q0 -78 45 -130t114 -52q48 0 85 24t50 64h87q-20 -81 -80.5 -124.5
t-144.5 -43.5q-107 0 -176 74t-69 188t69.5 189t175.5 75z" />
    <glyph glyph-name="Ccaron" unicode="&#x10c;" horiz-adv-x="726" 
d="M414 738h-56l-143 113h108l62 -55l63 55h109zM385 713q121 0 201 -58.5t110 -162.5h-101q-49 136 -210 136q-110 0 -180.5 -78.5t-70.5 -199.5q0 -120 70.5 -199t181.5 -79q83 0 137 38t76 101h98q-30 -107 -109.5 -165.5t-201.5 -58.5q-152 0 -249.5 103t-97.5 260
t97.5 260t248.5 103z" />
    <glyph glyph-name="ccaron" unicode="&#x10d;" horiz-adv-x="538" 
d="M307 563h-56l-136 158h96l68 -92l68 92h96zM279 515q85 0 145.5 -43.5t78.5 -124.5h-86q-15 42 -51.5 65t-85.5 23q-68 0 -112.5 -52t-44.5 -132q0 -78 45 -130t114 -52q48 0 85 24t50 64h87q-20 -81 -80.5 -124.5t-144.5 -43.5q-107 0 -176 74t-69 188t69.5 189
t175.5 75z" />
    <glyph glyph-name="Dcaron" unicode="&#x10e;" horiz-adv-x="727" 
d="M361 728h-56l-143 113h108l62 -55l63 55h109zM329 700q162 0 258.5 -96t96.5 -254t-96.5 -254t-258.5 -96h-252v700h252zM168 615v-530h161q121 0 191.5 70.5t70.5 194.5t-70 194.5t-192 70.5h-161z" />
    <glyph glyph-name="dcaron" unicode="&#x10f;" horiz-adv-x="599" 
d="M524 0h-77l-5 74q-59 -85 -173 -85q-105 0 -170 74.5t-65 188.5q0 113 65.5 188t170.5 75q116 0 168 -80v295h86v-730zM658 724q26 0 43.5 -18t17.5 -47q0 -93 -73 -177l-28 11q28 52 35 113q-24 2 -39.5 18t-15.5 40q0 25 17.5 42.5t42.5 17.5zM283 433
q-70 0 -115 -50.5t-45 -130.5q0 -81 43.5 -131.5t115.5 -50.5q64 0 110.5 49t46.5 128v5q0 81 -46.5 131t-109.5 50z" />
    <glyph glyph-name="Dcroat" unicode="&#x110;" horiz-adv-x="736" 
d="M338 700q162 0 258.5 -96t96.5 -254t-96.5 -254t-258.5 -96h-252v318h-86v70h86v312h252zM338 85q121 0 191.5 70.5t70.5 194.5t-70 194.5t-192 70.5h-161v-227h131v-70h-131v-233h161z" />
    <glyph glyph-name="dcroat" unicode="&#x111;" horiz-adv-x="604" 
d="M600 670v-68h-76v-602h-77l-5 74q-59 -85 -173 -85q-105 0 -170 74.5t-65 188.5q0 113 65.5 188t170.5 75q116 0 168 -80v167h-104v68h104v60h86v-60h76zM439 247v5q0 81 -46.5 131t-109.5 50q-70 0 -115 -50.5t-45 -130.5q0 -81 43.5 -131.5t115.5 -50.5q64 0 110.5 49
t46.5 128z" />
    <glyph glyph-name="Emacron" unicode="&#x112;" horiz-adv-x="508" 
d="M409 740h-262v71h262v-71zM462 615h-294v-212h259v-85h-259v-233h294v-85h-385v700h385v-85z" />
    <glyph glyph-name="emacron" unicode="&#x113;" horiz-adv-x="542" 
d="M404 666v-71h-262v71h262zM506 259v-41h-382q4 -69 47 -109t108 -40q105 0 136 82h86q-23 -76 -80.5 -119t-143.5 -43q-107 0 -175 72t-68 190q0 115 67 189.5t176 74.5q103 0 166 -66t63 -190zM124 295h295q-1 64 -40 102t-102 38t-104 -39t-49 -101z" />
    <glyph glyph-name="Ebreve" unicode="&#x114;" horiz-adv-x="508" 
d="M422 852q0 -55 -40 -89t-104 -34q-65 0 -104.5 34t-39.5 89h74q0 -28 18.5 -44.5t51.5 -16.5q32 0 50.5 16.5t18.5 44.5h75zM462 615h-294v-212h259v-85h-259v-233h294v-85h-385v700h385v-85z" />
    <glyph glyph-name="ebreve" unicode="&#x115;" horiz-adv-x="542" 
d="M273 569q-64 0 -104 39t-40 100h74q0 -33 19 -55.5t51 -22.5q31 0 50.5 22.5t19.5 55.5h74q0 -61 -40 -100t-104 -39zM506 259v-41h-382q4 -69 47 -109t108 -40q105 0 136 82h86q-23 -76 -80.5 -119t-143.5 -43q-107 0 -175 72t-68 190q0 115 67 189.5t176 74.5
q103 0 166 -66t63 -190zM124 295h295q-1 64 -40 102t-102 38t-104 -39t-49 -101z" />
    <glyph glyph-name="Edotaccent" unicode="&#x116;" horiz-adv-x="508" 
d="M278 844q23 0 39.5 -16t16.5 -39q0 -24 -16.5 -40t-39.5 -16q-24 0 -40.5 16t-16.5 40q0 23 16.5 39t40.5 16zM462 615h-294v-212h259v-85h-259v-233h294v-85h-385v700h385v-85z" />
    <glyph glyph-name="edotaccent" unicode="&#x117;" horiz-adv-x="542" 
d="M273 585q-25 0 -42 17t-17 41q0 25 17 42t42 17t42.5 -17t17.5 -42q0 -24 -17.5 -41t-42.5 -17zM506 259v-41h-382q4 -69 47 -109t108 -40q105 0 136 82h86q-23 -76 -80.5 -119t-143.5 -43q-107 0 -175 72t-68 190q0 115 67 189.5t176 74.5q103 0 166 -66t63 -190z
M124 295h295q-1 64 -40 102t-102 38t-104 -39t-49 -101z" />
    <glyph glyph-name="Eogonek" unicode="&#x118;" horiz-adv-x="508" 
d="M464 -132l14 -54q-21 -12 -59 -12q-49 0 -81 30t-32 81q0 53 39 87h-268v700h385v-85h-294v-212h259v-85h-259v-233h294v-85h-31q-64 -29 -64 -85q0 -26 14.5 -41t39.5 -15q28 0 43 9z" />
    <glyph glyph-name="eogonek" unicode="&#x119;" horiz-adv-x="542" 
d="M506 259v-41h-382q4 -69 47 -109t108 -40q105 0 136 82h86q-25 -81 -87 -123l1 -1l-6 -3q-3 -2 -9 -5t-9 -5q-40 -27 -40 -72q0 -26 14.5 -41t39.5 -15q28 0 43 9l14 -54q-21 -12 -59 -12q-49 0 -81 30t-32 81q0 26 11 50q-8 -1 -24 -1q-107 0 -175 72t-68 190
q0 115 67 189.5t176 74.5q103 0 166 -66t63 -190zM124 295h295q-1 64 -40 102t-102 38t-104 -39t-49 -101z" />
    <glyph glyph-name="Ecaron" unicode="&#x11a;" horiz-adv-x="508" 
d="M307 728h-56l-143 113h108l62 -55l63 55h109zM462 615h-294v-212h259v-85h-259v-233h294v-85h-385v700h385v-85z" />
    <glyph glyph-name="ecaron" unicode="&#x11b;" horiz-adv-x="542" 
d="M301 563h-56l-136 158h96l68 -92l68 92h96zM506 259v-41h-382q4 -69 47 -109t108 -40q105 0 136 82h86q-23 -76 -80.5 -119t-143.5 -43q-107 0 -175 72t-68 190q0 115 67 189.5t176 74.5q103 0 166 -66t63 -190zM124 295h295q-1 64 -40 102t-102 38t-104 -39t-49 -101z
" />
    <glyph glyph-name="Gcircumflex" unicode="&#x11c;" horiz-adv-x="747" 
d="M557 741h-109l-63 55l-62 -55h-108l143 113h56zM385 713q121 0 201 -58.5t110 -162.5h-101q-49 136 -211 136q-110 0 -180 -78.5t-70 -199.5q0 -120 70.5 -199t182.5 -79q100 0 159.5 51t62.5 151h-210v85h306v-47q0 -152 -85 -238.5t-233 -86.5q-152 0 -250 103t-98 260
t97.5 260t248.5 103z" />
    <glyph glyph-name="gcircumflex" unicode="&#x11d;" horiz-adv-x="499" 
d="M254 666l-68 -92h-96l136 158h56l136 -158h-96zM505 504v-76h-87q24 -43 24 -94q0 -77 -53 -128t-139 -51q-62 0 -108 27q-21 -19 -21 -50q0 -24 17.5 -37.5t46.5 -13.5h134q79 0 119 -36t40 -101q0 -80 -56.5 -125t-153.5 -45q-106 0 -163 41t-57 116q0 61 55 91
q-28 14 -47.5 41.5t-19.5 63.5q0 64 52 103q-32 44 -32 104q0 79 53.5 130t140.5 51q37 0 72 -11h183zM249 231q49 0 78.5 29t29.5 74q0 46 -29.5 75.5t-78.5 29.5t-78.5 -29.5t-29.5 -75.5q0 -44 29.5 -73.5t78.5 -29.5zM206 5q-32 -2 -52.5 -19.5t-20.5 -51.5
q0 -41 35.5 -62.5t99.5 -21.5q60 0 92.5 23t32.5 67q0 65 -91 65h-96z" />
    <glyph glyph-name="Gbreve" unicode="&#x11e;" horiz-adv-x="747" 
d="M529 862q0 -55 -40 -89t-104 -34q-65 0 -104.5 34t-39.5 89h74q0 -28 18.5 -44.5t51.5 -16.5q32 0 50.5 16.5t18.5 44.5h75zM385 713q121 0 201 -58.5t110 -162.5h-101q-49 136 -211 136q-110 0 -180 -78.5t-70 -199.5q0 -120 70.5 -199t182.5 -79q100 0 159.5 51
t62.5 151h-210v85h306v-47q0 -152 -85 -238.5t-233 -86.5q-152 0 -250 103t-98 260t97.5 260t248.5 103z" />
    <glyph glyph-name="gbreve" unicode="&#x11f;" horiz-adv-x="499" 
d="M254 569q-64 0 -104 39t-40 100h74q0 -33 19 -55.5t51 -22.5q31 0 50.5 22.5t19.5 55.5h74q0 -61 -40 -100t-104 -39zM505 504v-76h-87q24 -43 24 -94q0 -77 -53 -128t-139 -51q-62 0 -108 27q-21 -19 -21 -50q0 -24 17.5 -37.5t46.5 -13.5h134q79 0 119 -36t40 -101
q0 -80 -56.5 -125t-153.5 -45q-106 0 -163 41t-57 116q0 61 55 91q-28 14 -47.5 41.5t-19.5 63.5q0 64 52 103q-32 44 -32 104q0 79 53.5 130t140.5 51q37 0 72 -11h183zM249 231q49 0 78.5 29t29.5 74q0 46 -29.5 75.5t-78.5 29.5t-78.5 -29.5t-29.5 -75.5
q0 -44 29.5 -73.5t78.5 -29.5zM206 5q-32 -2 -52.5 -19.5t-20.5 -51.5q0 -41 35.5 -62.5t99.5 -21.5q60 0 92.5 23t32.5 67q0 65 -91 65h-96z" />
    <glyph glyph-name="Gdotaccent" unicode="&#x120;" horiz-adv-x="747" 
d="M385 854q23 0 39.5 -16t16.5 -39q0 -24 -16.5 -40t-39.5 -16q-24 0 -40.5 16t-16.5 40q0 23 16.5 39t40.5 16zM385 713q121 0 201 -58.5t110 -162.5h-101q-49 136 -211 136q-110 0 -180 -78.5t-70 -199.5q0 -120 70.5 -199t182.5 -79q100 0 159.5 51t62.5 151h-210v85
h306v-47q0 -152 -85 -238.5t-233 -86.5q-152 0 -250 103t-98 260t97.5 260t248.5 103z" />
    <glyph glyph-name="gdotaccent" unicode="&#x121;" horiz-adv-x="499" 
d="M254 585q-25 0 -42 17t-17 41q0 25 17 42t42 17t42.5 -17t17.5 -42q0 -24 -17.5 -41t-42.5 -17zM505 504v-76h-87q24 -43 24 -94q0 -77 -53 -128t-139 -51q-62 0 -108 27q-21 -19 -21 -50q0 -24 17.5 -37.5t46.5 -13.5h134q79 0 119 -36t40 -101q0 -80 -56.5 -125
t-153.5 -45q-106 0 -163 41t-57 116q0 61 55 91q-28 14 -47.5 41.5t-19.5 63.5q0 64 52 103q-32 44 -32 104q0 79 53.5 130t140.5 51q37 0 72 -11h183zM249 231q49 0 78.5 29t29.5 74q0 46 -29.5 75.5t-78.5 29.5t-78.5 -29.5t-29.5 -75.5q0 -44 29.5 -73.5t78.5 -29.5z
M206 5q-32 -2 -52.5 -19.5t-20.5 -51.5q0 -41 35.5 -62.5t99.5 -21.5q60 0 92.5 23t32.5 67q0 65 -91 65h-96z" />
    <glyph glyph-name="Gcommaaccent" unicode="&#x122;" horiz-adv-x="747" 
d="M385 713q121 0 201 -58.5t110 -162.5h-101q-49 136 -211 136q-110 0 -180 -78.5t-70 -199.5q0 -120 70.5 -199t182.5 -79q100 0 159.5 51t62.5 151h-210v85h306v-47q0 -152 -85 -238.5t-233 -86.5q-152 0 -250 103t-98 260t97.5 260t248.5 103zM391 -46q26 0 43 -18
t17 -47q0 -41 -20.5 -85.5t-52.5 -77.5l-25 15q27 44 32 95q-24 2 -39 18t-15 40q0 26 17.5 43t42.5 17z" />
    <glyph glyph-name="gcommaaccent" unicode="&#x123;" horiz-adv-x="499" 
d="M255 566q-26 0 -43.5 18.5t-17.5 47.5q1 45 21 92t52 84l28 -11q-28 -53 -34 -113q23 -2 38.5 -18t15.5 -40q0 -25 -17.5 -42.5t-42.5 -17.5zM505 504v-76h-87q24 -43 24 -94q0 -77 -53 -128t-139 -51q-62 0 -108 27q-21 -19 -21 -50q0 -24 17.5 -37.5t46.5 -13.5h134
q79 0 119 -36t40 -101q0 -80 -56.5 -125t-153.5 -45q-106 0 -163 41t-57 116q0 61 55 91q-28 14 -47.5 41.5t-19.5 63.5q0 64 52 103q-32 44 -32 104q0 79 53.5 130t140.5 51q37 0 72 -11h183zM249 231q49 0 78.5 29t29.5 74q0 46 -29.5 75.5t-78.5 29.5t-78.5 -29.5
t-29.5 -75.5q0 -44 29.5 -73.5t78.5 -29.5zM206 5q-32 -2 -52.5 -19.5t-20.5 -51.5q0 -41 35.5 -62.5t99.5 -21.5q60 0 92.5 23t32.5 67q0 65 -91 65h-96z" />
    <glyph glyph-name="Hcircumflex" unicode="&#x124;" horiz-adv-x="706" 
d="M525 731h-109l-63 55l-62 -55h-108l143 113h56zM629 0h-91v319h-370v-319h-91v700h91v-295h370v295h91v-700z" />
    <glyph glyph-name="hcircumflex" unicode="&#x125;" horiz-adv-x="530" 
d="M288 751h-109l-63 55l-62 -55h-108l143 113h56zM161 441q16 32 51.5 53t86.5 21q79 0 121.5 -51.5t42.5 -137.5v-326h-87v312q0 58 -26 88.5t-72 30.5q-51 0 -84 -43t-33 -118v-270h-86v730h86v-289z" />
    <glyph glyph-name="Hbar" unicode="&#x126;" horiz-adv-x="721" 
d="M715 594v-68h-79v-526h-91v319h-370v-319h-91v526h-78v68h78v106h91v-106h370v106h91v-106h79zM545 405v121h-370v-121h370z" />
    <glyph glyph-name="hbar" unicode="&#x127;" horiz-adv-x="535" 
d="M304 515q79 0 121.5 -51.5t42.5 -137.5v-326h-87v312q0 58 -26 88.5t-72 30.5q-51 0 -84 -43t-33 -118v-270h-86v602h-76v68h76v60h86v-60h104v-68h-104v-161q16 32 51.5 53t86.5 21z" />
    <glyph glyph-name="Itilde" unicode="&#x128;" horiz-adv-x="245" 
d="M62 857q28 0 48.5 -10.5t30 -23t22.5 -23t27 -10.5q39 0 39 58h58q0 -55 -26.5 -88.5t-77.5 -33.5q-28 0 -48.5 10.5t-30 23.5t-22.5 23.5t-27 10.5q-39 0 -39 -59h-58q0 56 26.5 89t77.5 33zM168 0h-91v700h91v-700z" />
    <glyph glyph-name="itilde" unicode="&#x129;" horiz-adv-x="242" 
d="M61 706q28 0 48.5 -11.5t29.5 -25t22 -25t28 -11.5q39 0 39 64h58q0 -58 -26.5 -93t-77.5 -35q-28 0 -48.5 11.5t-29.5 25.5t-22 25.5t-28 11.5q-39 0 -39 -65h-58q0 59 26.5 93.5t77.5 34.5zM164 0h-86v504h86v-504z" />
    <glyph glyph-name="Imacron" unicode="&#x12a;" horiz-adv-x="245" 
d="M253 740h-262v71h262v-71zM168 0h-91v700h91v-700z" />
    <glyph glyph-name="imacron" unicode="&#x12b;" horiz-adv-x="242" 
d="M252 595h-262v71h262v-71zM164 0h-86v504h86v-504z" />
    <glyph glyph-name="Ibreve" unicode="&#x12c;" horiz-adv-x="245" 
d="M266 852q0 -55 -40 -89t-104 -34q-65 0 -104.5 34t-39.5 89h74q0 -28 18.5 -44.5t51.5 -16.5q32 0 50.5 16.5t18.5 44.5h75zM168 0h-91v700h91v-700z" />
    <glyph glyph-name="ibreve" unicode="&#x12d;" horiz-adv-x="242" 
d="M265 708q0 -61 -40 -100t-104 -39t-104 39t-40 100h74q0 -33 19 -55.5t51 -22.5q31 0 50.5 22.5t19.5 55.5h74zM164 0h-86v504h86v-504z" />
    <glyph glyph-name="Iogonek" unicode="&#x12e;" horiz-adv-x="245" 
d="M172 -132l14 -54q-21 -12 -59 -12q-49 0 -81 30t-32 81q0 66 63 105v682h91v-700h-29q-64 -29 -64 -85q0 -26 14.5 -41t39.5 -15q28 0 43 9z" />
    <glyph glyph-name="iogonek" unicode="&#x12f;" horiz-adv-x="242" 
d="M121 601q-25 0 -42 17t-17 41q0 25 17 42t42 17t42.5 -17t17.5 -42q0 -24 -17.5 -41t-42.5 -17zM185 -132l14 -54q-21 -12 -59 -12q-49 0 -81 30t-32 81q0 59 51 97v494h86v-504h-12q-64 -29 -64 -85q0 -26 14.5 -41t39.5 -15q28 0 43 9z" />
    <glyph glyph-name="Idotaccent" unicode="&#x130;" horiz-adv-x="245" 
d="M122 844q23 0 39.5 -16t16.5 -39q0 -24 -16.5 -40t-39.5 -16q-24 0 -40.5 16t-16.5 40q0 23 16.5 39t40.5 16zM168 0h-91v700h91v-700z" />
    <glyph glyph-name="dotlessi" unicode="&#x131;" horiz-adv-x="242" 
d="M164 0h-86v504h86v-504z" />
    <glyph glyph-name="Jcircumflex" unicode="&#x134;" horiz-adv-x="498" 
d="M555 731h-109l-63 55l-62 -55h-108l143 113h56zM430 201q0 -103 -50.5 -157t-145.5 -54q-102 0 -153 58.5t-55 163.5h91q6 -137 117 -137q51 0 78 33.5t27 96.5v495h91v-499z" />
    <glyph glyph-name="jcircumflex" unicode="&#x135;" horiz-adv-x="242" 
d="M286 574h-96l-68 92l-68 -92h-96l136 158h56zM164 -55q0 -171 -150 -171q-41 0 -66 8v79q24 -8 53 -8q43 0 60 23.5t17 70.5v557h86v-559z" />
    <glyph glyph-name="Kcommaaccent" unicode="&#x136;" horiz-adv-x="668" 
d="M354 389l296 -389h-115l-240 317l-121 -147v-170h-91v700h91v-396l311 396h114zM339 -36q26 0 43 -18t17 -47q0 -41 -20.5 -85.5t-52.5 -77.5l-25 15q27 44 32 95q-24 2 -39 18t-15 40q0 26 17.5 43t42.5 17z" />
    <glyph glyph-name="kcommaaccent" unicode="&#x137;" horiz-adv-x="492" 
d="M161 268l189 236h105l-163 -209l189 -295h-99l-150 229l-71 -86v-143h-86v730h86v-462zM269 -36q26 0 43 -18t17 -47q0 -41 -20.5 -85.5t-52.5 -77.5l-25 15q27 44 32 95q-24 2 -39 18t-15 40q0 26 17.5 43t42.5 17z" />
    <glyph glyph-name="Lacute" unicode="&#x139;" horiz-adv-x="501" 
d="M160 732h-97l97 109h131zM167 85h312v-85h-403v700h91v-615z" />
    <glyph glyph-name="lacute" unicode="&#x13a;" horiz-adv-x="236" 
d="M173 763h-97l97 109h131zM161 0h-86v730h86v-730z" />
    <glyph glyph-name="Lcommaaccent" unicode="&#x13b;" horiz-adv-x="501" 
d="M167 85h312v-85h-403v700h91v-615zM281 -36q26 0 43 -18t17 -47q0 -41 -20.5 -85.5t-52.5 -77.5l-25 15q27 44 32 95q-24 2 -39 18t-15 40q0 26 17.5 43t42.5 17z" />
    <glyph glyph-name="lcommaaccent" unicode="&#x13c;" horiz-adv-x="236" 
d="M161 0h-86v730h86v-730zM120 -36q26 0 43 -18t17 -47q0 -41 -20.5 -85.5t-52.5 -77.5l-25 15q27 44 32 95q-24 2 -39 18t-15 40q0 26 17 43t43 17z" />
    <glyph glyph-name="Lcaron" unicode="&#x13d;" horiz-adv-x="501" 
d="M437 705q26 0 43.5 -18t17.5 -47q0 -93 -73 -177l-28 11q28 52 35 113q-24 2 -39.5 18t-15.5 40q0 25 17.5 42.5t42.5 17.5zM167 85h312v-85h-403v700h91v-615z" />
    <glyph glyph-name="lcaron" unicode="&#x13e;" horiz-adv-x="236" 
d="M161 0h-86v730h86v-730zM298 724q26 0 43.5 -18t17.5 -47q0 -93 -73 -177l-28 11q28 52 35 113q-24 2 -39.5 18t-15.5 40q0 25 17.5 42.5t42.5 17.5z" />
    <glyph glyph-name="Ldot" unicode="&#x13f;" horiz-adv-x="501" 
d="M167 85h312v-85h-403v700h91v-615zM391 379q26 0 44.5 -18t18.5 -44q0 -27 -18.5 -45t-44.5 -18q-27 0 -45 18t-18 45q0 26 18 44t45 18z" />
    <glyph glyph-name="ldot" unicode="&#x140;" horiz-adv-x="368" 
d="M161 0h-86v730h86v-730zM301 322q26 0 44.5 -18t18.5 -44q0 -27 -18.5 -45t-44.5 -18q-27 0 -45 18t-18 45q0 26 18 44t45 18z" />
    <glyph glyph-name="Lslash" unicode="&#x141;" horiz-adv-x="513" 
d="M178 85h312v-85h-403v264l-75 -32l-24 63l99 42v363h91v-324l88 38l25 -63l-113 -48v-218z" />
    <glyph glyph-name="lslash" unicode="&#x142;" horiz-adv-x="268" 
d="M281 348l-108 -47v-301h-86v264l-76 -33l-24 63l100 43v393h86v-355l83 36z" />
    <glyph glyph-name="Nacute" unicode="&#x143;" horiz-adv-x="709" 
d="M393 732h-97l97 109h131zM633 0h-90l-348 502l-27 43v-545h-91v700h89l346 -500l30 -46v546h91v-700z" />
    <glyph glyph-name="nacute" unicode="&#x144;" horiz-adv-x="530" 
d="M315 574h-82l111 158h114zM299 515q79 0 121.5 -51.5t42.5 -137.5v-326h-87v312q0 58 -26 88.5t-72 30.5q-51 0 -84 -43t-33 -118v-270h-86v504h77l5 -69q42 80 142 80z" />
    <glyph glyph-name="Ncommaaccent" unicode="&#x145;" horiz-adv-x="709" 
d="M633 0h-90l-348 502l-27 43v-545h-91v700h89l346 -500l30 -46v546h91v-700zM354 -36q26 0 43 -18t17 -47q0 -41 -20.5 -85.5t-52.5 -77.5l-25 15q28 44 32 95q-24 2 -39 18t-15 40q0 26 17 43t43 17z" />
    <glyph glyph-name="ncommaaccent" unicode="&#x146;" horiz-adv-x="530" 
d="M299 515q79 0 121.5 -51.5t42.5 -137.5v-326h-87v312q0 58 -26 88.5t-72 30.5q-51 0 -84 -43t-33 -118v-270h-86v504h77l5 -69q42 80 142 80zM269 -36q26 0 43 -18t17 -47q0 -41 -20.5 -85.5t-52.5 -77.5l-25 15q27 44 32 95q-24 2 -39 18t-15 40q0 26 17.5 43t42.5 17z
" />
    <glyph glyph-name="Ncaron" unicode="&#x147;" horiz-adv-x="709" 
d="M384 728h-56l-143 113h108l62 -55l63 55h109zM633 0h-90l-348 502l-27 43v-545h-91v700h89l346 -500l30 -46v546h91v-700z" />
    <glyph glyph-name="ncaron" unicode="&#x148;" horiz-adv-x="530" 
d="M310 563h-56l-136 158h96l68 -92l68 92h96zM299 515q79 0 121.5 -51.5t42.5 -137.5v-326h-87v312q0 58 -26 88.5t-72 30.5q-51 0 -84 -43t-33 -118v-270h-86v504h77l5 -69q42 80 142 80z" />
    <glyph glyph-name="Eng" unicode="&#x14a;" horiz-adv-x="709" 
d="M542 700h91v-700v-4q0 -103 -52 -157t-148 -54v82q53 0 81 32t28 93v9l-347 501l-27 43v-545h-91v700h89l346 -500l30 -46v546z" />
    <glyph glyph-name="eng" unicode="&#x14b;" horiz-adv-x="530" 
d="M299 515q79 0 121.5 -51.5t42.5 -137.5v-381q0 -171 -170 -171v79q46 0 64.5 24t18.5 70v365q0 58 -26 88.5t-72 30.5q-51 0 -84 -43t-33 -118v-270h-86v504h77l5 -69q42 80 142 80z" />
    <glyph glyph-name="Omacron" unicode="&#x14c;" horiz-adv-x="793" 
d="M528 750h-262v71h262v-71zM397 713q155 0 256 -103t101 -259q0 -157 -101 -260.5t-256 -103.5q-156 0 -257 103.5t-101 260.5q0 156 101 259t257 103zM397 628q-116 0 -189.5 -78.5t-73.5 -198.5q0 -121 73.5 -200t189.5 -79q115 0 188.5 79t73.5 200q0 120 -73.5 198.5
t-188.5 78.5z" />
    <glyph glyph-name="omacron" unicode="&#x14d;" horiz-adv-x="580" 
d="M421 595h-262v71h262v-71zM290 515q112 0 183.5 -74t71.5 -189t-71.5 -189t-183.5 -74q-113 0 -184.5 74t-71.5 189t71.5 189t184.5 74zM291 435q-75 0 -121.5 -51.5t-46.5 -131.5q0 -79 46.5 -131t121.5 -52q74 0 119.5 52t45.5 131q0 80 -45.5 131.5t-119.5 51.5z" />
    <glyph glyph-name="Obreve" unicode="&#x14e;" horiz-adv-x="793" 
d="M541 862q0 -55 -40 -89t-104 -34q-65 0 -104.5 34t-39.5 89h74q0 -28 18.5 -44.5t51.5 -16.5q32 0 50.5 16.5t18.5 44.5h75zM397 713q155 0 256 -103t101 -259q0 -157 -101 -260.5t-256 -103.5q-156 0 -257 103.5t-101 260.5q0 156 101 259t257 103zM397 628
q-116 0 -189.5 -78.5t-73.5 -198.5q0 -121 73.5 -200t189.5 -79q115 0 188.5 79t73.5 200q0 120 -73.5 198.5t-188.5 78.5z" />
    <glyph glyph-name="obreve" unicode="&#x14f;" horiz-adv-x="580" 
d="M434 708q0 -61 -40 -100t-104 -39t-104 39t-40 100h74q0 -33 19 -55.5t51 -22.5q31 0 50.5 22.5t19.5 55.5h74zM290 515q112 0 183.5 -74t71.5 -189t-71.5 -189t-183.5 -74q-113 0 -184.5 74t-71.5 189t71.5 189t184.5 74zM291 435q-75 0 -121.5 -51.5t-46.5 -131.5
q0 -79 46.5 -131t121.5 -52q74 0 119.5 52t45.5 131q0 80 -45.5 131.5t-119.5 51.5z" />
    <glyph glyph-name="Ohungarumlaut" unicode="&#x150;" horiz-adv-x="793" 
d="M348 739h-78l75 113h97zM507 739h-79l76 113h97zM397 713q155 0 256 -103t101 -259q0 -157 -101 -260.5t-256 -103.5q-156 0 -257 103.5t-101 260.5q0 156 101 259t257 103zM397 628q-116 0 -189.5 -78.5t-73.5 -198.5q0 -121 73.5 -200t189.5 -79q115 0 188.5 79
t73.5 200q0 120 -73.5 198.5t-188.5 78.5z" />
    <glyph glyph-name="ohungarumlaut" unicode="&#x151;" horiz-adv-x="580" 
d="M237 574h-77l84 158h97zM406 574h-77l84 158h97zM290 515q112 0 183.5 -74t71.5 -189t-71.5 -189t-183.5 -74q-113 0 -184.5 74t-71.5 189t71.5 189t184.5 74zM291 435q-75 0 -121.5 -51.5t-46.5 -131.5q0 -79 46.5 -131t121.5 -52q74 0 119.5 52t45.5 131
q0 80 -45.5 131.5t-119.5 51.5z" />
    <glyph glyph-name="OE" unicode="&#x152;" horiz-adv-x="1097" 
d="M1048 615h-294v-212h259v-85h-259v-233h294v-85h-385v104q-99 -117 -263 -117q-157 0 -257.5 103.5t-100.5 260.5q0 156 100.5 259t257.5 103q164 0 263 -117v104h385v-85zM400 72q115 0 188.5 79t73.5 200q0 120 -73.5 198.5t-188.5 78.5q-116 0 -189.5 -78.5
t-73.5 -198.5q0 -121 73.5 -200t189.5 -79z" />
    <glyph glyph-name="oe" unicode="&#x153;" horiz-adv-x="964" 
d="M928 259v-41h-382q4 -69 47 -109t108 -40q105 0 136 82h86q-23 -76 -80.5 -119t-143.5 -43q-133 0 -201 104q-72 -104 -208 -104q-113 0 -184.5 74t-71.5 189t71.5 189t184.5 74q138 0 209 -105q68 105 200 105q103 0 166 -66t63 -190zM291 69q74 0 119.5 52t45.5 131
q0 80 -45.5 131.5t-119.5 51.5q-75 0 -121.5 -51.5t-46.5 -131.5q0 -79 46.5 -131t121.5 -52zM546 295h295q-1 64 -40 102t-102 38t-104 -39t-49 -101z" />
    <glyph glyph-name="Racute" unicode="&#x154;" horiz-adv-x="546" 
d="M458 841l-131 -109h-97l97 109h131zM527 0h-104l-153 284h-2h-100v-284h-91v700h191q105 0 167 -57.5t62 -153.5q0 -69 -34.5 -118.5t-97.5 -71.5zM168 615v-249h100q62 0 99.5 32.5t37.5 90.5q0 59 -37.5 92.5t-99.5 33.5h-100z" />
    <glyph glyph-name="racute" unicode="&#x155;" horiz-adv-x="338" 
d="M224 574h-82l111 158h114zM315 423q-62 0 -102 -37q-45 -41 -46 -119v-267h-86v504h77l6 -88q14 39 52.5 66t98.5 27v-86z" />
    <glyph glyph-name="Rcommaaccent" unicode="&#x156;" horiz-adv-x="546" 
d="M365 299l162 -299h-104l-153 284h-2h-100v-284h-91v700h191q105 0 167 -57.5t62 -153.5q0 -69 -34.5 -118.5t-97.5 -71.5zM168 615v-249h100q62 0 99.5 32.5t37.5 90.5q0 59 -37.5 92.5t-99.5 33.5h-100zM286 -36q26 0 43 -18t17 -47q0 -41 -20.5 -85.5t-52.5 -77.5
l-25 15q28 44 32 95q-24 2 -39 18t-15 40q0 26 17 43t43 17z" />
    <glyph glyph-name="rcommaaccent" unicode="&#x157;" horiz-adv-x="338" 
d="M315 423q-62 0 -102 -37q-45 -41 -46 -119v-267h-86v504h77l6 -88q14 39 52.5 66t98.5 27v-86zM122 -36q26 0 43 -18t17 -47q0 -41 -20.5 -85.5t-52.5 -77.5l-25 15q28 44 32 95q-24 2 -39 18t-15 40q0 26 17 43t43 17z" />
    <glyph glyph-name="Rcaron" unicode="&#x158;" horiz-adv-x="546" 
d="M318 728h-56l-143 113h108l62 -55l63 55h109zM527 0h-104l-153 284h-2h-100v-284h-91v700h191q105 0 167 -57.5t62 -153.5q0 -69 -34.5 -118.5t-97.5 -71.5zM168 615v-249h100q62 0 99.5 32.5t37.5 90.5q0 59 -37.5 92.5t-99.5 33.5h-100z" />
    <glyph glyph-name="rcaron" unicode="&#x159;" horiz-adv-x="338" 
d="M219 563h-56l-136 158h96l68 -92l68 92h96zM315 423q-62 0 -102 -37q-45 -41 -46 -119v-267h-86v504h77l6 -88q14 39 52.5 66t98.5 27v-86z" />
    <glyph glyph-name="Sacute" unicode="&#x15a;" 
d="M302 742h-97l97 109h131zM262 713q93 0 148 -51t57 -147h-92q-1 55 -32.5 85.5t-82.5 30.5q-50 0 -79 -28t-29 -78q0 -48 29.5 -72.5t109.5 -56.5q108 -40 153 -85t45 -121q0 -94 -60 -148.5t-157 -54.5q-109 0 -169.5 59.5t-62.5 159.5h92q1 -67 38 -102.5t103 -35.5
q59 0 91.5 32t32.5 84q0 44 -33 72.5t-114 56.5q-98 36 -144 80.5t-46 124.5q0 85 53.5 140t148.5 55z" />
    <glyph glyph-name="sacute" unicode="&#x15b;" horiz-adv-x="439" 
d="M256 574h-82l111 158h114zM218 515q73 0 118.5 -44t47.5 -115h-88q-1 79 -80 79q-38 0 -57.5 -19t-19.5 -49q0 -29 19.5 -44.5t75.5 -28.5q90 -21 127.5 -55.5t37.5 -95.5q0 -72 -49.5 -113t-127.5 -41q-86 0 -134 44.5t-50 119.5h88q2 -84 98 -84q42 0 64.5 19t22.5 49
q0 32 -22 49.5t-83 31.5q-81 19 -118 51.5t-37 92.5q0 64 44.5 108.5t122.5 44.5z" />
    <glyph glyph-name="Scircumflex" unicode="&#x15c;" 
d="M436 741h-109l-63 55l-62 -55h-108l143 113h56zM262 713q93 0 148 -51t57 -147h-92q-1 55 -32.5 85.5t-82.5 30.5q-50 0 -79 -28t-29 -78q0 -48 29.5 -72.5t109.5 -56.5q108 -40 153 -85t45 -121q0 -94 -60 -148.5t-157 -54.5q-109 0 -169.5 59.5t-62.5 159.5h92
q1 -67 38 -102.5t103 -35.5q59 0 91.5 32t32.5 84q0 44 -33 72.5t-114 56.5q-98 36 -144 80.5t-46 124.5q0 85 53.5 140t148.5 55z" />
    <glyph glyph-name="scircumflex" unicode="&#x15d;" horiz-adv-x="439" 
d="M387 574h-96l-68 92l-68 -92h-96l136 158h56zM218 515q73 0 118.5 -44t47.5 -115h-88q-1 79 -80 79q-38 0 -57.5 -19t-19.5 -49q0 -29 19.5 -44.5t75.5 -28.5q90 -21 127.5 -55.5t37.5 -95.5q0 -72 -49.5 -113t-127.5 -41q-86 0 -134 44.5t-50 119.5h88q2 -84 98 -84
q42 0 64.5 19t22.5 49q0 32 -22 49.5t-83 31.5q-81 19 -118 51.5t-37 92.5q0 64 44.5 108.5t122.5 44.5z" />
    <glyph glyph-name="Scedilla" unicode="&#x15e;" 
d="M489 190q0 -89 -54 -143t-143 -59l-11 -46h3q39 0 63.5 -22.5t24.5 -60.5q0 -42 -29 -65.5t-76 -23.5q-58 0 -91 36l32 44q22 -26 61 -26q45 0 45 34q0 35 -42 35q-13 0 -33 -5l-22 9l23 91q-94 10 -146 68t-54 150h92q1 -67 38 -102.5t103 -35.5q59 0 91.5 32t32.5 84
q0 44 -33 72.5t-114 56.5q-98 36 -144 80.5t-46 124.5q0 85 53.5 140t148.5 55q93 0 148 -51t57 -147h-92q-1 55 -32.5 85.5t-82.5 30.5q-50 0 -79 -28t-29 -78q0 -48 29.5 -72.5t109.5 -56.5q108 -40 153 -85t45 -121z" />
    <glyph glyph-name="scedilla" unicode="&#x15f;" horiz-adv-x="439" 
d="M399 143q0 -66 -42.5 -106.5t-112.5 -46.5l-11 -48h3q39 0 63.5 -22.5t24.5 -60.5q0 -42 -29 -65.5t-76 -23.5q-58 0 -91 36l32 44q22 -26 61 -26q45 0 45 34q0 35 -42 35q-13 0 -33 -5l-22 9l23 94q-72 7 -112 50.5t-42 111.5h88q2 -84 98 -84q42 0 64.5 19t22.5 49
q0 32 -22 49.5t-83 31.5q-81 19 -118 51.5t-37 92.5q0 64 44.5 108.5t122.5 44.5q73 0 118.5 -44t47.5 -115h-88q-1 79 -80 79q-38 0 -57.5 -19t-19.5 -49q0 -29 19.5 -44.5t75.5 -28.5q90 -21 127.5 -55.5t37.5 -95.5z" />
    <glyph glyph-name="Scaron" unicode="&#x160;" 
d="M293 738h-56l-143 113h108l62 -55l63 55h109zM262 713q93 0 148 -51t57 -147h-92q-1 55 -32.5 85.5t-82.5 30.5q-50 0 -79 -28t-29 -78q0 -48 29.5 -72.5t109.5 -56.5q108 -40 153 -85t45 -121q0 -94 -60 -148.5t-157 -54.5q-109 0 -169.5 59.5t-62.5 159.5h92
q1 -67 38 -102.5t103 -35.5q59 0 91.5 32t32.5 84q0 44 -33 72.5t-114 56.5q-98 36 -144 80.5t-46 124.5q0 85 53.5 140t148.5 55z" />
    <glyph glyph-name="scaron" unicode="&#x161;" horiz-adv-x="439" 
d="M251 563h-56l-136 158h96l68 -92l68 92h96zM218 515q73 0 118.5 -44t47.5 -115h-88q-1 79 -80 79q-38 0 -57.5 -19t-19.5 -49q0 -29 19.5 -44.5t75.5 -28.5q90 -21 127.5 -55.5t37.5 -95.5q0 -72 -49.5 -113t-127.5 -41q-86 0 -134 44.5t-50 119.5h88q2 -84 98 -84
q42 0 64.5 19t22.5 49q0 32 -22 49.5t-83 31.5q-81 19 -118 51.5t-37 92.5q0 64 44.5 108.5t122.5 44.5z" />
    <glyph glyph-name="Tcommaaccent" unicode="&#x162;" horiz-adv-x="605" 
d="M596 615h-248v-615h-91v615h-248v85h587v-85zM302 -36q26 0 43 -18t17 -47q0 -41 -20.5 -85.5t-52.5 -77.5l-25 15q28 44 32 95q-24 2 -39 18t-15 40q0 26 17 43t43 17z" />
    <glyph glyph-name="tcommaaccent" unicode="&#x163;" horiz-adv-x="348" 
d="M189 504h129v-80h-130l-2 -270q0 -44 15 -63t57 -19q33 0 60 9v-77q-28 -11 -75 -11q-73 0 -108.5 34.5t-34.5 110.5l2 286h-94v80h94l1 126h87zM197 -43q26 0 43 -18t17 -47q0 -41 -20.5 -85.5t-52.5 -77.5l-25 15q27 44 32 95q-24 2 -39 18t-15 40q0 25 17.5 42.5
t42.5 17.5z" />
    <glyph glyph-name="Tcaron" unicode="&#x164;" horiz-adv-x="605" 
d="M331 728h-56l-143 113h108l62 -55l63 55h109zM596 615h-248v-615h-91v615h-248v85h587v-85z" />
    <glyph glyph-name="tcaron" unicode="&#x165;" horiz-adv-x="348" 
d="M410 724q26 0 43.5 -18t17.5 -47q0 -93 -73 -177l-28 11q28 52 35 113q-24 2 -39.5 18t-15.5 40q0 25 17.5 42.5t42.5 17.5zM189 504h129v-80h-130l-2 -270q0 -44 15 -63t57 -19q33 0 60 9v-77q-28 -11 -75 -11q-73 0 -108.5 34.5t-34.5 110.5l2 286h-94v80h94l1 126h87z
" />
    <glyph glyph-name="Tbar" unicode="&#x166;" horiz-adv-x="605" 
d="M596 615h-248v-230h154v-68h-154v-317h-91v317h-154v68h154v230h-248v85h587v-85z" />
    <glyph glyph-name="tbar" unicode="&#x167;" horiz-adv-x="348" 
d="M318 432h-130l-1 -117h131v-71h-131l-1 -90q0 -44 15 -63t57 -19q33 0 60 9v-77q-28 -11 -75 -11q-73 0 -108.5 34.5t-34.5 110.5l1 106h-93v71h93l1 117h-94v72h94l1 126h87l-1 -126h129v-72z" />
    <glyph glyph-name="Utilde" unicode="&#x168;" horiz-adv-x="685" 
d="M283 857q28 0 48.5 -10.5t30 -23t22.5 -23t27 -10.5q39 0 39 58h58q0 -55 -26.5 -88.5t-77.5 -33.5q-28 0 -48.5 10.5t-30 23.5t-22.5 23.5t-27 10.5q-39 0 -39 -59h-58q0 56 26.5 89t77.5 33zM617 277q0 -141 -71.5 -215.5t-202.5 -74.5t-203 74.5t-72 215.5v423h91
v-423q0 -205 184 -205q90 0 136.5 52t46.5 153v423h91v-423z" />
    <glyph glyph-name="utilde" unicode="&#x169;" 
d="M203 706q28 0 48.5 -11.5t29.5 -25t22 -25t28 -11.5q39 0 39 64h58q0 -58 -26.5 -93t-77.5 -35q-28 0 -48.5 11.5t-29.5 25.5t-22 25.5t-28 11.5q-39 0 -39 -65h-58q0 59 26.5 93.5t77.5 34.5zM451 0h-77l-5 69q-38 -80 -139 -80q-79 0 -120.5 51t-41.5 138v326h86v-312
q0 -59 25 -89.5t71 -30.5q50 0 82.5 40.5t32.5 111.5v280h86v-504z" />
    <glyph glyph-name="Umacron" unicode="&#x16a;" horiz-adv-x="685" 
d="M474 740h-262v71h262v-71zM617 277q0 -141 -71.5 -215.5t-202.5 -74.5t-203 74.5t-72 215.5v423h91v-423q0 -205 184 -205q90 0 136.5 52t46.5 153v423h91v-423z" />
    <glyph glyph-name="umacron" unicode="&#x16b;" 
d="M394 595h-262v71h262v-71zM451 0h-77l-5 69q-38 -80 -139 -80q-79 0 -120.5 51t-41.5 138v326h86v-312q0 -59 25 -89.5t71 -30.5q50 0 82.5 40.5t32.5 111.5v280h86v-504z" />
    <glyph glyph-name="Ubreve" unicode="&#x16c;" horiz-adv-x="685" 
d="M487 852q0 -55 -40 -89t-104 -34q-65 0 -104.5 34t-39.5 89h74q0 -28 18.5 -44.5t51.5 -16.5q32 0 50.5 16.5t18.5 44.5h75zM617 277q0 -141 -71.5 -215.5t-202.5 -74.5t-203 74.5t-72 215.5v423h91v-423q0 -205 184 -205q90 0 136.5 52t46.5 153v423h91v-423z" />
    <glyph glyph-name="ubreve" unicode="&#x16d;" 
d="M407 708q0 -61 -40 -100t-104 -39t-104 39t-40 100h74q0 -33 19 -55.5t51 -22.5q31 0 50.5 22.5t19.5 55.5h74zM451 0h-77l-5 69q-38 -80 -139 -80q-79 0 -120.5 51t-41.5 138v326h86v-312q0 -59 25 -89.5t71 -30.5q50 0 82.5 40.5t32.5 111.5v280h86v-504z" />
    <glyph glyph-name="Uring" unicode="&#x16e;" horiz-adv-x="685" 
d="M343 912q42 0 69 -26.5t27 -66.5t-27 -67t-69 -27t-69 27t-27 67t27 66.5t69 26.5zM343 859q-16 0 -27.5 -11.5t-11.5 -28.5t11.5 -28.5t27.5 -11.5q17 0 28.5 11.5t11.5 28.5t-11.5 28.5t-28.5 11.5zM617 277q0 -141 -71.5 -215.5t-202.5 -74.5t-203 74.5t-72 215.5v423
h91v-423q0 -205 184 -205q90 0 136.5 52t46.5 153v423h91v-423z" />
    <glyph glyph-name="uring" unicode="&#x16f;" 
d="M263 762q47 0 76.5 -29.5t29.5 -74.5q0 -43 -29.5 -72.5t-76.5 -29.5q-45 0 -75 29.5t-30 72.5q0 45 29.5 74.5t75.5 29.5zM263 708q-21 0 -34.5 -14t-13.5 -35q0 -20 13.5 -34.5t34.5 -14.5q22 0 35.5 14.5t13.5 34.5q0 21 -13.5 35t-35.5 14zM451 0h-77l-5 69
q-38 -80 -139 -80q-79 0 -120.5 51t-41.5 138v326h86v-312q0 -59 25 -89.5t71 -30.5q50 0 82.5 40.5t32.5 111.5v280h86v-504z" />
    <glyph glyph-name="Uhungarumlaut" unicode="&#x170;" horiz-adv-x="685" 
d="M294 729h-78l75 113h97zM453 729h-79l76 113h97zM617 277q0 -141 -71.5 -215.5t-202.5 -74.5t-203 74.5t-72 215.5v423h91v-423q0 -205 184 -205q90 0 136.5 52t46.5 153v423h91v-423z" />
    <glyph glyph-name="uhungarumlaut" unicode="&#x171;" 
d="M210 574h-77l84 158h97zM379 574h-77l84 158h97zM451 0h-77l-5 69q-38 -80 -139 -80q-79 0 -120.5 51t-41.5 138v326h86v-312q0 -59 25 -89.5t71 -30.5q50 0 82.5 40.5t32.5 111.5v280h86v-504z" />
    <glyph glyph-name="Uogonek" unicode="&#x172;" horiz-adv-x="685" 
d="M526 700h91v-423q0 -114 -47.5 -185t-136.5 -94q-43 -26 -43 -74q0 -26 14.5 -41t39.5 -15q28 0 43 9l14 -54q-21 -12 -59 -12q-49 0 -81 30t-32 81q0 36 19 65h-5q-131 0 -203 74.5t-72 215.5v423h91v-423q0 -205 184 -205q90 0 136.5 52t46.5 153v423z" />
    <glyph glyph-name="uogonek" unicode="&#x173;" 
d="M484 -132l14 -54q-21 -12 -59 -12q-49 0 -81 30t-32 81q0 57 47 94l-4 62q-38 -80 -139 -80q-79 0 -120.5 51t-41.5 138v326h86v-312q0 -59 25 -89.5t71 -30.5q50 0 82.5 40.5t32.5 111.5v280h86v-504q-64 -29 -64 -85q0 -26 14.5 -41t39.5 -15q28 0 43 9z" />
    <glyph glyph-name="Wcircumflex" unicode="&#x174;" horiz-adv-x="986" 
d="M665 731h-109l-63 55l-62 -55h-108l143 113h56zM745 0h-90l-151 486l-11 47l-11 -47l-151 -486h-90l-223 700h96l162 -509l12 -50l10 50l156 509h78l156 -509l10 -50l12 50l162 509h96z" />
    <glyph glyph-name="wcircumflex" unicode="&#x175;" horiz-adv-x="766" 
d="M546 574h-96l-68 92l-68 -92h-96l136 158h56zM591 0h-87l-122 360l-123 -360h-84l-160 504h92l105 -352l10 -46l11 46l113 352h74l113 -352l11 -46l10 46l105 352h92z" />
    <glyph glyph-name="Ycircumflex" unicode="&#x176;" horiz-adv-x="672" 
d="M507 731h-109l-63 55l-62 -55h-108l143 113h56zM382 265v-265h-92v265l-277 435h107l189 -294l26 -47l27 47l190 294h107z" />
    <glyph glyph-name="ycircumflex" unicode="&#x177;" horiz-adv-x="502" 
d="M414 574h-96l-68 92l-68 -92h-96l136 158h56zM211 -215h-91l84 222l-189 497h92l133 -362l10 -38l10 38l133 362h93z" />
    <glyph glyph-name="Ydieresis" unicode="&#x178;" horiz-adv-x="672" 
d="M241 840q23 0 38.5 -15.5t15.5 -38.5q0 -22 -15.5 -38t-38.5 -16t-39 15.5t-16 38.5t16 38.5t39 15.5zM428 840q23 0 39 -15.5t16 -38.5t-16 -38.5t-39 -15.5q-22 0 -38 16t-16 38q0 23 15.5 38.5t38.5 15.5zM382 265v-265h-92v265l-277 435h107l189 -294l26 -47l27 47
l190 294h107z" />
    <glyph glyph-name="Zacute" unicode="&#x179;" horiz-adv-x="588" 
d="M332 732h-97l97 109h131zM541 627l-387 -542h399v-85h-517v73l389 542h-385v85h501v-73z" />
    <glyph glyph-name="zacute" unicode="&#x17a;" horiz-adv-x="457" 
d="M267 574h-82l111 158h114zM417 438l-268 -361h284v-77h-399v66l268 361h-266v77h381v-66z" />
    <glyph glyph-name="Zdotaccent" unicode="&#x17b;" horiz-adv-x="588" 
d="M294 844q23 0 39.5 -16t16.5 -39q0 -24 -16.5 -40t-39.5 -16q-24 0 -40.5 16t-16.5 40q0 23 16.5 39t40.5 16zM541 627l-387 -542h399v-85h-517v73l389 542h-385v85h501v-73z" />
    <glyph glyph-name="zdotaccent" unicode="&#x17c;" horiz-adv-x="457" 
d="M234 702q25 0 42.5 -17t17.5 -42q0 -24 -17.5 -41t-42.5 -17t-42 17t-17 41q0 25 17 42t42 17zM417 438l-268 -361h284v-77h-399v66l268 361h-266v77h381v-66z" />
    <glyph glyph-name="Zcaron" unicode="&#x17d;" horiz-adv-x="588" 
d="M323 728h-56l-143 113h108l62 -55l63 55h109zM541 627l-387 -542h399v-85h-517v73l389 542h-385v85h501v-73z" />
    <glyph glyph-name="zcaron" unicode="&#x17e;" horiz-adv-x="457" 
d="M262 563h-56l-136 158h96l68 -92l68 92h96zM417 438l-268 -361h284v-77h-399v66l268 361h-266v77h381v-66z" />
    <glyph glyph-name="florin" unicode="&#x192;" horiz-adv-x="345" 
d="M308 739q38 0 70 -12l-9 -78q-27 12 -59 12q-71 0 -80 -82l-8 -75h132l-8 -79h-132l-54 -499q-7 -73 -49.5 -112.5t-113.5 -39.5q-42 0 -69 12l8 78q30 -13 59 -13q34 0 55 20.5t25 61.5l52 492h-95l8 79h95l10 83q8 72 50.5 112t112.5 40z" />
    <glyph glyph-name="Aringacute" unicode="&#x1fa;" horiz-adv-x="690" 
d="M344 725q-42 0 -69 27t-27 67q0 48 35 73l95 107h131l-118 -98q49 -25 49 -82q0 -40 -27 -67t-69 -27zM344 779q17 0 28.5 11.5t11.5 28.5t-11.5 28.5t-28.5 11.5q-16 0 -27.5 -11.5t-11.5 -28.5t11.5 -28.5t27.5 -11.5zM392 700l281 -700h-100l-74 185h-309l-73 -185
h-100l281 700h94zM221 270h247l-111 275l-13 38l-13 -38z" />
    <glyph glyph-name="aringacute" unicode="&#x1fb;" horiz-adv-x="492" 
d="M248 556q-45 0 -75 29.5t-30 72.5q0 52 38 82l90 101h131l-107 -89q59 -26 59 -94q0 -43 -29.5 -72.5t-76.5 -29.5zM248 610q22 0 35.5 14.5t13.5 34.5q0 21 -13.5 35t-35.5 14q-21 0 -34.5 -14t-13.5 -35q0 -20 13.5 -34.5t34.5 -14.5zM247 515q85 0 132.5 -47
t47.5 -134v-334h-78l-4 69q-20 -36 -60 -58t-93 -22q-67 0 -107 38.5t-40 103.5q0 119 141 146l154 29v25q0 104 -93 104q-44 0 -73.5 -24t-29.5 -68h-85q2 74 54 123t134 49zM340 212v19l-138 -30q-33 -8 -51.5 -23t-18.5 -46q0 -30 20 -46.5t57 -16.5q66 0 102 50
q29 39 29 93z" />
    <glyph glyph-name="AEacute" unicode="&#x1fc;" horiz-adv-x="929" 
d="M623 732h-97l97 109h131zM883 615h-295v-212h259v-85h-259v-233h295v-85h-386v188h-253l-127 -188h-107l460 700h413v-85zM476 545l-182 -277h203v315z" />
    <glyph glyph-name="aeacute" unicode="&#x1fd;" horiz-adv-x="850" 
d="M586 732l-143 -158h-82l111 158h114zM805 259v-41h-382q4 -69 47 -109t108 -40q105 0 136 82h86q-23 -76 -80.5 -119t-143.5 -43q-137 0 -203 109q-61 -109 -181 -109q-70 0 -108.5 38.5t-38.5 101.5q0 61 36 98t101 49l151 30v22q0 107 -93 107q-43 0 -69.5 -23.5
t-26.5 -68.5h-85q2 75 51 123.5t130 48.5q112 0 156 -79q68 79 180 79q103 0 166 -66t63 -190zM423 295h295q-1 64 -40 102t-102 38t-104 -39t-49 -101zM333 200v31l-125 -28q-41 -9 -58.5 -24t-17.5 -48q0 -29 19 -45.5t55 -16.5q63 0 97 46q30 39 30 85z" />
    <glyph glyph-name="Oslashacute" unicode="&#x1fe;" horiz-adv-x="793" 
d="M560 847l-131 -109h-97l97 109h131zM608 648q69 -48 107.5 -125.5t38.5 -171.5q0 -157 -101 -260.5t-256 -103.5q-77 0 -144 28l-47 -84l-71 34l49 88q-68 48 -106.5 126t-38.5 172q0 156 101 259t257 103q77 0 142 -27l45 80l71 -34zM134 351q0 -140 94 -220l268 479
q-45 18 -99 18q-116 0 -189.5 -78.5t-73.5 -198.5zM397 72q115 0 188.5 79t73.5 200q0 140 -95 219l-268 -479q48 -19 101 -19z" />
    <glyph glyph-name="oslashacute" unicode="&#x1ff;" horiz-adv-x="580" 
d="M465 732l-143 -158h-82l111 158h114zM440 469q105 -73 105 -217q0 -115 -71.5 -189t-183.5 -74q-52 0 -97 17l-41 -76l-54 24l42 79q-106 74 -106 219q0 115 71.5 189t184.5 74q54 0 99 -18l40 76l54 -24zM123 252q0 -90 58 -143l169 316q-30 10 -59 10
q-75 0 -121.5 -51.5t-46.5 -131.5zM291 69q74 0 119.5 52t45.5 131q0 91 -56 142l-168 -315q30 -10 59 -10z" />
    <glyph glyph-name="Scommaaccent" unicode="&#x218;" 
d="M262 713q93 0 148 -51t57 -147h-92q-1 55 -32.5 85.5t-82.5 30.5q-50 0 -79 -28t-29 -78q0 -48 29.5 -72.5t109.5 -56.5q108 -40 153 -85t45 -121q0 -94 -60 -148.5t-157 -54.5q-109 0 -169.5 59.5t-62.5 159.5h92q1 -67 38 -102.5t103 -35.5q59 0 91.5 32t32.5 84
q0 44 -33 72.5t-114 56.5q-98 36 -144 80.5t-46 124.5q0 85 53.5 140t148.5 55zM265 -46q26 0 43 -18t17 -47q0 -41 -20.5 -85.5t-52.5 -77.5l-25 15q27 44 32 95q-24 2 -39 18t-15 40q0 26 17.5 43t42.5 17z" />
    <glyph glyph-name="scommaaccent" unicode="&#x219;" horiz-adv-x="439" 
d="M218 515q73 0 118.5 -44t47.5 -115h-88q-1 79 -80 79q-38 0 -57.5 -19t-19.5 -49q0 -29 19.5 -44.5t75.5 -28.5q90 -21 127.5 -55.5t37.5 -95.5q0 -72 -49.5 -113t-127.5 -41q-86 0 -134 44.5t-50 119.5h88q2 -84 98 -84q42 0 64.5 19t22.5 49q0 32 -22 49.5t-83 31.5
q-81 19 -118 51.5t-37 92.5q0 64 44.5 108.5t122.5 44.5zM221 -39q26 0 43 -18t17 -47q0 -41 -20.5 -85.5t-52.5 -77.5l-25 15q27 44 32 95q-24 2 -39 18t-15 40q0 25 17.5 42.5t42.5 17.5z" />
    <glyph glyph-name="uni021A" unicode="&#x21a;" horiz-adv-x="605" 
d="M596 615h-248v-615h-91v615h-248v85h587v-85zM290 -36q26 0 43 -18t17 -47q0 -41 -20.5 -85.5t-52.5 -77.5l-25 15q28 44 32 95q-24 2 -39 18t-15 40q0 26 17 43t43 17z" />
    <glyph glyph-name="uni021B" unicode="&#x21b;" horiz-adv-x="348" 
d="M189 504h129v-80h-130l-2 -270q0 -44 15 -63t57 -19q33 0 60 9v-77q-28 -11 -75 -11q-73 0 -108.5 34.5t-34.5 110.5l2 286h-94v80h94l1 126h87zM194 -43q26 0 43 -18t17 -47q0 -41 -20.5 -85.5t-52.5 -77.5l-25 15q28 44 32 95q-24 2 -39 18t-15 40q0 25 17 42.5
t43 17.5z" />
    <glyph glyph-name="circumflex" unicode="&#x2c6;" horiz-adv-x="346" 
d="M337 574h-96l-68 92l-68 -92h-96l136 158h56z" />
    <glyph glyph-name="caron" unicode="&#x2c7;" horiz-adv-x="346" 
d="M201 563h-56l-136 158h96l68 -92l68 92h96z" />
    <glyph glyph-name="breve" unicode="&#x2d8;" horiz-adv-x="306" 
d="M297 708q0 -61 -40 -100t-104 -39t-104 39t-40 100h74q0 -33 19 -55.5t51 -22.5q31 0 50.5 22.5t19.5 55.5h74z" />
    <glyph glyph-name="dotaccent" unicode="&#x2d9;" horiz-adv-x="137" 
d="M68 702q25 0 42.5 -17t17.5 -42q0 -24 -17.5 -41t-42.5 -17t-42 17t-17 41q0 25 17 42t42 17z" />
    <glyph glyph-name="ring" unicode="&#x2da;" horiz-adv-x="229" 
d="M114 762q47 0 76.5 -29.5t29.5 -74.5q0 -43 -29.5 -72.5t-76.5 -29.5q-45 0 -75 29.5t-30 72.5q0 45 29.5 74.5t75.5 29.5zM114 708q-21 0 -34.5 -14t-13.5 -35q0 -20 13.5 -34.5t34.5 -14.5q22 0 35.5 14.5t13.5 34.5q0 21 -13.5 35t-35.5 14z" />
    <glyph glyph-name="ogonek" unicode="&#x2db;" horiz-adv-x="186" 
d="M130 0q-64 -29 -64 -85q0 -26 14.5 -41t39.5 -15q28 0 43 9l14 -54q-21 -12 -59 -12q-49 0 -81 30t-32 81q0 77 89 119z" />
    <glyph glyph-name="tilde" unicode="&#x2dc;" horiz-adv-x="347" 
d="M113 706q28 0 48.5 -11.5t29.5 -25t22 -25t28 -11.5q39 0 39 64h58q0 -58 -26.5 -93t-77.5 -35q-28 0 -48.5 11.5t-29.5 25.5t-22 25.5t-28 11.5q-39 0 -39 -65h-58q0 59 26.5 93.5t77.5 34.5z" />
    <glyph glyph-name="hungarumlaut" unicode="&#x2dd;" horiz-adv-x="368" 
d="M86 574h-77l84 158h97zM255 574h-77l84 158h97z" />
    <glyph glyph-name="uni03A9" unicode="&#x3a9;" horiz-adv-x="857" 
d="M433 735q148 0 237 -96.5t89 -246.5q0 -165 -143 -297h205v-95h-333v84q174 126 174 305q0 112 -61.5 182t-167.5 70t-168 -70t-62 -182q0 -179 174 -305v-84h-332v95h205q-143 130 -143 297q0 150 89 246.5t237 96.5z" />
    <glyph glyph-name="pi" unicode="&#x3c0;" horiz-adv-x="709" 
d="M698 534q-22 -59 -59.5 -87.5t-111.5 -28.5h-14l-34 -260q-11 -78 41 -78q34 0 66 27l33 -64q-61 -48 -130 -48q-61 0 -82.5 37t-12.5 108l36 278h-123l-34 -253q-14 -97 -44 -165h-93q42 78 56 180l32 238h-20q-84 0 -140 -61l-43 62q45 44 86.5 62.5t117.5 18.5h256
q68 0 96.5 16.5t49.5 58.5z" />
    <glyph glyph-name="Wgrave" unicode="&#x1e80;" horiz-adv-x="986" 
d="M546 732h-96l-132 109h132zM745 0h-90l-151 486l-11 47l-11 -47l-151 -486h-90l-223 700h96l162 -509l12 -50l10 50l156 509h78l156 -509l10 -50l12 50l162 509h96z" />
    <glyph glyph-name="wgrave" unicode="&#x1e81;" horiz-adv-x="766" 
d="M426 574h-82l-143 158h113zM591 0h-87l-122 360l-123 -360h-84l-160 504h92l105 -352l10 -46l11 46l113 352h74l113 -352l11 -46l10 46l105 352h92z" />
    <glyph glyph-name="Wacute" unicode="&#x1e82;" horiz-adv-x="986" 
d="M531 732h-97l97 109h131zM745 0h-90l-151 486l-11 47l-11 -47l-151 -486h-90l-223 700h96l162 -509l12 -50l10 50l156 509h78l156 -509l10 -50l12 50l162 509h96z" />
    <glyph glyph-name="wacute" unicode="&#x1e83;" horiz-adv-x="766" 
d="M415 574h-82l111 158h114zM591 0h-87l-122 360l-123 -360h-84l-160 504h92l105 -352l10 -46l11 46l113 352h74l113 -352l11 -46l10 46l105 352h92z" />
    <glyph glyph-name="Wdieresis" unicode="&#x1e84;" horiz-adv-x="986" 
d="M399 840q23 0 38.5 -15.5t15.5 -38.5q0 -22 -15.5 -38t-38.5 -16t-39 15.5t-16 38.5t16 38.5t39 15.5zM586 840q23 0 39 -15.5t16 -38.5t-16 -38.5t-39 -15.5q-22 0 -38 16t-16 38q0 23 15.5 38.5t38.5 15.5zM745 0h-90l-151 486l-11 47l-11 -47l-151 -486h-90l-223 700
h96l162 -509l12 -50l10 50l156 509h78l156 -509l10 -50l12 50l162 509h96z" />
    <glyph glyph-name="wdieresis" unicode="&#x1e85;" horiz-adv-x="766" 
d="M288 689q22 0 38 -15.5t16 -38.5t-15.5 -38.5t-38.5 -15.5t-39 15.5t-16 38.5t16 38.5t39 15.5zM475 689q23 0 39 -15.5t16 -38.5t-16 -38.5t-39 -15.5t-38.5 15.5t-15.5 38.5t15.5 38.5t38.5 15.5zM591 0h-87l-122 360l-123 -360h-84l-160 504h92l105 -352l10 -46l11 46
l113 352h74l113 -352l11 -46l10 46l105 352h92z" />
    <glyph glyph-name="Ygrave" unicode="&#x1ef2;" horiz-adv-x="672" 
d="M388 732h-96l-132 109h132zM382 265v-265h-92v265l-277 435h107l189 -294l26 -47l27 47l190 294h107z" />
    <glyph glyph-name="ygrave" unicode="&#x1ef3;" horiz-adv-x="502" 
d="M294 574h-82l-143 158h113zM211 -215h-91l84 222l-189 497h92l133 -362l10 -38l10 38l133 362h93z" />
    <glyph glyph-name="endash" unicode="&#x2013;" horiz-adv-x="513" 
d="M489 221h-465v77h465v-77z" />
    <glyph glyph-name="emdash" unicode="&#x2014;" horiz-adv-x="703" 
d="M679 221h-655v77h655v-77z" />
    <glyph glyph-name="quoteleft" unicode="&#x2018;" horiz-adv-x="183" 
d="M132 720q-28 -53 -34 -113q23 -2 38.5 -18t15.5 -40q0 -25 -17.5 -42.5t-42.5 -17.5q-26 0 -43.5 18.5t-17.5 47.5q1 45 21 92t52 84z" />
    <glyph glyph-name="quoteright" unicode="&#x2019;" horiz-adv-x="183" 
d="M91 724q26 0 43.5 -18t17.5 -47q0 -93 -73 -177l-28 11q28 52 35 113q-24 2 -39.5 18t-15.5 40q0 25 17.5 42.5t42.5 17.5z" />
    <glyph glyph-name="quotesinglbase" unicode="&#x201a;" horiz-adv-x="183" 
d="M91 110q26 0 43.5 -18t17.5 -47q0 -45 -20.5 -92.5t-52.5 -83.5l-28 11q27 50 35 113q-24 2 -39.5 18t-15.5 40q0 25 17.5 42t42.5 17z" />
    <glyph glyph-name="quotedblleft" unicode="&#x201c;" horiz-adv-x="362" 
d="M132 720q-28 -53 -34 -113q23 -2 38.5 -18t15.5 -40q0 -25 -17.5 -42.5t-42.5 -17.5q-26 0 -43.5 18.5t-17.5 47.5q1 45 21 92t52 84zM310 720q-28 -53 -34 -113q23 -2 38.5 -18t15.5 -40q0 -25 -17.5 -42.5t-42.5 -17.5q-26 0 -43.5 18.5t-17.5 47.5q1 45 21 92t52 84z
" />
    <glyph glyph-name="quotedblright" unicode="&#x201d;" horiz-adv-x="362" 
d="M91 724q26 0 43.5 -18t17.5 -47q0 -93 -73 -177l-28 11q28 52 35 113q-24 2 -39.5 18t-15.5 40q0 25 17.5 42.5t42.5 17.5zM269 724q26 0 43.5 -18t17.5 -47q0 -93 -73 -177l-28 11q28 52 35 113q-24 2 -39.5 18t-15.5 40q0 25 17.5 42.5t42.5 17.5z" />
    <glyph glyph-name="quotedblbase" unicode="&#x201e;" horiz-adv-x="368" 
d="M91 110q26 0 43.5 -18t17.5 -47q0 -45 -20.5 -92.5t-52.5 -83.5l-28 11q27 50 35 113q-24 2 -39.5 18t-15.5 40q0 25 17.5 42t42.5 17zM276 110q26 0 43.5 -18t17.5 -47q0 -45 -20.5 -92.5t-52.5 -83.5l-28 11q27 50 35 113q-24 2 -39.5 18t-15.5 40q0 25 17.5 42
t42.5 17z" />
    <glyph glyph-name="dagger" unicode="&#x2020;" horiz-adv-x="449" 
d="M268 530h165v-84h-165v-513h-87v513h-165v84h165v196h87v-196z" />
    <glyph glyph-name="daggerdbl" unicode="&#x2021;" horiz-adv-x="449" 
d="M268 530h165v-84h-165v-233h165v-84h-165v-196h-87v196h-165v84h165v233h-165v84h165v196h87v-196z" />
    <glyph glyph-name="bullet" unicode="&#x2022;" horiz-adv-x="353" 
d="M176 401q60 0 101 -41t41 -101t-41 -100.5t-101 -40.5t-100.5 40.5t-40.5 100.5t40.5 101t100.5 41z" />
    <glyph glyph-name="ellipsis" unicode="&#x2026;" horiz-adv-x="624" 
d="M100 113q27 0 45 -17.5t18 -44.5q0 -26 -18.5 -44t-44.5 -18q-27 0 -45 18t-18 44q0 27 18 44.5t45 17.5zM312 113q27 0 45 -17.5t18 -44.5q0 -26 -18.5 -44t-44.5 -18t-44.5 18t-18.5 44q0 27 18 44.5t45 17.5zM524 113q27 0 45 -17.5t18 -44.5q0 -26 -18.5 -44
t-44.5 -18t-44.5 18t-18.5 44q0 27 18 44.5t45 17.5z" />
    <glyph glyph-name="perthousand" unicode="&#x2030;" horiz-adv-x="1221" 
d="M197 713q72 0 120 -49.5t48 -124.5t-48 -124t-120 -49q-73 0 -120.5 49t-47.5 124t47.5 124.5t120.5 49.5zM248 0h-85l420 700h85zM197 643q-42 0 -69 -29.5t-27 -74.5q0 -44 27 -73.5t69 -29.5q41 0 67.5 29.5t26.5 73.5q0 45 -26.5 74.5t-67.5 29.5zM635 334
q71 0 119.5 -50t48.5 -125t-48 -123.5t-120 -48.5q-73 0 -121 48.5t-48 123.5t48 125t121 50zM1024 334q71 0 119.5 -50t48.5 -125t-48 -123.5t-120 -48.5q-73 0 -121 48.5t-48 123.5t48 125t121 50zM635 264q-42 0 -69 -29.5t-27 -74.5q0 -44 27 -73.5t69 -29.5
q41 0 67.5 29.5t26.5 73.5q0 45 -26.5 74.5t-67.5 29.5zM1024 264q-42 0 -69 -29.5t-27 -74.5q0 -44 27 -73.5t69 -29.5q41 0 67.5 29.5t26.5 73.5q0 45 -26.5 74.5t-67.5 29.5z" />
    <glyph glyph-name="guilsinglleft" unicode="&#x2039;" horiz-adv-x="256" 
d="M93 250l151 -195h-87l-145 187v17l145 187h87z" />
    <glyph glyph-name="guilsinglright" unicode="&#x203a;" horiz-adv-x="256" 
d="M244 259v-17l-145 -187h-87l151 195l-151 196h87z" />
    <glyph glyph-name="fraction" unicode="&#x2044;" horiz-adv-x="124" 
d="M-100 0h-95l420 700h95z" />
    <glyph glyph-name="zero.sups" unicode="&#x2070;" horiz-adv-x="365" 
d="M182 807q70 0 108 -54t38 -148q0 -95 -38 -149.5t-108 -54.5t-107.5 54.5t-37.5 149.5q0 94 37.5 148t107.5 54zM182 742q-36 0 -55 -36t-19 -101q0 -139 74 -139q75 0 75 139q0 137 -75 137z" />
    <glyph glyph-name="four.sups" unicode="&#x2074;" horiz-adv-x="361" 
d="M274 543h56v-62h-56v-73h-70v73h-177v56l162 263h85v-257zM193 688l-91 -145h103v168z" />
    <glyph glyph-name="five.sups" unicode="&#x2075;" horiz-adv-x="347" 
d="M292 734h-166v-92q26 13 63 13q55 0 89.5 -31.5t34.5 -88.5q0 -59 -36.5 -96.5t-98.5 -37.5t-98 31t-36 88h70q0 -54 64 -54q32 0 49 18t17 49q0 30 -17.5 47.5t-48.5 17.5q-34 0 -60 -16h-62v218h236v-66z" />
    <glyph glyph-name="six.sups" unicode="&#x2076;" horiz-adv-x="354" 
d="M192 653q57 0 91.5 -35t34.5 -87q0 -59 -37.5 -94.5t-98.5 -35.5q-63 0 -102 42q-44 47 -44 153q0 211 149 211q54 0 89 -31t36 -83h-70q-6 49 -58 49q-74 0 -75 -124q29 35 85 35zM180 465q30 0 48.5 17.5t18.5 45.5q0 27 -18.5 44.5t-48.5 17.5q-29 0 -49 -17t-20 -43
t19.5 -45.5t49.5 -19.5z" />
    <glyph glyph-name="seven.sups" unicode="&#x2077;" horiz-adv-x="307" 
d="M281 744l-161 -336h-76l156 324h-175v68h256v-56z" />
    <glyph glyph-name="eight.sups" unicode="&#x2078;" horiz-adv-x="350" 
d="M175 807q56 0 91 -33t35 -81q0 -57 -48 -84q60 -30 60 -90q0 -51 -39.5 -84.5t-98.5 -33.5t-98.5 33.5t-39.5 84.5q0 65 60 90q-48 27 -48 84q0 48 35 81t91 33zM175 745q-25 0 -41 -15t-16 -39q0 -23 16 -38t41 -15t41 15t16 38q0 24 -16 39t-41 15zM175 581
q-28 0 -47.5 -16.5t-19.5 -43.5q0 -26 19.5 -42t47.5 -16q29 0 48.5 16t19.5 42q0 27 -20 43.5t-48 16.5z" />
    <glyph glyph-name="nine.sups" unicode="&#x2079;" horiz-adv-x="354" 
d="M275 768q43 -47 43 -156q0 -211 -149 -211q-54 0 -88.5 31t-35.5 83h70q6 -49 57 -49q74 0 75 126q-28 -33 -85 -33t-91.5 33t-34.5 85q0 59 37.5 94.5t98.5 35.5q67 0 103 -39zM174 614q29 0 49 18.5t20 45.5q0 26 -19.5 45.5t-49.5 19.5q-29 0 -48 -18.5t-19 -46.5
q0 -27 19 -45.5t48 -18.5z" />
    <glyph glyph-name="n.sups" unicode="&#x207f;" horiz-adv-x="408" 
d="M232 710q56 0 87 -35t31 -93v-223h-69v207q0 37 -18 57t-50 20q-34 0 -57.5 -25.5t-23.5 -70.5v-188h-69v344h61l4 -48q34 55 104 55z" />
    <glyph glyph-name="Euro" unicode="&#x20ac;" horiz-adv-x="583" 
d="M341 72q108 0 130 112h98q-24 -98 -78 -147.5t-150 -49.5q-95 0 -158.5 63t-86.5 176h-82v70h72q-2 36 -2 55q0 21 2 57h-72v70h82q24 111 87 173t158 62q190 0 228 -195h-98q-17 110 -130 110q-57 0 -96 -39t-56 -111h150v-70h-161q-2 -36 -2 -57q0 -19 2 -55h161v-70
h-150q17 -74 55.5 -114t96.5 -40z" />
    <glyph glyph-name="afii61289" unicode="&#x2113;" horiz-adv-x="575" 
d="M469 178l55 -39q-42 -71 -91.5 -110.5t-119.5 -39.5q-141 0 -141 172v22q-38 -34 -92 -77l-45 64q76 62 132 116v285q0 87 42.5 131.5t115.5 44.5q70 0 112 -43t42 -115q0 -88 -60 -168.5t-166 -172.5v-90q0 -45 16.5 -68t59.5 -23q45 0 76 27.5t64 83.5zM246 576v-239
q158 140 158 248q0 44 -21 67.5t-59 23.5q-36 0 -57 -26t-21 -74z" />
    <glyph glyph-name="trademark" unicode="&#x2122;" horiz-adv-x="614" 
d="M235 642h-75v-222h-63v222h-76v58h214v-58zM575 420h-62v168l-9 -26l-58 -142h-46l-58 142l-9 26v-168h-63v280h74l73 -176l6 -17l5 17l74 176h73v-280z" />
    <glyph glyph-name="Omega" unicode="&#x2126;" horiz-adv-x="857" 
d="M433 735q148 0 237 -96.5t89 -246.5q0 -165 -143 -297h205v-95h-333v84q174 126 174 305q0 112 -61.5 182t-167.5 70t-168 -70t-62 -182q0 -179 174 -305v-84h-332v95h205q-143 130 -143 297q0 150 89 246.5t237 96.5z" />
    <glyph glyph-name="estimated" unicode="&#x212e;" horiz-adv-x="587" 
d="M306 534q108 0 177 -68t69 -189h-409v-158q0 -41 33 -60q53 -41 130 -41q134 0 218 124l24 -16q-86 -138 -242 -138q-116 0 -194 76.5t-78 196.5t78 196.5t194 76.5zM306 505q-80 0 -129 -40q-34 -22 -34 -60v-98h308v100q0 27 -6 41.5t-25 24.5q-46 32 -114 32z" />
    <glyph glyph-name="partialdiff" unicode="&#x2202;" horiz-adv-x="534" 
d="M250 744q70 0 120.5 -33.5t78.5 -94t40.5 -133.5t12.5 -163q0 -137 -34 -203q-30 -61 -82 -93t-117 -32q-101 0 -167.5 66t-66.5 169q0 101 64.5 166.5t163.5 65.5q53 0 91.5 -22t57.5 -50q-2 128 -44.5 200.5t-124.5 72.5q-84 0 -135 -72l-61 57q75 99 203 99zM270 379
q-63 0 -104 -42.5t-41 -109.5q0 -69 41 -112t104 -43q62 0 102 43t40 112q0 67 -40 109.5t-102 42.5z" />
    <glyph glyph-name="uni2206" unicode="&#x2206;" horiz-adv-x="719" 
d="M683 0h-646l323 641zM156 73h407l-203 404z" />
    <glyph glyph-name="product" unicode="&#x220f;" horiz-adv-x="683" 
d="M649 616h-128v-731h-82v731h-195v-731h-82v731h-128v84h615v-84z" />
    <glyph glyph-name="summation" unicode="&#x2211;" horiz-adv-x="608" 
d="M551 613h-382l183 -250l-190 -276h402v-87h-521v58l207 303l-204 281v58h505v-87z" />
    <glyph glyph-name="minus" unicode="&#x2212;" horiz-adv-x="470" 
d="M441 311h-412v78h412v-78z" />
    <glyph glyph-name="radical" unicode="&#x221a;" horiz-adv-x="695" 
d="M665 664l-294 -733l-172 333l-125 -71l-40 68l207 122l126 -260l222 571z" />
    <glyph glyph-name="infinity" unicode="&#x221e;" horiz-adv-x="747" 
d="M546 466q76 0 123 -51.5t47 -128.5q0 -76 -47 -128t-123 -52q-35 0 -69.5 17t-51 31.5t-44.5 42.5l-21 21l-20 -21q-72 -76 -146 -76q-70 0 -112 47t-42 117q0 71 42 118.5t112 47.5q41 0 73.5 -20t71.5 -59l21 -22l15 18q40 46 79.5 71.5t91.5 26.5zM546 387
q-61 0 -122 -82l-16 -21l19 -22q23 -25 34.5 -36.5t36.5 -26t49 -14.5q41 0 66.5 29t25.5 72t-25.5 72t-67.5 29zM193 375q-37 0 -59 -25.5t-22 -64.5q0 -38 22 -63t59 -25q50 0 103 65l18 22l-18 23q-59 68 -103 68z" />
    <glyph glyph-name="integral" unicode="&#x222b;" horiz-adv-x="432" 
d="M304 750q57 0 108 -22l-21 -73q-38 18 -71 18q-65 0 -65 -89v-606q0 -91 -32 -130.5t-100 -39.5t-114 24l23 72q34 -18 74 -18q69 0 69 92v606q0 89 31.5 127.5t97.5 38.5z" />
    <glyph glyph-name="approxequal" unicode="&#x2248;" horiz-adv-x="570" 
d="M193 549q35 0 64.5 -14.5t47 -32t42 -32t51.5 -14.5q70 0 95 84l61 -30q-41 -132 -157 -132q-36 0 -65.5 14.5t-46.5 32t-41.5 32t-51.5 14.5q-69 0 -95 -84l-61 30q41 132 157 132zM194 333q35 0 64.5 -14.5t46.5 -32t42 -32t52 -14.5q69 0 95 84l61 -30
q-43 -132 -157 -132q-36 0 -65.5 14.5t-46.5 32.5t-42 32.5t-52 14.5q-67 0 -95 -85l-60 30q41 132 157 132z" />
    <glyph glyph-name="notequal" unicode="&#x2260;" horiz-adv-x="457" 
d="M441 413h-149l-45 -128h194v-77h-220l-32 -92h-83l32 92h-109v77h135l45 128h-180v77h206l36 104h83l-36 -104h123v-77z" />
    <glyph glyph-name="lessequal" unicode="&#x2264;" horiz-adv-x="343" 
d="M128 412l194 -171h-108l-193 169v4l193 169h108zM322 118h-301v68h301v-68z" />
    <glyph glyph-name="greaterequal" unicode="&#x2265;" horiz-adv-x="343" 
d="M322 414v-4l-193 -169h-108l194 171l-194 171h108zM322 118h-301v68h301v-68z" />
    <glyph glyph-name="lozenge" unicode="&#x25ca;" horiz-adv-x="553" 
d="M527 336l-223 -401h-55l-223 401l223 402h55zM116 336l161 -275l159 275l-159 274z" />
    <glyph glyph-name="commaaccent" unicode="&#xf6c3;" horiz-adv-x="0" 
d="M-98 -36q26 0 43 -18t17 -47q0 -41 -20.5 -85.5t-52.5 -77.5l-25 15q28 44 32 95q-24 2 -39 18t-15 40q0 26 17 43t43 17z" />
    <glyph glyph-name="g.alt" horiz-adv-x="603" 
d="M265 515q115 0 174 -85l4 74h78v-495q0 -106 -65 -170.5t-173 -64.5q-92 0 -154.5 43.5t-78.5 132.5h87q22 -97 146 -97q72 0 111.5 40.5t39.5 113.5v69q-21 -35 -64.5 -57.5t-103.5 -22.5q-103 0 -167.5 73t-64.5 186q0 114 64 187t167 73zM278 433q-70 0 -112.5 -49.5
t-42.5 -128.5q0 -78 43.5 -127.5t113.5 -49.5q63 0 109.5 49t46.5 128v5q0 77 -47 125t-111 48z" />
    <glyph glyph-name="a.alt" horiz-adv-x="599" 
d="M269 515q114 0 173 -85l5 74h77v-504h-77l-5 74q-59 -85 -173 -85q-105 0 -170 74.5t-65 188.5t65 188.5t170 74.5zM282 434q-72 0 -115.5 -50.5t-43.5 -131.5t43.5 -131.5t115.5 -50.5q64 0 110.5 49t46.5 128v10q0 79 -46.5 128t-110.5 49z" />
    <glyph glyph-name="parenleft.cap" horiz-adv-x="272" 
d="M262 713q-70 -89 -101 -174t-31 -198t31 -198t101 -174l-62 -43q-76 94 -114.5 192.5t-38.5 222.5t38.5 222.5t114.5 192.5z" />
    <glyph glyph-name="parenright.cap" horiz-adv-x="272" 
d="M72 756q75 -95 114 -193t39 -222t-39 -222t-114 -193l-62 43q70 89 101 174t31 198t-31 198t-101 174z" />
    <glyph glyph-name="bracketleft.cap" horiz-adv-x="285" 
d="M261 657h-109v-635h109v-79h-192v793h192v-79z" />
    <glyph glyph-name="bracketright.cap" horiz-adv-x="285" 
d="M216 -57h-192v79h109v635h-109v79h192v-793z" />
    <glyph glyph-name="braceleft.cap" horiz-adv-x="288" 
d="M264 657h-26q-65 0 -65 -72v-146q0 -78 -58 -100q58 -22 58 -99v-146q0 -72 65 -72h26v-79h-28q-71 0 -107.5 39.5t-36.5 109.5v137q0 72 -65 72h-16v77h16q65 0 65 72v137q0 70 36.5 109.5t107.5 39.5h28v-79z" />
    <glyph glyph-name="braceright.cap" horiz-adv-x="288" 
d="M52 736q71 0 107.5 -39.5t36.5 -109.5v-137q0 -72 65 -72h16v-77h-16q-65 0 -65 -72v-137q0 -70 -36.5 -109.5t-107.5 -39.5h-28v79h26q65 0 65 72v146q0 77 58 99q-58 22 -58 100v146q0 72 -65 72h-26v79h28z" />
    <glyph glyph-name="hyphen.cap" horiz-adv-x="363" 
d="M339 294h-315v77h315v-77z" />
    <glyph glyph-name="endash.cap" horiz-adv-x="513" 
d="M489 291h-465v77h465v-77z" />
    <glyph glyph-name="emdash.cap" horiz-adv-x="703" 
d="M679 294h-655v77h655v-77z" />
    <glyph glyph-name="at.cap" horiz-adv-x="806" 
d="M405 718q164 0 264.5 -104t100.5 -264q0 -105 -43 -155t-104 -50q-77 0 -101 63q-45 -64 -140 -64q-83 0 -134.5 58.5t-51.5 146.5q0 89 51.5 147.5t133.5 58.5q50 0 84 -21t49 -51l4 63h66v-285q0 -56 47 -56q71 0 71 145q0 132 -81.5 218t-215.5 86
q-136 0 -218.5 -85.5t-82.5 -218.5t82.5 -219t218.5 -86q73 0 136 30l21 -62q-70 -32 -157 -32q-166 0 -267.5 104t-101.5 265q0 163 101.5 265.5t267.5 102.5zM393 486q-54 0 -87.5 -38t-33.5 -99q0 -60 32.5 -97.5t86.5 -37.5q50 0 85.5 33t35.5 91v18q0 60 -35.5 95
t-83.5 35z" />
    <glyph glyph-name="periodcentered.cap" horiz-adv-x="200" 
d="M100 411q26 0 44.5 -18t18.5 -44q0 -27 -18.5 -45t-44.5 -18q-27 0 -45 18t-18 45q0 26 18 44t45 18z" />
    <glyph glyph-name="exclamdown.cap" horiz-adv-x="242" 
d="M121 587q-27 0 -45.5 17.5t-18.5 44.5q0 26 18.5 44t45.5 18q26 0 44.5 -18t18.5 -44q0 -27 -18 -44.5t-45 -17.5zM78 500h86v-500h-86v500z" />
    <glyph glyph-name="questiondown.cap" horiz-adv-x="413" 
d="M216 589q-27 0 -45 17.5t-18 44.5q0 26 18.5 44t44.5 18q27 0 45 -18t18 -44q0 -27 -18 -44.5t-45 -17.5zM211 -14q-84 0 -141.5 51t-57.5 140q0 49 16.5 88t40 63.5t47.5 45t40.5 44t16.5 49.5v35h87v-38q0 -36 -17 -66t-41 -51.5l-48 -43t-41 -53t-17 -70.5
q0 -59 31.5 -90t82.5 -31q56 0 87.5 33t31.5 94h83q-1 -95 -57.5 -147.5t-143.5 -52.5z" />
    <glyph glyph-name="endash_guilsinglright" horiz-adv-x="655" 
d="M617 279l-287 -261l-44 53l190 170h-438v75h439l-191 170l44 53z" />
    <glyph glyph-name="emdash_guilsinglright" horiz-adv-x="984" 
d="M947 279l-290 -261l-43 53l190 170h-766v75h767l-191 170l43 53z" />
    <glyph glyph-name="guilsinglleft_endash" horiz-adv-x="655" 
d="M370 486l-191 -170h438v-75h-437l190 -170l-43 -53l-289 261l289 260z" />
    <glyph glyph-name="guilsinglleft_emdash" horiz-adv-x="984" 
d="M370 486l-191 -170h768v-75h-767l190 -170l-43 -53l-289 261l289 260z" />
    <glyph glyph-name="guilsinglleft.cap" horiz-adv-x="256" 
d="M93 340l151 -195h-87l-145 187v17l145 187h87z" />
    <glyph glyph-name="guilsinglright.cap" horiz-adv-x="256" 
d="M244 349v-17l-145 -187h-87l151 195l-151 196h87z" />
    <glyph glyph-name="guillemotleft.cap" horiz-adv-x="455" 
d="M93 340l140 -195h-87l-134 187v17l134 187h87zM303 340l140 -195h-87l-134 187v17l134 187h87z" />
    <glyph glyph-name="guillemotright.cap" horiz-adv-x="455" 
d="M233 349v-17l-134 -187h-87l140 195l-140 196h87zM443 349v-17l-134 -187h-87l140 195l-140 196h87z" />
    <glyph glyph-name="germandbls.cap" horiz-adv-x="617" 
d="M395 411q84 -7 136.5 -61.5t52.5 -138.5q0 -99 -63.5 -158.5t-180.5 -59.5q-46 0 -95 9l5 87q38 -11 86 -11q73 0 113.5 33t40.5 98t-50.5 100.5t-139.5 35.5l-19 38l152 208q-39 37 -112 37q-67 0 -110 -43t-43 -117v-468h-92v466q0 109 66.5 178t181.5 69
q74 0 126.5 -23.5t99.5 -71.5z" />
    <glyph glyph-name="grave.cap" horiz-adv-x="246" 
d="M237 732h-96l-132 109h132z" />
    <glyph glyph-name="acute.cap" horiz-adv-x="246" 
d="M106 732h-97l97 109h131z" />
    <glyph glyph-name="circumflex.cap" horiz-adv-x="360" 
d="M351 731h-109l-63 55l-62 -55h-108l143 113h56z" />
    <glyph glyph-name="caron.cap" horiz-adv-x="360" 
d="M208 728h-56l-143 113h108l62 -55l63 55h109z" />
    <glyph glyph-name="tilde.cap" horiz-adv-x="347" 
d="M113 857q28 0 48.5 -10.5t30 -23t22.5 -23t27 -10.5q39 0 39 58h58q0 -55 -26.5 -88.5t-77.5 -33.5q-28 0 -48.5 10.5t-30 23.5t-22.5 23.5t-27 10.5q-39 0 -39 -59h-58q0 56 26.5 89t77.5 33z" />
    <glyph glyph-name="dieresis.cap" horiz-adv-x="315" 
d="M64 840q23 0 38.5 -15.5t15.5 -38.5q0 -22 -16 -38t-38 -16q-23 0 -39 15.5t-16 38.5t16 38.5t39 15.5zM251 840q23 0 39 -15.5t16 -38.5t-16 -38.5t-39 -15.5t-38.5 16t-15.5 38q0 23 15.5 38.5t38.5 15.5z" />
    <glyph glyph-name="macron.cap" horiz-adv-x="280" 
d="M271 740h-262v71h262v-71z" />
    <glyph glyph-name="breve.cap" horiz-adv-x="306" 
d="M297 852q0 -55 -40 -89t-104 -34q-65 0 -104.5 34t-39.5 89h74q0 -28 18.5 -44.5t51.5 -16.5q32 0 50.5 16.5t18.5 44.5h75z" />
    <glyph glyph-name="ring.cap" horiz-adv-x="203" 
d="M101 912q42 0 69 -26.5t27 -66.5t-27 -67t-69 -27t-69 27t-27 67t27 66.5t69 26.5zM101 859q-16 0 -27.5 -11.5t-11.5 -28.5t11.5 -28.5t27.5 -11.5q17 0 28.5 11.5t11.5 28.5t-11.5 28.5t-28.5 11.5z" />
    <glyph glyph-name="hungarumlaut.cap" horiz-adv-x="349" 
d="M87 729h-78l75 113h97zM246 729h-79l76 113h97z" />
    <glyph glyph-name="dotaccent.cap" horiz-adv-x="131" 
d="M66 844q23 0 39.5 -16t16.5 -39q0 -24 -16.5 -40t-39.5 -16q-24 0 -40.5 16t-16.5 40q0 23 16.5 39t40.5 16z" />
    <glyph glyph-name="aogonek.alt" horiz-adv-x="599" 
d="M554 -132l14 -54q-21 -12 -59 -12q-49 0 -81 30t-32 81q0 59 50 96l-4 65q-59 -85 -173 -85q-105 0 -170 74.5t-65 188.5t65 188.5t170 74.5q114 0 173 -85l5 74h77v-504h-3q-64 -29 -64 -85q0 -26 14.5 -41t39.5 -15q28 0 43 9zM439 247v10q0 79 -46.5 128t-110.5 49
q-72 0 -115.5 -50.5t-43.5 -131.5t43.5 -131.5t115.5 -50.5q64 0 110.5 49t46.5 128z" />
    <glyph glyph-name="aringacute.alt" horiz-adv-x="599" 
d="M282 556q-45 0 -75 29.5t-30 72.5q0 57 44 86l86 97h131l-107 -89q57 -28 57 -94q0 -43 -29.5 -72.5t-76.5 -29.5zM282 610q22 0 35.5 14.5t13.5 34.5q0 21 -13.5 35t-35.5 14q-21 0 -34.5 -14t-13.5 -35q0 -20 13.5 -34.5t34.5 -14.5zM447 504h77v-504h-77l-5 74
q-59 -85 -173 -85q-105 0 -170 74.5t-65 188.5t65 188.5t170 74.5q114 0 173 -85zM439 247v10q0 79 -46.5 128t-110.5 49q-72 0 -115.5 -50.5t-43.5 -131.5t43.5 -131.5t115.5 -50.5q64 0 110.5 49t46.5 128z" />
    <glyph glyph-name="aacute.alt" horiz-adv-x="599" 
d="M315 574h-82l111 158h114zM269 515q114 0 173 -85l5 74h77v-504h-77l-5 74q-59 -85 -173 -85q-105 0 -170 74.5t-65 188.5t65 188.5t170 74.5zM282 434q-72 0 -115.5 -50.5t-43.5 -131.5t43.5 -131.5t115.5 -50.5q64 0 110.5 49t46.5 128v10q0 79 -46.5 128t-110.5 49z
" />
    <glyph glyph-name="abreve.alt" horiz-adv-x="599" 
d="M426 708q0 -61 -40 -100t-104 -39t-104 39t-40 100h74q0 -33 19 -55.5t51 -22.5q31 0 50.5 22.5t19.5 55.5h74zM269 515q114 0 173 -85l5 74h77v-504h-77l-5 74q-59 -85 -173 -85q-105 0 -170 74.5t-65 188.5t65 188.5t170 74.5zM282 434q-72 0 -115.5 -50.5
t-43.5 -131.5t43.5 -131.5t115.5 -50.5q64 0 110.5 49t46.5 128v10q0 79 -46.5 128t-110.5 49z" />
    <glyph glyph-name="adieresis.alt" horiz-adv-x="599" 
d="M188 689q22 0 38 -15.5t16 -38.5t-15.5 -38.5t-38.5 -15.5t-39 15.5t-16 38.5t16 38.5t39 15.5zM375 689q23 0 39 -15.5t16 -38.5t-16 -38.5t-39 -15.5t-38.5 15.5t-15.5 38.5t15.5 38.5t38.5 15.5zM269 515q114 0 173 -85l5 74h77v-504h-77l-5 74q-59 -85 -173 -85
q-105 0 -170 74.5t-65 188.5t65 188.5t170 74.5zM282 434q-72 0 -115.5 -50.5t-43.5 -131.5t43.5 -131.5t115.5 -50.5q64 0 110.5 49t46.5 128v10q0 79 -46.5 128t-110.5 49z" />
    <glyph glyph-name="agrave.alt" horiz-adv-x="599" 
d="M326 574h-82l-143 158h113zM269 515q114 0 173 -85l5 74h77v-504h-77l-5 74q-59 -85 -173 -85q-105 0 -170 74.5t-65 188.5t65 188.5t170 74.5zM282 434q-72 0 -115.5 -50.5t-43.5 -131.5t43.5 -131.5t115.5 -50.5q64 0 110.5 49t46.5 128v10q0 79 -46.5 128t-110.5 49z
" />
    <glyph glyph-name="amacron.alt" horiz-adv-x="599" 
d="M413 595h-262v71h262v-71zM269 515q114 0 173 -85l5 74h77v-504h-77l-5 74q-59 -85 -173 -85q-105 0 -170 74.5t-65 188.5t65 188.5t170 74.5zM282 434q-72 0 -115.5 -50.5t-43.5 -131.5t43.5 -131.5t115.5 -50.5q64 0 110.5 49t46.5 128v10q0 79 -46.5 128t-110.5 49z
" />
    <glyph glyph-name="aring.alt" horiz-adv-x="599" 
d="M282 762q47 0 76.5 -29.5t29.5 -74.5q0 -43 -29.5 -72.5t-76.5 -29.5q-45 0 -75 29.5t-30 72.5q0 45 29.5 74.5t75.5 29.5zM282 708q-21 0 -34.5 -14t-13.5 -35q0 -20 13.5 -34.5t34.5 -14.5q22 0 35.5 14.5t13.5 34.5q0 21 -13.5 35t-35.5 14zM269 515q114 0 173 -85
l5 74h77v-504h-77l-5 74q-59 -85 -173 -85q-105 0 -170 74.5t-65 188.5t65 188.5t170 74.5zM282 434q-72 0 -115.5 -50.5t-43.5 -131.5t43.5 -131.5t115.5 -50.5q64 0 110.5 49t46.5 128v10q0 79 -46.5 128t-110.5 49z" />
    <glyph glyph-name="atilde.alt" horiz-adv-x="599" 
d="M222 706q28 0 48.5 -11.5t29.5 -25t22 -25t28 -11.5q39 0 39 64h58q0 -58 -26.5 -93t-77.5 -35q-28 0 -48.5 11.5t-29.5 25.5t-22 25.5t-28 11.5q-39 0 -39 -65h-58q0 59 26.5 93.5t77.5 34.5zM269 515q114 0 173 -85l5 74h77v-504h-77l-5 74q-59 -85 -173 -85
q-105 0 -170 74.5t-65 188.5t65 188.5t170 74.5zM282 434q-72 0 -115.5 -50.5t-43.5 -131.5t43.5 -131.5t115.5 -50.5q64 0 110.5 49t46.5 128v10q0 79 -46.5 128t-110.5 49z" />
    <glyph glyph-name="gbreve.alt" horiz-adv-x="603" 
d="M421 708q0 -61 -40 -100t-104 -39t-104 39t-40 100h74q0 -33 19 -55.5t51 -22.5q31 0 50.5 22.5t19.5 55.5h74zM265 515q115 0 174 -85l4 74h78v-495q0 -106 -65 -170.5t-173 -64.5q-92 0 -154.5 43.5t-78.5 132.5h87q22 -97 146 -97q72 0 111.5 40.5t39.5 113.5v69
q-21 -35 -64.5 -57.5t-103.5 -22.5q-103 0 -167.5 73t-64.5 186q0 114 64 187t167 73zM278 433q-70 0 -112.5 -49.5t-42.5 -128.5q0 -78 43.5 -127.5t113.5 -49.5q63 0 109.5 49t46.5 128v5q0 77 -47 125t-111 48z" />
    <glyph glyph-name="gcircumflex.alt" horiz-adv-x="603" 
d="M441 574h-96l-68 92l-68 -92h-96l136 158h56zM265 515q115 0 174 -85l4 74h78v-495q0 -106 -65 -170.5t-173 -64.5q-92 0 -154.5 43.5t-78.5 132.5h87q22 -97 146 -97q72 0 111.5 40.5t39.5 113.5v69q-21 -35 -64.5 -57.5t-103.5 -22.5q-103 0 -167.5 73t-64.5 186
q0 114 64 187t167 73zM278 433q-70 0 -112.5 -49.5t-42.5 -128.5q0 -78 43.5 -127.5t113.5 -49.5q63 0 109.5 49t46.5 128v5q0 77 -47 125t-111 48z" />
    <glyph glyph-name="gcommaaccent.alt" horiz-adv-x="603" 
d="M322 795q-28 -53 -34 -113q23 -2 38.5 -18t15.5 -40q0 -25 -17.5 -42.5t-42.5 -17.5q-26 0 -43.5 18.5t-17.5 47.5q1 45 21 92t52 84zM265 515q115 0 174 -85l4 74h78v-495q0 -106 -65 -170.5t-173 -64.5q-92 0 -154.5 43.5t-78.5 132.5h87q22 -97 146 -97
q72 0 111.5 40.5t39.5 113.5v69q-21 -35 -64.5 -57.5t-103.5 -22.5q-103 0 -167.5 73t-64.5 186q0 114 64 187t167 73zM278 433q-70 0 -112.5 -49.5t-42.5 -128.5q0 -78 43.5 -127.5t113.5 -49.5q63 0 109.5 49t46.5 128v5q0 77 -47 125t-111 48z" />
    <glyph glyph-name="gdotaccent.alt" horiz-adv-x="603" 
d="M277 702q25 0 42.5 -17t17.5 -42q0 -24 -17.5 -41t-42.5 -17t-42 17t-17 41q0 25 17 42t42 17zM265 515q115 0 174 -85l4 74h78v-495q0 -106 -65 -170.5t-173 -64.5q-92 0 -154.5 43.5t-78.5 132.5h87q22 -97 146 -97q72 0 111.5 40.5t39.5 113.5v69q-21 -35 -64.5 -57.5
t-103.5 -22.5q-103 0 -167.5 73t-64.5 186q0 114 64 187t167 73zM278 433q-70 0 -112.5 -49.5t-42.5 -128.5q0 -78 43.5 -127.5t113.5 -49.5q63 0 109.5 49t46.5 128v5q0 77 -47 125t-111 48z" />
    <glyph glyph-name="acircumflex.alt" horiz-adv-x="599" 
d="M446 574h-96l-68 92l-68 -92h-96l136 158h56zM269 515q114 0 173 -85l5 74h77v-504h-77l-5 74q-59 -85 -173 -85q-105 0 -170 74.5t-65 188.5t65 188.5t170 74.5zM282 434q-72 0 -115.5 -50.5t-43.5 -131.5t43.5 -131.5t115.5 -50.5q64 0 110.5 49t46.5 128v10
q0 79 -46.5 128t-110.5 49z" />
    <glyph glyph-name="zero.tnum" horiz-adv-x="555" 
d="M277 553q110 0 173 -77t63 -205q0 -129 -63 -206.5t-173 -77.5t-172.5 77.5t-62.5 206.5q0 128 62.5 205t172.5 77zM277 469q-67 0 -105 -54.5t-38 -143.5q0 -90 38 -145t105 -55t105.5 55t38.5 145q0 89 -38.5 143.5t-105.5 54.5z" />
    <glyph glyph-name="one.tnum" horiz-adv-x="340" 
d="M265 0h-91v387h-147v66q79 0 117.5 18.5t50.5 68.5h70v-540z" />
    <glyph glyph-name="two.tnum" horiz-adv-x="485" 
d="M244 553q93 0 144 -50.5t51 -132.5q0 -106 -100 -189l-116 -96h229v-85h-400v55l227 186q36 30 52 57t16 68q0 102 -104 102q-47 0 -75.5 -29.5t-27.5 -87.5h-91q-1 92 53 147t142 55z" />
    <glyph glyph-name="three.tnum" horiz-adv-x="530" 
d="M259 553q92 0 145 -54.5t53 -137.5q0 -59 -28.5 -96.5t-69.5 -51.5q51 -13 86.5 -57t35.5 -111q0 -88 -59.5 -143t-154.5 -55q-104 0 -164 56.5t-60 157.5h90q1 -65 37.5 -97t98.5 -32q53 0 86.5 31.5t33.5 84.5q0 60 -43 92t-122 32h-23v80h22q74 0 108 25.5t34 81.5
q0 51 -27 80t-78 29q-49 0 -80 -31.5t-31 -94.5h-91q0 97 54.5 154t146.5 57z" />
    <glyph glyph-name="four.tnum" horiz-adv-x="539" 
d="M412 76h98v-83h-98v-133h-91v133h-296v74l281 473h106v-464zM300 364l-173 -289h195v332z" />
    <glyph glyph-name="five.tnum" horiz-adv-x="531" 
d="M458 455h-285v-192q43 26 109 26q96 0 154.5 -58t58.5 -156q0 -100 -59.5 -164t-160.5 -64q-99 0 -156.5 52.5t-57.5 151.5h91q1 -60 34 -89.5t90 -29.5q60 0 93.5 38t33.5 102q0 61 -34 96.5t-95 35.5q-64 0 -112 -32h-81v368h377v-85z" />
    <glyph glyph-name="six.tnum" horiz-adv-x="544" 
d="M290 432q96 0 154.5 -62.5t58.5 -156.5q0 -99 -60 -162.5t-159 -63.5q-101 0 -165 70q-70 78 -70 265q0 184 57.5 277.5t181.5 93.5q85 0 140.5 -51.5t59.5 -137.5h-92q-10 104 -111 104q-70 0 -105.5 -60.5t-38.5 -193.5q18 34 59.5 56t89.5 22zM282 71q57 0 92.5 40
t35.5 101q0 58 -35.5 96.5t-92.5 38.5q-55 0 -94 -38.5t-39 -95.5q0 -56 37 -99t96 -43z" />
    <glyph glyph-name="seven.tnum" horiz-adv-x="485" 
d="M454 466l-281 -606h-99l276 593h-313v87h417v-74z" />
    <glyph glyph-name="eight.tnum" horiz-adv-x="544" 
d="M272 693q89 0 145 -55.5t56 -136.5q0 -57 -26.5 -96t-59.5 -55q107 -50 107 -165q0 -86 -63 -142t-159 -56t-159.5 56t-63.5 142q0 61 30.5 103.5t76.5 61.5q-33 17 -59 56t-26 95q0 81 55.5 136.5t145.5 55.5zM272 608q-49 0 -80 -30t-31 -79t31 -78t80 -29t80 29t31 78
t-31 79t-80 30zM272 308q-55 0 -92.5 -32.5t-37.5 -87.5q0 -54 37 -85.5t93 -31.5t93 31.5t37 85.5q0 55 -38 87.5t-92 32.5z" />
    <glyph glyph-name="nine.tnum" horiz-adv-x="544" 
d="M424 483q70 -77 70 -265q0 -184 -57.5 -277.5t-181.5 -93.5q-85 0 -140.5 51.5t-59.5 137.5h92q10 -104 111 -104q70 0 105.5 60.5t38.5 193.5q-18 -34 -59.5 -56t-89.5 -22q-96 0 -154.5 62.5t-58.5 156.5q0 99 60 162.5t159 63.5q101 0 165 -70zM261 193q55 0 94 38.5
t39 95.5q0 56 -37 99t-96 43q-57 0 -92.5 -40t-35.5 -101q0 -58 35.5 -96.5t92.5 -38.5z" />
    <glyph glyph-name="zero.dnom" horiz-adv-x="365" 
d="M182 399q70 0 108 -54t38 -148q0 -95 -38 -149.5t-108 -54.5t-107.5 54.5t-37.5 149.5q0 94 37.5 148t107.5 54zM182 334q-36 0 -55 -36t-19 -101q0 -139 74 -139q75 0 75 139q0 137 -75 137z" />
    <glyph glyph-name="one.dnom" horiz-adv-x="244" 
d="M188 0h-70v288h-88v51q47 0 73 12t33 41h52v-392z" />
    <glyph glyph-name="two.dnom" horiz-adv-x="320" 
d="M161 399q60 0 92 -30.5t32 -81.5q0 -57 -52 -114l-96 -107h151v-66h-248v51l131 147q43 47 43 84q0 52 -54 52q-25 0 -40.5 -15.5t-15.5 -45.5h-70q0 57 35 91.5t92 34.5z" />
    <glyph glyph-name="three.dnom" horiz-adv-x="348" 
d="M171 399q58 0 91 -32t33 -81q0 -32 -16 -53t-39 -29q29 -9 49 -32t20 -61q0 -54 -37 -86t-97 -32q-65 0 -101.5 32.5t-36.5 91.5h70q0 -30 19 -45t50 -15q28 0 45.5 15.5t17.5 41.5q0 60 -84 60h-20v57h19q71 0 71 53q0 23 -14 37t-39 14t-41 -14.5t-16 -42.5h-70
q0 57 34 89t92 32z" />
    <glyph glyph-name="four.dnom" horiz-adv-x="361" 
d="M274 135h56v-62h-56v-73h-70v73h-177v56l162 263h85v-257zM193 280l-91 -145h103v168z" />
    <glyph glyph-name="five.dnom" horiz-adv-x="347" 
d="M292 326h-166v-92q26 13 63 13q55 0 89.5 -31.5t34.5 -88.5q0 -59 -36.5 -96.5t-98.5 -37.5t-98 31t-36 88h70q0 -54 64 -54q32 0 49 18t17 49q0 30 -17.5 47.5t-48.5 17.5q-34 0 -60 -16h-62v218h236v-66z" />
    <glyph glyph-name="six.dnom" horiz-adv-x="354" 
d="M192 245q57 0 91.5 -35t34.5 -87q0 -59 -37.5 -94.5t-98.5 -35.5q-63 0 -102 42q-44 47 -44 153q0 211 149 211q54 0 89 -31t36 -83h-70q-6 49 -58 49q-74 0 -75 -124q29 35 85 35zM180 57q30 0 48.5 17.5t18.5 45.5q0 27 -18.5 44.5t-48.5 17.5q-29 0 -49 -17t-20 -43
t19.5 -45.5t49.5 -19.5z" />
    <glyph glyph-name="seven.dnom" horiz-adv-x="307" 
d="M281 336l-161 -336h-76l156 324h-175v68h256v-56z" />
    <glyph glyph-name="eight.dnom" horiz-adv-x="350" 
d="M175 399q56 0 91 -33t35 -81q0 -57 -48 -84q60 -30 60 -90q0 -51 -39.5 -84.5t-98.5 -33.5t-98.5 33.5t-39.5 84.5q0 65 60 90q-48 27 -48 84q0 48 35 81t91 33zM175 337q-25 0 -41 -15t-16 -39q0 -23 16 -38t41 -15t41 15t16 38q0 24 -16 39t-41 15zM175 173
q-28 0 -47.5 -16.5t-19.5 -43.5q0 -26 19.5 -42t47.5 -16q29 0 48.5 16t19.5 42q0 27 -20 43.5t-48 16.5z" />
    <glyph glyph-name="nine.dnom" horiz-adv-x="354" 
d="M275 360q43 -47 43 -156q0 -211 -149 -211q-54 0 -88.5 31t-35.5 83h70q6 -49 57 -49q74 0 75 126q-28 -33 -85 -33t-91.5 33t-34.5 85q0 59 37.5 94.5t98.5 35.5q67 0 103 -39zM174 206q29 0 49 18.5t20 45.5q0 26 -19.5 45.5t-49.5 19.5q-29 0 -48 -18.5t-19 -46.5
q0 -27 19 -45.5t48 -18.5z" />
    <glyph glyph-name="zero.subs" horiz-adv-x="365" 
d="M182 299q70 0 108 -54t38 -148q0 -95 -38 -149.5t-108 -54.5t-107.5 54.5t-37.5 149.5q0 94 37.5 148t107.5 54zM182 234q-36 0 -55 -36t-19 -101q0 -139 74 -139q75 0 75 139q0 137 -75 137z" />
    <glyph glyph-name="one.subs" horiz-adv-x="244" 
d="M188 -100h-70v288h-88v51q47 0 73 12t33 41h52v-392z" />
    <glyph glyph-name="two.subs" horiz-adv-x="320" 
d="M161 299q60 0 92 -30.5t32 -81.5q0 -57 -52 -114l-96 -107h151v-66h-248v51l131 147q43 47 43 84q0 52 -54 52q-25 0 -40.5 -15.5t-15.5 -45.5h-70q0 57 35 91.5t92 34.5z" />
    <glyph glyph-name="three.subs" horiz-adv-x="348" 
d="M171 299q58 0 91 -32t33 -81q0 -32 -16 -53t-39 -29q29 -9 49 -32t20 -61q0 -54 -37 -86t-97 -32q-65 0 -101.5 32.5t-36.5 91.5h70q0 -30 19 -45t50 -15q28 0 45.5 15.5t17.5 41.5q0 60 -84 60h-20v57h19q71 0 71 53q0 23 -14 37t-39 14t-41 -14.5t-16 -42.5h-70
q0 57 34 89t92 32z" />
    <glyph glyph-name="four.subs" horiz-adv-x="361" 
d="M274 35h56v-62h-56v-73h-70v73h-177v56l162 263h85v-257zM193 180l-91 -145h103v168z" />
    <glyph glyph-name="five.subs" horiz-adv-x="347" 
d="M292 226h-166v-92q26 13 63 13q55 0 89.5 -31.5t34.5 -88.5q0 -59 -36.5 -96.5t-98.5 -37.5t-98 31t-36 88h70q0 -54 64 -54q32 0 49 18t17 49q0 30 -17.5 47.5t-48.5 17.5q-34 0 -60 -16h-62v218h236v-66z" />
    <glyph glyph-name="six.subs" horiz-adv-x="354" 
d="M192 145q57 0 91.5 -35t34.5 -87q0 -59 -37.5 -94.5t-98.5 -35.5q-63 0 -102 42q-44 47 -44 153q0 211 149 211q54 0 89 -31t36 -83h-70q-6 49 -58 49q-74 0 -75 -124q29 35 85 35zM180 -43q30 0 48.5 17.5t18.5 45.5q0 27 -18.5 44.5t-48.5 17.5q-29 0 -49 -17t-20 -43
t19.5 -45.5t49.5 -19.5z" />
    <glyph glyph-name="seven.subs" horiz-adv-x="307" 
d="M281 236l-161 -336h-76l156 324h-175v68h256v-56z" />
    <glyph glyph-name="eight.subs" horiz-adv-x="350" 
d="M175 299q56 0 91 -33t35 -81q0 -57 -48 -84q60 -30 60 -90q0 -51 -39.5 -84.5t-98.5 -33.5t-98.5 33.5t-39.5 84.5q0 65 60 90q-48 27 -48 84q0 48 35 81t91 33zM175 237q-25 0 -41 -15t-16 -39q0 -23 16 -38t41 -15t41 15t16 38q0 24 -16 39t-41 15zM175 73
q-28 0 -47.5 -16.5t-19.5 -43.5q0 -26 19.5 -42t47.5 -16q29 0 48.5 16t19.5 42q0 27 -20 43.5t-48 16.5z" />
    <glyph glyph-name="nine.subs" horiz-adv-x="354" 
d="M275 260q43 -47 43 -156q0 -211 -149 -211q-54 0 -88.5 31t-35.5 83h70q6 -49 57 -49q74 0 75 126q-28 -33 -85 -33t-91.5 33t-34.5 85q0 59 37.5 94.5t98.5 35.5q67 0 103 -39zM174 106q29 0 49 18.5t20 45.5q0 26 -19.5 45.5t-49.5 19.5q-29 0 -48 -18.5t-19 -46.5
q0 -27 19 -45.5t48 -18.5z" />
    <glyph glyph-name="zero.numr" horiz-adv-x="365" 
d="M182 707q70 0 108 -54t38 -148q0 -95 -38 -149.5t-108 -54.5t-107.5 54.5t-37.5 149.5q0 94 37.5 148t107.5 54zM182 642q-36 0 -55 -36t-19 -101q0 -139 74 -139q75 0 75 139q0 137 -75 137z" />
    <glyph glyph-name="one.numr" horiz-adv-x="244" 
d="M188 308h-70v288h-88v51q47 0 73 12t33 41h52v-392z" />
    <glyph glyph-name="two.numr" horiz-adv-x="320" 
d="M161 707q60 0 92 -30.5t32 -81.5q0 -57 -52 -114l-96 -107h151v-66h-248v51l131 147q43 47 43 84q0 52 -54 52q-25 0 -40.5 -15.5t-15.5 -45.5h-70q0 57 35 91.5t92 34.5z" />
    <glyph glyph-name="three.numr" horiz-adv-x="348" 
d="M171 707q58 0 91 -32t33 -81q0 -32 -16 -53t-39 -29q29 -9 49 -32t20 -61q0 -54 -37 -86t-97 -32q-65 0 -101.5 32.5t-36.5 91.5h70q0 -30 19 -45t50 -15q28 0 45.5 15.5t17.5 41.5q0 60 -84 60h-20v57h19q71 0 71 53q0 23 -14 37t-39 14t-41 -14.5t-16 -42.5h-70
q0 57 34 89t92 32z" />
    <glyph glyph-name="four.numr" horiz-adv-x="361" 
d="M274 443h56v-62h-56v-73h-70v73h-177v56l162 263h85v-257zM193 588l-91 -145h103v168z" />
    <glyph glyph-name="five.numr" horiz-adv-x="347" 
d="M292 634h-166v-92q26 13 63 13q55 0 89.5 -31.5t34.5 -88.5q0 -59 -36.5 -96.5t-98.5 -37.5t-98 31t-36 88h70q0 -54 64 -54q32 0 49 18t17 49q0 30 -17.5 47.5t-48.5 17.5q-34 0 -60 -16h-62v218h236v-66z" />
    <glyph glyph-name="six.numr" horiz-adv-x="354" 
d="M192 553q57 0 91.5 -35t34.5 -87q0 -59 -37.5 -94.5t-98.5 -35.5q-63 0 -102 42q-44 47 -44 153q0 211 149 211q54 0 89 -31t36 -83h-70q-6 49 -58 49q-74 0 -75 -124q29 35 85 35zM180 365q30 0 48.5 17.5t18.5 45.5q0 27 -18.5 44.5t-48.5 17.5q-29 0 -49 -17t-20 -43
t19.5 -45.5t49.5 -19.5z" />
    <glyph glyph-name="seven.numr" horiz-adv-x="307" 
d="M281 644l-161 -336h-76l156 324h-175v68h256v-56z" />
    <glyph glyph-name="eight.numr" horiz-adv-x="350" 
d="M175 707q56 0 91 -33t35 -81q0 -57 -48 -84q60 -30 60 -90q0 -51 -39.5 -84.5t-98.5 -33.5t-98.5 33.5t-39.5 84.5q0 65 60 90q-48 27 -48 84q0 48 35 81t91 33zM175 645q-25 0 -41 -15t-16 -39q0 -23 16 -38t41 -15t41 15t16 38q0 24 -16 39t-41 15zM175 481
q-28 0 -47.5 -16.5t-19.5 -43.5q0 -26 19.5 -42t47.5 -16q29 0 48.5 16t19.5 42q0 27 -20 43.5t-48 16.5z" />
    <glyph glyph-name="nine.numr" horiz-adv-x="354" 
d="M275 668q43 -47 43 -156q0 -211 -149 -211q-54 0 -88.5 31t-35.5 83h70q6 -49 57 -49q74 0 75 126q-28 -33 -85 -33t-91.5 33t-34.5 85q0 59 37.5 94.5t98.5 35.5q67 0 103 -39zM174 514q29 0 49 18.5t20 45.5q0 26 -19.5 45.5t-49.5 19.5q-29 0 -48 -18.5t-19 -46.5
q0 -27 19 -45.5t48 -18.5z" />
    <glyph glyph-name="zero.lnum" horiz-adv-x="573" 
d="M287 713q112 0 173.5 -97t61.5 -265t-61.5 -266t-173.5 -98t-174 98t-62 266q0 167 62 264.5t174 97.5zM287 628q-70 0 -107 -73.5t-37 -203.5q0 -131 37 -205t107 -74t106.5 74t36.5 205q0 130 -36.5 203.5t-106.5 73.5z" />
    <glyph glyph-name="one.lnum" horiz-adv-x="573" 
d="M367 81h135v-81h-361v81h135v455h-147v78q81 0 118.5 18t49.5 68h70v-619z" />
    <glyph glyph-name="two.lnum" horiz-adv-x="573" 
d="M292 713q94 0 144.5 -52t50.5 -142q0 -96 -85 -205l-179 -229h278v-85h-403v67l225 284q39 50 55.5 85.5t16.5 79.5q0 112 -104 112q-49 0 -79.5 -32.5t-29.5 -97.5h-91q-1 98 54 156.5t147 58.5z" />
    <glyph glyph-name="three.lnum" horiz-adv-x="573" 
d="M288 713q92 0 145 -55.5t53 -141.5q0 -62 -28.5 -100.5t-68.5 -52.5q50 -13 85.5 -58t35.5 -115q0 -90 -60 -146.5t-157 -56.5q-102 0 -161.5 56.5t-59.5 157.5h91q0 -65 36.5 -97t96.5 -32q55 0 88.5 33t33.5 88q0 63 -42.5 96t-122.5 33h-23v80h22q74 0 108.5 27
t34.5 85q0 53 -27.5 83.5t-78.5 30.5q-48 0 -79.5 -31.5t-31.5 -94.5h-90q0 97 54 154t146 57z" />
    <glyph glyph-name="four.lnum" horiz-adv-x="573" 
d="M428 226h98v-83h-98v-143h-91v143h-293v75l276 482h108v-474zM316 527l-172 -302h194v345z" />
    <glyph glyph-name="five.lnum" horiz-adv-x="573" 
d="M479 615h-285v-203q43 26 114 26q94 0 151 -58.5t57 -159.5q0 -103 -59.5 -168t-160.5 -65q-99 0 -156.5 52.5t-57.5 151.5h91q1 -60 34 -89.5t90 -29.5q60 0 93.5 40t33.5 105q0 63 -34 99.5t-95 36.5q-64 0 -112 -32h-81v379h377v-85z" />
    <glyph glyph-name="six.lnum" horiz-adv-x="573" 
d="M302 432q100 0 158 -62t58 -157q0 -99 -60 -162.5t-159 -63.5q-104 0 -165 70q-70 80 -70 275q0 189 57.5 285t181.5 96q85 0 140.5 -52.5t59.5 -140.5h-92q-10 108 -111 108q-70 0 -106 -63.5t-38 -202.5q20 30 59.5 50t86.5 20zM297 71q57 0 92.5 39.5t35.5 100.5
q0 58 -35.5 97t-92.5 39q-55 0 -94 -38.5t-39 -95.5q0 -56 37 -99t96 -43z" />
    <glyph glyph-name="seven.lnum" horiz-adv-x="573" 
d="M503 626l-281 -626h-99l276 613h-320v87h424v-74z" />
    <glyph glyph-name="eight.lnum" horiz-adv-x="573" 
d="M286 713q90 0 145.5 -56.5t55.5 -140.5q0 -59 -26.5 -99t-59.5 -57q43 -19 75.5 -60.5t32.5 -107.5q0 -89 -64 -147t-159 -58q-96 0 -160 58t-64 147q0 63 31 107t77 61q-33 17 -59 57t-26 99q0 84 55.5 140.5t145.5 56.5zM286 629q-49 0 -80 -31.5t-31 -83.5
q0 -51 31 -81.5t80 -30.5t80 30.5t31 81.5q0 52 -31 83.5t-80 31.5zM286 319q-55 0 -93.5 -34t-38.5 -91q0 -56 38.5 -89.5t93.5 -33.5t93 33.5t38 89.5t-38.5 90.5t-92.5 34.5z" />
    <glyph glyph-name="nine.lnum" horiz-adv-x="573" 
d="M439 643q70 -80 70 -275q0 -189 -57.5 -285t-181.5 -96q-85 0 -140.5 52.5t-59.5 140.5h92q10 -108 111 -108q70 0 106 63.5t38 202.5q-20 -30 -59.5 -50t-86.5 -20q-100 0 -158 62t-58 157q0 99 60 162.5t159 63.5q104 0 165 -70zM276 353q55 0 94 38.5t39 95.5
q0 56 -37 99t-96 43q-57 0 -92.5 -39.5t-35.5 -100.5q0 -58 35.5 -97t92.5 -39z" />
    <glyph glyph-name="b.sups" horiz-adv-x="448" 
d="M132 658q42 52 115 52t119 -51.5t46 -128.5t-46 -127.5t-119 -50.5q-43 0 -69.5 14.5t-49.5 41.5l-4 -49h-61v496h69v-197zM235 645q-42 0 -72 -29t-32 -79v-15q0 -49 31 -77.5t74 -28.5q46 0 75 32t29 82q0 51 -29.5 83t-75.5 32z" />
    <glyph glyph-name="c.sups" horiz-adv-x="408" 
d="M210 710q61 0 103.5 -31t54.5 -88h-67q-22 56 -90 56q-44 0 -73.5 -33t-29.5 -84q0 -50 29 -82.5t75 -32.5q32 0 56 15.5t32 40.5h69q-13 -57 -56 -88t-103 -31q-76 0 -125 50t-49 128t49 129t125 51z" />
    <glyph glyph-name="d.sups" horiz-adv-x="448" 
d="M385 359h-61l-4 49q-23 -27 -49.5 -41.5t-69.5 -14.5q-73 0 -119 50.5t-46 127.5t46 128.5t119 51.5t115 -52v197h69v-496zM213 645q-46 0 -75.5 -32t-29.5 -83q0 -50 29 -82t75 -32q43 0 74 28.5t31 77.5v15q-2 50 -32 79t-72 29z" />
    <glyph glyph-name="e.sups" horiz-adv-x="412" 
d="M371 534v-28h-263q1 -42 29 -66.5t73 -24.5q67 0 87 51h69q-15 -54 -56 -84t-102 -30q-76 0 -124 49t-48 129q0 79 47 129.5t123 50.5q74 0 119.5 -45.5t45.5 -130.5zM108 562h191q0 39 -25.5 62t-68.5 23q-41 0 -67 -24t-30 -61z" />
    <glyph glyph-name="f.sups" horiz-adv-x="261" 
d="M195 861q34 0 48 -7v-62q-18 8 -41 8q-49 0 -49 -52v-45h86v-63h-87v-281h-69v281h-61v63h61v47q0 54 29 82.5t83 28.5z" />
    <glyph glyph-name="g.sups" horiz-adv-x="392" 
d="M372 703v-61h-52q13 -23 13 -54q0 -52 -39 -86t-100 -34q-38 0 -73 15q-13 -11 -13 -32q0 -35 42 -35h94q55 0 85 -25.5t30 -70.5q0 -55 -41.5 -85t-112.5 -30q-76 0 -117.5 27t-41.5 77q0 45 38 66q-43 24 -43 71q0 46 36 72q-25 30 -25 70q0 53 40 87.5t102 34.5
q29 0 50 -7h128zM193 519q33 0 53.5 19.5t20.5 49.5q0 31 -20.5 50.5t-53.5 19.5q-32 0 -52.5 -19.5t-20.5 -50.5q0 -30 20.5 -49.5t52.5 -19.5zM161 364q-20 -2 -33.5 -15t-13.5 -35q0 -57 92 -57q85 0 85 59q0 22 -17 35t-45 13h-68z" />
    <glyph glyph-name="h.sups" horiz-adv-x="408" 
d="M132 661q13 21 40.5 35t59.5 14q56 0 87 -35t31 -93v-223h-69v207q0 37 -18 57t-50 20q-34 0 -57.5 -25.5t-23.5 -70.5v-188h-69v496h69v-194z" />
    <glyph glyph-name="i.sups" horiz-adv-x="200" 
d="M100 851q19 0 32 -13t13 -32q0 -18 -13 -31t-32 -13t-32 13t-13 31q0 19 13 32t32 13zM134 359h-69v344h69v-344z" />
    <glyph glyph-name="j.sups" horiz-adv-x="200" 
d="M100 851q18 0 31.5 -13t13.5 -32q0 -18 -13.5 -31t-31.5 -13q-19 0 -32 13t-13 31q0 19 13 32t32 13zM134 329q0 -124 -109 -124q-28 0 -49 6v63q18 -6 38 -6q28 0 39.5 15.5t11.5 47.5v372h69v-374z" />
    <glyph glyph-name="k.sups" horiz-adv-x="382" 
d="M136 549l124 154h83l-111 -143l130 -201h-79l-99 147l-48 -57v-90h-68v496h68v-306z" />
    <glyph glyph-name="l.sups" horiz-adv-x="200" 
d="M135 359h-69v496h69v-496z" />
    <glyph glyph-name="m.sups" horiz-adv-x="620" 
d="M447 710q55 0 85 -35t30 -93v-223h-69v207q0 77 -65 77q-35 0 -57.5 -25.5t-22.5 -70.5v-188h-69v207q0 38 -18 57.5t-49 19.5q-34 0 -57 -25.5t-23 -70.5v-188h-69v344h61l4 -48q13 24 41 39.5t62 15.5q77 0 105 -65q14 29 43.5 47t67.5 18z" />
    <glyph glyph-name="o.sups" horiz-adv-x="435" 
d="M217 710q80 0 130.5 -50.5t50.5 -129.5q0 -78 -51 -128t-130 -50t-130 50t-51 128q0 79 50.5 129.5t130.5 50.5zM218 647q-49 0 -79.5 -33t-30.5 -83t30.5 -83t79.5 -33q48 0 78.5 33t30.5 83t-30.5 83t-78.5 33z" />
    <glyph glyph-name="p.sups" horiz-adv-x="453" 
d="M252 710q73 0 119 -50.5t46 -127.5t-46 -128.5t-119 -51.5t-115 52v-191h-69v490h61l4 -49q23 27 49.5 41.5t69.5 14.5zM241 646q-43 0 -74 -28.5t-31 -77.5v-15q2 -50 32 -79t72 -29q46 0 75.5 32t29.5 83q0 50 -29 82t-75 32z" />
    <glyph glyph-name="q.sups" horiz-adv-x="453" 
d="M201 710q43 0 69.5 -14.5t49.5 -41.5l4 49h61v-490h-69v191q-42 -52 -115 -52t-119 51.5t-46 128.5t46 127.5t119 50.5zM212 646q-46 0 -75 -32t-29 -82q0 -51 29.5 -83t75.5 -32q42 0 72 29t32 79v15q0 49 -31 77.5t-74 28.5z" />
    <glyph glyph-name="r.sups" horiz-adv-x="271" 
d="M242 637q-47 0 -74 -24q-32 -27 -32 -74v-180h-68v344h60l5 -54q29 57 109 57v-69z" />
    <glyph glyph-name="s.sups" horiz-adv-x="345" 
d="M172 710q54 0 88.5 -29t35.5 -78h-70q-2 44 -56 44q-53 0 -53 -39q0 -20 14.5 -29t57.5 -18q62 -13 89.5 -37t27.5 -65q0 -52 -37.5 -79.5t-94.5 -27.5q-62 0 -98 30t-38 80h70q1 -47 68 -47q28 0 44 11.5t16 29.5q0 20 -16 30t-62 20q-111 23 -111 100q0 45 33 74.5
t92 29.5z" />
    <glyph glyph-name="t.sups" horiz-adv-x="275" 
d="M152 703h88v-64h-88l-1 -168q0 -29 10 -41.5t38 -12.5q24 0 41 5v-60q-22 -8 -54 -8q-53 0 -79 24.5t-25 77.5l1 183h-64v64h64l1 84h69z" />
    <glyph glyph-name="u.sups" horiz-adv-x="404" 
d="M341 359h-61l-4 46q-12 -21 -39 -37t-64 -16q-55 0 -85 34.5t-30 92.5v224h69v-209q0 -37 17.5 -56.5t48.5 -19.5q33 0 56 25t23 68v192h69v-344z" />
    <glyph glyph-name="v.sups" horiz-adv-x="378" 
d="M224 359h-70l-132 344h74l86 -234l7 -28l8 28l86 234h74z" />
    <glyph glyph-name="w.sups" horiz-adv-x="564" 
d="M432 359h-71l-79 230l-82 -230h-67l-111 344h73l68 -229l8 -33l7 33l74 229h60l73 -229l8 -33l7 33l68 229h74z" />
    <glyph glyph-name="x.sups" horiz-adv-x="386" 
d="M240 535l119 -176h-81l-85 123l-85 -123h-81l120 176l-113 168h81l78 -114l79 114h80z" />
    <glyph glyph-name="y.sups" horiz-adv-x="380" 
d="M167 213h-72l57 151l-130 339h74l86 -234l7 -28l8 28l86 234h74z" />
    <glyph glyph-name="z.sups" horiz-adv-x="349" 
d="M309 650l-180 -230h191v-61h-283v52l180 230h-179v62h271v-53z" />
    <glyph glyph-name="a.sups" horiz-adv-x="379" 
d="M188 710q63 0 98.5 -31.5t35.5 -92.5v-227h-61l-3 42q-38 -49 -108 -49q-48 0 -76.5 25.5t-28.5 69.5q0 83 104 102l104 20v15q0 63 -65 63q-30 0 -48 -14.5t-18 -41.5h-68q2 52 38 85.5t96 33.5zM161 494q-47 -9 -47 -43q0 -17 13 -27.5t35 -10.5q49 0 73 31
q18 23 18 50v18z" />
    <glyph glyph-name="g.alt.sups" horiz-adv-x="450" 
d="M198 710q73 0 119 -57l4 50h61v-337q0 -73 -47 -117t-124 -44q-66 0 -110.5 30.5t-54.5 93.5h68q15 -61 97 -61q48 0 75 25.5t27 70.5v45q-43 -51 -115 -51t-117 49.5t-45 126.5q0 78 45 127t117 49zM210 645q-46 0 -74 -30.5t-28 -80.5q0 -49 28.5 -80t73.5 -31
q43 0 73.5 28t30.5 76v15q0 48 -30.5 75.5t-73.5 27.5z" />
    <glyph glyph-name="a.alt.sups" horiz-adv-x="448" 
d="M201 710q75 0 119 -56l4 49h61v-344h-61l-4 49q-44 -56 -119 -56q-73 0 -119 51t-46 128t46 128t119 51zM212 646q-46 0 -75 -32t-29 -83t29 -83t75 -32q43 0 74 28.5t31 77.5v18q0 49 -31 77.5t-74 28.5z" />
    <glyph glyph-name="g_i.alt" horiz-adv-x="586" 
d="M294 745q118 0 190.5 -76t72.5 -193q0 -116 -72.5 -192.5t-190.5 -76.5t-191.5 76.5t-73.5 192.5q0 117 73 193t192 76zM294 690q-92 0 -149 -60.5t-57 -153.5q0 -92 57 -153t149 -61q91 0 147.5 61t56.5 153q0 93 -56 153.5t-148 60.5z" />
    <glyph glyph-name="zero.slash" horiz-adv-x="555" 
d="M278 713q112 0 173.5 -97.5t61.5 -264.5q0 -168 -61.5 -266t-173.5 -98t-173.5 98t-61.5 266t61.5 265t173.5 97zM278 628q-70 0 -106.5 -73.5t-36.5 -203.5q0 -94 20 -162l210 395q-35 44 -87 44zM278 72q69 0 105.5 74t36.5 205q0 94 -20 162l-211 -396q36 -45 89 -45z
" />
    <glyph glyph-name="L_a_r_s_s_e_i_t" horiz-adv-x="3017" 
d="M1682 214q91 -10 144 -70t53 -141q0 -104 -60 -163.5t-175 -59.5q-41 0 -83 8l4 87q44 -11 72 -11q71 0 111 35t40 103q0 64 -44 100t-117 36h-47v59l149 227h-230v-424h-90v531q0 204 199 204v-83q-109 0 -109 -119v-29h330v-69zM2548 718q25 0 42.5 -17t17.5 -42
q0 -24 -17.5 -41t-42.5 -17t-42 17t-17 41q0 25 17 42t42 17zM167 700v-615h312v-85h-403v700h91zM2987 424h-130l-2 -270q0 -44 15 -63t57 -19q33 0 60 9v-77q-28 -11 -75 -11q-73 0 -108.5 34.5t-34.5 110.5l2 286h-94v80h94l1 126h87l-1 -126h129v-80zM750 515
q85 0 132.5 -47t47.5 -134v-334h-78l-4 69q-20 -36 -60 -58t-93 -22q-67 0 -107 38.5t-40 103.5q0 119 141 146l154 29v25q0 104 -93 104q-44 0 -73.5 -24t-29.5 -68h-85q2 74 54 123t134 49zM2162 515q103 0 166 -66t63 -190v-41h-382q4 -69 47 -109t108 -40q105 0 136 82
h86q-23 -76 -80.5 -119t-143.5 -43q-107 0 -175 72t-68 190q0 115 67 189.5t176 74.5zM1159 416q14 39 52.5 66t98.5 27v-86q-62 0 -102 -37q-45 -41 -46 -119v-267h-86v504h77zM2505 0v504h86v-504h-86zM2009 295h295q-1 64 -40 102t-102 38t-104 -39t-49 -101zM843 212v19
l-138 -30q-33 -8 -51.5 -23t-18.5 -46q0 -30 20 -46.5t57 -16.5q66 0 102 50q29 39 29 93z" />
    <glyph glyph-name="A.smcp" horiz-adv-x="571" 
d="M555 0h-96l-55 132h-236l-54 -132h-97l222 539h94zM275 399l-79 -190h180l-80 190l-10 30z" />
    <glyph glyph-name="B.smcp" horiz-adv-x="485" 
d="M237 539q83 0 131 -40.5t48 -109.5t-55 -108q42 -15 65.5 -47.5t23.5 -76.5q0 -71 -50.5 -114t-136.5 -43h-191v539h165zM161 457v-145h79q40 0 63 19.5t23 51.5q0 35 -23.5 54.5t-65.5 19.5h-76zM161 235v-153h102q44 0 69.5 20.5t25.5 56.5t-25 56t-70 20h-102z" />
    <glyph glyph-name="C.smcp" horiz-adv-x="592" 
d="M315 549q98 0 160 -47t86 -130h-98q-34 95 -148 95q-81 0 -131 -55.5t-50 -141.5t50 -142t131 -56q117 0 153 99h94q-48 -181 -247 -181q-121 0 -196.5 79t-75.5 201q0 121 76 200t196 79z" />
    <glyph glyph-name="D.smcp" horiz-adv-x="606" 
d="M277 539q131 0 208.5 -74.5t77.5 -194.5q0 -122 -77.5 -196t-208.5 -74h-205v539h205zM161 456v-373h116q92 0 143.5 49.5t51.5 137.5t-51.5 137t-143.5 49h-116z" />
    <glyph glyph-name="E.smcp" horiz-adv-x="435" 
d="M386 456h-225v-138h197v-83h-197v-152h225v-83h-314v539h314v-83z" />
    <glyph glyph-name="F.smcp" horiz-adv-x="412" 
d="M380 456h-219v-145h186v-82h-186v-229h-89v539h308v-83z" />
    <glyph glyph-name="G.smcp" horiz-adv-x="626" 
d="M322 549q99 0 163.5 -47.5t88.5 -129.5h-98q-36 95 -156 95q-81 0 -133 -56t-52 -141q0 -86 53 -142t136 -56q72 0 115 33t46 96h-153v83h248v-42q0 -118 -69.5 -185t-186.5 -67q-123 0 -201.5 79.5t-78.5 200.5t78 200t200 79z" />
    <glyph glyph-name="H.smcp" horiz-adv-x="594" 
d="M522 0h-89v237h-272v-237h-89v539h89v-219h272v219h89v-539z" />
    <glyph glyph-name="I.smcp" horiz-adv-x="233" 
d="M161 0h-89v539h89v-539z" />
    <glyph glyph-name="J.smcp" horiz-adv-x="428" 
d="M363 163q0 -81 -44 -125t-119 -44q-86 0 -129 47t-45 130h88q4 -94 84 -94q76 0 76 89v373h89v-376z" />
    <glyph glyph-name="K.smcp" horiz-adv-x="564" 
d="M311 297l229 -297h-113l-174 228l-89 -106v-122h-89v539h89v-289l229 289h110z" />
    <glyph glyph-name="L.smcp" horiz-adv-x="425" 
d="M160 83h243v-83h-331v539h88v-456z" />
    <glyph glyph-name="M.smcp" horiz-adv-x="730" 
d="M658 0h-89v371l-15 -45l-152 -326h-74l-152 326l-15 45v-371h-89v539h100l179 -371l14 -33l13 33l180 371h100v-539z" />
    <glyph glyph-name="N.smcp" horiz-adv-x="600" 
d="M528 0h-87l-258 355l-22 35v-390h-89v539h88l257 -355l22 -36v391h89v-539z" />
    <glyph glyph-name="O.smcp" horiz-adv-x="647" 
d="M324 549q124 0 202 -79t78 -200t-78.5 -200.5t-201.5 -79.5q-125 0 -203 79.5t-78 200.5t78 200t203 79zM324 467q-86 0 -138 -55.5t-52 -141.5t52 -142t138 -56q85 0 136.5 56t51.5 142t-51.5 141.5t-136.5 55.5z" />
    <glyph glyph-name="P.smcp" horiz-adv-x="463" 
d="M244 539q86 0 137.5 -47t51.5 -123q0 -74 -51.5 -121t-137.5 -47h-83v-201h-89v539h172zM161 456v-172h83q46 0 72.5 22.5t26.5 62.5q0 41 -27 64t-72 23h-83z" />
    <glyph glyph-name="Q.smcp" horiz-adv-x="647" 
d="M634 -69h-124l-82 77q-46 -18 -104 -18q-125 0 -203 79.5t-78 200.5t78 200t203 79q124 0 202 -79t78 -200q0 -137 -96 -217zM134 270q0 -86 52 -142t138 -56q19 0 35 3l-84 82h125l45 -44q67 56 67 157q0 86 -51.5 141.5t-136.5 55.5q-86 0 -138 -55.5t-52 -141.5z" />
    <glyph glyph-name="R.smcp" horiz-adv-x="463" 
d="M446 0h-101l-115 210h-69v-210h-89v539h161q87 0 138 -46t51 -122q0 -51 -26.5 -89t-74.5 -57zM161 456v-167h72q46 0 72.5 21.5t26.5 60.5q0 41 -26.5 63t-72.5 22h-72z" />
    <glyph glyph-name="S.smcp" horiz-adv-x="446" 
d="M224 549q76 0 121 -40t48 -116h-90q-1 37 -23 57t-59 20q-36 0 -56 -18t-20 -51t22.5 -50.5t82.5 -37.5q87 -30 123 -66.5t36 -96.5q0 -75 -49.5 -117.5t-128.5 -42.5q-90 0 -139.5 47t-50.5 125h89q3 -94 102 -94q42 0 65 21t23 54q0 30 -25 50t-84 39
q-80 27 -117.5 62.5t-37.5 99.5q0 68 44.5 111.5t123.5 43.5z" />
    <glyph glyph-name="T.smcp" horiz-adv-x="490" 
d="M480 456h-191v-456h-88v456h-192v83h471v-83z" />
    <glyph glyph-name="U.smcp" horiz-adv-x="576" 
d="M511 215q0 -108 -58 -166.5t-164 -58.5q-107 0 -165.5 58.5t-58.5 166.5v324h89v-324q0 -143 135 -143q133 0 133 143v324h89v-324z" />
    <glyph glyph-name="V.smcp" horiz-adv-x="559" 
d="M320 0h-83l-222 539h94l158 -381l11 -35l12 35l158 381h95z" />
    <glyph glyph-name="W.smcp" horiz-adv-x="803" 
d="M611 0h-91l-110 341l-8 36l-9 -36l-110 -341h-89l-176 539h93l121 -367l8 -39l8 39l115 367h78l115 -367l7 -39l10 39l119 367h93z" />
    <glyph glyph-name="X.smcp" horiz-adv-x="566" 
d="M343 274l196 -274h-105l-152 208l-151 -208h-104l196 274l-189 265h105l143 -199l145 199h105z" />
    <glyph glyph-name="Y.smcp" horiz-adv-x="550" 
d="M319 202v-202h-89v202l-217 337h103l138 -214l21 -37l21 37l138 214h102z" />
    <glyph glyph-name="Z.smcp" horiz-adv-x="486" 
d="M442 467l-292 -384h302v-83h-416v72l293 384h-290v83h403v-72z" />
    <glyph glyph-name="Aringacute.smcp" horiz-adv-x="571" 
d="M287 586q-45 0 -75 29.5t-30 72.5q0 57 44 86l86 97h131l-107 -89q57 -28 57 -94q0 -43 -29.5 -72.5t-76.5 -29.5zM287 640q22 0 35.5 14.5t13.5 34.5q0 21 -13.5 35t-35.5 14q-21 0 -34.5 -14t-13.5 -35q0 -20 13.5 -34.5t34.5 -14.5zM333 539l222 -539h-96l-55 132
h-236l-54 -132h-97l222 539h94zM196 209h180l-80 190l-10 30l-11 -30z" />
    <glyph glyph-name="Aogonek.smcp" horiz-adv-x="571" 
d="M562 -132l14 -54q-21 -12 -59 -12q-49 0 -81 30t-32 81q0 59 51 97l-51 122h-236l-54 -132h-97l222 539h94l222 -539h-26q-64 -29 -64 -85q0 -26 14.5 -41t39.5 -15q28 0 43 9zM196 209h180l-80 190l-10 30l-11 -30z" />
    <glyph glyph-name="AE.smcp" horiz-adv-x="766" 
d="M721 456h-226v-138h198v-83h-198v-152h226v-83h-315v132h-197l-93 -132h-104l363 539h346v-83zM389 400l-132 -191h149v222z" />
    <glyph glyph-name="AEacute.smcp" horiz-adv-x="766" 
d="M558 604h-82l111 158h114zM721 456h-226v-138h198v-83h-198v-152h226v-83h-315v132h-197l-93 -132h-104l363 539h346v-83zM389 400l-132 -191h149v222z" />
    <glyph glyph-name="Ccedilla.smcp" horiz-adv-x="592" 
d="M562 171q-46 -172 -228 -181l-10 -40h3q39 0 63.5 -22.5t24.5 -60.5q0 -42 -29 -65.5t-76 -23.5q-58 0 -91 36l32 44q22 -26 61 -26q45 0 45 34q0 35 -42 35q-13 0 -33 -5l-22 9l21 87q-107 11 -172.5 88t-65.5 190q0 121 76 200t196 79q98 0 160 -47t86 -130h-98
q-34 95 -148 95q-81 0 -131 -55.5t-50 -141.5t50 -142t131 -56q117 0 153 99h94z" />
    <glyph glyph-name="Dcaron.smcp" horiz-adv-x="606" 
d="M311 594h-56l-136 158h96l68 -92l68 92h96zM277 539q131 0 208.5 -74.5t77.5 -194.5q0 -122 -77.5 -196t-208.5 -74h-205v539h205zM161 456v-373h116q92 0 143.5 49.5t51.5 137.5t-51.5 137t-143.5 49h-116z" />
    <glyph glyph-name="Dcroat.smcp" horiz-adv-x="616" 
d="M287 539q131 0 208.5 -74.5t77.5 -194.5q0 -122 -77.5 -196t-208.5 -74h-205v240h-64v63h64v236h205zM287 83q92 0 143.5 49.5t51.5 137.5t-51.5 137t-143.5 49h-116v-153h94v-63h-94v-157h116z" />
    <glyph glyph-name="Eogonek.smcp" horiz-adv-x="435" 
d="M394 -132l14 -54q-21 -12 -59 -12q-49 0 -81 30t-32 81q0 53 39 87h-203v539h314v-83h-225v-138h197v-83h-197v-152h225v-83h-25q-64 -29 -64 -85q0 -26 14.5 -41t39.5 -15q28 0 43 9z" />
    <glyph glyph-name="Gcommaaccent.smcp" horiz-adv-x="626" 
d="M322 549q99 0 163.5 -47.5t88.5 -129.5h-98q-36 95 -156 95q-81 0 -133 -56t-52 -141q0 -86 53 -142t136 -56q72 0 115 33t46 96h-153v83h248v-42q0 -118 -69.5 -185t-186.5 -67q-123 0 -201.5 79.5t-78.5 200.5t78 200t200 79zM313 -45q26 0 43 -18t17 -47
q0 -41 -20.5 -85.5t-52.5 -77.5l-25 15q27 44 32 95q-24 2 -39 18t-15 40q0 25 17.5 42.5t42.5 17.5z" />
    <glyph glyph-name="Hbar.smcp" horiz-adv-x="601" 
d="M585 462v-58h-60v-404h-89v237h-272v-237h-89v404h-59v58h59v77h89v-77h272v77h89v-77h60zM436 320v84h-272v-84h272z" />
    <glyph glyph-name="Kcommaaccent.smcp" horiz-adv-x="564" 
d="M311 297l229 -297h-113l-174 228l-89 -106v-122h-89v539h89v-289l229 289h110zM283 -36q26 0 43 -18t17 -47q0 -41 -20.5 -85.5t-52.5 -77.5l-25 15q27 44 32 95q-24 2 -39 18t-15 40q0 26 17.5 43t42.5 17z" />
    <glyph glyph-name="Lcaron.smcp" horiz-adv-x="425" 
d="M365 575q26 0 43.5 -18t17.5 -47q0 -93 -73 -177l-28 11q28 52 35 113q-24 2 -39.5 18t-15.5 40q0 25 17.5 42.5t42.5 17.5zM160 83h243v-83h-331v539h88v-456z" />
    <glyph glyph-name="Lcommaaccent.smcp" horiz-adv-x="425" 
d="M160 83h243v-83h-331v539h88v-456zM237 -36q26 0 43 -18t17 -47q0 -41 -20.5 -85.5t-52.5 -77.5l-25 15q27 44 32 95q-24 2 -39 18t-15 40q0 26 17.5 43t42.5 17z" />
    <glyph glyph-name="Lslash.smcp" horiz-adv-x="439" 
d="M171 83h243v-83h-331v202l-59 -22l-22 58l81 31v270h88v-236l68 26l22 -59l-90 -34v-153z" />
    <glyph glyph-name="Ldot.smcp" horiz-adv-x="425" 
d="M160 83h243v-83h-331v539h88v-456zM331 322q26 0 44.5 -18t18.5 -44q0 -27 -18.5 -45t-44.5 -18q-27 0 -45 18t-18 45q0 26 18 44t45 18z" />
    <glyph glyph-name="Oslash.smcp" horiz-adv-x="654" 
d="M500 495q107 -80 107 -225q0 -121 -78.5 -200.5t-201.5 -79.5q-60 0 -115 21l-40 -67l-58 32l40 67q-51 38 -79.5 97t-28.5 130q0 121 78 200t203 79q62 0 115 -22l40 67l58 -33zM137 270q0 -96 62 -152l200 336q-32 13 -72 13q-86 0 -138 -55.5t-52 -141.5zM327 72
q85 0 136.5 56t51.5 142q0 95 -59 149l-200 -335q32 -12 71 -12z" />
    <glyph glyph-name="OE.smcp" horiz-adv-x="878" 
d="M828 456h-225v-138h197v-83h-197v-152h225v-83h-314v72q-74 -82 -193 -82q-123 0 -200.5 79.5t-77.5 200.5t77.5 200t200.5 79q119 0 193 -82v72h314v-83zM325 72q86 0 137.5 56t51.5 142t-51.5 141.5t-137.5 55.5q-85 0 -138 -55.5t-53 -141.5t53 -142t138 -56z" />
    <glyph glyph-name="Scedilla.smcp" horiz-adv-x="446" 
d="M409 150q0 -70 -44 -112t-116 -47l-10 -41h3q39 0 63.5 -22.5t24.5 -60.5q0 -42 -29 -65.5t-76 -23.5q-58 0 -91 36l32 44q22 -26 61 -26q45 0 45 34q0 35 -42 35q-13 0 -33 -5l-22 9l22 87q-74 9 -114.5 54.5t-41.5 115.5h89q3 -94 102 -94q42 0 65 21t23 54
q0 30 -25 50t-84 39q-80 27 -117.5 62.5t-37.5 99.5q0 68 44.5 111.5t123.5 43.5q76 0 121 -40t48 -116h-90q-1 37 -23 57t-59 20q-36 0 -56 -18t-20 -51t22.5 -50.5t82.5 -37.5q87 -30 123 -66.5t36 -96.5z" />
    <glyph glyph-name="Scommaaccent.smcp" horiz-adv-x="446" 
d="M224 549q76 0 121 -40t48 -116h-90q-1 37 -23 57t-59 20q-36 0 -56 -18t-20 -51t22.5 -50.5t82.5 -37.5q87 -30 123 -66.5t36 -96.5q0 -75 -49.5 -117.5t-128.5 -42.5q-90 0 -139.5 47t-50.5 125h89q3 -94 102 -94q42 0 65 21t23 54q0 30 -25 50t-84 39
q-80 27 -117.5 62.5t-37.5 99.5q0 68 44.5 111.5t123.5 43.5zM227 -41q26 0 43 -18t17 -47q0 -41 -20.5 -85.5t-52.5 -77.5l-25 15q27 44 32 95q-24 2 -39 18t-15 40q0 25 17.5 42.5t42.5 17.5z" />
    <glyph glyph-name="germandbls.smcp" horiz-adv-x="522" 
d="M347 320q63 -7 102 -48t39 -104q0 -80 -51 -126.5t-146 -46.5q-31 0 -73 6l2 84q38 -8 66 -8q52 0 81.5 22.5t29.5 65.5q0 45 -38.5 69t-106.5 24l-14 39l111 145q-28 25 -79 25q-49 0 -80 -30t-31 -81v-356h-89v355q0 86 54 140t149 54q112 0 190 -78z" />
    <glyph glyph-name="Tcommaaccent.smcp" horiz-adv-x="490" 
d="M480 456h-191v-456h-88v456h-192v83h471v-83zM244 -37q26 0 43 -18t17 -47q0 -41 -20.5 -85.5t-52.5 -77.5l-25 15q28 44 32 95q-24 2 -39 18t-15 40q0 25 17 42.5t43 17.5z" />
    <glyph glyph-name="Tbar.smcp" horiz-adv-x="490" 
d="M480 456h-191v-161h120v-63h-120v-232h-88v232h-120v63h120v161h-192v83h471v-83z" />
    <glyph glyph-name="Uogonek.smcp" horiz-adv-x="576" 
d="M422 539h89v-324q0 -85 -37 -140t-106 -75q-45 -27 -45 -75q0 -26 14.5 -41t39.5 -15q28 0 43 9l14 -54q-21 -12 -59 -12q-49 0 -81 30t-32 81q0 38 21 67q-104 2 -161 60t-57 165v324h89v-324q0 -143 135 -143q133 0 133 143v324z" />
    <glyph glyph-name="Eng.smcp" horiz-adv-x="600" 
d="M439 539h89v-538v-1q0 -82 -44 -124t-124 -42v79q79 0 79 84v6l-256 352l-22 35v-390h-89v539h88l257 -355l22 -36v391z" />
    <glyph glyph-name="Eth.smcp" horiz-adv-x="616" 
d="M287 539q131 0 208.5 -74.5t77.5 -194.5q0 -122 -77.5 -196t-208.5 -74h-205v240h-64v63h64v236h205zM287 83q92 0 143.5 49.5t51.5 137.5t-51.5 137t-143.5 49h-116v-153h94v-63h-94v-157h116z" />
    <glyph glyph-name="Thorn.smcp" horiz-adv-x="481" 
d="M161 457h98q85 0 135 -44t50 -116q0 -71 -50 -115.5t-135 -44.5h-98v-137h-89v539h89v-82zM161 374v-154h98q43 0 69 20.5t26 56.5t-25.5 56.5t-69.5 20.5h-98z" />
    <glyph glyph-name="exclam.smcp" horiz-adv-x="229" 
d="M156 163h-84v376h84v-376zM114 100q24 0 40.5 -15.5t16.5 -38.5t-16.5 -38.5t-40.5 -15.5t-40 15.5t-16 38.5t16 38.5t40 15.5z" />
    <glyph glyph-name="question.smcp" horiz-adv-x="366" 
d="M180 551q68 0 115.5 -39.5t47.5 -108.5q0 -38 -13 -68t-31.5 -48t-37 -33t-31.5 -32t-13 -36v-23h-84v26q0 29 13.5 52t32.5 39t38 31.5t32.5 38t13.5 50.5q0 39 -22.5 60.5t-59.5 21.5q-40 0 -63.5 -23t-23.5 -64h-79q1 73 47.5 114.5t117.5 41.5zM174 100
q24 0 40.5 -15.5t16.5 -38.5t-16.5 -38.5t-40.5 -15.5q-23 0 -39.5 15.5t-16.5 38.5t16.5 38.5t39.5 15.5z" />
    <glyph glyph-name="parenleft.smcp" horiz-adv-x="239" 
d="M229 548q-54 -68 -78 -132t-24 -149t24 -149t78 -132l-59 -40q-61 71 -92.5 147t-31.5 174q0 177 124 322z" />
    <glyph glyph-name="parenright.smcp" horiz-adv-x="239" 
d="M70 589q123 -146 123 -322q0 -98 -31.5 -173.5t-91.5 -147.5l-60 40q54 67 78.5 131.5t24.5 149.5t-24.5 149.5t-78.5 131.5z" />
    <glyph glyph-name="bracketleft.smcp" horiz-adv-x="259" 
d="M235 495h-88v-458h88v-76h-167v610h167v-76z" />
    <glyph glyph-name="bracketright.smcp" horiz-adv-x="259" 
d="M192 -39h-168v76h88v458h-88v76h168v-610z" />
    <glyph glyph-name="braceleft.smcp" horiz-adv-x="247" 
d="M223 495h-18q-52 0 -52 -55v-94q0 -64 -53 -80q53 -17 53 -80v-94q0 -55 52 -55h18v-76h-21q-63 0 -95 34.5t-32 94.5v84q0 55 -52 55h-12v74h12q52 0 52 55v84q0 61 32 95t95 34h21v-76z" />
    <glyph glyph-name="braceright.smcp" horiz-adv-x="247" 
d="M45 571q63 0 95.5 -34t32.5 -95v-84q0 -55 52 -55h11v-74h-11q-52 0 -52 -55v-84q0 -60 -32.5 -94.5t-95.5 -34.5h-21v76h18q52 0 52 55v94q0 63 53 80q-53 16 -53 80v94q0 55 -52 55h-18v76h21z" />
    <glyph glyph-name="Euro.smcp" horiz-adv-x="505" 
d="M288 72q83 0 97 82h95q-38 -164 -191 -164q-77 0 -129 47.5t-72 132.5h-64v63h55q-1 12 -1 37q0 26 1 39h-55v63h65q20 84 71.5 130.5t128.5 46.5q160 0 191 -163h-95q-13 81 -97 81q-78 0 -107 -95h109v-63h-120q-2 -24 -2 -39q0 -25 1 -37h121v-63h-110q28 -98 108 -98
z" />
    <glyph glyph-name="dollar.smcp" horiz-adv-x="466" 
d="M412 150q0 -68 -41 -109.5t-109 -49.5v-78h-64v79q-74 10 -113.5 55t-40.5 115h89q3 -73 65 -90v166q-71 25 -105 60t-34 96t36.5 103t102.5 50v73h64v-73q60 -9 95.5 -48.5t38.5 -105.5h-90q-2 53 -44 70v-153q82 -29 116 -65.5t34 -94.5zM148 401q0 -24 12 -39.5
t38 -27.5v133q-50 -13 -50 -66zM262 71q29 6 45 25t16 47q0 43 -61 71v-143z" />
    <glyph glyph-name="cent.smcp" horiz-adv-x="464" 
d="M422 129q-12 -58 -52 -92.5t-98 -42.5v-74h-64v74q-76 11 -122 65.5t-46 134.5t46.5 135.5t121.5 66.5v73h64v-73q58 -8 97.5 -43t51.5 -94h-82q-17 45 -67 58v-246q51 12 67 58h83zM126 194q0 -44 22.5 -77t59.5 -44v243q-37 -11 -59.5 -44t-22.5 -78z" />
    <glyph glyph-name="sterling.smcp" horiz-adv-x="440" 
d="M342 147h79q-1 -73 -39.5 -110t-107.5 -37h-242v27l34 44q45 57 45 123q0 16 -3 31h-82v65h61q-27 64 -27 102q0 71 45.5 114t116.5 43q73 0 116.5 -40t45.5 -114h-82q0 35 -20.5 56t-55.5 21q-36 0 -57 -21.5t-21 -60.5q0 -34 28 -100h117v-65h-98q2 -20 2 -33
q0 -48 -29 -90l-11 -18h121q34 0 49 15t15 48z" />
    <glyph glyph-name="florin.smcp" horiz-adv-x="306" 
d="M266 570q33 0 55 -9l-8 -74q-19 8 -44 8q-56 0 -63 -58l-5 -48h101l-8 -76h-101l-41 -362q-6 -60 -43.5 -92.5t-98.5 -32.5q-31 0 -55 8l8 75q22 -9 44 -9q57 0 63 58l39 355h-72l8 76h72l6 55q8 60 45 93t98 33z" />
    <glyph glyph-name="yen.smcp" horiz-adv-x="556" 
d="M544 539l-185 -287h75v-61h-107v-54h107v-60h-107v-77h-89v77h-104v60h104v54h-104v61h72l-185 287h103l138 -214l21 -37l21 37l138 214h102z" />
    <glyph glyph-name="zero.smcp" horiz-adv-x="475" 
d="M238 549q92 0 142 -74.5t50 -204.5t-50 -205t-142 -75t-142.5 75t-50.5 205t50 204.5t143 74.5zM238 467q-51 0 -77 -52t-26 -145q0 -94 26 -146t77 -52q50 0 76.5 52.5t26.5 145.5t-26.5 145t-76.5 52z" />
    <glyph glyph-name="one.smcp" horiz-adv-x="313" 
d="M242 0h-89v393h-117v75q68 0 98.5 15t40.5 56h67v-539z" />
    <glyph glyph-name="two.smcp" horiz-adv-x="417" 
d="M212 549q78 0 119.5 -41t41.5 -112q0 -78 -68 -156l-132 -157h206v-83h-329v64l177 208q31 36 44 62t13 58q0 75 -73 75q-35 0 -56.5 -22t-20.5 -65h-89q-1 77 45.5 123t121.5 46z" />
    <glyph glyph-name="three.smcp" horiz-adv-x="455" 
d="M222 549q77 0 121 -43.5t44 -110.5q0 -45 -22 -74.5t-53 -40.5q39 -10 66.5 -43t27.5 -86q0 -73 -49.5 -117t-130.5 -44q-84 0 -132.5 45t-48.5 125h88q1 -44 27 -66t69 -22q39 0 63 22.5t24 59.5q0 86 -117 86h-24v77h23q100 0 100 74q0 35 -19.5 55.5t-55.5 20.5
q-34 0 -56 -21.5t-22 -63.5h-88q0 77 45 122t120 45z" />
    <glyph glyph-name="four.smcp" horiz-adv-x="468" 
d="M356 183h75v-80h-75v-103h-89v103h-234v71l218 365h105v-356zM252 391l-127 -209h144v241z" />
    <glyph glyph-name="five.smcp" horiz-adv-x="454" 
d="M383 456h-222v-132q34 17 85 17q75 0 121 -43t46 -124q0 -83 -48.5 -133.5t-131.5 -50.5q-82 0 -129.5 42t-47.5 121h89q0 -41 23.5 -61t64.5 -20q43 0 67 26.5t24 70.5q0 45 -24.5 70.5t-67.5 25.5q-49 0 -81 -21h-79v295h311v-83z" />
    <glyph glyph-name="six.smcp" horiz-adv-x="466" 
d="M254 334q77 0 122.5 -46.5t45.5 -120.5q0 -79 -50 -128t-130 -49q-87 0 -136 55q-57 62 -57 212q0 146 47.5 219t148.5 73q71 0 117 -42.5t49 -113.5h-90q-6 74 -79 74q-103 0 -104 -183q16 22 48 36t68 14zM240 71q40 0 66 27.5t26 68.5q0 38 -26 65.5t-66 27.5
q-39 0 -67.5 -27t-28.5 -66t26.5 -67.5t69.5 -28.5z" />
    <glyph glyph-name="seven.smcp" horiz-adv-x="421" 
d="M381 467l-216 -467h-96l212 456h-239v83h339v-72z" />
    <glyph glyph-name="eight.smcp" horiz-adv-x="465" 
d="M233 549q74 0 119.5 -45t45.5 -111q0 -42 -20 -72t-45 -44q83 -39 83 -126q0 -69 -52.5 -115t-130.5 -46t-131 46t-53 115q0 47 23.5 79.5t58.5 46.5q-25 14 -44.5 44t-19.5 72q0 66 45.5 111t120.5 45zM233 467q-35 0 -57 -21.5t-22 -55.5t22 -54.5t57 -20.5t56.5 20.5
t21.5 54.5t-22 55.5t-56 21.5zM233 239q-40 0 -67 -23t-27 -62q0 -38 27 -60t67 -22q39 0 66 22t27 60t-27.5 61.5t-65.5 23.5z" />
    <glyph glyph-name="nine.smcp" horiz-adv-x="466" 
d="M365 494q57 -62 57 -212q0 -146 -47.5 -219t-148.5 -73q-71 0 -117 42.5t-49 113.5h90q6 -74 79 -74q103 0 104 183q-16 -22 -48 -36t-68 -14q-77 0 -122.5 46.5t-45.5 120.5q0 79 50 128t130 49q87 0 136 -55zM231 279q39 0 67.5 27t28.5 66t-26.5 67.5t-69.5 28.5
q-40 0 -66 -27.5t-26 -68.5q0 -38 26 -65.5t66 -27.5z" />
    <glyph glyph-name="ampersand.smcp" horiz-adv-x="549" 
d="M540 0h-105l-42 44q-63 -54 -155 -54q-91 0 -143.5 41t-52.5 110q0 49 27.5 82t77.5 63l11 6l-13 14q-57 59 -57 117q0 54 40.5 90t108.5 36q67 0 109 -34.5t42 -93.5q0 -37 -17.5 -65.5t-36.5 -42t-55 -34.5l-3 -2l104 -110q4 13 6 27q8 40 0 78l80 5q10 -48 2 -95
q-8 -44 -27 -78zM216 340l8 -9l2 1q48 28 60 44q14 19 14 42q0 29 -16 46.5t-44 17.5t-46 -17t-19 -45q0 -33 41 -80zM240 58q63 0 103 40l-135 141l-4 -2q-37 -24 -54.5 -44t-17.5 -50q0 -43 29 -64t79 -21z" />
    <glyph glyph-name="exclamdown.smcp" horiz-adv-x="229" 
d="M114 436q-24 0 -40.5 15.5t-16.5 38.5t16.5 38.5t40.5 15.5t40 -15.5t16 -38.5t-16 -38.5t-40 -15.5zM72 373h84v-376h-84v376z" />
    <glyph glyph-name="questiondown.smcp" horiz-adv-x="366" 
d="M187 442q-24 0 -40.5 15.5t-16.5 38.5t16.5 38.5t40.5 15.5q23 0 39.5 -15.5t16.5 -38.5t-16.5 -38.5t-39.5 -15.5zM181 -9q-68 0 -115.5 39.5t-47.5 108.5q0 38 13 68t31.5 48t37 33t31.5 32t13 36v23h84v-26q0 -29 -13.5 -52t-32.5 -39t-38 -31.5t-32.5 -38
t-13.5 -50.5q0 -39 22.5 -60.5t59.5 -21.5q40 0 63.5 23t23.5 64h79q-1 -73 -47.5 -114.5t-117.5 -41.5z" />
    <glyph glyph-name="F.smcp_I.smcp" horiz-adv-x="645" 
d="M380 456h-219v-145h186v-82h-186v-229h-89v539h308v-83zM573 0h-89v539h89v-539z" />
    <glyph glyph-name="F.smcp_J.smcp" horiz-adv-x="782" 
d="M380 456h-219v-145h186v-82h-186v-229h-89v539h308v-83zM717 163q0 -81 -44 -125t-119 -44q-86 0 -129 47t-45 130h88q4 -94 84 -94q76 0 76 89v373h89v-376z" />
    <glyph glyph-name="Iogonek.smcp" horiz-adv-x="233" 
d="M168 -130l14 -54q-21 -12 -59 -12q-49 0 -81 30t-32 81q0 65 62 104v520h89v-539h-30q-60 -29 -60 -83q0 -26 14.5 -41t39.5 -15q28 0 43 9z" />
    <glyph glyph-name="Oslashacute.smcp" horiz-adv-x="654" 
d="M506 756l-143 -158h-82l111 158h114zM502 494q105 -80 105 -224q0 -121 -78.5 -200.5t-201.5 -79.5q-61 0 -113 20l-40 -67l-63 33l41 69q-50 38 -78 96.5t-28 128.5q0 121 78 200t203 79q61 0 112 -20l39 65l64 -33zM137 270q0 -93 60 -150l199 336q-33 11 -69 11
q-86 0 -138 -55.5t-52 -141.5zM327 72q85 0 136.5 56t51.5 142q0 93 -58 148l-199 -335q33 -11 69 -11z" />
    <glyph glyph-name="Rcommaaccent.smcp" horiz-adv-x="463" 
d="M321 225l125 -225h-101l-115 210h-69v-210h-89v539h161q87 0 138 -46t51 -122q0 -51 -26.5 -89t-74.5 -57zM161 456v-167h72q46 0 72.5 21.5t26.5 60.5q0 41 -26.5 63t-72.5 22h-72zM253 -35q26 0 43 -18t17 -47q0 -41 -20.5 -85.5t-52.5 -77.5l-25 15q27 44 32 95
q-24 2 -39 18t-15 40q0 25 17.5 42.5t42.5 17.5z" />
    <glyph glyph-name="Aacute.smcp" horiz-adv-x="571" 
d="M320 604h-82l111 158h114zM555 0h-96l-55 132h-236l-54 -132h-97l222 539h94zM275 399l-79 -190h180l-80 190l-10 30z" />
    <glyph glyph-name="Abreve.smcp" horiz-adv-x="571" 
d="M431 738q0 -61 -40 -100t-104 -39t-104 39t-40 100h74q0 -33 19 -55.5t51 -22.5q31 0 50.5 22.5t19.5 55.5h74zM555 0h-96l-55 132h-236l-54 -132h-97l222 539h94zM275 399l-79 -190h180l-80 190l-10 30z" />
    <glyph glyph-name="Acircumflex.smcp" horiz-adv-x="571" 
d="M451 604h-96l-68 92l-68 -92h-96l136 158h56zM555 0h-96l-55 132h-236l-54 -132h-97l222 539h94zM275 399l-79 -190h180l-80 190l-10 30z" />
    <glyph glyph-name="Adieresis.smcp" horiz-adv-x="571" 
d="M193 719q23 0 38.5 -15.5t15.5 -38.5t-15.5 -38.5t-38.5 -15.5t-39 15.5t-16 38.5t16 38.5t39 15.5zM380 719q23 0 39 -15.5t16 -38.5t-16 -38.5t-39 -15.5t-38.5 15.5t-15.5 38.5t16 38.5t38 15.5zM555 0h-96l-55 132h-236l-54 -132h-97l222 539h94zM275 399l-79 -190
h180l-80 190l-10 30z" />
    <glyph glyph-name="Agrave.smcp" horiz-adv-x="571" 
d="M331 604h-82l-143 158h113zM555 0h-96l-55 132h-236l-54 -132h-97l222 539h94zM275 399l-79 -190h180l-80 190l-10 30z" />
    <glyph glyph-name="Amacron.smcp" horiz-adv-x="571" 
d="M418 625h-262v71h262v-71zM555 0h-96l-55 132h-236l-54 -132h-97l222 539h94zM275 399l-79 -190h180l-80 190l-10 30z" />
    <glyph glyph-name="Aring.smcp" horiz-adv-x="571" 
d="M287 792q47 0 76.5 -29.5t29.5 -74.5q0 -43 -29.5 -72.5t-76.5 -29.5q-45 0 -75 29.5t-30 72.5q0 45 29.5 74.5t75.5 29.5zM287 738q-21 0 -34.5 -14t-13.5 -35q0 -20 13.5 -34.5t34.5 -14.5q22 0 35.5 14.5t13.5 34.5q0 21 -13.5 35t-35.5 14zM555 0h-96l-55 132h-236
l-54 -132h-97l222 539h94zM275 399l-79 -190h180l-80 190l-10 30z" />
    <glyph glyph-name="Atilde.smcp" horiz-adv-x="571" 
d="M227 736q28 0 48.5 -11.5t29.5 -25t22 -25t28 -11.5q39 0 39 64h58q0 -58 -26.5 -93t-77.5 -35q-28 0 -48.5 11.5t-29.5 25.5t-22 25.5t-28 11.5q-39 0 -39 -65h-58q0 59 26.5 93.5t77.5 34.5zM555 0h-96l-55 132h-236l-54 -132h-97l222 539h94zM275 399l-79 -190h180
l-80 190l-10 30z" />
    <glyph glyph-name="Cacute.smcp" horiz-adv-x="592" 
d="M346 605h-82l111 158h114zM315 549q98 0 160 -47t86 -130h-98q-34 95 -148 95q-81 0 -131 -55.5t-50 -141.5t50 -142t131 -56q117 0 153 99h94q-48 -181 -247 -181q-121 0 -196.5 79t-75.5 201q0 121 76 200t196 79z" />
    <glyph glyph-name="Ccaron.smcp" horiz-adv-x="592" 
d="M341 594h-56l-136 158h96l68 -92l68 92h96zM315 549q98 0 160 -47t86 -130h-98q-34 95 -148 95q-81 0 -131 -55.5t-50 -141.5t50 -142t131 -56q117 0 153 99h94q-48 -181 -247 -181q-121 0 -196.5 79t-75.5 201q0 121 76 200t196 79z" />
    <glyph glyph-name="Ccircumflex.smcp" horiz-adv-x="592" 
d="M477 605h-96l-68 92l-68 -92h-96l136 158h56zM315 549q98 0 160 -47t86 -130h-98q-34 95 -148 95q-81 0 -131 -55.5t-50 -141.5t50 -142t131 -56q117 0 153 99h94q-48 -181 -247 -181q-121 0 -196.5 79t-75.5 201q0 121 76 200t196 79z" />
    <glyph glyph-name="Cdotaccent.smcp" horiz-adv-x="592" 
d="M313 733q25 0 42.5 -17t17.5 -42q0 -24 -17.5 -41t-42.5 -17t-42 17t-17 41q0 25 17 42t42 17zM315 549q98 0 160 -47t86 -130h-98q-34 95 -148 95q-81 0 -131 -55.5t-50 -141.5t50 -142t131 -56q117 0 153 99h94q-48 -181 -247 -181q-121 0 -196.5 79t-75.5 201
q0 121 76 200t196 79z" />
    <glyph glyph-name="Eacute.smcp" horiz-adv-x="435" 
d="M273 605h-82l111 158h114zM386 456h-225v-138h197v-83h-197v-152h225v-83h-314v539h314v-83z" />
    <glyph glyph-name="Ebreve.smcp" horiz-adv-x="435" 
d="M384 739q0 -61 -40 -100t-104 -39t-104 39t-40 100h74q0 -33 19 -55.5t51 -22.5q31 0 50.5 22.5t19.5 55.5h74zM386 456h-225v-138h197v-83h-197v-152h225v-83h-314v539h314v-83z" />
    <glyph glyph-name="Ecaron.smcp" horiz-adv-x="435" 
d="M268 594h-56l-136 158h96l68 -92l68 92h96zM386 456h-225v-138h197v-83h-197v-152h225v-83h-314v539h314v-83z" />
    <glyph glyph-name="Ecircumflex.smcp" horiz-adv-x="435" 
d="M404 605h-96l-68 92l-68 -92h-96l136 158h56zM386 456h-225v-138h197v-83h-197v-152h225v-83h-314v539h314v-83z" />
    <glyph glyph-name="Edieresis.smcp" horiz-adv-x="435" 
d="M146 720q22 0 38 -16t16 -38q0 -23 -15.5 -38.5t-38.5 -15.5t-39 15.5t-16 38.5t16 38.5t39 15.5zM333 720q23 0 39 -15.5t16 -38.5t-16 -38.5t-39 -15.5t-38.5 15.5t-15.5 38.5q0 22 15.5 38t38.5 16zM386 456h-225v-138h197v-83h-197v-152h225v-83h-314v539h314v-83z
" />
    <glyph glyph-name="Edotaccent.smcp" horiz-adv-x="435" 
d="M240 733q25 0 42.5 -17t17.5 -42q0 -24 -17.5 -41t-42.5 -17t-42 17t-17 41q0 25 17 42t42 17zM386 456h-225v-138h197v-83h-197v-152h225v-83h-314v539h314v-83z" />
    <glyph glyph-name="Egrave.smcp" horiz-adv-x="435" 
d="M284 605h-82l-143 158h113zM386 456h-225v-138h197v-83h-197v-152h225v-83h-314v539h314v-83z" />
    <glyph glyph-name="Emacron.smcp" horiz-adv-x="435" 
d="M371 626h-262v71h262v-71zM386 456h-225v-138h197v-83h-197v-152h225v-83h-314v539h314v-83z" />
    <glyph glyph-name="Gbreve.smcp" horiz-adv-x="626" 
d="M460 739q0 -61 -40 -100t-104 -39t-104 39t-40 100h74q0 -33 19 -55.5t51 -22.5q31 0 50.5 22.5t19.5 55.5h74zM322 549q99 0 163.5 -47.5t88.5 -129.5h-98q-36 95 -156 95q-81 0 -133 -56t-52 -141q0 -86 53 -142t136 -56q72 0 115 33t46 96h-153v83h248v-42
q0 -118 -69.5 -185t-186.5 -67q-123 0 -201.5 79.5t-78.5 200.5t78 200t200 79z" />
    <glyph glyph-name="Gcircumflex.smcp" horiz-adv-x="626" 
d="M480 605h-96l-68 92l-68 -92h-96l136 158h56zM322 549q99 0 163.5 -47.5t88.5 -129.5h-98q-36 95 -156 95q-81 0 -133 -56t-52 -141q0 -86 53 -142t136 -56q72 0 115 33t46 96h-153v83h248v-42q0 -118 -69.5 -185t-186.5 -67q-123 0 -201.5 79.5t-78.5 200.5t78 200
t200 79z" />
    <glyph glyph-name="Gdotaccent.smcp" horiz-adv-x="626" 
d="M316 733q25 0 42.5 -17t17.5 -42q0 -24 -17.5 -41t-42.5 -17t-42 17t-17 41q0 25 17 42t42 17zM322 549q99 0 163.5 -47.5t88.5 -129.5h-98q-36 95 -156 95q-81 0 -133 -56t-52 -141q0 -86 53 -142t136 -56q72 0 115 33t46 96h-153v83h248v-42q0 -118 -69.5 -185
t-186.5 -67q-123 0 -201.5 79.5t-78.5 200.5t78 200t200 79z" />
    <glyph glyph-name="Hcircumflex.smcp" horiz-adv-x="594" 
d="M462 605h-96l-68 92l-68 -92h-96l136 158h56zM522 0h-89v237h-272v-237h-89v539h89v-219h272v219h89v-539z" />
    <glyph glyph-name="Iacute.smcp" horiz-adv-x="233" 
d="M152 603h-82l111 158h114zM161 0h-89v539h89v-539z" />
    <glyph glyph-name="Ibreve.smcp" horiz-adv-x="233" 
d="M263 737q0 -61 -40 -100t-104 -39t-104 39t-40 100h74q0 -33 19 -55.5t51 -22.5q31 0 50.5 22.5t19.5 55.5h74zM161 0h-89v539h89v-539z" />
    <glyph glyph-name="Idotaccent.smcp" horiz-adv-x="233" 
d="M119 731q25 0 42.5 -17t17.5 -42q0 -24 -17.5 -41t-42.5 -17t-42 17t-17 41q0 25 17 42t42 17zM161 0h-89v539h89v-539z" />
    <glyph glyph-name="Icircumflex.smcp" horiz-adv-x="233" 
d="M283 603h-96l-68 92l-68 -92h-96l136 158h56zM161 0h-89v539h89v-539z" />
    <glyph glyph-name="Idieresis.smcp" horiz-adv-x="233" 
d="M25 718q23 0 38.5 -16t15.5 -38q0 -23 -15.5 -38.5t-38.5 -15.5t-39 15.5t-16 38.5t16 38.5t39 15.5zM212 718q23 0 39 -15.5t16 -38.5t-16 -38.5t-39 -15.5t-38.5 15.5t-15.5 38.5q0 22 16 38t38 16zM161 0h-89v539h89v-539z" />
    <glyph glyph-name="Igrave.smcp" horiz-adv-x="233" 
d="M163 603h-82l-143 158h113zM161 0h-89v539h89v-539z" />
    <glyph glyph-name="Imacron.smcp" horiz-adv-x="233" 
d="M250 624h-262v71h262v-71zM161 0h-89v539h89v-539z" />
    <glyph glyph-name="Itilde.smcp" horiz-adv-x="233" 
d="M59 735q28 0 48.5 -11.5t29.5 -25t22 -25t28 -11.5q39 0 39 64h58q0 -58 -26.5 -93t-77.5 -35q-28 0 -48.5 11.5t-29.5 25.5t-22 25.5t-28 11.5q-39 0 -39 -65h-58q0 59 26.5 93.5t77.5 34.5zM161 0h-89v539h89v-539z" />
    <glyph glyph-name="Jcircumflex.smcp" horiz-adv-x="428" 
d="M485 603h-96l-68 92l-68 -92h-96l136 158h56zM363 163q0 -81 -44 -125t-119 -44q-86 0 -129 47t-45 130h88q4 -94 84 -94q76 0 76 89v373h89v-376z" />
    <glyph glyph-name="Lacute.smcp" horiz-adv-x="425" 
d="M152 605h-82l111 158h114zM160 83h243v-83h-331v539h88v-456z" />
    <glyph glyph-name="Nacute.smcp" horiz-adv-x="600" 
d="M342 603h-82l111 158h114zM528 0h-87l-258 355l-22 35v-390h-89v539h88l257 -355l22 -36v391h89v-539z" />
    <glyph glyph-name="Ncaron.smcp" horiz-adv-x="600" 
d="M337 592h-56l-136 158h96l68 -92l68 92h96zM528 0h-87l-258 355l-22 35v-390h-89v539h88l257 -355l22 -36v391h89v-539z" />
    <glyph glyph-name="Ncommaaccent.smcp" horiz-adv-x="600" 
d="M528 0h-87l-258 355l-22 35v-390h-89v539h88l257 -355l22 -36v391h89v-539zM300 -35q26 0 43 -18t17 -47q0 -41 -20.5 -85.5t-52.5 -77.5l-25 15q28 44 32 95q-24 2 -39 18t-15 40q0 25 17 42.5t43 17.5z" />
    <glyph glyph-name="Ntilde.smcp" horiz-adv-x="600" 
d="M249 735q28 0 48.5 -11.5t29.5 -25t22 -25t28 -11.5q39 0 39 64h58q0 -58 -26.5 -93t-77.5 -35q-28 0 -48.5 11.5t-29.5 25.5t-22 25.5t-28 11.5q-39 0 -39 -65h-58q0 59 26.5 93.5t77.5 34.5zM528 0h-87l-258 355l-22 35v-390h-89v539h88l257 -355l22 -36v391h89v-539z
" />
    <glyph glyph-name="Oacute.smcp" horiz-adv-x="647" 
d="M358 605h-82l111 158h114zM324 549q124 0 202 -79t78 -200t-78.5 -200.5t-201.5 -79.5q-125 0 -203 79.5t-78 200.5t78 200t203 79zM324 467q-86 0 -138 -55.5t-52 -141.5t52 -142t138 -56q85 0 136.5 56t51.5 142t-51.5 141.5t-136.5 55.5z" />
    <glyph glyph-name="Obreve.smcp" horiz-adv-x="647" 
d="M469 739q0 -61 -40 -100t-104 -39t-104 39t-40 100h74q0 -33 19 -55.5t51 -22.5q31 0 50.5 22.5t19.5 55.5h74zM324 549q124 0 202 -79t78 -200t-78.5 -200.5t-201.5 -79.5q-125 0 -203 79.5t-78 200.5t78 200t203 79zM324 467q-86 0 -138 -55.5t-52 -141.5t52 -142
t138 -56q85 0 136.5 56t51.5 142t-51.5 141.5t-136.5 55.5z" />
    <glyph glyph-name="Ocircumflex.smcp" horiz-adv-x="647" 
d="M489 605h-96l-68 92l-68 -92h-96l136 158h56zM324 549q124 0 202 -79t78 -200t-78.5 -200.5t-201.5 -79.5q-125 0 -203 79.5t-78 200.5t78 200t203 79zM324 467q-86 0 -138 -55.5t-52 -141.5t52 -142t138 -56q85 0 136.5 56t51.5 142t-51.5 141.5t-136.5 55.5z" />
    <glyph glyph-name="Odieresis.smcp" horiz-adv-x="647" 
d="M231 720q23 0 38.5 -16t15.5 -38q0 -23 -15.5 -38.5t-38.5 -15.5t-39 15.5t-16 38.5t16 38.5t39 15.5zM418 720q23 0 39 -15.5t16 -38.5t-16 -38.5t-39 -15.5t-38.5 15.5t-15.5 38.5q0 22 16 38t38 16zM324 549q124 0 202 -79t78 -200t-78.5 -200.5t-201.5 -79.5
q-125 0 -203 79.5t-78 200.5t78 200t203 79zM324 467q-86 0 -138 -55.5t-52 -141.5t52 -142t138 -56q85 0 136.5 56t51.5 142t-51.5 141.5t-136.5 55.5z" />
    <glyph glyph-name="Ograve.smcp" horiz-adv-x="647" 
d="M369 605h-82l-143 158h113zM324 549q124 0 202 -79t78 -200t-78.5 -200.5t-201.5 -79.5q-125 0 -203 79.5t-78 200.5t78 200t203 79zM324 467q-86 0 -138 -55.5t-52 -141.5t52 -142t138 -56q85 0 136.5 56t51.5 142t-51.5 141.5t-136.5 55.5z" />
    <glyph glyph-name="Ohungarumlaut.smcp" horiz-adv-x="647" 
d="M272 605h-77l84 158h97zM441 605h-77l84 158h97zM324 549q124 0 202 -79t78 -200t-78.5 -200.5t-201.5 -79.5q-125 0 -203 79.5t-78 200.5t78 200t203 79zM324 467q-86 0 -138 -55.5t-52 -141.5t52 -142t138 -56q85 0 136.5 56t51.5 142t-51.5 141.5t-136.5 55.5z" />
    <glyph glyph-name="Omacron.smcp" horiz-adv-x="647" 
d="M456 626h-262v71h262v-71zM324 549q124 0 202 -79t78 -200t-78.5 -200.5t-201.5 -79.5q-125 0 -203 79.5t-78 200.5t78 200t203 79zM324 467q-86 0 -138 -55.5t-52 -141.5t52 -142t138 -56q85 0 136.5 56t51.5 142t-51.5 141.5t-136.5 55.5z" />
    <glyph glyph-name="Otilde.smcp" horiz-adv-x="647" 
d="M265 737q28 0 48.5 -11.5t29.5 -25t22 -25t28 -11.5q39 0 39 64h58q0 -58 -26.5 -93t-77.5 -35q-28 0 -48.5 11.5t-29.5 25.5t-22 25.5t-28 11.5q-39 0 -39 -65h-58q0 59 26.5 93.5t77.5 34.5zM324 549q124 0 202 -79t78 -200t-78.5 -200.5t-201.5 -79.5
q-125 0 -203 79.5t-78 200.5t78 200t203 79zM324 467q-86 0 -138 -55.5t-52 -141.5t52 -142t138 -56q85 0 136.5 56t51.5 142t-51.5 141.5t-136.5 55.5z" />
    <glyph glyph-name="Racute.smcp" horiz-adv-x="463" 
d="M412 761l-143 -158h-82l111 158h114zM446 0h-101l-115 210h-69v-210h-89v539h161q87 0 138 -46t51 -122q0 -51 -26.5 -89t-74.5 -57zM161 456v-167h72q46 0 72.5 21.5t26.5 60.5q0 41 -26.5 63t-72.5 22h-72z" />
    <glyph glyph-name="Rcaron.smcp" horiz-adv-x="463" 
d="M264 592h-56l-136 158h96l68 -92l68 92h96zM446 0h-101l-115 210h-69v-210h-89v539h161q87 0 138 -46t51 -122q0 -51 -26.5 -89t-74.5 -57zM161 456v-167h72q46 0 72.5 21.5t26.5 60.5q0 41 -26.5 63t-72.5 22h-72z" />
    <glyph glyph-name="Sacute.smcp" horiz-adv-x="446" 
d="M260 603h-82l111 158h114zM224 549q76 0 121 -40t48 -116h-90q-1 37 -23 57t-59 20q-36 0 -56 -18t-20 -51t22.5 -50.5t82.5 -37.5q87 -30 123 -66.5t36 -96.5q0 -75 -49.5 -117.5t-128.5 -42.5q-90 0 -139.5 47t-50.5 125h89q3 -94 102 -94q42 0 65 21t23 54
q0 30 -25 50t-84 39q-80 27 -117.5 62.5t-37.5 99.5q0 68 44.5 111.5t123.5 43.5z" />
    <glyph glyph-name="Scaron.smcp" horiz-adv-x="446" 
d="M255 592h-56l-136 158h96l68 -92l68 92h96zM224 549q76 0 121 -40t48 -116h-90q-1 37 -23 57t-59 20q-36 0 -56 -18t-20 -51t22.5 -50.5t82.5 -37.5q87 -30 123 -66.5t36 -96.5q0 -75 -49.5 -117.5t-128.5 -42.5q-90 0 -139.5 47t-50.5 125h89q3 -94 102 -94q42 0 65 21
t23 54q0 30 -25 50t-84 39q-80 27 -117.5 62.5t-37.5 99.5q0 68 44.5 111.5t123.5 43.5z" />
    <glyph glyph-name="Scircumflex.smcp" horiz-adv-x="446" 
d="M391 603h-96l-68 92l-68 -92h-96l136 158h56zM224 549q76 0 121 -40t48 -116h-90q-1 37 -23 57t-59 20q-36 0 -56 -18t-20 -51t22.5 -50.5t82.5 -37.5q87 -30 123 -66.5t36 -96.5q0 -75 -49.5 -117.5t-128.5 -42.5q-90 0 -139.5 47t-50.5 125h89q3 -94 102 -94
q42 0 65 21t23 54q0 30 -25 50t-84 39q-80 27 -117.5 62.5t-37.5 99.5q0 68 44.5 111.5t123.5 43.5z" />
    <glyph glyph-name="Tcaron.smcp" horiz-adv-x="490" 
d="M275 592h-56l-136 158h96l68 -92l68 92h96zM480 456h-191v-456h-88v456h-192v83h471v-83z" />
    <glyph glyph-name="Uacute.smcp" horiz-adv-x="576" 
d="M322 603h-82l111 158h114zM511 215q0 -108 -58 -166.5t-164 -58.5q-107 0 -165.5 58.5t-58.5 166.5v324h89v-324q0 -143 135 -143q133 0 133 143v324h89v-324z" />
    <glyph glyph-name="Ubreve.smcp" horiz-adv-x="576" 
d="M433 737q0 -61 -40 -100t-104 -39t-104 39t-40 100h74q0 -33 19 -55.5t51 -22.5q31 0 50.5 22.5t19.5 55.5h74zM511 215q0 -108 -58 -166.5t-164 -58.5q-107 0 -165.5 58.5t-58.5 166.5v324h89v-324q0 -143 135 -143q133 0 133 143v324h89v-324z" />
    <glyph glyph-name="Ucircumflex.smcp" horiz-adv-x="576" 
d="M453 603h-96l-68 92l-68 -92h-96l136 158h56zM511 215q0 -108 -58 -166.5t-164 -58.5q-107 0 -165.5 58.5t-58.5 166.5v324h89v-324q0 -143 135 -143q133 0 133 143v324h89v-324z" />
    <glyph glyph-name="Udieresis.smcp" horiz-adv-x="576" 
d="M195 718q23 0 38.5 -16t15.5 -38q0 -23 -15.5 -38.5t-38.5 -15.5t-39 15.5t-16 38.5t16 38.5t39 15.5zM382 718q23 0 39 -15.5t16 -38.5t-16 -38.5t-39 -15.5t-38.5 15.5t-15.5 38.5q0 22 16 38t38 16zM511 215q0 -108 -58 -166.5t-164 -58.5q-107 0 -165.5 58.5
t-58.5 166.5v324h89v-324q0 -143 135 -143q133 0 133 143v324h89v-324z" />
    <glyph glyph-name="Ugrave.smcp" horiz-adv-x="576" 
d="M333 603h-82l-143 158h113zM511 215q0 -108 -58 -166.5t-164 -58.5q-107 0 -165.5 58.5t-58.5 166.5v324h89v-324q0 -143 135 -143q133 0 133 143v324h89v-324z" />
    <glyph glyph-name="Uhungarumlaut.smcp" horiz-adv-x="576" 
d="M236 603h-77l84 158h97zM405 603h-77l84 158h97zM511 215q0 -108 -58 -166.5t-164 -58.5q-107 0 -165.5 58.5t-58.5 166.5v324h89v-324q0 -143 135 -143q133 0 133 143v324h89v-324z" />
    <glyph glyph-name="Umacron.smcp" horiz-adv-x="576" 
d="M420 624h-262v71h262v-71zM511 215q0 -108 -58 -166.5t-164 -58.5q-107 0 -165.5 58.5t-58.5 166.5v324h89v-324q0 -143 135 -143q133 0 133 143v324h89v-324z" />
    <glyph glyph-name="Uring.smcp" horiz-adv-x="576" 
d="M289 791q47 0 76.5 -29.5t29.5 -74.5q0 -43 -29.5 -72.5t-76.5 -29.5q-45 0 -75 29.5t-30 72.5q0 45 29.5 74.5t75.5 29.5zM289 737q-21 0 -34.5 -14t-13.5 -35q0 -20 13.5 -34.5t34.5 -14.5q22 0 35.5 14.5t13.5 34.5q0 21 -13.5 35t-35.5 14zM511 215
q0 -108 -58 -166.5t-164 -58.5q-107 0 -165.5 58.5t-58.5 166.5v324h89v-324q0 -143 135 -143q133 0 133 143v324h89v-324z" />
    <glyph glyph-name="Utilde.smcp" horiz-adv-x="576" 
d="M229 735q28 0 48.5 -11.5t29.5 -25t22 -25t28 -11.5q39 0 39 64h58q0 -58 -26.5 -93t-77.5 -35q-28 0 -48.5 11.5t-29.5 25.5t-22 25.5t-28 11.5q-39 0 -39 -65h-58q0 59 26.5 93.5t77.5 34.5zM511 215q0 -108 -58 -166.5t-164 -58.5q-107 0 -165.5 58.5t-58.5 166.5v324
h89v-324q0 -143 135 -143q133 0 133 143v324h89v-324z" />
    <glyph glyph-name="Wacute.smcp" horiz-adv-x="803" 
d="M435 605h-82l111 158h114zM611 0h-91l-110 341l-8 36l-9 -36l-110 -341h-89l-176 539h93l121 -367l8 -39l8 39l115 367h78l115 -367l7 -39l10 39l119 367h93z" />
    <glyph glyph-name="Wcircumflex.smcp" horiz-adv-x="803" 
d="M566 605h-96l-68 92l-68 -92h-96l136 158h56zM611 0h-91l-110 341l-8 36l-9 -36l-110 -341h-89l-176 539h93l121 -367l8 -39l8 39l115 367h78l115 -367l7 -39l10 39l119 367h93z" />
    <glyph glyph-name="Wdieresis.smcp" horiz-adv-x="803" 
d="M308 720q22 0 38 -16t16 -38q0 -23 -15.5 -38.5t-38.5 -15.5t-39 15.5t-16 38.5t16 38.5t39 15.5zM495 720q23 0 39 -15.5t16 -38.5t-16 -38.5t-39 -15.5t-38.5 15.5t-15.5 38.5q0 22 15.5 38t38.5 16zM611 0h-91l-110 341l-8 36l-9 -36l-110 -341h-89l-176 539h93
l121 -367l8 -39l8 39l115 367h78l115 -367l7 -39l10 39l119 367h93z" />
    <glyph glyph-name="Wgrave.smcp" horiz-adv-x="803" 
d="M446 605h-82l-143 158h113zM611 0h-91l-110 341l-8 36l-9 -36l-110 -341h-89l-176 539h93l121 -367l8 -39l8 39l115 367h78l115 -367l7 -39l10 39l119 367h93z" />
    <glyph glyph-name="Yacute.smcp" horiz-adv-x="550" 
d="M307 605h-82l111 158h114zM319 202v-202h-89v202l-217 337h103l138 -214l21 -37l21 37l138 214h102z" />
    <glyph glyph-name="Ycircumflex.smcp" horiz-adv-x="550" 
d="M438 605h-96l-68 92l-68 -92h-96l136 158h56zM319 202v-202h-89v202l-217 337h103l138 -214l21 -37l21 37l138 214h102z" />
    <glyph glyph-name="Ydieresis.smcp" horiz-adv-x="550" 
d="M180 720q22 0 38 -16t16 -38q0 -23 -15.5 -38.5t-38.5 -15.5t-39 15.5t-16 38.5t16 38.5t39 15.5zM367 720q23 0 39 -15.5t16 -38.5t-16 -38.5t-39 -15.5t-38.5 15.5t-15.5 38.5q0 22 15.5 38t38.5 16zM319 202v-202h-89v202l-217 337h103l138 -214l21 -37l21 37l138 214
h102z" />
    <glyph glyph-name="Ygrave.smcp" horiz-adv-x="550" 
d="M318 605h-82l-143 158h113zM319 202v-202h-89v202l-217 337h103l138 -214l21 -37l21 37l138 214h102z" />
    <glyph glyph-name="Zacute.smcp" horiz-adv-x="486" 
d="M285 605h-82l111 158h114zM442 467l-292 -384h302v-83h-416v72l293 384h-290v83h403v-72z" />
    <glyph glyph-name="Zcaron.smcp" horiz-adv-x="486" 
d="M280 594h-56l-136 158h96l68 -92l68 92h96zM442 467l-292 -384h302v-83h-416v72l293 384h-290v83h403v-72z" />
    <glyph glyph-name="Zdotaccent.smcp" horiz-adv-x="486" 
d="M252 733q25 0 42.5 -17t17.5 -42q0 -24 -17.5 -41t-42.5 -17t-42 17t-17 41q0 25 17 42t42 17zM442 467l-292 -384h302v-83h-416v72l293 384h-290v83h403v-72z" />
    <glyph glyph-name="Dotlessi.sc" horiz-adv-x="598" 
 />
    <glyph glyph-name="I.sc" horiz-adv-x="598" 
 />
    </font>
</defs>
</svg>
